<svg width="50" height="50" viewBox="0 0 50 50" fill="none" xmlns="http://www.w3.org/2000/svg">
<path d="M25 13.2812C26.2944 13.2812 27.3438 12.2319 27.3438 10.9375C27.3438 9.64308 26.2944 8.59375 25 8.59375C23.7056 8.59375 22.6562 9.64308 22.6562 10.9375C22.6562 12.2319 23.7056 13.2812 25 13.2812Z" fill="#2C8981"/>
<path d="M3.12499 19.5312H46.875C48.2766 19.5312 49.5062 18.5984 49.8844 17.2484C50.2625 15.8984 49.6953 14.4625 48.4976 13.7352L26.6226 0.453906C26.1234 0.150781 25.5617 0 25 0C24.4383 0 23.8766 0.150781 23.3781 0.453906L1.50312 13.7352C0.305459 14.4625 -0.26251 15.8992 0.116396 17.2484C0.49374 18.5984 1.72343 19.5312 3.12499 19.5312ZM25 7.03125C27.1578 7.03125 28.9062 8.77969 28.9062 10.9375C28.9062 13.0953 27.1578 14.8438 25 14.8438C22.8422 14.8438 21.0937 13.0953 21.0937 10.9375C21.0937 8.77969 22.8422 7.03125 25 7.03125Z" fill="#2C8981"/>
<path d="M32.8125 21.0938H26.5625V40.625H32.8125V21.0938Z" fill="#2C8981"/>
<path d="M42.1875 21.0938H35.9375V40.625H42.1875V21.0938Z" fill="#2C8981"/>
<path d="M23.4375 21.0938H17.1875V40.625H23.4375V21.0938Z" fill="#2C8981"/>
<path d="M14.0625 21.0938H7.8125V40.625H14.0625V21.0938Z" fill="#2C8981"/>
<path d="M3.125 45.3125H46.875C46.875 43.5867 45.4758 42.1875 43.75 42.1875H6.25C4.52422 42.1875 3.125 43.5867 3.125 45.3125Z" fill="#2C8981"/>
<path d="M49.5664 46.875H0.433594C0.164844 47.3367 0 47.8656 0 48.4375V50H50V48.4375C50 47.8656 49.8352 47.3367 49.5664 46.875Z" fill="#2C8981"/>
</svg>
