<svg width="50" height="57" viewBox="0 0 50 57" fill="none" xmlns="http://www.w3.org/2000/svg">
<g filter="url(#filter0_d_291_13548)">
<path d="M26.8364 49H8.39633C7.22362 48.9927 6.1018 48.5246 5.27744 47.6985C4.45307 46.8723 3.99362 45.7558 4.00007 44.5943V5.40571C3.99546 4.24415 4.45598 3.12816 5.28069 2.30232C6.10541 1.47648 7.22706 1.00816 8.3998 1H41.5899C42.7638 1.00906 43.8862 1.47919 44.7104 2.30716C45.5347 3.13513 45.9935 4.25325 45.9861 5.416V27.1531C45.9963 27.369 45.9621 27.5846 45.8856 27.7869C45.8092 27.9893 45.6922 28.1742 45.5415 28.3304C45.3909 28.4867 45.2098 28.6111 45.0093 28.696C44.8088 28.781 44.5929 28.8249 44.3748 28.8249C44.1566 28.8249 43.9408 28.781 43.7402 28.696C43.5397 28.6111 43.3586 28.4867 43.208 28.3304C43.0574 28.1742 42.9403 27.9893 42.8639 27.7869C42.7875 27.5846 42.7533 27.369 42.7634 27.1531V5.42286C42.7689 5.10757 42.6483 4.80291 42.4277 4.57548C42.2072 4.34805 41.9047 4.21634 41.5864 4.20914H8.40326C8.24612 4.21182 8.09106 4.24518 7.94697 4.30733C7.80288 4.36948 7.67259 4.45918 7.56357 4.5713C7.45455 4.68342 7.36895 4.81575 7.31167 4.9607C7.25439 5.10565 7.22655 5.26037 7.22977 5.416V44.6046C7.22469 44.7594 7.25081 44.9136 7.3066 45.0583C7.36239 45.203 7.44673 45.3352 7.55469 45.4472C7.66265 45.5593 7.79207 45.6489 7.93539 45.7108C8.07871 45.7728 8.23306 45.8058 8.38941 45.808H26.8364C27.2509 45.8266 27.6422 46.0026 27.929 46.2995C28.2159 46.5965 28.3761 46.9914 28.3766 47.4024C28.377 47.8133 28.2176 48.2086 27.9314 48.5061C27.6452 48.8037 27.2543 48.9805 26.8399 49H26.8364ZM37.4567 16.8057H12.5364C12.1082 16.8057 11.6974 16.6372 11.3946 16.3373C11.0917 16.0373 10.9216 15.6305 10.9216 15.2063C10.9216 14.7821 11.0917 14.3753 11.3946 14.0753C11.6974 13.7754 12.1082 13.6069 12.5364 13.6069H37.4602C37.8884 13.6069 38.2992 13.7754 38.602 14.0753C38.9049 14.3753 39.075 14.7821 39.075 15.2063C39.075 15.6305 38.9049 16.0373 38.602 16.3373C38.2992 16.6372 37.8884 16.8057 37.4602 16.8057H37.4567ZM26.3795 25.2057H12.5364C12.1082 25.2057 11.6974 25.0372 11.3946 24.7373C11.0917 24.4373 10.9216 24.0305 10.9216 23.6063C10.9216 23.1821 11.0917 22.7753 11.3946 22.4753C11.6974 22.1754 12.1082 22.0069 12.5364 22.0069H26.3795C26.5913 22.0069 26.8011 22.0482 26.9968 22.1285C27.1925 22.2088 27.3703 22.3265 27.5201 22.4748C27.6699 22.6232 27.7888 22.7993 27.8698 22.9932C27.9509 23.187 27.9926 23.3948 27.9926 23.6046C27.9926 23.8144 27.9509 24.0221 27.8698 24.216C27.7888 24.4098 27.6699 24.586 27.5201 24.7343C27.3703 24.8827 27.1925 25.0004 26.9968 25.0807C26.8011 25.161 26.5913 25.2023 26.3795 25.2023V25.2057ZM36.0721 46.2023C30.6027 46.2023 26.151 41.7109 26.151 36.2046C26.151 35.7804 26.3212 35.3736 26.624 35.0736C26.9268 34.7737 27.3376 34.6051 27.7659 34.6051C28.1942 34.6051 28.6049 34.7737 28.9077 35.0736C29.2106 35.3736 29.3807 35.7804 29.3807 36.2046C29.3807 39.9554 32.3854 43.0069 36.0651 43.0069C37.0067 43.0069 37.9171 42.808 38.7721 42.424C39.1581 42.2702 39.5892 42.2698 39.9755 42.4228C40.3619 42.5757 40.6738 42.8704 40.8464 43.2454C41.0189 43.6204 41.0389 44.0468 40.9021 44.436C40.7652 44.8252 40.4822 45.1471 40.1118 45.3349C38.8379 45.9074 37.4809 46.2023 36.0721 46.2023ZM44.38 37.8023C43.9521 37.8023 43.5418 37.634 43.2393 37.3343C42.9368 37.0347 42.7668 36.6283 42.7668 36.2046C42.7668 32.4537 39.7621 29.4023 36.079 29.4023C35.1963 29.4023 34.3274 29.5737 33.5174 29.9166C33.1283 30.0584 32.6991 30.0467 32.3185 29.8839C31.9378 29.7212 31.6349 29.4198 31.4722 29.0421C31.3096 28.6645 31.2996 28.2393 31.4444 27.8546C31.5893 27.4698 31.8778 27.1549 32.2504 26.9749C33.4612 26.4656 34.7635 26.2044 36.079 26.2069C41.5483 26.2069 46 30.6983 46 36.2046C45.9973 36.6287 45.8255 37.0345 45.5221 37.3337C45.2186 37.633 44.8081 37.8014 44.38 37.8023ZM33.3027 32.2H30.53C30.2561 32.1999 29.9868 32.1305 29.7475 31.9985C29.5083 31.8665 29.3069 31.6763 29.1626 31.4457C29.0185 31.2151 28.9353 30.9522 28.9208 30.6814C28.9063 30.4105 28.9609 30.1404 29.0796 29.896L30.4642 27.0914C30.5947 26.8199 30.8002 26.5905 31.0569 26.4299C31.3136 26.2693 31.611 26.184 31.9146 26.184C32.2183 26.184 32.5157 26.2693 32.7724 26.4299C33.0291 26.5905 33.2346 26.8199 33.3651 27.0914L34.7497 29.896C34.8711 30.1396 34.9275 30.4099 34.9136 30.6811C34.8997 30.9524 34.8158 31.2156 34.6701 31.4457C34.5268 31.6772 34.3257 31.8682 34.0862 32.0003C33.8467 32.1324 33.5769 32.2012 33.3027 32.2ZM40.2018 46.6411H40.1464C39.872 46.6336 39.6042 46.5565 39.3685 46.4172C39.1327 46.278 38.9369 46.0812 38.7998 45.8457L37.4152 43.4731C37.2791 43.238 37.2056 42.9726 37.2014 42.7017C37.1972 42.4307 37.2625 42.1632 37.3912 41.924C37.5198 41.6849 37.7077 41.482 37.9371 41.3344C38.1665 41.1868 38.43 41.0993 38.7029 41.08L41.8426 40.864C42.4588 40.8263 43.0403 41.1383 43.3519 41.6594C43.5027 41.9189 43.5775 42.2149 43.5677 42.5141C43.5579 42.8133 43.464 43.1039 43.2965 43.3531L41.5414 45.9383C41.3934 46.1552 41.1938 46.3327 40.9602 46.4553C40.7266 46.5779 40.4661 46.6417 40.2018 46.6411Z" fill="#2C8981"/>
</g>
<defs>
<filter id="filter0_d_291_13548" x="-4" y="0" width="58" height="58" filterUnits="userSpaceOnUse" color-interpolation-filters="sRGB">
<feFlood flood-opacity="0" result="BackgroundImageFix"/>
<feColorMatrix in="SourceAlpha" type="matrix" values="0 0 0 0 0 0 0 0 0 0 0 0 0 0 0 0 0 0 127 0" result="hardAlpha"/>
<feOffset dy="4"/>
<feGaussianBlur stdDeviation="2"/>
<feComposite in2="hardAlpha" operator="out"/>
<feColorMatrix type="matrix" values="0 0 0 0 0 0 0 0 0 0 0 0 0 0 0 0 0 0 0.25 0"/>
<feBlend mode="normal" in2="BackgroundImageFix" result="effect1_dropShadow_291_13548"/>
<feBlend mode="normal" in="SourceGraphic" in2="effect1_dropShadow_291_13548" result="shape"/>
</filter>
</defs>
</svg>
