<svg width="560" height="420" viewBox="0 0 560 420" fill="none" xmlns="http://www.w3.org/2000/svg">
<path d="M521.305 247.46H385.428C376.366 247.46 369.017 239.402 369.017 229.474C369.017 219.546 376.366 211.488 385.428 211.488H521.318C530.38 211.488 537.729 203.43 537.729 193.502C537.729 183.574 530.38 175.516 521.318 175.516H467.044C476.105 175.516 483.454 167.457 483.454 157.53C483.454 147.602 476.105 139.543 467.044 139.543H377.091C368.03 139.543 360.681 131.485 360.681 121.557C360.681 111.629 368.03 103.571 377.091 103.571H438.82C447.881 103.571 455.23 95.5131 455.23 85.5852C455.23 75.6573 447.881 67.5991 438.82 67.5991H38.6807C29.6195 67.5991 22.2705 75.6573 22.2705 85.5852C22.2705 95.5131 29.6195 103.571 38.6807 103.571H66.9046C57.8434 103.571 50.4944 111.629 50.4944 121.557C50.4944 131.485 57.8434 139.543 66.9046 139.543H131.597C140.658 139.543 148.007 147.602 148.007 157.53C148.007 167.457 140.658 175.516 131.597 175.516H66.9046C57.8434 175.516 50.4944 183.574 50.4944 193.502C50.4944 203.443 57.8434 211.488 66.9046 211.488H198.897C207.958 211.488 215.307 219.546 215.307 229.474C215.307 239.402 207.958 247.46 198.897 247.46H66.9046C57.8434 247.46 50.4944 255.518 50.4944 265.446C50.4944 275.374 57.8434 283.432 66.9046 283.432H103.373C112.434 283.432 119.783 291.49 119.783 301.418C119.783 311.359 112.434 319.404 103.373 319.404H38.6807C29.6195 319.404 22.2705 327.462 22.2705 337.39C22.2705 347.318 29.6195 355.376 38.6807 355.376H493.081C502.143 355.376 509.492 347.318 509.492 337.39C509.492 327.462 502.143 319.404 493.081 319.404H438.807C447.868 319.404 455.217 311.346 455.217 301.418C455.217 291.49 447.868 283.432 438.807 283.432H521.305C530.366 283.432 537.715 275.374 537.715 265.446C537.729 255.505 530.38 247.46 521.305 247.46Z" fill="#2C8981"/>
<path d="M199.696 92.1841L75.4951 164.448L115.965 233.969L240.166 161.706L199.696 92.1841Z" fill="#CF6C30"/>
<path d="M199.701 92.1951L75.4922 164.455L111.17 82.9124L199.701 92.1951Z" fill="#E57636"/>
<path d="M152.237 85.8514L121.472 167.718L159.419 181.972L190.185 100.105L152.237 85.8514Z" fill="#10632D"/>
<path d="M181.184 100.24L158.913 91.8792C157.833 94.7495 154.632 96.2111 151.748 95.1314L127.212 160.413C130.083 161.493 131.545 164.692 130.465 167.576L152.736 175.937C153.816 173.067 157.016 171.605 159.901 172.685L184.437 107.403C181.552 106.323 180.104 103.111 181.184 100.24Z" fill="#1D9239"/>
<path d="M161.547 118.687C169.95 121.847 174.217 131.222 171.056 139.623C167.895 148.023 158.518 152.289 150.115 149.129C141.713 145.969 137.446 136.594 140.606 128.194C143.754 119.78 153.131 115.527 161.547 118.687Z" fill="#10632D"/>
<path d="M167.171 103.716C170.398 104.927 172.018 108.522 170.806 111.735L152.499 160.439C151.288 163.665 147.692 165.285 144.478 164.073C141.252 162.862 139.632 159.268 140.83 156.055L159.137 107.35C160.349 104.137 163.944 102.518 167.171 103.716Z" fill="#10632D"/>
<path d="M160.876 120.451C168.304 123.243 172.07 131.525 169.278 138.951C166.486 146.377 158.202 150.143 150.761 147.351C143.333 144.56 139.566 136.278 142.358 128.839C145.163 121.426 153.447 117.66 160.876 120.451Z" fill="#8EA927"/>
<path d="M149.417 160.466L148.39 160.084C148.324 160.229 148.258 160.334 148.179 160.413C148.1 160.492 148.008 160.545 147.889 160.571C147.771 160.611 147.639 160.624 147.494 160.611C147.363 160.597 147.152 160.532 146.875 160.426C146.77 160.387 146.665 160.347 146.586 160.308C146.507 160.268 146.428 160.229 146.375 160.202L146.625 159.544C146.717 159.597 146.836 159.649 146.994 159.715C147.178 159.781 147.31 159.821 147.389 159.847C147.468 159.86 147.547 159.873 147.613 159.86C147.666 159.847 147.718 159.821 147.745 159.781C147.784 159.742 147.81 159.689 147.85 159.597C147.889 159.491 147.903 159.412 147.903 159.36C147.903 159.307 147.876 159.254 147.85 159.202C147.797 159.149 147.731 159.096 147.639 159.044C147.547 158.991 147.402 158.938 147.218 158.859C147.073 158.807 146.954 158.767 146.889 158.741C146.823 158.714 146.757 158.715 146.691 158.715C146.638 158.715 146.586 158.728 146.533 158.754C146.493 158.78 146.428 158.82 146.362 158.886C146.296 158.952 146.23 159.004 146.164 159.083C146.085 159.149 146.019 159.215 145.94 159.281C145.861 159.347 145.795 159.412 145.73 159.465C145.664 159.518 145.598 159.57 145.532 159.61C145.466 159.649 145.4 159.676 145.334 159.689C145.255 159.702 145.176 159.702 145.058 159.689C144.952 159.676 144.821 159.649 144.676 159.61C144.531 159.57 144.347 159.505 144.136 159.426C143.859 159.32 143.662 159.228 143.543 159.123C143.425 159.031 143.333 158.912 143.28 158.794C143.24 158.701 143.227 158.609 143.227 158.53C143.227 158.451 143.254 158.333 143.293 158.188L142.397 157.845L142.595 157.332L143.491 157.674C143.556 157.516 143.635 157.398 143.701 157.319C143.767 157.24 143.846 157.174 143.952 157.134C144.057 157.082 144.189 157.082 144.32 157.095C144.452 157.121 144.636 157.174 144.847 157.253C144.992 157.306 145.097 157.358 145.176 157.398C145.255 157.437 145.334 157.477 145.387 157.503L145.15 158.135C145.111 158.109 145.058 158.082 144.992 158.056C144.926 158.03 144.847 158.003 144.755 157.964C144.597 157.898 144.478 157.872 144.386 157.845C144.307 157.832 144.228 157.845 144.162 157.872C144.11 157.885 144.07 157.911 144.057 157.938C144.031 157.977 144.004 158.043 143.965 158.135C143.925 158.227 143.912 158.293 143.912 158.319C143.912 158.359 143.925 158.398 143.952 158.464C143.991 158.517 144.044 158.57 144.123 158.609C144.189 158.649 144.307 158.701 144.478 158.767C144.584 158.807 144.663 158.833 144.729 158.859C144.794 158.886 144.847 158.899 144.887 158.912C144.926 158.925 144.966 158.925 144.992 158.938C145.018 158.938 145.045 158.952 145.071 158.938C145.124 158.938 145.176 158.938 145.216 158.912C145.255 158.899 145.321 158.846 145.4 158.78C145.506 158.701 145.611 158.596 145.716 158.477C145.822 158.359 145.94 158.254 146.059 158.148C146.164 158.069 146.23 158.017 146.283 157.977C146.335 157.938 146.401 157.911 146.493 157.898C146.546 157.885 146.586 157.885 146.638 157.885C146.691 157.885 146.744 157.898 146.823 157.911C146.902 157.924 146.994 157.951 147.099 157.99C147.205 158.03 147.349 158.069 147.508 158.135C147.679 158.201 147.824 158.254 147.942 158.319C148.061 158.372 148.166 158.438 148.245 158.491C148.324 158.557 148.403 158.609 148.456 158.675C148.508 158.741 148.561 158.807 148.587 158.886C148.627 158.991 148.653 159.083 148.667 159.189C148.667 159.294 148.653 159.412 148.614 159.557L149.641 159.939L149.417 160.466Z" fill="#1D9239"/>
<path d="M169.225 139.715L165.129 138.174C164.865 138.727 164.589 139.162 164.286 139.465C163.983 139.767 163.601 139.978 163.127 140.097C162.64 140.268 162.126 140.32 161.573 140.255C161.033 140.189 160.216 139.952 159.11 139.53C158.675 139.359 158.28 139.201 157.951 139.043C157.622 138.885 157.345 138.74 157.121 138.595L158.109 135.988C158.465 136.199 158.952 136.423 159.597 136.66C160.322 136.936 160.848 137.108 161.165 137.173C161.481 137.239 161.784 137.252 162.073 137.213C162.297 137.147 162.482 137.042 162.6 136.897C162.732 136.752 162.863 136.515 162.995 136.16C163.153 135.738 163.219 135.435 163.219 135.225C163.206 135.014 163.127 134.803 162.995 134.58C162.798 134.356 162.521 134.158 162.165 133.974C161.81 133.79 161.244 133.553 160.466 133.263C159.874 133.039 159.439 132.881 159.189 132.802C158.926 132.723 158.662 132.67 158.386 132.67C158.162 132.657 157.964 132.71 157.78 132.815C157.595 132.921 157.371 133.105 157.069 133.342C156.831 133.579 156.568 133.829 156.278 134.106C155.989 134.369 155.699 134.645 155.409 134.909C155.119 135.172 154.83 135.435 154.553 135.659C154.276 135.896 154.013 136.094 153.75 136.239C153.513 136.397 153.249 136.502 152.946 136.555C152.643 136.607 152.288 136.607 151.866 136.568C151.445 136.528 150.931 136.41 150.352 136.239C149.759 136.067 149.048 135.83 148.218 135.514C147.138 135.106 146.361 134.711 145.887 134.343C145.413 133.961 145.07 133.526 144.86 133.013C144.728 132.631 144.662 132.289 144.649 131.959C144.649 131.63 144.728 131.169 144.899 130.59L141.33 129.247L142.094 127.193L145.663 128.536C145.953 127.917 146.216 127.443 146.48 127.127C146.743 126.811 147.072 126.561 147.494 126.39C147.942 126.205 148.429 126.153 148.969 126.245C149.496 126.337 150.194 126.535 151.063 126.864C151.616 127.074 152.051 127.259 152.38 127.417C152.709 127.575 152.986 127.733 153.21 127.864L152.261 130.379C152.103 130.274 151.906 130.169 151.656 130.076C151.419 129.984 151.102 129.866 150.734 129.734C150.088 129.497 149.614 129.339 149.285 129.286C148.956 129.234 148.666 129.26 148.416 129.392C148.218 129.444 148.073 129.537 147.968 129.681C147.863 129.826 147.744 130.076 147.599 130.445C147.467 130.801 147.402 131.051 147.388 131.196C147.388 131.34 147.441 131.525 147.56 131.749C147.704 131.959 147.928 132.144 148.218 132.315C148.508 132.486 148.969 132.697 149.614 132.934C150.009 133.079 150.339 133.21 150.589 133.302C150.839 133.395 151.05 133.46 151.208 133.5C151.366 133.539 151.498 133.566 151.603 133.592C151.708 133.618 151.814 133.632 151.919 133.618C152.143 133.632 152.327 133.592 152.485 133.526C152.643 133.46 152.88 133.289 153.21 133.013C153.605 132.684 154.026 132.289 154.461 131.828C154.895 131.367 155.343 130.932 155.804 130.524C156.199 130.221 156.502 129.997 156.713 129.866C156.924 129.734 157.2 129.629 157.53 129.55C157.714 129.523 157.911 129.51 158.109 129.523C158.307 129.537 158.557 129.576 158.847 129.655C159.149 129.734 159.518 129.839 159.953 129.971C160.387 130.116 160.927 130.3 161.573 130.537C162.258 130.787 162.837 131.024 163.311 131.248C163.785 131.459 164.181 131.683 164.51 131.92C164.839 132.157 165.102 132.407 165.326 132.657C165.55 132.921 165.721 133.197 165.853 133.5C166.038 133.895 166.13 134.29 166.143 134.685C166.156 135.08 166.077 135.567 165.906 136.16L170.002 137.7L169.225 139.715Z" fill="#10632D"/>
<path d="M97.4391 90.0251L70.3604 120.164L135.434 178.601L162.513 148.463L97.4391 90.0251Z" fill="#10632D"/>
<path d="M94.312 98.4494L78.4023 116.146C80.6808 118.2 80.8784 121.715 78.8238 123.993L130.728 170.604C132.782 168.327 136.299 168.129 138.577 170.183L154.474 152.487C152.195 150.433 151.998 146.917 154.052 144.639L102.162 98.0281C100.107 100.306 96.5905 100.503 94.312 98.4494Z" fill="#1D9239"/>
<path d="M104.349 123.44C110.354 116.765 120.64 116.212 127.318 122.216C133.995 128.22 134.548 138.503 128.542 145.179C122.537 151.855 112.251 152.408 105.574 146.404C98.8962 140.413 98.343 130.129 104.349 123.44Z" fill="#10632D"/>
<path d="M105.744 124.704C111.052 118.806 120.139 118.319 126.039 123.612C131.94 128.918 132.427 138.003 127.133 143.902C121.825 149.801 112.737 150.288 106.837 144.995C100.937 139.702 100.436 130.616 105.744 124.704Z" fill="#8EA927"/>
<path d="M138.868 149.945L138.13 150.762C138.235 150.867 138.314 150.986 138.354 151.078C138.393 151.17 138.407 151.289 138.393 151.407C138.393 151.539 138.354 151.67 138.288 151.789C138.222 151.907 138.091 152.079 137.893 152.302C137.814 152.395 137.735 152.46 137.669 152.526C137.603 152.592 137.537 152.645 137.485 152.684L136.958 152.21C137.037 152.144 137.142 152.052 137.248 151.921C137.379 151.776 137.472 151.67 137.511 151.605C137.551 151.539 137.59 151.473 137.603 151.394C137.603 151.328 137.603 151.289 137.577 151.236C137.551 151.196 137.511 151.144 137.445 151.078C137.366 150.999 137.3 150.959 137.248 150.946C137.195 150.933 137.142 150.933 137.076 150.933C137.011 150.959 136.932 150.999 136.853 151.065C136.773 151.131 136.668 151.249 136.536 151.394C136.431 151.512 136.352 151.605 136.313 151.657C136.273 151.71 136.234 151.763 136.207 151.828C136.181 151.881 136.181 151.934 136.194 151.986C136.207 152.039 136.22 152.105 136.247 152.197C136.286 152.276 136.313 152.355 136.352 152.447C136.392 152.539 136.431 152.632 136.457 152.724C136.497 152.816 136.523 152.908 136.563 152.987C136.589 153.079 136.615 153.158 136.629 153.224C136.642 153.29 136.642 153.369 136.629 153.448C136.615 153.527 136.576 153.606 136.536 153.698C136.484 153.79 136.418 153.896 136.326 154.027C136.234 154.146 136.102 154.291 135.957 154.462C135.759 154.672 135.601 154.817 135.47 154.896C135.338 154.975 135.206 155.015 135.061 155.015C134.956 155.015 134.877 155.002 134.798 154.962C134.719 154.936 134.627 154.87 134.495 154.778L133.85 155.489L133.441 155.12L134.087 154.409C133.968 154.291 133.876 154.185 133.837 154.093C133.784 154.001 133.757 153.896 133.757 153.79C133.757 153.672 133.784 153.553 133.863 153.435C133.929 153.316 134.047 153.171 134.192 153C134.297 152.895 134.376 152.803 134.442 152.737C134.508 152.671 134.574 152.618 134.627 152.579L135.127 153.027C135.088 153.053 135.048 153.092 134.995 153.145C134.956 153.198 134.89 153.25 134.824 153.329C134.706 153.461 134.627 153.553 134.587 153.632C134.548 153.698 134.521 153.777 134.535 153.843C134.535 153.896 134.535 153.935 134.561 153.975C134.587 154.014 134.627 154.067 134.706 154.133C134.772 154.198 134.824 154.238 134.864 154.251C134.903 154.264 134.943 154.264 135.009 154.264C135.075 154.251 135.14 154.212 135.206 154.159C135.272 154.106 135.364 154.014 135.483 153.882C135.549 153.803 135.615 153.738 135.654 153.685C135.707 153.632 135.733 153.593 135.759 153.553C135.786 153.514 135.799 153.487 135.825 153.474C135.838 153.448 135.852 153.435 135.865 153.408C135.891 153.356 135.891 153.303 135.891 153.264C135.891 153.224 135.865 153.145 135.838 153.04C135.799 152.921 135.746 152.776 135.68 152.632C135.614 152.487 135.549 152.342 135.496 152.197C135.456 152.079 135.443 151.986 135.43 151.921C135.417 151.855 135.417 151.789 135.43 151.697C135.443 151.644 135.456 151.605 135.47 151.552C135.496 151.512 135.522 151.447 135.575 151.394C135.615 151.328 135.68 151.249 135.746 151.17C135.825 151.078 135.917 150.973 136.023 150.841C136.141 150.709 136.26 150.591 136.352 150.499C136.444 150.406 136.536 150.34 136.615 150.275C136.694 150.222 136.787 150.182 136.866 150.156C136.945 150.13 137.024 150.117 137.116 150.103C137.221 150.103 137.327 150.117 137.419 150.143C137.511 150.182 137.616 150.235 137.748 150.327L138.486 149.511L138.868 149.945Z" fill="#1D9239"/>
<path d="M144.998 96.6705L105.587 106.162L126.074 191.186L165.485 181.694L144.998 96.6705Z" fill="#10632D"/>
<path d="M137.629 101.846L114.502 107.416C115.226 110.405 113.382 113.394 110.393 114.118L126.737 181.928C129.727 181.217 132.716 183.047 133.441 186.023L156.568 180.453C155.843 177.464 157.687 174.475 160.664 173.751L144.332 105.941C141.343 106.666 138.34 104.822 137.629 101.846Z" fill="#1D9239"/>
<path d="M131.728 128.128C140.46 126.021 149.245 131.393 151.352 140.123C153.459 148.853 148.086 157.635 139.341 159.742C130.609 161.848 121.824 156.476 119.717 147.747C117.61 139.017 122.983 130.234 131.728 128.128Z" fill="#10632D"/>
<path d="M127.976 112.578C131.321 111.774 134.692 113.828 135.496 117.173L147.678 167.76C148.482 171.105 146.427 174.475 143.082 175.279C139.737 176.082 136.378 174.028 135.562 170.683L123.379 120.096C122.576 116.751 124.63 113.394 127.976 112.578Z" fill="#10632D"/>
<path d="M132.163 129.958C139.881 128.101 147.638 132.841 149.509 140.557C151.366 148.273 146.611 156.042 138.893 157.898C131.176 159.755 123.418 155.015 121.548 147.299C119.704 139.583 124.446 131.814 132.163 129.958Z" fill="#8EA927"/>
<path d="M145.123 169.498L144.057 169.762C144.083 169.92 144.083 170.038 144.057 170.143C144.03 170.249 143.991 170.354 143.898 170.446C143.819 170.552 143.714 170.631 143.596 170.696C143.477 170.762 143.266 170.828 142.977 170.894C142.858 170.92 142.753 170.947 142.66 170.96C142.568 170.973 142.489 170.986 142.423 170.986L142.265 170.301C142.371 170.301 142.502 170.275 142.674 170.236C142.858 170.196 143.003 170.157 143.069 170.117C143.148 170.091 143.214 170.051 143.266 169.999C143.306 169.959 143.332 169.906 143.332 169.854C143.332 169.801 143.332 169.735 143.306 169.643C143.279 169.538 143.253 169.459 143.214 169.419C143.187 169.38 143.135 169.34 143.069 169.314C143.003 169.288 142.911 169.288 142.805 169.301C142.7 169.314 142.555 169.34 142.358 169.393C142.2 169.432 142.094 169.459 142.028 169.472C141.962 169.485 141.897 169.525 141.844 169.551C141.791 169.577 141.765 169.617 141.739 169.669C141.712 169.722 141.686 169.788 141.673 169.88C141.66 169.959 141.633 170.051 141.62 170.157C141.594 170.249 141.581 170.354 141.554 170.446C141.528 170.538 141.501 170.631 141.488 170.723C141.462 170.815 141.436 170.894 141.409 170.96C141.383 171.026 141.343 171.091 141.291 171.144C141.238 171.197 141.159 171.249 141.067 171.302C140.975 171.355 140.856 171.407 140.698 171.447C140.553 171.5 140.369 171.552 140.145 171.605C139.868 171.671 139.644 171.697 139.486 171.684C139.328 171.671 139.197 171.631 139.078 171.552C138.999 171.5 138.933 171.434 138.881 171.355C138.828 171.289 138.788 171.184 138.736 171.026L137.801 171.249L137.669 170.71L138.604 170.486C138.578 170.315 138.565 170.183 138.578 170.078C138.591 169.972 138.617 169.88 138.683 169.775C138.749 169.669 138.841 169.59 138.973 169.538C139.091 169.485 139.276 169.419 139.5 169.367C139.644 169.327 139.763 169.314 139.855 169.301C139.947 169.288 140.026 169.274 140.092 169.274L140.25 169.933C140.198 169.933 140.145 169.946 140.079 169.959C140.013 169.972 139.934 169.999 139.842 170.012C139.671 170.051 139.552 170.091 139.473 170.117C139.394 170.157 139.342 170.196 139.302 170.262C139.263 170.301 139.249 170.341 139.249 170.38C139.249 170.42 139.263 170.499 139.276 170.591C139.302 170.683 139.315 170.749 139.342 170.775C139.355 170.802 139.394 170.841 139.46 170.868C139.526 170.894 139.592 170.894 139.671 170.894C139.75 170.894 139.882 170.868 140.053 170.828C140.158 170.802 140.237 170.789 140.303 170.762C140.369 170.749 140.422 170.736 140.461 170.71C140.501 170.696 140.527 170.683 140.553 170.67C140.58 170.657 140.606 170.644 140.619 170.631C140.672 170.604 140.698 170.565 140.724 170.525C140.751 170.486 140.777 170.42 140.803 170.315C140.843 170.196 140.869 170.051 140.896 169.893C140.922 169.735 140.948 169.577 140.988 169.432C141.027 169.314 141.054 169.222 141.08 169.169C141.106 169.116 141.146 169.051 141.212 168.985C141.251 168.945 141.291 168.919 141.33 168.893C141.37 168.866 141.436 168.84 141.501 168.814C141.581 168.787 141.66 168.761 141.778 168.721C141.883 168.682 142.028 168.656 142.2 168.616C142.384 168.577 142.529 168.537 142.66 168.524C142.792 168.498 142.911 168.498 143.003 168.498C143.108 168.498 143.2 168.511 143.279 168.537C143.359 168.563 143.438 168.59 143.503 168.642C143.596 168.695 143.675 168.774 143.727 168.853C143.78 168.932 143.846 169.051 143.885 169.195L144.952 168.932L145.123 169.498Z" fill="#1D9239"/>
<path d="M126.961 157.951C129.253 166.141 124.459 174.647 116.267 176.925C108.075 179.216 99.5672 174.423 97.2756 166.22C94.984 158.03 99.7779 149.524 107.983 147.246C116.175 144.968 124.67 149.761 126.961 157.951Z" fill="#FFCA00"/>
<path d="M124.749 158.57C126.698 165.548 122.615 172.777 115.635 174.726C108.655 176.674 101.424 172.593 99.4748 165.614C97.5256 158.636 101.608 151.407 108.589 149.458C115.569 147.523 122.813 151.591 124.749 158.57Z" fill="#F8AC00"/>
<path d="M116.491 173.501C109.511 175.45 102.28 171.368 100.331 164.39C99.3171 160.742 99.9492 157.029 101.78 154.027C99.3171 157.201 98.3293 161.454 99.4883 165.614C101.437 172.593 108.668 176.661 115.648 174.726C118.98 173.791 121.641 171.671 123.313 168.932C121.641 171.065 119.296 172.711 116.491 173.501Z" fill="#E4CEC7"/>
<path d="M118.704 151.815C122.734 154.317 124.406 158.925 124.051 159.518C123.695 160.097 121.43 156.437 117.4 153.935C113.37 151.433 109.076 151.038 109.445 150.459C109.801 149.866 114.674 149.313 118.704 151.815Z" fill="#FCD2A4"/>
<path d="M104.704 175.292L105.547 173.804" stroke="#F8AC00" stroke-width="0.2901" stroke-miterlimit="10" stroke-linecap="round" stroke-linejoin="round"/>
<path d="M118.704 150.459L119.547 148.958" stroke="#F8AC00" stroke-width="0.2901" stroke-miterlimit="10" stroke-linecap="round" stroke-linejoin="round"/>
<path d="M98.9482 154.699L100.45 155.555" stroke="#F8AC00" stroke-width="0.2901" stroke-miterlimit="10" stroke-linecap="round" stroke-linejoin="round"/>
<path d="M123.801 168.708L125.302 169.551" stroke="#F8AC00" stroke-width="0.2901" stroke-miterlimit="10" stroke-linecap="round" stroke-linejoin="round"/>
<path d="M116.188 176.688L115.728 175.029" stroke="#F8AC00" stroke-width="0.2901" stroke-miterlimit="10" stroke-linecap="round" stroke-linejoin="round"/>
<path d="M108.523 149.221L108.062 147.562" stroke="#F8AC00" stroke-width="0.2901" stroke-miterlimit="10" stroke-linecap="round" stroke-linejoin="round"/>
<path d="M97.5654 166.194L99.2117 165.733" stroke="#F8AC00" stroke-width="0.2901" stroke-miterlimit="10" stroke-linecap="round" stroke-linejoin="round"/>
<path d="M125.038 158.53L126.698 158.07" stroke="#F8AC00" stroke-width="0.2901" stroke-miterlimit="10" stroke-linecap="round" stroke-linejoin="round"/>
<path d="M100.107 171.302L101.477 170.249" stroke="#F8AC00" stroke-width="0.2901" stroke-miterlimit="10" stroke-linecap="round" stroke-linejoin="round"/>
<path d="M122.786 154.001L124.143 152.961" stroke="#F8AC00" stroke-width="0.2901" stroke-miterlimit="10" stroke-linecap="round" stroke-linejoin="round"/>
<path d="M102.952 150.104L103.993 151.473" stroke="#F8AC00" stroke-width="0.2901" stroke-miterlimit="10" stroke-linecap="round" stroke-linejoin="round"/>
<path d="M120.258 172.777L121.298 174.146" stroke="#F8AC00" stroke-width="0.2901" stroke-miterlimit="10" stroke-linecap="round" stroke-linejoin="round"/>
<path d="M110.116 177.109L110.34 175.41" stroke="#F8AC00" stroke-width="0.2901" stroke-miterlimit="10" stroke-linecap="round" stroke-linejoin="round"/>
<path d="M113.909 148.853L114.146 147.141" stroke="#F8AC00" stroke-width="0.2901" stroke-miterlimit="10" stroke-linecap="round" stroke-linejoin="round"/>
<path d="M97.1436 160.11L98.8425 160.347" stroke="#F8AC00" stroke-width="0.2901" stroke-miterlimit="10" stroke-linecap="round" stroke-linejoin="round"/>
<path d="M125.407 163.916L127.119 164.139" stroke="#F8AC00" stroke-width="0.2901" stroke-miterlimit="10" stroke-linecap="round" stroke-linejoin="round"/>
<path d="M102.425 173.725L103.531 172.408" stroke="#F8AC00" stroke-width="0.2901" stroke-miterlimit="10" stroke-linecap="round" stroke-linejoin="round"/>
<path d="M120.731 151.855L121.825 150.538" stroke="#F8AC00" stroke-width="0.2901" stroke-miterlimit="10" stroke-linecap="round" stroke-linejoin="round"/>
<path d="M100.528 152.434L101.845 153.527" stroke="#F8AC00" stroke-width="0.2901" stroke-miterlimit="10" stroke-linecap="round" stroke-linejoin="round"/>
<path d="M122.404 170.723L123.721 171.829" stroke="#F8AC00" stroke-width="0.2901" stroke-miterlimit="10" stroke-linecap="round" stroke-linejoin="round"/>
<path d="M113.475 177.188L113.317 175.476" stroke="#F8AC00" stroke-width="0.2901" stroke-miterlimit="10" stroke-linecap="round" stroke-linejoin="round"/>
<path d="M110.933 148.787L110.788 147.075" stroke="#F8AC00" stroke-width="0.2901" stroke-miterlimit="10" stroke-linecap="round" stroke-linejoin="round"/>
<path d="M97.0645 163.468L98.7766 163.31" stroke="#F8AC00" stroke-width="0.2901" stroke-miterlimit="10" stroke-linecap="round" stroke-linejoin="round"/>
<path d="M125.474 160.94L127.186 160.782" stroke="#F8AC00" stroke-width="0.2901" stroke-miterlimit="10" stroke-linecap="round" stroke-linejoin="round"/>
<path d="M98.6318 168.958L100.173 168.182" stroke="#F8AC00" stroke-width="0.2901" stroke-miterlimit="10" stroke-linecap="round" stroke-linejoin="round"/>
<path d="M124.09 156.081L125.618 155.304" stroke="#F8AC00" stroke-width="0.2901" stroke-miterlimit="10" stroke-linecap="round" stroke-linejoin="round"/>
<path d="M105.296 148.642L106.073 150.169" stroke="#F8AC00" stroke-width="0.2901" stroke-miterlimit="10" stroke-linecap="round" stroke-linejoin="round"/>
<path d="M118.177 174.081L118.954 175.621" stroke="#F8AC00" stroke-width="0.2901" stroke-miterlimit="10" stroke-linecap="round" stroke-linejoin="round"/>
<path d="M107.417 176.49L107.944 174.857" stroke="#F8AC00" stroke-width="0.2901" stroke-miterlimit="10" stroke-linecap="round" stroke-linejoin="round"/>
<path d="M116.307 149.392L116.847 147.76" stroke="#F8AC00" stroke-width="0.2901" stroke-miterlimit="10" stroke-linecap="round" stroke-linejoin="round"/>
<path d="M97.7627 157.411L99.3958 157.951" stroke="#F8AC00" stroke-width="0.2901" stroke-miterlimit="10" stroke-linecap="round" stroke-linejoin="round"/>
<path d="M124.867 166.299L126.5 166.839" stroke="#F8AC00" stroke-width="0.2901" stroke-miterlimit="10" stroke-linecap="round" stroke-linejoin="round"/>
<path d="M184.726 136.028C187.018 144.218 182.224 152.724 174.032 155.015C165.84 157.306 157.332 152.513 155.04 144.31C152.749 136.12 157.543 127.614 165.735 125.336C173.94 123.045 182.434 127.838 184.726 136.028Z" fill="#FFCA00"/>
<path d="M182.513 136.647C184.462 143.625 180.38 150.854 173.399 152.803C166.419 154.751 159.189 150.67 157.239 143.691C155.29 136.713 159.373 129.484 166.353 127.535C173.334 125.6 180.577 129.668 182.513 136.647Z" fill="#F8AC00"/>
<path d="M174.256 151.578C167.276 153.527 160.045 149.445 158.096 142.467C157.082 138.819 157.714 135.106 159.545 132.104C157.082 135.277 156.094 139.53 157.253 143.691C159.202 150.67 166.433 154.738 173.413 152.803C176.745 151.868 179.405 149.735 181.078 147.009C179.405 149.142 177.074 150.788 174.256 151.578Z" fill="#E4CEC7"/>
<path d="M168.434 130.261L168.75 131.393C169.514 131.261 170.199 131.235 170.792 131.314C171.384 131.393 171.951 131.617 172.478 131.972C172.886 132.236 173.241 132.539 173.505 132.868C173.781 133.197 173.966 133.513 174.045 133.829C174.137 134.184 174.097 134.514 173.913 134.843C173.729 135.172 173.452 135.383 173.097 135.488C172.412 135.672 171.872 135.435 171.463 134.751C170.989 133.947 170.278 133.526 169.317 133.473L170.528 137.819C171.463 137.819 172.201 137.832 172.78 137.884C173.347 137.937 173.887 138.095 174.387 138.345C174.927 138.609 175.388 138.977 175.77 139.438C176.152 139.912 176.429 140.452 176.613 141.097C176.837 141.887 176.85 142.69 176.679 143.48C176.494 144.284 176.112 144.995 175.507 145.64C174.901 146.285 174.124 146.785 173.149 147.141L173.874 149.748C173.992 150.156 174.032 150.472 174.005 150.683C173.979 150.893 173.834 151.038 173.557 151.117C173.307 151.183 173.11 151.157 172.965 151.038C172.82 150.906 172.701 150.696 172.609 150.367L171.819 147.549C170.976 147.681 170.212 147.694 169.527 147.575C168.829 147.457 168.224 147.233 167.697 146.904C167.17 146.588 166.735 146.219 166.419 145.798C166.09 145.376 165.866 144.942 165.734 144.494C165.642 144.165 165.682 143.823 165.879 143.48C166.064 143.138 166.353 142.914 166.748 142.809C167.065 142.717 167.341 142.717 167.605 142.809C167.868 142.901 168.065 143.059 168.224 143.296C168.566 143.809 168.856 144.205 169.08 144.468C169.303 144.731 169.593 144.955 169.949 145.126C170.304 145.297 170.726 145.39 171.24 145.39L169.883 140.531C168.882 140.531 168.013 140.465 167.302 140.32C166.59 140.175 165.945 139.873 165.392 139.399C164.839 138.925 164.43 138.227 164.18 137.305C163.851 136.107 163.956 135.014 164.496 134.04C165.049 133.065 166.024 132.315 167.433 131.775L167.13 130.669C166.972 130.09 167.104 129.734 167.539 129.602C167.973 129.471 168.276 129.695 168.434 130.261ZM169.106 137.805L167.986 133.803C167.446 134.145 167.051 134.5 166.814 134.869C166.564 135.251 166.525 135.725 166.683 136.304C166.841 136.857 167.104 137.226 167.486 137.424C167.881 137.621 168.421 137.753 169.106 137.805ZM171.305 140.531L172.583 145.113C173.241 144.784 173.716 144.349 173.979 143.809C174.242 143.283 174.295 142.73 174.137 142.164C173.966 141.558 173.65 141.137 173.189 140.913C172.715 140.689 172.096 140.557 171.305 140.531Z" fill="#C77700"/>
<path d="M176.468 129.892C180.499 132.394 182.171 137.002 181.816 137.595C181.46 138.174 179.195 134.514 175.165 132.012C171.134 129.51 166.841 129.115 167.21 128.536C167.565 127.943 172.438 127.39 176.468 129.892Z" fill="#FCD2A4"/>
<path d="M162.469 153.369L163.312 151.881" stroke="#F8AC00" stroke-width="0.2901" stroke-miterlimit="10" stroke-linecap="round" stroke-linejoin="round"/>
<path d="M176.469 128.536L177.325 127.035" stroke="#F8AC00" stroke-width="0.2901" stroke-miterlimit="10" stroke-linecap="round" stroke-linejoin="round"/>
<path d="M156.727 132.776L158.215 133.631" stroke="#F8AC00" stroke-width="0.2901" stroke-miterlimit="10" stroke-linecap="round" stroke-linejoin="round"/>
<path d="M181.565 146.785L183.067 147.628" stroke="#F8AC00" stroke-width="0.2901" stroke-miterlimit="10" stroke-linecap="round" stroke-linejoin="round"/>
<path d="M173.953 154.765L173.492 153.105" stroke="#F8AC00" stroke-width="0.2901" stroke-miterlimit="10" stroke-linecap="round" stroke-linejoin="round"/>
<path d="M166.288 127.298L165.827 125.639" stroke="#F8AC00" stroke-width="0.2901" stroke-miterlimit="10" stroke-linecap="round" stroke-linejoin="round"/>
<path d="M155.33 144.27L156.99 143.81" stroke="#F8AC00" stroke-width="0.2901" stroke-miterlimit="10" stroke-linecap="round" stroke-linejoin="round"/>
<path d="M182.804 136.607L184.463 136.146" stroke="#F8AC00" stroke-width="0.2901" stroke-miterlimit="10" stroke-linecap="round" stroke-linejoin="round"/>
<path d="M157.872 149.379L159.242 148.326" stroke="#F8AC00" stroke-width="0.2901" stroke-miterlimit="10" stroke-linecap="round" stroke-linejoin="round"/>
<path d="M180.551 132.078L181.921 131.038" stroke="#F8AC00" stroke-width="0.2901" stroke-miterlimit="10" stroke-linecap="round" stroke-linejoin="round"/>
<path d="M160.717 128.18L161.77 129.55" stroke="#F8AC00" stroke-width="0.2901" stroke-miterlimit="10" stroke-linecap="round" stroke-linejoin="round"/>
<path d="M178.022 150.854L179.063 152.223" stroke="#F8AC00" stroke-width="0.2901" stroke-miterlimit="10" stroke-linecap="round" stroke-linejoin="round"/>
<path d="M167.881 155.186L168.105 153.487" stroke="#F8AC00" stroke-width="0.2901" stroke-miterlimit="10" stroke-linecap="round" stroke-linejoin="round"/>
<path d="M171.675 126.929L171.912 125.218" stroke="#F8AC00" stroke-width="0.2901" stroke-miterlimit="10" stroke-linecap="round" stroke-linejoin="round"/>
<path d="M154.908 138.187L156.607 138.424" stroke="#F8AC00" stroke-width="0.2901" stroke-miterlimit="10" stroke-linecap="round" stroke-linejoin="round"/>
<path d="M183.172 141.992L184.884 142.216" stroke="#F8AC00" stroke-width="0.2901" stroke-miterlimit="10" stroke-linecap="round" stroke-linejoin="round"/>
<path d="M160.189 151.802L161.296 150.485" stroke="#F8AC00" stroke-width="0.2901" stroke-miterlimit="10" stroke-linecap="round" stroke-linejoin="round"/>
<path d="M178.496 129.932L179.589 128.615" stroke="#F8AC00" stroke-width="0.2901" stroke-miterlimit="10" stroke-linecap="round" stroke-linejoin="round"/>
<path d="M158.293 130.511L159.61 131.604" stroke="#F8AC00" stroke-width="0.2901" stroke-miterlimit="10" stroke-linecap="round" stroke-linejoin="round"/>
<path d="M180.169 148.8L181.486 149.906" stroke="#F8AC00" stroke-width="0.2901" stroke-miterlimit="10" stroke-linecap="round" stroke-linejoin="round"/>
<path d="M171.24 155.265L171.082 153.553" stroke="#F8AC00" stroke-width="0.2901" stroke-miterlimit="10" stroke-linecap="round" stroke-linejoin="round"/>
<path d="M168.698 126.864L168.553 125.152" stroke="#F8AC00" stroke-width="0.2901" stroke-miterlimit="10" stroke-linecap="round" stroke-linejoin="round"/>
<path d="M154.829 141.545L156.541 141.387" stroke="#F8AC00" stroke-width="0.2901" stroke-miterlimit="10" stroke-linecap="round" stroke-linejoin="round"/>
<path d="M183.238 139.017L184.95 138.859" stroke="#F8AC00" stroke-width="0.2901" stroke-miterlimit="10" stroke-linecap="round" stroke-linejoin="round"/>
<path d="M156.396 147.035L157.937 146.259" stroke="#F8AC00" stroke-width="0.2901" stroke-miterlimit="10" stroke-linecap="round" stroke-linejoin="round"/>
<path d="M181.855 134.158L183.383 133.381" stroke="#F8AC00" stroke-width="0.2901" stroke-miterlimit="10" stroke-linecap="round" stroke-linejoin="round"/>
<path d="M163.061 126.719L163.838 128.246" stroke="#F8AC00" stroke-width="0.2901" stroke-miterlimit="10" stroke-linecap="round" stroke-linejoin="round"/>
<path d="M175.941 152.157L176.718 153.698" stroke="#F8AC00" stroke-width="0.2901" stroke-miterlimit="10" stroke-linecap="round" stroke-linejoin="round"/>
<path d="M165.182 154.567L165.722 152.934" stroke="#F8AC00" stroke-width="0.2901" stroke-miterlimit="10" stroke-linecap="round" stroke-linejoin="round"/>
<path d="M174.071 127.469L174.611 125.837" stroke="#F8AC00" stroke-width="0.2901" stroke-miterlimit="10" stroke-linecap="round" stroke-linejoin="round"/>
<path d="M155.527 135.488L157.16 136.028" stroke="#F8AC00" stroke-width="0.2901" stroke-miterlimit="10" stroke-linecap="round" stroke-linejoin="round"/>
<path d="M182.632 144.376L184.265 144.916" stroke="#F8AC00" stroke-width="0.2901" stroke-miterlimit="10" stroke-linecap="round" stroke-linejoin="round"/>
<path d="M142.278 150.933C149.311 155.713 151.142 165.298 146.348 172.342C141.567 179.374 131.979 181.204 124.946 176.411C117.913 171.631 116.083 162.046 120.877 155.002C125.657 147.97 135.232 146.153 142.278 150.933Z" fill="#FFCA00"/>
<path d="M140.987 152.829C146.98 156.897 148.534 165.061 144.451 171.052C140.382 177.043 132.216 178.597 126.224 174.515C120.231 170.446 118.677 162.283 122.76 156.292C126.843 150.301 134.995 148.76 140.987 152.829Z" fill="#F8AC00"/>
<path d="M144.307 169.564C140.237 175.555 132.072 177.109 126.079 173.027C122.945 170.894 121.035 167.655 120.495 164.179C120.653 168.195 122.642 172.079 126.224 174.515C132.217 178.584 140.369 177.043 144.452 171.052C146.401 168.195 147.06 164.85 146.572 161.677C146.678 164.39 145.953 167.155 144.307 169.564Z" fill="#E4CEC7"/>
<path d="M132.006 151.565C136.708 150.88 140.949 153.316 141.054 154.001C141.159 154.685 137.063 153.329 132.362 154.027C127.66 154.712 124.13 157.187 124.038 156.503C123.946 155.831 127.317 152.263 132.006 151.565Z" fill="#FCD2A4"/>
<path d="M136.457 178.544L136.141 176.859" stroke="#F8AC00" stroke-width="0.2901" stroke-miterlimit="10" stroke-linecap="round" stroke-linejoin="round"/>
<path d="M131.136 150.525L130.807 148.839" stroke="#F8AC00" stroke-width="0.2901" stroke-miterlimit="10" stroke-linecap="round" stroke-linejoin="round"/>
<path d="M118.782 166.509L120.468 166.193" stroke="#F8AC00" stroke-width="0.2901" stroke-miterlimit="10" stroke-linecap="round" stroke-linejoin="round"/>
<path d="M146.796 161.19L148.495 160.861" stroke="#F8AC00" stroke-width="0.2901" stroke-miterlimit="10" stroke-linecap="round" stroke-linejoin="round"/>
<path d="M146.137 172.198L144.715 171.223" stroke="#F8AC00" stroke-width="0.2901" stroke-miterlimit="10" stroke-linecap="round" stroke-linejoin="round"/>
<path d="M122.549 156.147L121.127 155.186" stroke="#F8AC00" stroke-width="0.2901" stroke-miterlimit="10" stroke-linecap="round" stroke-linejoin="round"/>
<path d="M125.131 176.187L126.092 174.765" stroke="#F8AC00" stroke-width="0.2901" stroke-miterlimit="10" stroke-linecap="round" stroke-linejoin="round"/>
<path d="M141.172 152.618L142.146 151.196" stroke="#F8AC00" stroke-width="0.2901" stroke-miterlimit="10" stroke-linecap="round" stroke-linejoin="round"/>
<path d="M130.372 178.452L130.741 176.767" stroke="#F8AC00" stroke-width="0.2901" stroke-miterlimit="10" stroke-linecap="round" stroke-linejoin="round"/>
<path d="M136.536 150.604L136.905 148.932" stroke="#F8AC00" stroke-width="0.2901" stroke-miterlimit="10" stroke-linecap="round" stroke-linejoin="round"/>
<path d="M118.875 160.426L120.548 160.795" stroke="#F8AC00" stroke-width="0.2901" stroke-miterlimit="10" stroke-linecap="round" stroke-linejoin="round"/>
<path d="M146.717 166.588L148.403 166.957" stroke="#F8AC00" stroke-width="0.2901" stroke-miterlimit="10" stroke-linecap="round" stroke-linejoin="round"/>
<path d="M141.765 176.437L140.843 174.989" stroke="#F8AC00" stroke-width="0.2901" stroke-miterlimit="10" stroke-linecap="round" stroke-linejoin="round"/>
<path d="M126.434 152.394L125.499 150.946" stroke="#F8AC00" stroke-width="0.2901" stroke-miterlimit="10" stroke-linecap="round" stroke-linejoin="round"/>
<path d="M120.89 171.816L122.338 170.894" stroke="#F8AC00" stroke-width="0.2901" stroke-miterlimit="10" stroke-linecap="round" stroke-linejoin="round"/>
<path d="M144.938 156.489L146.387 155.568" stroke="#F8AC00" stroke-width="0.2901" stroke-miterlimit="10" stroke-linecap="round" stroke-linejoin="round"/>
<path d="M133.704 178.807V177.096" stroke="#F8AC00" stroke-width="0.2901" stroke-miterlimit="10" stroke-linecap="round" stroke-linejoin="round"/>
<path d="M133.573 150.288L133.56 148.576" stroke="#F8AC00" stroke-width="0.2901" stroke-miterlimit="10" stroke-linecap="round" stroke-linejoin="round"/>
<path d="M118.52 163.758H120.232" stroke="#F8AC00" stroke-width="0.2901" stroke-miterlimit="10" stroke-linecap="round" stroke-linejoin="round"/>
<path d="M147.033 163.626H148.759" stroke="#F8AC00" stroke-width="0.2901" stroke-miterlimit="10" stroke-linecap="round" stroke-linejoin="round"/>
<path d="M144.373 174.331L143.161 173.119" stroke="#F8AC00" stroke-width="0.2901" stroke-miterlimit="10" stroke-linecap="round" stroke-linejoin="round"/>
<path d="M124.116 154.264L122.892 153.053" stroke="#F8AC00" stroke-width="0.2901" stroke-miterlimit="10" stroke-linecap="round" stroke-linejoin="round"/>
<path d="M122.997 174.436L124.209 173.211" stroke="#F8AC00" stroke-width="0.2901" stroke-miterlimit="10" stroke-linecap="round" stroke-linejoin="round"/>
<path d="M143.068 154.172L144.28 152.948" stroke="#F8AC00" stroke-width="0.2901" stroke-miterlimit="10" stroke-linecap="round" stroke-linejoin="round"/>
<path d="M127.738 177.609L128.397 176.029" stroke="#F8AC00" stroke-width="0.2901" stroke-miterlimit="10" stroke-linecap="round" stroke-linejoin="round"/>
<path d="M138.867 151.354L139.539 149.774" stroke="#F8AC00" stroke-width="0.2901" stroke-miterlimit="10" stroke-linecap="round" stroke-linejoin="round"/>
<path d="M119.718 157.793L121.298 158.464" stroke="#F8AC00" stroke-width="0.2901" stroke-miterlimit="10" stroke-linecap="round" stroke-linejoin="round"/>
<path d="M145.979 168.919L147.56 169.59" stroke="#F8AC00" stroke-width="0.2901" stroke-miterlimit="10" stroke-linecap="round" stroke-linejoin="round"/>
<path d="M139.302 177.701L138.656 176.108" stroke="#F8AC00" stroke-width="0.2901" stroke-miterlimit="10" stroke-linecap="round" stroke-linejoin="round"/>
<path d="M128.607 151.262L127.962 149.669" stroke="#F8AC00" stroke-width="0.2901" stroke-miterlimit="10" stroke-linecap="round" stroke-linejoin="round"/>
<path d="M119.612 169.354L121.206 168.708" stroke="#F8AC00" stroke-width="0.2901" stroke-miterlimit="10" stroke-linecap="round" stroke-linejoin="round"/>
<path d="M146.059 158.662L147.652 158.017" stroke="#F8AC00" stroke-width="0.2901" stroke-miterlimit="10" stroke-linecap="round" stroke-linejoin="round"/>
<path d="M184.305 112.814C191.338 117.594 193.168 127.18 188.374 134.211C183.594 141.242 174.006 143.072 166.973 138.279C159.94 133.5 158.109 123.914 162.903 116.883C167.684 109.852 177.272 108.022 184.305 112.814Z" fill="#FFCA00"/>
<path d="M183.014 114.71C189.006 118.779 190.56 126.943 186.478 132.933C182.408 138.924 174.242 140.478 168.25 136.396C162.257 132.328 160.703 124.164 164.786 118.173C168.869 112.182 177.035 110.629 183.014 114.71Z" fill="#F8AC00"/>
<path d="M186.346 131.446C182.276 137.437 174.111 138.991 168.118 134.909C164.984 132.776 163.074 129.537 162.534 126.061C162.692 130.076 164.681 133.961 168.263 136.397C174.256 140.465 182.408 138.912 186.491 132.934C188.44 130.076 189.099 126.732 188.611 123.559C188.717 126.271 187.979 129.036 186.346 131.446Z" fill="#E4CEC7"/>
<path d="M174.045 113.447C178.747 112.762 182.988 115.198 183.093 115.882C183.198 116.567 179.102 115.211 174.401 115.909C169.699 116.593 166.169 119.069 166.077 118.384C165.985 117.713 169.343 114.144 174.045 113.447Z" fill="#FCD2A4"/>
<path d="M178.497 140.426L178.181 138.727" stroke="#F8AC00" stroke-width="0.2901" stroke-miterlimit="10" stroke-linecap="round" stroke-linejoin="round"/>
<path d="M173.163 112.406L172.847 110.721" stroke="#F8AC00" stroke-width="0.2901" stroke-miterlimit="10" stroke-linecap="round" stroke-linejoin="round"/>
<path d="M160.809 128.391L162.508 128.075" stroke="#F8AC00" stroke-width="0.2901" stroke-miterlimit="10" stroke-linecap="round" stroke-linejoin="round"/>
<path d="M188.835 123.072L190.521 122.742" stroke="#F8AC00" stroke-width="0.2901" stroke-miterlimit="10" stroke-linecap="round" stroke-linejoin="round"/>
<path d="M188.177 134.079L186.755 133.105" stroke="#F8AC00" stroke-width="0.2901" stroke-miterlimit="10" stroke-linecap="round" stroke-linejoin="round"/>
<path d="M164.588 118.029L163.166 117.067" stroke="#F8AC00" stroke-width="0.2901" stroke-miterlimit="10" stroke-linecap="round" stroke-linejoin="round"/>
<path d="M167.157 138.069L168.132 136.647" stroke="#F8AC00" stroke-width="0.2901" stroke-miterlimit="10" stroke-linecap="round" stroke-linejoin="round"/>
<path d="M183.212 114.487L184.173 113.065" stroke="#F8AC00" stroke-width="0.2901" stroke-miterlimit="10" stroke-linecap="round" stroke-linejoin="round"/>
<path d="M172.398 140.333L172.767 138.648" stroke="#F8AC00" stroke-width="0.2901" stroke-miterlimit="10" stroke-linecap="round" stroke-linejoin="round"/>
<path d="M178.562 112.485L178.931 110.813" stroke="#F8AC00" stroke-width="0.2901" stroke-miterlimit="10" stroke-linecap="round" stroke-linejoin="round"/>
<path d="M160.901 122.308L162.587 122.677" stroke="#F8AC00" stroke-width="0.2901" stroke-miterlimit="10" stroke-linecap="round" stroke-linejoin="round"/>
<path d="M188.756 128.47L190.428 128.839" stroke="#F8AC00" stroke-width="0.2901" stroke-miterlimit="10" stroke-linecap="round" stroke-linejoin="round"/>
<path d="M183.804 138.319L182.869 136.871" stroke="#F8AC00" stroke-width="0.2901" stroke-miterlimit="10" stroke-linecap="round" stroke-linejoin="round"/>
<path d="M168.461 114.276L167.539 112.828" stroke="#F8AC00" stroke-width="0.2901" stroke-miterlimit="10" stroke-linecap="round" stroke-linejoin="round"/>
<path d="M162.916 133.697L164.365 132.776" stroke="#F8AC00" stroke-width="0.2901" stroke-miterlimit="10" stroke-linecap="round" stroke-linejoin="round"/>
<path d="M186.965 118.371L188.427 117.449" stroke="#F8AC00" stroke-width="0.2901" stroke-miterlimit="10" stroke-linecap="round" stroke-linejoin="round"/>
<path d="M175.744 140.689L175.73 138.964" stroke="#F8AC00" stroke-width="0.2901" stroke-miterlimit="10" stroke-linecap="round" stroke-linejoin="round"/>
<path d="M175.613 112.169L175.6 110.458" stroke="#F8AC00" stroke-width="0.2901" stroke-miterlimit="10" stroke-linecap="round" stroke-linejoin="round"/>
<path d="M160.546 125.639H162.271" stroke="#F8AC00" stroke-width="0.2901" stroke-miterlimit="10" stroke-linecap="round" stroke-linejoin="round"/>
<path d="M189.072 125.507L190.798 125.494" stroke="#F8AC00" stroke-width="0.2901" stroke-miterlimit="10" stroke-linecap="round" stroke-linejoin="round"/>
<path d="M186.412 136.212L185.188 135.001" stroke="#F8AC00" stroke-width="0.2901" stroke-miterlimit="10" stroke-linecap="round" stroke-linejoin="round"/>
<path d="M166.143 116.146L164.932 114.934" stroke="#F8AC00" stroke-width="0.2901" stroke-miterlimit="10" stroke-linecap="round" stroke-linejoin="round"/>
<path d="M165.023 136.318L166.235 135.093" stroke="#F8AC00" stroke-width="0.2901" stroke-miterlimit="10" stroke-linecap="round" stroke-linejoin="round"/>
<path d="M185.108 116.054L186.307 114.829" stroke="#F8AC00" stroke-width="0.2901" stroke-miterlimit="10" stroke-linecap="round" stroke-linejoin="round"/>
<path d="M169.765 139.491L170.436 137.911" stroke="#F8AC00" stroke-width="0.2901" stroke-miterlimit="10" stroke-linecap="round" stroke-linejoin="round"/>
<path d="M180.907 113.236L181.579 111.656" stroke="#F8AC00" stroke-width="0.2901" stroke-miterlimit="10" stroke-linecap="round" stroke-linejoin="round"/>
<path d="M161.744 119.675L163.338 120.333" stroke="#F8AC00" stroke-width="0.2901" stroke-miterlimit="10" stroke-linecap="round" stroke-linejoin="round"/>
<path d="M188.006 130.801L189.586 131.472" stroke="#F8AC00" stroke-width="0.2901" stroke-miterlimit="10" stroke-linecap="round" stroke-linejoin="round"/>
<path d="M181.342 139.583L180.696 137.99" stroke="#F8AC00" stroke-width="0.2901" stroke-miterlimit="10" stroke-linecap="round" stroke-linejoin="round"/>
<path d="M170.647 113.144L170.002 111.551" stroke="#F8AC00" stroke-width="0.2901" stroke-miterlimit="10" stroke-linecap="round" stroke-linejoin="round"/>
<path d="M161.652 131.235L163.246 130.59" stroke="#F8AC00" stroke-width="0.2901" stroke-miterlimit="10" stroke-linecap="round" stroke-linejoin="round"/>
<path d="M188.098 120.543L189.691 119.898" stroke="#F8AC00" stroke-width="0.2901" stroke-miterlimit="10" stroke-linecap="round" stroke-linejoin="round"/>
<path d="M115.964 233.964L75.4922 164.455L156.621 163.784L115.964 233.964Z" fill="#EDA53B"/>
<path d="M240.16 161.717L199.701 92.1951L159.031 162.375L240.16 161.717Z" fill="#EDA53B"/>
<path d="M240.161 161.717L115.965 233.964L151.63 152.434L240.161 161.717Z" fill="#EA9639"/>
<path d="M147.309 363.988C143.622 363.988 140.171 362.013 138.301 358.839L72.9763 247.579C71.567 245.169 71.1719 242.364 71.8831 239.665C72.5812 236.966 74.2933 234.701 76.7035 233.292L178.167 173.738C179.774 172.803 181.591 172.303 183.448 172.303C187.136 172.303 190.587 174.278 192.457 177.451L257.781 288.712C259.191 291.122 259.586 293.926 258.875 296.625C258.177 299.325 256.464 301.589 254.054 302.998L152.591 362.553C150.984 363.487 149.166 363.988 147.309 363.988Z" fill="#EFEEEE"/>
<path d="M183.435 174.199C186.359 174.199 189.217 175.713 190.811 178.413L256.135 289.673C258.519 293.742 257.163 298.969 253.093 301.366L151.629 360.92C150.273 361.723 148.784 362.092 147.309 362.092C144.386 362.092 141.528 360.578 139.934 357.878L74.6095 246.617C72.2257 242.549 73.5822 237.322 77.6518 234.938L179.116 175.384C180.485 174.581 181.974 174.199 183.435 174.199ZM183.435 170.407C181.249 170.407 179.089 171 177.193 172.106L75.729 231.66C72.8842 233.332 70.8692 236.005 70.0394 239.191C69.2097 242.378 69.6707 245.696 71.3433 248.54L136.668 359.801C138.867 363.553 142.95 365.897 147.309 365.897C149.496 365.897 151.656 365.304 153.552 364.198L255.029 304.644C257.874 302.972 259.889 300.299 260.719 297.113C261.548 293.926 261.087 290.608 259.415 287.764L194.09 176.503C191.878 172.738 187.795 170.407 183.435 170.407Z" fill="white"/>
<path d="M211.791 214.134L190.811 178.412C188.427 174.344 183.185 172.988 179.116 175.371L77.652 234.925C73.5824 237.308 72.2258 242.549 74.6097 246.604L95.5899 282.326L211.791 214.134Z" fill="#2C8981"/>
<path d="M88.0166 238.375C89.1097 240.244 88.4907 242.641 86.6205 243.734C84.7503 244.827 82.3533 244.208 81.2602 242.338C80.1671 240.481 80.7861 238.072 82.6562 236.979C84.5264 235.886 86.9234 236.518 88.0166 238.375Z" fill="white"/>
<path d="M101.846 230.264C102.939 232.134 102.32 234.53 100.45 235.623C98.5794 236.716 96.1824 236.097 95.0893 234.227C93.9962 232.357 94.6152 229.961 96.4854 228.868C98.3555 227.775 100.753 228.407 101.846 230.264Z" fill="white"/>
<path d="M115.675 222.153C116.768 224.023 116.149 226.419 114.279 227.512C112.409 228.605 110.012 227.986 108.918 226.116C107.825 224.247 108.444 221.85 110.314 220.757C112.171 219.665 114.582 220.283 115.675 222.153Z" fill="white"/>
<path d="M129.49 214.042C130.583 215.912 129.964 218.308 128.094 219.401C126.224 220.494 123.827 219.875 122.734 218.006C121.641 216.136 122.26 213.739 124.13 212.647C126 211.554 128.397 212.173 129.49 214.042Z" fill="white"/>
<path d="M143.319 205.931C144.412 207.801 143.793 210.198 141.923 211.29C140.053 212.383 137.656 211.764 136.563 209.895C135.47 208.025 136.089 205.629 137.959 204.536C139.829 203.443 142.226 204.062 143.319 205.931Z" fill="white"/>
<path d="M157.135 197.821C158.228 199.69 157.609 202.087 155.739 203.18C153.868 204.272 151.471 203.654 150.378 201.784C149.285 199.914 149.904 197.518 151.774 196.425C153.645 195.332 156.042 195.951 157.135 197.821Z" fill="white"/>
<path d="M170.963 189.697C172.056 191.566 171.437 193.963 169.567 195.056C167.697 196.148 165.3 195.53 164.206 193.66C163.113 191.79 163.732 189.394 165.603 188.301C167.473 187.221 169.87 187.84 170.963 189.697Z" fill="white"/>
<path d="M184.792 181.586C185.885 183.455 185.266 185.852 183.396 186.945C181.526 188.037 179.129 187.419 178.036 185.549C176.942 183.679 177.561 181.283 179.432 180.19C181.302 179.097 183.699 179.729 184.792 181.586Z" fill="white"/>
<path d="M183.396 320.958L173.44 326.804L148.969 285.131L148.561 285.368C146.941 286.316 145.65 285.987 144.689 284.367L141.278 278.56C140.619 277.441 140.685 276.348 141.489 275.295L144.755 271.345C144.979 271.055 145.242 270.831 145.519 270.673L149.299 268.461C150.918 267.513 152.222 267.856 153.184 269.502L183.396 320.958Z" fill="#243A76"/>
<path d="M207.972 306.448L198.12 312.228C195.486 313.769 192.589 314.151 189.441 313.361C186.28 312.571 183.923 310.846 182.369 308.186L181.263 306.303C180.301 304.657 180.63 303.354 182.29 302.379L187.308 299.443C188.954 298.482 190.258 298.811 191.232 300.47L192.339 302.353L202.19 296.573L192.958 280.851L183.106 286.632C180.472 288.172 177.575 288.554 174.414 287.764C171.253 286.974 168.896 285.249 167.342 282.589L158.004 266.697C157.042 265.051 157.372 263.748 159.031 262.773L183.475 248.421C185.121 247.46 186.425 247.789 187.4 249.448L190.363 254.491C191.311 256.111 190.969 257.414 189.323 258.375L172.399 268.303L177.298 276.651L187.15 270.871C189.757 269.344 192.655 268.962 195.816 269.752C198.99 270.542 201.347 272.253 202.914 274.913L212.16 290.674C213.714 293.334 214.07 296.244 213.2 299.404C212.318 302.564 210.593 304.908 207.972 306.448Z" fill="#243A76"/>
<path d="M137.919 242.983L135.746 240.547L132.875 242.233L133.942 245.314C134.087 245.722 133.968 246.038 133.586 246.249L132.177 247.078C131.953 247.21 131.729 247.236 131.505 247.144C131.282 247.065 131.124 246.907 131.031 246.657L125.816 231.594C125.671 231.186 125.79 230.883 126.158 230.659L128.898 229.053C129.267 228.829 129.596 228.881 129.886 229.211L140.488 241.114C140.659 241.311 140.711 241.522 140.685 241.759C140.646 242.009 140.514 242.193 140.303 242.312L138.881 243.141C138.538 243.365 138.196 243.312 137.919 242.983ZM133.6 238.138L130.109 234.214L131.822 239.178L133.6 238.138Z" fill="white"/>
<path d="M144.913 232.845L142.147 234.464L144.702 238.823C144.966 239.27 144.874 239.639 144.426 239.902L143.043 240.719C142.595 240.982 142.226 240.89 141.963 240.442L134.048 226.959C133.784 226.512 133.876 226.143 134.324 225.88L139.158 223.049C139.882 222.627 140.672 222.522 141.568 222.746C142.45 222.97 143.109 223.444 143.543 224.168L146.072 228.473C146.507 229.211 146.599 230.014 146.362 230.896C146.112 231.778 145.638 232.424 144.913 232.845ZM143.333 230.093L140.791 225.761L137.999 227.394L140.541 231.726L143.333 230.093Z" fill="white"/>
<path d="M159.796 230.883L158.307 231.752C158.004 231.923 157.715 231.91 157.425 231.686L151.959 227.354L151.143 227.828L154.29 233.2C154.554 233.648 154.462 234.017 154.014 234.28L152.631 235.096C152.183 235.36 151.814 235.268 151.551 234.82L143.636 221.337C143.372 220.889 143.464 220.521 143.912 220.257L148.746 217.426C149.47 217.005 150.273 216.9 151.156 217.123C152.038 217.347 152.697 217.821 153.131 218.559L155.067 221.85C155.41 222.43 155.542 223.062 155.449 223.746C155.37 224.431 155.12 225.024 154.712 225.524L159.888 229.619C160.112 229.803 160.217 230.027 160.191 230.29C160.177 230.527 160.046 230.738 159.796 230.883ZM152.328 223.444L150.392 220.139L147.613 221.771L149.549 225.076L152.328 223.444Z" fill="white"/>
<path d="M163.957 228.447L162.574 229.263C162.126 229.527 161.758 229.435 161.494 228.987L153.579 215.504C153.316 215.056 153.408 214.688 153.856 214.424L155.238 213.608C155.686 213.345 156.055 213.437 156.318 213.884L164.234 227.367C164.51 227.815 164.418 228.171 163.957 228.447Z" fill="white"/>
<path d="M172.083 223.667L168.58 225.721C167.868 226.143 167.091 226.248 166.288 226.037C165.471 225.827 164.852 225.366 164.431 224.642L157.648 213.094C157.385 212.647 157.477 212.278 157.925 212.015L159.308 211.198C159.756 210.935 160.124 211.027 160.388 211.475L167.091 222.891L170.463 220.916C170.911 220.652 171.266 220.744 171.53 221.205L172.333 222.588C172.623 223.049 172.531 223.404 172.083 223.667Z" fill="white"/>
<path d="M85.8041 237.73C86.6733 239.204 86.4758 240.929 85.3695 241.588C84.2632 242.233 82.6564 241.574 81.7872 240.087L75.1625 228.802C74.2933 227.328 74.4908 225.603 75.5971 224.944C76.7034 224.286 78.3102 224.958 79.1795 226.446L85.8041 237.73Z" fill="#FCBC00"/>
<path d="M75.3737 225.116C74.4649 225.853 74.3464 227.433 75.1498 228.802L81.7744 240.087C82.5778 241.456 84.0134 242.114 85.1065 241.693L75.3737 225.116Z" fill="#EAD0BC"/>
<path d="M81.5901 230.922C83.8686 234.807 86.9504 239.968 85.449 241.127C85.7519 239.336 83.5525 235.636 81.3267 231.712C77.9551 225.774 76.7039 225.642 76.0586 225.089C76.7566 224.721 78.4292 224.945 81.5901 230.922Z" fill="white"/>
<path d="M99.6332 229.619C100.502 231.093 100.305 232.818 99.1986 233.477C98.0923 234.135 96.4855 233.464 95.6163 231.976L88.9916 220.692C88.1224 219.217 88.3199 217.492 89.4262 216.834C90.5325 216.175 92.1393 216.847 93.0086 218.335L99.6332 229.619Z" fill="#FCBC00"/>
<path d="M89.2018 217.005C88.2931 217.742 88.1745 219.322 88.9779 220.692L95.6026 231.976C96.4059 233.345 97.8415 234.003 98.9346 233.582L89.2018 217.005Z" fill="#EAD0BC"/>
<path d="M95.4055 222.811C97.684 226.696 100.766 231.857 99.2644 233.016C99.5674 231.225 97.3679 227.525 95.1421 223.601C91.7705 217.663 90.5194 217.531 89.874 216.978C90.5852 216.61 92.2578 216.82 95.4055 222.811Z" fill="white"/>
<path d="M113.449 221.508C114.318 222.983 114.12 224.708 113.014 225.366C111.908 226.011 110.301 225.353 109.432 223.865L102.807 212.581C101.938 211.106 102.135 209.381 103.242 208.723C104.348 208.078 105.955 208.736 106.824 210.224L113.449 221.508Z" fill="#FCBC00"/>
<path d="M103.031 208.894C102.122 209.631 102.004 211.211 102.807 212.581L109.432 223.865C110.235 225.234 111.671 225.893 112.764 225.471L103.031 208.894Z" fill="#EAD0BC"/>
<path d="M109.235 214.701C111.513 218.585 114.595 223.746 113.094 224.905C113.396 223.101 111.197 219.414 108.971 215.491C105.6 209.552 104.348 209.421 103.703 208.868C104.401 208.499 106.087 208.71 109.235 214.701Z" fill="white"/>
<path d="M127.278 213.384C128.147 214.859 127.949 216.583 126.843 217.242C125.737 217.9 124.13 217.229 123.261 215.741L116.636 204.457C115.767 202.982 115.964 201.257 117.071 200.599C118.177 199.94 119.784 200.612 120.653 202.1L127.278 213.384Z" fill="#FCBC00"/>
<path d="M116.846 200.783C115.938 201.521 115.819 203.101 116.622 204.47L123.247 215.754C124.05 217.123 125.486 217.782 126.579 217.36L116.846 200.783Z" fill="#EAD0BC"/>
<path d="M123.05 206.59C125.329 210.474 128.41 215.636 126.909 216.794C127.212 215.004 125.012 211.304 122.787 207.38C119.428 201.442 118.164 201.31 117.519 200.757C118.23 200.375 119.902 200.599 123.05 206.59Z" fill="white"/>
<path d="M141.106 205.273C141.975 206.748 141.778 208.473 140.671 209.131C139.565 209.789 137.958 209.118 137.089 207.63L130.464 196.346C129.595 194.871 129.793 193.146 130.899 192.488C132.005 191.83 133.612 192.501 134.481 193.989L141.106 205.273Z" fill="#FCBC00"/>
<path d="M130.675 192.672C129.767 193.41 129.648 194.99 130.452 196.359L137.076 207.643C137.88 209.013 139.315 209.671 140.408 209.25L130.675 192.672Z" fill="#EAD0BC"/>
<path d="M136.878 198.479C139.157 202.363 142.238 207.525 140.737 208.683C141.04 206.893 138.841 203.193 136.615 199.282C133.243 193.344 131.992 193.212 131.347 192.659C132.045 192.264 133.73 192.488 136.878 198.479Z" fill="white"/>
<path d="M154.922 197.162C155.791 198.637 155.594 200.362 154.488 201.02C153.381 201.679 151.775 201.007 150.905 199.519L144.281 188.235C143.411 186.76 143.609 185.035 144.715 184.377C145.822 183.719 147.428 184.39 148.298 185.878L154.922 197.162Z" fill="#FCBC00"/>
<path d="M144.491 184.562C143.582 185.299 143.464 186.879 144.267 188.248L150.892 199.532C151.695 200.902 153.131 201.56 154.211 201.139L144.491 184.562Z" fill="#EAD0BC"/>
<path d="M150.707 190.368C152.986 194.252 156.068 199.414 154.566 200.573C154.869 198.782 152.67 195.082 150.444 191.158C147.072 185.22 145.821 185.088 145.176 184.535C145.874 184.153 147.56 184.377 150.707 190.368Z" fill="white"/>
<path d="M168.75 189.051C169.62 190.526 169.422 192.251 168.316 192.909C167.209 193.568 165.603 192.896 164.733 191.408L158.109 180.124C157.24 178.649 157.437 176.925 158.543 176.266C159.65 175.621 161.257 176.279 162.126 177.767L168.75 189.051Z" fill="#FCBC00"/>
<path d="M158.32 176.451C157.411 177.188 157.293 178.768 158.096 180.137L164.721 191.422C165.524 192.791 166.96 193.449 168.053 193.028L158.32 176.451Z" fill="#EAD0BC"/>
<path d="M164.523 182.257C166.801 186.142 169.883 191.303 168.382 192.462C168.685 190.671 166.485 186.971 164.259 183.047C160.901 177.109 159.637 176.977 158.991 176.424C159.702 176.043 161.375 176.266 164.523 182.257Z" fill="white"/>
<path d="M182.566 180.941C183.435 182.415 183.238 184.14 182.131 184.798C181.025 185.457 179.418 184.785 178.549 183.297L171.924 172.013C171.055 170.539 171.253 168.814 172.359 168.155C173.465 167.51 175.072 168.169 175.941 169.656L182.566 180.941Z" fill="#FCBC00"/>
<path d="M172.148 168.327C171.239 169.064 171.121 170.644 171.924 172.013L178.549 183.298C179.352 184.667 180.788 185.325 181.881 184.904L172.148 168.327Z" fill="#EAD0BC"/>
<path d="M178.352 174.133C180.63 178.017 183.712 183.179 182.211 184.338C182.514 182.547 180.314 178.847 178.088 174.923C174.73 168.985 173.466 168.853 172.82 168.3C173.518 167.932 175.204 168.155 178.352 174.133Z" fill="white"/>
<path d="M366.832 72.7869H217.033C211.027 72.7869 206.154 77.3558 206.154 82.9913V279.39C206.154 285.025 211.027 289.594 217.033 289.594H366.832C372.837 289.594 377.71 285.025 377.71 279.39V82.9913C377.697 77.3558 372.837 72.7869 366.832 72.7869Z" fill="#0BACAC"/>
<path d="M370.585 79.5942H212.647V277.994H370.585V79.5942Z" fill="white" stroke="#DADADA" stroke-width="0.6602" stroke-miterlimit="10"/>
<path d="M370.585 277.994H212.647V79.5942L219.009 271.187L370.585 277.994Z" fill="#C4E7FB"/>
<path d="M352.937 144.863H232.851V151.262H352.937V144.863Z" fill="#B2B2B2"/>
<path d="M352.937 155.081H232.851V161.48H352.937V155.081Z" fill="#B2B2B2"/>
<path d="M296.832 165.285H232.851V171.684H296.832V165.285Z" fill="#B2B2B2"/>
<path d="M352.937 238.019H232.851V244.418H352.937V238.019Z" fill="#B2B2B2"/>
<path d="M352.937 248.237H232.851V254.636H352.937V248.237Z" fill="#B2B2B2"/>
<path d="M296.832 258.454H232.851V264.853H296.832V258.454Z" fill="#B2B2B2"/>
<path d="M352.937 102.07H275.667V109.47H352.937V102.07Z" fill="#B2B2B2"/>
<path d="M352.937 113.881H275.667V121.281H352.937V113.881Z" fill="#B2B2B2"/>
<path d="M322.316 125.692H275.667V133.092H322.316V125.692Z" fill="#B2B2B2"/>
<path d="M352.937 176.701H232.851V191.277H352.937V176.701Z" fill="#454F56"/>
<path d="M352.41 177.227V230.014H233.377V177.227H352.41ZM352.937 176.701H232.851V230.554H352.937V176.701Z" fill="#454F56"/>
<path d="M247.048 123.717V132.842C247.048 133.566 246.771 134.185 246.231 134.724C245.678 135.264 245.059 135.528 244.361 135.528H239.396C238.948 135.528 238.737 135.304 238.737 134.869V121.702C238.737 121.255 238.961 121.044 239.396 121.044H244.348C245.059 121.044 245.678 121.32 246.231 121.86C246.771 122.387 247.048 123.006 247.048 123.717ZM244.374 132.842V123.704H241.411V132.842H244.374Z" fill="#454F56"/>
<path d="M254.595 134.988L254.055 132.289H251.249L250.709 134.988C250.63 135.343 250.42 135.528 250.051 135.528H248.681C248.47 135.528 248.299 135.449 248.168 135.291C248.036 135.133 247.983 134.948 248.036 134.738L250.67 121.571C250.736 121.215 250.946 121.031 251.315 121.031H253.989C254.358 121.031 254.568 121.215 254.647 121.571L257.281 134.738C257.321 134.948 257.268 135.133 257.15 135.291C257.018 135.449 256.847 135.528 256.636 135.528H255.253C254.884 135.514 254.66 135.343 254.595 134.988ZM253.528 129.616L252.659 125.284L251.789 129.616H253.528Z" fill="#454F56"/>
<path d="M261.64 130.182V134.856C261.64 135.304 261.416 135.514 260.982 135.514H259.599C259.151 135.514 258.94 135.291 258.94 134.856V130.155L256.03 121.913C255.951 121.702 255.977 121.492 256.109 121.307C256.254 121.123 256.425 121.031 256.649 121.031H257.992C258.308 121.031 258.519 121.176 258.624 121.478L260.297 126.416L261.943 121.478C262.049 121.176 262.246 121.031 262.575 121.031H264.011C264.235 121.031 264.406 121.123 264.551 121.32C264.683 121.505 264.709 121.702 264.63 121.926L261.64 130.182Z" fill="#454F56"/>
<path d="M244.664 105.086H242.557V116.896C242.557 117.37 242.32 117.594 241.859 117.594H240.423C239.949 117.594 239.725 117.357 239.725 116.896V105.086H237.618C237.144 105.086 236.92 104.849 236.92 104.388V102.966C236.92 102.492 237.157 102.268 237.618 102.268H244.677C245.151 102.268 245.375 102.505 245.375 102.966V104.401C245.362 104.862 245.125 105.086 244.664 105.086Z" fill="#454F56"/>
<path d="M251.065 117.028L250.499 114.171H247.536L246.969 117.028C246.89 117.41 246.666 117.594 246.271 117.594H244.822C244.599 117.594 244.414 117.515 244.269 117.344C244.124 117.186 244.072 116.988 244.124 116.765L246.917 102.834C246.982 102.452 247.219 102.268 247.601 102.268H250.433C250.815 102.268 251.052 102.452 251.131 102.834L253.91 116.765C253.949 116.988 253.897 117.186 253.765 117.344C253.62 117.515 253.449 117.594 253.225 117.594H251.763C251.368 117.594 251.131 117.41 251.065 117.028ZM249.933 111.353L249.011 106.758L248.089 111.353H249.933Z" fill="#454F56"/>
<path d="M263.827 117.594H262.259C261.956 117.594 261.733 117.449 261.614 117.16L259.968 113.328L258.321 117.16C258.203 117.449 257.992 117.594 257.676 117.594H256.109C255.845 117.594 255.661 117.489 255.529 117.278C255.384 117.067 255.358 116.844 255.463 116.62L258.414 109.707L255.648 103.229C255.543 103.005 255.556 102.781 255.701 102.571C255.832 102.36 256.03 102.255 256.293 102.255H257.86C258.163 102.255 258.374 102.399 258.506 102.689L259.968 106.113L261.43 102.689C261.535 102.399 261.759 102.255 262.075 102.255H263.642C263.892 102.255 264.09 102.36 264.235 102.571C264.367 102.794 264.38 103.018 264.288 103.229L261.509 109.707L264.459 116.62C264.538 116.857 264.525 117.081 264.406 117.278C264.261 117.489 264.077 117.594 263.827 117.594Z" fill="#454F56"/>
<path d="M232.851 197.557H352.937" stroke="#454F56" stroke-width="0.4031" stroke-miterlimit="10"/>
<path d="M232.851 204.048H352.937" stroke="#454F56" stroke-width="0.4031" stroke-miterlimit="10"/>
<path d="M232.851 210.553H352.937" stroke="#454F56" stroke-width="0.4031" stroke-miterlimit="10"/>
<path d="M232.851 217.057H352.937" stroke="#454F56" stroke-width="0.4031" stroke-miterlimit="10"/>
<path d="M232.851 223.562H352.937" stroke="#454F56" stroke-width="0.4031" stroke-miterlimit="10"/>
<path d="M244.638 230.54V176.701" stroke="#454F56" stroke-width="0.4031" stroke-miterlimit="10"/>
<path d="M316.034 230.54V176.701" stroke="#454F56" stroke-width="0.4031" stroke-miterlimit="10"/>
<path d="M334.881 230.54V176.701" stroke="#454F56" stroke-width="0.4031" stroke-miterlimit="10"/>
<path d="M224.25 94.5388C221.616 94.5388 219.482 92.4057 219.482 89.7723C219.482 87.1389 221.616 85.0059 224.25 85.0059C226.884 85.0059 229.018 87.1389 229.018 89.7723C229.018 92.3925 226.884 94.5388 224.25 94.5388Z" fill="#976934"/>
<path d="M243.781 94.5388C241.147 94.5388 239.014 92.4057 239.014 89.7723C239.014 87.1389 241.147 85.0059 243.781 85.0059C246.415 85.0059 248.549 87.1389 248.549 89.7723C248.549 92.3925 246.415 94.5388 243.781 94.5388Z" fill="#976934"/>
<path d="M263.314 94.5388C260.679 94.5388 258.546 92.4057 258.546 89.7723C258.546 87.1389 260.679 85.0059 263.314 85.0059C265.948 85.0059 268.081 87.1389 268.081 89.7723C268.081 92.3925 265.948 94.5388 263.314 94.5388Z" fill="#976934"/>
<path d="M282.832 94.5388C280.198 94.5388 278.064 92.4057 278.064 89.7723C278.064 87.1389 280.198 85.0059 282.832 85.0059C285.466 85.0059 287.6 87.1389 287.6 89.7723C287.613 92.3925 285.466 94.5388 282.832 94.5388Z" fill="#976934"/>
<path d="M302.363 94.5388C299.729 94.5388 297.596 92.4057 297.596 89.7723C297.596 87.1389 299.729 85.0059 302.363 85.0059C304.997 85.0059 307.131 87.1389 307.131 89.7723C307.131 92.3925 304.997 94.5388 302.363 94.5388Z" fill="#976934"/>
<path d="M321.895 94.5388C319.261 94.5388 317.127 92.4057 317.127 89.7723C317.127 87.1389 319.261 85.0059 321.895 85.0059C324.529 85.0059 326.662 87.1389 326.662 89.7723C326.662 92.3925 324.529 94.5388 321.895 94.5388Z" fill="#976934"/>
<path d="M341.426 94.5388C338.792 94.5388 336.658 92.4057 336.658 89.7723C336.658 87.1389 338.792 85.0059 341.426 85.0059C344.06 85.0059 346.193 87.1389 346.193 89.7723C346.193 92.3925 344.06 94.5388 341.426 94.5388Z" fill="#976934"/>
<path d="M360.944 94.5388C358.31 94.5388 356.177 92.4057 356.177 89.7723C356.177 87.1389 358.31 85.0059 360.944 85.0059C363.578 85.0059 365.712 87.1389 365.712 89.7723C365.712 92.3925 363.578 94.5388 360.944 94.5388Z" fill="#976934"/>
<path d="M227.095 87.7183C227.095 89.8118 225.817 91.4972 224.25 91.4972C222.683 91.4972 221.405 89.7987 221.405 87.7183V71.7862C221.405 69.6927 222.683 68.0073 224.25 68.0073C225.817 68.0073 227.095 69.7059 227.095 71.7862V87.7183Z" fill="#C6C6C6"/>
<path d="M223.921 68.0469C222.512 68.2707 221.419 69.8507 221.419 71.7863V87.7183C221.419 89.6539 222.512 91.2339 223.921 91.4577V68.0469Z" fill="#C6C6C6"/>
<path d="M226.858 77.9748C226.858 83.4522 226.91 90.7862 224.605 91.0759C226.041 89.3774 226.002 84.1238 226.081 78.6463C226.212 70.3379 224.974 69.4163 224.632 68.4419C225.62 68.4682 227.24 69.7323 226.858 77.9748Z" fill="white"/>
<path d="M246.626 87.7183C246.626 89.8118 245.349 91.4972 243.781 91.4972C242.214 91.4972 240.937 89.7987 240.937 87.7183V71.7862C240.937 69.6927 242.201 68.0073 243.781 68.0073C245.349 68.0073 246.626 69.7059 246.626 71.7862V87.7183Z" fill="#C6C6C6"/>
<path d="M243.439 68.0469C242.03 68.2707 240.937 69.8507 240.937 71.7863V87.7183C240.937 89.6539 242.03 91.2339 243.439 91.4577V68.0469Z" fill="#C6C6C6"/>
<path d="M246.39 77.9748C246.39 83.4522 246.442 90.7862 244.138 91.0759C245.56 89.3774 245.534 84.1238 245.613 78.6463C245.744 70.3379 244.506 69.4163 244.164 68.4419C245.139 68.4682 246.772 69.7323 246.39 77.9748Z" fill="white"/>
<path d="M266.158 87.7183C266.158 89.8118 264.881 91.4972 263.314 91.4972C261.746 91.4972 260.469 89.7987 260.469 87.7183V71.7862C260.469 69.6927 261.746 68.0073 263.314 68.0073C264.881 68.0073 266.158 69.7059 266.158 71.7862V87.7183Z" fill="#C6C6C6"/>
<path d="M262.971 68.0469C261.562 68.2707 260.469 69.8507 260.469 71.7863V87.7183C260.469 89.6539 261.562 91.2339 262.971 91.4577V68.0469Z" fill="#C6C6C6"/>
<path d="M265.907 77.9748C265.907 83.4522 265.96 90.7862 263.655 91.0759C265.091 89.3774 265.051 84.1238 265.13 78.6463C265.262 70.3379 264.024 69.4163 263.682 68.4419C264.669 68.4682 266.302 69.7323 265.907 77.9748Z" fill="white"/>
<path d="M285.677 87.7183C285.677 89.8118 284.399 91.4972 282.832 91.4972C281.265 91.4972 279.987 89.7987 279.987 87.7183V71.7862C279.987 69.6927 281.265 68.0073 282.832 68.0073C284.399 68.0073 285.677 69.7059 285.677 71.7862V87.7183Z" fill="#C6C6C6"/>
<path d="M282.502 68.0469C281.093 68.2707 280 69.8507 280 71.7863V87.7183C280 89.6539 281.093 91.2339 282.502 91.4577V68.0469Z" fill="#C6C6C6"/>
<path d="M285.44 77.9748C285.44 83.4522 285.492 90.7862 283.188 91.0759C284.623 89.3774 284.584 84.1238 284.663 78.6463C284.794 70.3379 283.556 69.4163 283.214 68.4419C284.202 68.4682 285.822 69.7323 285.44 77.9748Z" fill="white"/>
<path d="M305.208 87.7183C305.208 89.8118 303.931 91.4972 302.363 91.4972C300.796 91.4972 299.519 89.7987 299.519 87.7183V71.7862C299.519 69.6927 300.796 68.0073 302.363 68.0073C303.931 68.0073 305.208 69.7059 305.208 71.7862V87.7183Z" fill="#C6C6C6"/>
<path d="M302.034 68.0469C300.624 68.2707 299.531 69.8507 299.531 71.7863V87.7183C299.531 89.6539 300.624 91.2339 302.034 91.4577V68.0469Z" fill="#C6C6C6"/>
<path d="M304.971 77.9748C304.971 83.4522 305.024 90.7862 302.719 91.0759C304.141 89.3774 304.115 84.1238 304.194 78.6463C304.326 70.3379 303.088 69.4163 302.745 68.4419C303.72 68.4682 305.353 69.7323 304.971 77.9748Z" fill="white"/>
<path d="M324.739 87.7183C324.739 89.8118 323.462 91.4972 321.895 91.4972C320.327 91.4972 319.05 89.7987 319.05 87.7183V71.7862C319.05 69.6927 320.314 68.0073 321.895 68.0073C323.462 68.0073 324.739 69.7059 324.739 71.7862V87.7183Z" fill="#C6C6C6"/>
<path d="M321.552 68.0469C320.143 68.2707 319.05 69.8507 319.05 71.7863V87.7183C319.05 89.6539 320.143 91.2339 321.552 91.4577V68.0469Z" fill="#C6C6C6"/>
<path d="M324.489 77.9748C324.489 83.4522 324.542 90.7862 322.237 91.0759C323.673 89.3774 323.633 84.1238 323.712 78.6463C323.844 70.3379 322.606 69.4163 322.264 68.4419C323.251 68.4682 324.885 69.7323 324.489 77.9748Z" fill="white"/>
<path d="M344.258 87.7183C344.258 89.8118 342.98 91.4972 341.413 91.4972C339.846 91.4972 338.568 89.7987 338.568 87.7183V71.7862C338.568 69.6927 339.846 68.0073 341.413 68.0073C342.98 68.0073 344.258 69.7059 344.258 71.7862V87.7183Z" fill="#C6C6C6"/>
<path d="M341.083 68.0469C339.674 68.2707 338.581 69.8507 338.581 71.7863V87.7183C338.581 89.6539 339.674 91.2339 341.083 91.4577V68.0469Z" fill="#C6C6C6"/>
<path d="M344.021 77.9748C344.021 83.4522 344.073 90.7862 341.769 91.0759C343.191 89.3774 343.165 84.1238 343.244 78.6463C343.375 70.3379 342.137 69.4163 341.795 68.4419C342.783 68.4682 344.403 69.7323 344.021 77.9748Z" fill="white"/>
<path d="M363.789 87.7183C363.789 89.8118 362.525 91.4972 360.944 91.4972C359.377 91.4972 358.1 89.7987 358.1 87.7183V71.7862C358.1 69.6927 359.377 68.0073 360.944 68.0073C362.512 68.0073 363.789 69.7059 363.789 71.7862V87.7183Z" fill="#C6C6C6"/>
<path d="M360.616 68.0469C359.206 68.2707 358.113 69.8507 358.113 71.7863V87.7183C358.113 89.6539 359.206 91.2339 360.616 91.4577V68.0469Z" fill="#C6C6C6"/>
<path d="M363.552 77.9748C363.552 83.4522 363.605 90.7862 361.3 91.0759C362.722 89.3774 362.696 84.1238 362.775 78.6463C362.907 70.3379 361.669 69.4163 361.326 68.4419C362.314 68.4682 363.934 69.7323 363.552 77.9748Z" fill="white"/>
<path d="M408.621 361.723C406.566 366.529 401.417 368.925 397.136 367.082L327.084 337.022C322.803 335.178 320.999 329.806 323.054 325L375.748 202.271C377.816 197.465 382.952 195.069 387.232 196.912L457.285 226.972C461.565 228.816 463.37 234.188 461.315 238.994L408.621 361.723Z" fill="#A8A8A7"/>
<path d="M407.725 353.441C405.763 357.997 401.008 360.327 397.11 358.655L333.208 331.228C329.296 329.556 327.716 324.5 329.678 319.944L379.699 203.443C381.661 198.887 386.402 196.557 390.314 198.229L454.216 225.656C458.128 227.328 459.708 232.384 457.746 236.94L407.725 353.441Z" fill="#C6C6C6"/>
<path d="M435.791 240.745C435.462 241.509 434.646 241.89 433.961 241.601L392.698 223.891C392.013 223.602 391.724 222.746 392.053 221.982C392.382 221.218 393.199 220.836 393.884 221.126L435.146 238.836C435.831 239.125 436.121 239.981 435.791 240.745Z" fill="#454F56"/>
<path d="M445.933 201.191L445.05 195.832L440.559 198.887L439.677 193.541L435.199 196.583L434.316 191.237L429.838 194.279L428.956 188.933L424.478 191.975L423.596 186.629L419.118 189.683L418.235 184.338L413.758 187.379L412.875 182.033L409.24 190.513L408.687 191.803L395.161 223.299L432.696 239.415L446.222 207.907L446.775 206.629L450.424 198.15L445.933 201.191Z" fill="white"/>
<path d="M433.579 278.955C433.012 280.259 431.485 280.865 430.141 280.285L367.28 253.306C365.949 252.727 365.317 251.213 365.884 249.896L374.787 229.171C375.353 227.854 376.881 227.262 378.224 227.841L441.086 254.82C442.416 255.4 443.048 256.914 442.482 258.231L433.579 278.955Z" fill="#454F56"/>
<path d="M430.076 275.98C429.575 277.139 428.232 277.665 427.047 277.152L371.679 253.385C370.507 252.885 369.953 251.542 370.441 250.383L376.499 236.268C376.999 235.11 378.343 234.583 379.528 235.096L434.896 258.863C436.068 259.363 436.621 260.706 436.134 261.865L430.076 275.98Z" fill="#2C8981"/>
<path d="M372.956 267.777C372.6 268.619 371.626 269.001 370.783 268.646L361.366 264.603C360.523 264.248 360.141 263.274 360.497 262.431L361.511 260.061C361.867 259.218 362.841 258.836 363.684 259.192L373.101 263.234C373.944 263.59 374.326 264.577 373.97 265.407L372.956 267.777Z" fill="#2C8981"/>
<path d="M386.772 273.702C386.416 274.545 385.441 274.926 384.598 274.571L375.182 270.529C374.339 270.173 373.957 269.199 374.312 268.356L375.327 265.986C375.682 265.143 376.657 264.762 377.5 265.117L386.916 269.159C387.759 269.515 388.141 270.489 387.786 271.332L386.772 273.702Z" fill="#424F7D"/>
<path d="M400.587 279.627C400.231 280.47 399.257 280.852 398.414 280.496L388.997 276.454C388.154 276.098 387.772 275.124 388.128 274.281L389.142 271.911C389.498 271.068 390.472 270.687 391.315 271.042L400.732 275.084C401.575 275.44 401.957 276.414 401.601 277.257L400.587 279.627Z" fill="#424F7D"/>
<path d="M414.39 285.552C414.034 286.395 413.059 286.777 412.217 286.421L402.8 282.379C401.957 282.023 401.575 281.049 401.931 280.206L402.945 277.836C403.3 276.994 404.275 276.612 405.118 276.967L414.535 281.009C415.377 281.365 415.759 282.339 415.404 283.182L414.39 285.552Z" fill="#424F7D"/>
<path d="M428.205 291.477C427.85 292.32 426.875 292.702 426.032 292.346L416.615 288.304C415.772 287.949 415.39 286.974 415.746 286.132L416.76 283.761C417.116 282.919 418.09 282.537 418.933 282.892L428.35 286.935C429.193 287.29 429.575 288.265 429.219 289.107L428.205 291.477Z" fill="#424F7D"/>
<path d="M367.754 279.89C367.398 280.733 366.424 281.115 365.581 280.759L356.164 276.717C355.321 276.362 354.939 275.387 355.295 274.545L358.35 267.434C358.706 266.592 359.681 266.21 360.523 266.565L369.94 270.608C370.783 270.963 371.165 271.937 370.809 272.78L367.754 279.89Z" fill="#424F7D"/>
<path d="M381.569 285.815C381.214 286.658 380.239 287.04 379.396 286.684L369.98 282.642C369.137 282.287 368.755 281.312 369.11 280.47L372.166 273.359C372.521 272.517 373.496 272.135 374.339 272.49L383.756 276.533C384.599 276.888 384.98 277.863 384.625 278.705L381.569 285.815Z" fill="#424F7D"/>
<path d="M395.385 291.741C395.029 292.583 394.055 292.965 393.212 292.61L383.795 288.567C382.952 288.212 382.57 287.238 382.926 286.395L385.981 279.285C386.337 278.442 387.311 278.06 388.154 278.416L397.571 282.458C398.414 282.813 398.796 283.788 398.44 284.63L395.385 291.741Z" fill="#424F7D"/>
<path d="M409.188 297.666C408.832 298.508 407.857 298.89 407.014 298.535L397.598 294.492C396.755 294.137 396.373 293.163 396.728 292.32L399.784 285.21C400.14 284.367 401.114 283.985 401.957 284.341L411.374 288.383C412.217 288.739 412.599 289.713 412.243 290.556L409.188 297.666Z" fill="#EDEDED"/>
<path d="M423.003 303.591C422.647 304.433 421.673 304.815 420.83 304.46L411.413 300.418C410.57 300.062 410.188 299.074 410.544 298.245L413.599 291.135C413.955 290.292 414.93 289.91 415.772 290.266L425.189 294.308C426.032 294.664 426.414 295.638 426.058 296.481L423.003 303.591Z" fill="#EDEDED"/>
<path d="M362.301 292.583C361.945 293.426 360.971 293.808 360.128 293.452L350.711 289.41C349.868 289.055 349.486 288.08 349.842 287.238L352.897 280.127C353.253 279.285 354.227 278.903 355.07 279.258L364.487 283.301C365.33 283.656 365.712 284.631 365.356 285.473L362.301 292.583Z" fill="#424F7D"/>
<path d="M376.116 298.508C375.761 299.351 374.786 299.733 373.943 299.377L364.526 295.335C363.684 294.98 363.302 294.005 363.657 293.163L366.713 286.053C367.068 285.21 368.043 284.828 368.886 285.183L378.302 289.226C379.145 289.581 379.527 290.556 379.172 291.398L376.116 298.508Z" fill="#424F7D"/>
<path d="M389.932 304.434C389.576 305.276 388.602 305.658 387.759 305.303L378.342 301.261C377.499 300.905 377.117 299.931 377.473 299.088L380.528 291.978C380.884 291.135 381.858 290.753 382.701 291.109L392.118 295.151C392.961 295.507 393.343 296.481 392.987 297.324L389.932 304.434Z" fill="#424F7D"/>
<path d="M403.734 310.359C403.379 311.202 402.404 311.583 401.561 311.228L392.145 307.186C391.302 306.83 390.92 305.856 391.275 305.013L394.331 297.903C394.686 297.06 395.661 296.678 396.504 297.034L405.921 301.076C406.764 301.432 407.146 302.406 406.79 303.249L403.734 310.359Z" fill="#EDEDED"/>
<path d="M417.55 316.297C417.194 317.14 416.22 317.522 415.377 317.166L405.96 313.124C405.117 312.768 404.735 311.794 405.091 310.951L408.146 303.841C408.502 302.998 409.476 302.617 410.319 302.972L419.736 307.014C420.579 307.37 420.961 308.344 420.605 309.187L417.55 316.297Z" fill="#EDEDED"/>
<path d="M356.861 305.276C356.506 306.119 355.531 306.501 354.688 306.145L345.272 302.103C344.429 301.748 344.047 300.773 344.402 299.931L347.458 292.82C347.813 291.978 348.788 291.596 349.631 291.951L359.048 295.994C359.891 296.349 360.272 297.323 359.917 298.166L356.861 305.276Z" fill="#424F7D"/>
<path d="M370.664 311.201C370.308 312.044 369.334 312.426 368.491 312.07L359.074 308.028C358.231 307.673 357.849 306.698 358.205 305.856L361.26 298.745C361.616 297.903 362.591 297.521 363.434 297.876L372.85 301.919C373.693 302.274 374.075 303.248 373.72 304.091L370.664 311.201Z" fill="#424F7D"/>
<path d="M384.48 317.127C384.124 317.969 383.149 318.351 382.306 317.996L372.89 313.953C372.047 313.598 371.665 312.624 372.02 311.781L375.076 304.671C375.432 303.828 376.406 303.446 377.249 303.802L386.666 307.844C387.509 308.199 387.891 309.174 387.535 310.016L384.48 317.127Z" fill="#424F7D"/>
<path d="M398.282 323.052C397.927 323.894 396.952 324.276 396.109 323.921L386.692 319.878C385.849 319.523 385.468 318.549 385.823 317.706L388.879 310.596C389.234 309.753 390.209 309.371 391.052 309.727L400.469 313.769C401.311 314.124 401.693 315.099 401.338 315.942L398.282 323.052Z" fill="#EDEDED"/>
<path d="M412.098 328.99C411.742 329.833 410.767 330.215 409.925 329.859L400.508 325.817C399.665 325.461 399.283 324.487 399.639 323.644L402.694 316.534C403.05 315.691 404.024 315.31 404.867 315.665L414.284 319.707C415.127 320.063 415.509 321.037 415.153 321.88L412.098 328.99Z" fill="#EDEDED"/>
<path d="M351.409 317.969C351.054 318.812 350.079 319.194 349.236 318.838L339.819 314.796C338.976 314.44 338.595 313.466 338.95 312.623L342.006 305.513C342.361 304.671 343.336 304.289 344.179 304.644L353.596 308.686C354.438 309.042 354.82 310.016 354.465 310.859L351.409 317.969Z" fill="#424F7D"/>
<path d="M365.212 323.894C364.856 324.737 363.882 325.119 363.039 324.763L353.622 320.721C352.779 320.366 352.397 319.391 352.753 318.549L355.808 311.439C356.164 310.596 357.139 310.214 357.981 310.569L367.398 314.612C368.241 314.967 368.623 315.942 368.267 316.784L365.212 323.894Z" fill="#424F7D"/>
<path d="M379.027 329.82C378.672 330.662 377.697 331.044 376.854 330.689L367.438 326.646C366.595 326.291 366.213 325.316 366.568 324.474L369.624 317.364C369.979 316.521 370.954 316.139 371.797 316.495L381.214 320.537C382.057 320.892 382.438 321.867 382.083 322.709L379.027 329.82Z" fill="#424F7D"/>
<path d="M406.646 341.683C406.29 342.526 405.315 342.907 404.472 342.552L395.056 338.51C394.213 338.154 393.831 337.18 394.186 336.337L397.242 329.227C397.598 328.384 398.572 328.002 399.415 328.358L408.832 332.4C409.675 332.756 410.057 333.73 409.701 334.573L406.646 341.683Z" fill="#EDEDED"/>
<path d="M345.957 330.662C345.601 331.505 344.627 331.887 343.784 331.531L334.367 327.489C333.524 327.133 333.142 326.159 333.498 325.316L336.553 318.206C336.909 317.364 337.884 316.982 338.727 317.337L348.143 321.379C348.986 321.735 349.368 322.709 349.013 323.552L345.957 330.662Z" fill="#424F7D"/>
<path d="M359.773 336.587C359.417 337.43 358.442 337.812 357.599 337.456L348.183 333.414C347.34 333.059 346.958 332.084 347.313 331.242L350.369 324.131C350.725 323.289 351.699 322.907 352.542 323.262L361.959 327.305C362.802 327.66 363.184 328.634 362.828 329.477L359.773 336.587Z" fill="#424F7D"/>
<path d="M373.575 342.513C373.22 343.355 372.245 343.737 371.402 343.382L361.985 339.339C361.142 338.984 360.761 338.009 361.116 337.167L364.172 330.057C364.527 329.214 365.502 328.832 366.345 329.188L375.761 333.23C376.604 333.585 376.986 334.56 376.631 335.402L373.575 342.513Z" fill="#424F7D"/>
<path d="M395.016 326.462L385.599 322.42C384.756 322.064 383.781 322.446 383.426 323.289L381.305 328.226L380.37 330.399L374.918 343.092C374.562 343.935 374.944 344.909 375.787 345.264L385.204 349.307C386.047 349.662 387.021 349.28 387.377 348.438L392.829 335.745L393.765 333.572L395.885 328.635C396.254 327.805 395.859 326.831 395.016 326.462Z" fill="#EDEDED"/>
<path d="M401.193 354.376C400.838 355.219 399.863 355.6 399.02 355.245L389.604 351.203C388.761 350.847 388.379 349.873 388.734 349.03L391.79 341.92C392.145 341.077 393.12 340.695 393.963 341.051L403.38 345.093C404.223 345.449 404.604 346.423 404.249 347.266L401.193 354.376Z" fill="#EDEDED"/>
<path d="M141.123 142.228L140.013 142.12L137.846 135.877L138.923 135.89L141.123 142.228ZM138.922 142.069L137.812 141.961L135.931 136.542L137.008 136.554L138.922 142.069ZM144.1 142.461L142.945 142.347C143.059 142.079 143.144 141.808 143.199 141.535C143.255 141.262 143.276 140.988 143.263 140.713C143.25 140.439 143.196 140.165 143.101 139.89C142.912 139.348 142.593 138.911 142.142 138.581C141.692 138.251 141.131 138.062 140.459 138.012C139.788 137.963 139.027 138.085 138.178 138.38C137.329 138.674 136.657 139.049 136.16 139.503C135.663 139.958 135.34 140.454 135.191 140.993C135.042 141.531 135.061 142.071 135.249 142.614C135.347 142.894 135.476 143.147 135.635 143.37C135.796 143.597 135.978 143.796 136.181 143.969C136.385 144.145 136.599 144.298 136.823 144.428L135.993 145.252C135.561 145.026 135.185 144.717 134.867 144.323C134.551 143.929 134.308 143.487 134.139 142.999C133.866 142.214 133.829 141.447 134.027 140.699C134.226 139.954 134.643 139.279 135.276 138.673C135.911 138.07 136.746 137.589 137.78 137.231C138.814 136.872 139.767 136.733 140.638 136.813C141.511 136.896 142.256 137.169 142.874 137.63C143.493 138.095 143.939 138.72 144.211 139.505C144.387 140.012 144.464 140.517 144.442 141.018C144.42 141.523 144.306 142.004 144.1 142.461Z" fill="#1D9239"/>
<path d="M176.053 124.135L175.369 124.638L170.965 122.204L171.581 121.663L176.053 124.135ZM174.725 125.164L174.041 125.668L170.217 123.554L170.834 123.014L174.725 125.164ZM177.859 122.752L177.146 123.275C177.074 123.065 176.984 122.868 176.877 122.685C176.769 122.502 176.642 122.336 176.495 122.188C176.348 122.039 176.178 121.911 175.984 121.804C175.601 121.592 175.198 121.507 174.775 121.55C174.352 121.592 173.937 121.77 173.531 122.084C173.126 122.397 172.757 122.854 172.426 123.453C172.095 124.051 171.904 124.606 171.854 125.116C171.804 125.627 171.874 126.072 172.063 126.453C172.252 126.834 172.538 127.13 172.921 127.342C173.119 127.451 173.32 127.529 173.524 127.574C173.731 127.621 173.936 127.641 174.139 127.636C174.344 127.632 174.543 127.609 174.736 127.569L174.685 128.458C174.325 128.55 173.955 128.566 173.574 128.505C173.194 128.443 172.832 128.316 172.487 128.125C171.934 127.819 171.522 127.404 171.254 126.879C170.988 126.356 170.88 125.761 170.931 125.095C170.984 124.431 171.212 123.734 171.615 123.004C172.019 122.275 172.488 121.711 173.023 121.313C173.56 120.916 174.121 120.691 174.706 120.638C175.293 120.587 175.863 120.714 176.417 121.02C176.775 121.218 177.075 121.465 177.318 121.76C177.562 122.057 177.743 122.388 177.859 122.752Z" fill="#F4C83C"/>
<path d="M113.641 158.011L112.957 158.515L108.552 156.08L109.169 155.539L113.641 158.011ZM112.313 159.041L111.629 159.545L107.805 157.431L108.422 156.89L112.313 159.041ZM115.447 156.628L114.734 157.151C114.662 156.941 114.572 156.745 114.465 156.562C114.357 156.379 114.23 156.213 114.083 156.064C113.936 155.915 113.766 155.787 113.572 155.68C113.189 155.469 112.786 155.384 112.363 155.426C111.94 155.469 111.525 155.647 111.119 155.96C110.714 156.274 110.345 156.73 110.014 157.329C109.683 157.928 109.492 158.482 109.442 158.993C109.392 159.503 109.462 159.949 109.651 160.33C109.84 160.711 110.126 161.007 110.509 161.218C110.707 161.328 110.908 161.405 111.112 161.451C111.319 161.497 111.524 161.518 111.726 161.512C111.932 161.508 112.131 161.486 112.323 161.446L112.273 162.335C111.913 162.427 111.543 162.443 111.162 162.382C110.782 162.319 110.42 162.192 110.075 162.002C109.521 161.696 109.11 161.28 108.842 160.756C108.576 160.232 108.468 159.638 108.519 158.972C108.572 158.307 108.8 157.61 109.203 156.881C109.607 156.151 110.076 155.588 110.611 155.19C111.148 154.793 111.709 154.568 112.294 154.515C112.881 154.463 113.451 154.59 114.005 154.897C114.363 155.095 114.663 155.341 114.906 155.637C115.15 155.934 115.33 156.264 115.447 156.628Z" fill="#F4C83C"/>
<path d="M135.631 157.653L134.947 158.156L130.543 155.722L131.159 155.181L135.631 157.653ZM134.303 158.682L133.619 159.186L129.796 157.073L130.412 156.532L134.303 158.682ZM137.437 156.27L136.724 156.793C136.652 156.583 136.562 156.386 136.455 156.203C136.347 156.02 136.22 155.854 136.073 155.706C135.926 155.557 135.756 155.429 135.562 155.322C135.179 155.11 134.776 155.025 134.353 155.068C133.93 155.11 133.515 155.288 133.11 155.602C132.704 155.915 132.335 156.372 132.004 156.971C131.673 157.569 131.482 158.124 131.432 158.634C131.382 159.145 131.452 159.59 131.641 159.971C131.83 160.352 132.116 160.648 132.499 160.86C132.697 160.97 132.898 161.047 133.103 161.092C133.309 161.139 133.514 161.159 133.717 161.154C133.922 161.15 134.121 161.128 134.314 161.087L134.263 161.976C133.903 162.068 133.533 162.084 133.152 162.024C132.772 161.961 132.41 161.834 132.066 161.643C131.512 161.337 131.101 160.922 130.832 160.397C130.566 159.874 130.458 159.279 130.509 158.613C130.562 157.949 130.79 157.252 131.194 156.522C131.597 155.793 132.066 155.229 132.601 154.831C133.138 154.434 133.699 154.209 134.284 154.156C134.871 154.105 135.442 154.232 135.995 154.538C136.353 154.736 136.654 154.983 136.896 155.279C137.14 155.575 137.321 155.906 137.437 156.27Z" fill="#F4C83C"/>
</svg>
