<svg width="445" height="446" viewBox="0 0 445 446" fill="none" xmlns="http://www.w3.org/2000/svg">
<g clip-path="url(#clip0_181_1991)">
<path d="M333.1 219.78C333.1 219.78 332.3 220.47 330.52 221.11C328.78 221.73 325.88 222.19 322.66 221.01C321.07 220.42 319.42 219.44 318.06 217.96C316.72 216.48 315.58 214.57 315.13 212.34C314.87 211.24 314.8 210.07 314.89 208.89C314.97 207.71 315.24 206.51 315.7 205.37C316.58 203.06 318.29 201 320.5 199.6C322.73 198.23 325.33 197.6 327.79 197.82C329.02 197.9 330.21 198.19 331.31 198.64C332.41 199.07 333.43 199.66 334.31 200.37C336.11 201.75 337.33 203.62 338.07 205.47C338.81 207.34 338.96 209.26 338.79 210.94C338.43 214.36 336.75 216.75 335.43 218.05C334.07 219.37 333.1 219.79 333.1 219.79C333.05 219.72 333.97 219.21 335.24 217.87C336.48 216.55 338.03 214.19 338.32 210.9C338.45 209.28 338.27 207.45 337.55 205.68C336.82 203.92 335.65 202.16 333.93 200.86C333.09 200.19 332.12 199.64 331.08 199.24C330.04 198.82 328.91 198.56 327.75 198.48C325.42 198.28 322.97 198.88 320.86 200.17C318.78 201.5 317.16 203.44 316.32 205.61C315.88 206.69 315.62 207.82 315.54 208.94C315.44 210.06 315.51 211.17 315.74 212.21C316.15 214.32 317.22 216.15 318.48 217.58C319.76 219.01 321.32 219.97 322.83 220.57C325.91 221.76 328.71 221.4 330.44 220.87C332.2 220.32 333.06 219.72 333.1 219.79V219.78Z" fill="#E0E0E0"/>
<path d="M335.22 235.32C335.22 235.32 335.33 235.4 335.53 235.6C335.75 235.81 336.05 236.1 336.43 236.47C337.25 237.28 338.42 238.44 339.95 239.94L339.82 239.92C342.19 238.42 345.3 236.46 349.06 234.08L348.99 234.28C348.32 232.39 347.58 230.3 346.79 228.05L346.75 227.94L346.83 227.85C348.34 226.22 349.76 224.29 350.92 222.08L350.98 221.96H351.11C353.17 221.96 355.4 221.96 357.72 221.97L357.49 222.16C358.26 218.8 359.07 215.24 359.93 211.5L360.07 211.8C358.23 210.91 356.2 209.94 354.11 208.94L353.96 208.87V208.7C353.88 206.51 353.52 204.1 352.78 201.74L352.73 201.57L352.86 201.45C354.31 200.01 355.91 198.41 357.55 196.79L357.51 197.16C355.69 194.25 353.72 191.11 351.71 187.89L352.08 188.02C350.14 188.7 348.01 189.44 345.84 190.2L345.66 190.26L345.52 190.13C343.91 188.62 341.95 187.18 339.78 186.04L339.61 185.95V185.75C339.61 183.68 339.63 181.42 339.64 179.14L339.9 179.46C336.53 178.68 332.91 177.85 329.25 177L329.63 176.82C328.72 178.7 327.74 180.73 326.76 182.77L326.67 182.95H326.47C324.23 183.03 321.84 183.4 319.53 184.11C319.38 184.07 319.87 184.2 319.19 184.03V184.02L319.17 184L319.13 183.96L319.06 183.89L318.91 183.74L318.62 183.44L318.04 182.85L316.87 181.67C316.09 180.89 315.32 180.11 314.55 179.33L314.97 179.38C311.84 181.34 308.74 183.27 305.69 185.17L305.83 184.78C306.56 186.88 307.29 188.96 308 191.02L308.07 191.21L307.93 191.36C306.3 193.1 304.92 195.03 303.84 197.09L303.75 197.26H303.55C301.32 197.25 299.11 197.24 296.94 197.22L297.25 196.97C296.41 200.61 295.58 204.16 294.78 207.62L294.61 207.27C296.63 208.25 298.61 209.21 300.56 210.15L300.72 210.23V210.41C300.8 212.82 301.2 215.16 301.87 217.37L301.92 217.54L301.79 217.66C300.18 219.25 298.62 220.79 297.09 222.3L297.13 221.95C299.16 225.22 301.08 228.3 302.9 231.24L302.6 231.13C304.8 230.37 306.86 229.66 308.84 228.97L308.98 228.92L309.09 229.02C310.93 230.75 312.87 232.09 314.83 233.14L314.95 233.2V233.33C314.93 235.73 314.91 237.89 314.9 239.94L314.75 239.75C318.87 240.72 322.38 241.55 325.39 242.26L325.22 242.34C326.38 239.97 327.34 238.03 328.13 236.41L328.16 236.35H328.23C330.63 236.28 332.39 235.94 333.55 235.69C334.1 235.56 334.53 235.45 334.84 235.38C335.13 235.3 335.27 235.27 335.27 235.28C335.27 235.28 335.13 235.34 334.86 235.43C334.58 235.52 334.16 235.65 333.58 235.79C332.43 236.08 330.66 236.45 328.25 236.55L328.34 236.49C327.57 238.12 326.64 240.07 325.5 242.46L325.45 242.57L325.33 242.54C322.32 241.86 318.8 241.06 314.67 240.12L314.52 240.08V239.92C314.52 237.88 314.52 235.71 314.52 233.31L314.64 233.51C312.64 232.46 310.65 231.1 308.77 229.35L309.01 229.4C307.03 230.1 304.97 230.82 302.78 231.59L302.59 231.66L302.48 231.48C300.64 228.55 298.72 225.48 296.67 222.22L296.55 222.03L296.71 221.87C298.23 220.36 299.79 218.81 301.39 217.21L301.32 217.5C300.62 215.25 300.21 212.85 300.13 210.39L300.3 210.65C298.35 209.71 296.37 208.76 294.35 207.78L294.13 207.67L294.19 207.43C294.99 203.97 295.81 200.41 296.64 196.78L296.7 196.53H296.96C299.13 196.53 301.33 196.55 303.57 196.55L303.28 196.72C304.39 194.61 305.8 192.63 307.47 190.84L307.4 191.17C306.68 189.11 305.96 187.03 305.22 184.93L305.13 184.68L305.36 184.54C308.41 182.64 311.5 180.7 314.63 178.75L314.86 178.61L315.05 178.8C315.82 179.58 316.59 180.36 317.37 181.14L318.54 182.32L319.12 182.91L319.41 183.21L319.56 183.36L319.63 183.43L319.67 183.47L319.69 183.49V183.5C319.01 183.33 319.5 183.45 319.35 183.41C321.72 182.68 324.17 182.3 326.46 182.23L326.17 182.42C327.16 180.38 328.14 178.35 329.05 176.47L329.17 176.23L329.43 176.29C333.09 177.14 336.71 177.98 340.08 178.76L340.34 178.82V179.08C340.33 181.36 340.31 183.62 340.3 185.69L340.13 185.4C342.34 186.57 344.35 188.04 346 189.59L345.68 189.52C347.84 188.77 349.98 188.03 351.92 187.35L352.16 187.27L352.29 187.48C354.3 190.7 356.25 193.85 358.07 196.76L358.2 196.96L358.03 197.13C356.39 198.75 354.79 200.33 353.33 201.77L353.4 201.48C354.14 203.89 354.51 206.35 354.57 208.59L354.41 208.35C356.49 209.36 358.51 210.34 360.36 211.24L360.55 211.33L360.5 211.54C359.63 215.28 358.8 218.83 358.01 222.19L357.97 222.38H357.78C355.46 222.36 353.23 222.35 351.17 222.33L351.37 222.21C350.17 224.45 348.73 226.41 347.18 228.04L347.22 227.84C347.99 230.09 348.72 232.19 349.37 234.09L349.41 234.22L349.29 234.29C345.5 236.63 342.37 238.56 339.98 240.03L339.91 240.08L339.85 240.02C338.37 238.49 337.23 237.32 336.44 236.5C336.07 236.11 335.78 235.81 335.57 235.58C335.37 235.37 335.28 235.26 335.28 235.25L335.22 235.32Z" fill="#E0E0E0"/>
<path fill-rule="evenodd" clip-rule="evenodd" d="M356.99 156.21C353.73 157.21 350.38 157.76 347.05 157.87L342.99 166.28L327.93 162.8L327.97 153.46C325.02 151.9 322.26 149.94 319.76 147.61L310.94 150.68L302.75 137.57L309.38 131C308.37 127.74 307.83 124.39 307.73 121.06L299.32 116.99L302.8 101.93L312.14 101.97C313.7 99.02 315.66 96.26 317.99 93.77L314.91 84.95L328.02 76.76L334.59 83.4C337.85 82.39 341.2 81.85 344.53 81.74L348.6 73.33L363.66 76.81L363.62 86.16C366.57 87.72 369.33 89.68 371.82 92.01L380.64 88.94L388.83 102.05L382.2 108.62C383.21 111.88 383.75 115.23 383.86 118.56L392.27 122.63L388.79 137.69L379.44 137.65C377.88 140.6 375.92 143.36 373.59 145.86L376.66 154.68L363.55 162.87L356.97 156.24L356.99 156.21ZM353.99 134.23C361.76 129.38 364.13 119.15 359.28 111.38C354.43 103.61 344.2 101.24 336.43 106.09C328.66 110.94 326.29 121.17 331.14 128.94C335.99 136.71 346.22 139.08 353.99 134.23Z" fill="#E0E0E0"/>
<path fill-rule="evenodd" clip-rule="evenodd" d="M392.47 206.02C390.73 206.55 388.96 206.84 387.18 206.9L385.02 211.38L377.01 209.53L377.03 204.56C375.46 203.73 373.99 202.69 372.66 201.45L367.97 203.09L363.62 196.11L367.15 192.61C366.62 190.87 366.33 189.09 366.27 187.32L361.79 185.16L363.64 177.15L368.61 177.17C369.44 175.6 370.48 174.13 371.72 172.81L370.08 168.12L377.06 163.76L380.56 167.29C382.3 166.75 384.07 166.47 385.85 166.41L388.01 161.93L396.02 163.78L396 168.75C397.57 169.58 399.04 170.62 400.36 171.86L405.05 170.23L409.41 177.21L405.88 180.71C406.42 182.45 406.7 184.23 406.76 186L411.24 188.16L409.39 196.17L404.42 196.15C403.59 197.72 402.55 199.19 401.31 200.52L402.95 205.21L395.97 209.57L392.47 206.04V206.02ZM390.87 194.33C395 191.75 396.26 186.31 393.68 182.17C391.1 178.04 385.66 176.78 381.52 179.36C377.39 181.94 376.13 187.38 378.71 191.52C381.29 195.65 386.73 196.91 390.87 194.33Z" fill="#EBEBEB"/>
<path d="M85.6099 117.54C85.7099 117.64 81.0199 122.45 75.1399 128.27C69.2499 134.09 64.3999 138.73 64.2999 138.63C64.1999 138.53 68.8899 133.73 74.7699 127.9C80.6499 122.08 85.5099 117.44 85.6099 117.54Z" fill="#E0E0E0"/>
<path d="M85.6599 138.57C85.5599 138.67 80.6799 134.06 74.7699 128.27C68.8599 122.47 64.1399 117.69 64.2499 117.59C64.3499 117.49 69.2199 122.1 75.1399 127.9C81.0499 133.69 85.7599 138.47 85.6599 138.58V138.57Z" fill="#E0E0E0"/>
<path d="M106.81 250.62C106.79 250.76 100.81 250.25 93.4501 249.47C86.0801 248.69 80.1301 247.95 80.1401 247.8C80.1601 247.66 86.1401 248.17 93.5001 248.95C100.86 249.73 106.82 250.47 106.81 250.62Z" fill="#E0E0E0"/>
<path d="M105.75 260.67C105.73 260.81 99.7501 260.3 92.3901 259.52C85.0201 258.74 79.0701 258 79.0801 257.85C79.1001 257.71 85.0801 258.22 92.4401 259C99.8001 259.78 105.76 260.52 105.75 260.67Z" fill="#E0E0E0"/>
<path d="M33.64 228.58C33.64 228.58 25.72 228.01 26.45 245.77C27.18 263.53 28.99 273 28.99 273C28.99 273 28.76 276.94 25.71 276.17C22.66 275.4 16.92 271.56 14.09 274.43C11.15 277.4 12.2 281.96 16.09 287.33C19.99 292.7 28.1 304.77 28.83 305.87C29.55 306.94 29.83 308.96 27.67 308.77C25.51 308.58 10.91 303.63 8.97999 310.7C7.04999 317.77 20.37 330.94 21.79 332.41C23.22 333.88 23.3 334.8 22.72 335.69C22.14 336.58 17.39 334.45 13.18 333.22C8.96999 331.98 3.86999 331.29 3.09999 335.46C2.32999 339.63 8.18999 351.84 30.16 364.66L40.73 369.94L50.73 363.56C71.31 348.6 75.92 335.87 74.74 331.8C73.55 327.73 68.55 328.93 64.49 330.58C60.43 332.23 55.91 334.82 55.25 334C54.58 333.17 54.57 332.24 55.84 330.64C57.11 329.04 69.05 314.6 66.42 307.76C63.79 300.92 49.76 307.3 47.63 307.71C45.5 308.12 45.58 306.09 46.19 304.94C46.81 303.78 53.67 290.95 57.01 285.22C60.35 279.49 60.94 274.85 57.71 272.19C54.6 269.62 49.28 274.01 46.32 275.08C43.36 276.15 42.74 272.26 42.74 272.26C42.74 272.26 43.6 262.66 42.55 244.92C41.5 227.17 33.49 228.6 33.49 228.6" fill="#EBEBEB"/>
<path d="M34.27 244.49C34.27 244.49 34.29 244.62 34.31 244.86C34.33 245.12 34.36 245.48 34.39 245.95C34.46 246.93 34.55 248.34 34.67 250.14C34.91 253.78 35.22 259.06 35.58 265.58C36.3 278.62 37.15 296.64 38.02 316.54C38.89 336.45 39.69 354.47 40.34 367.51C40.67 374.02 40.94 379.29 41.13 382.95C41.22 384.76 41.29 386.17 41.34 387.15C41.36 387.62 41.37 387.98 41.38 388.24C41.38 388.49 41.38 388.61 41.38 388.61C41.38 388.61 41.36 388.48 41.34 388.24C41.32 387.98 41.29 387.62 41.26 387.15C41.19 386.17 41.1 384.76 40.98 382.96C40.74 379.32 40.43 374.04 40.07 367.52C39.35 354.48 38.5 336.46 37.63 316.55C36.76 296.65 35.96 278.63 35.31 265.59C34.98 259.08 34.71 253.81 34.52 250.15C34.43 248.34 34.36 246.93 34.31 245.95C34.29 245.48 34.28 245.12 34.27 244.86C34.27 244.61 34.27 244.49 34.27 244.49Z" fill="#E0E0E0"/>
<path d="M21.8998 280.11C21.8998 280.11 22.1498 280.29 22.5598 280.66C22.9698 281.03 23.5398 281.58 24.2398 282.27C25.6298 283.65 27.5098 285.61 29.5398 287.81C31.5298 289.98 33.3198 291.95 34.7098 293.47C35.3298 294.14 35.8498 294.71 36.2798 295.18C36.6498 295.58 36.8498 295.81 36.8298 295.83C36.8098 295.85 36.5798 295.66 36.1698 295.29C35.7598 294.92 35.1898 294.37 34.4998 293.67C33.1198 292.27 31.2698 290.29 29.2398 288.09C27.2398 285.93 25.4298 283.98 24.0298 282.47C23.4098 281.8 22.8798 281.24 22.4498 280.77C22.0798 280.36 21.8798 280.13 21.8998 280.11Z" fill="#E0E0E0"/>
<path d="M37.8699 295.48C37.7899 295.4 41.6599 291.35 46.4999 286.44C51.3499 281.52 55.3399 277.61 55.4199 277.68C55.4999 277.76 51.6399 281.81 46.7899 286.72C41.9399 291.63 37.9499 295.55 37.8699 295.48Z" fill="#E0E0E0"/>
<path d="M37.8301 326.1C37.8301 326.1 38.0801 325.91 38.5701 325.63C39.1301 325.31 39.8201 324.93 40.6401 324.47C42.3801 323.49 44.7901 322.13 47.3901 320.53C49.9901 318.94 52.3001 317.42 53.9601 316.3C54.7401 315.78 55.3901 315.34 55.9301 314.98C56.4001 314.67 56.6601 314.51 56.6801 314.54C56.7001 314.57 56.4601 314.77 56.0201 315.11C55.5801 315.46 54.9301 315.95 54.1201 316.53C52.5001 317.71 50.2101 319.27 47.5901 320.87C44.9801 322.47 42.5501 323.8 40.7701 324.72C39.8801 325.18 39.1501 325.53 38.6401 325.77C38.1301 326.01 37.8401 326.12 37.8301 326.1Z" fill="#E0E0E0"/>
<path d="M20.3201 315.38C20.3201 315.38 20.5901 315.48 21.0501 315.72C21.5101 315.96 22.1601 316.33 22.9701 316.78C24.5801 317.69 26.7901 318.98 29.2101 320.42C31.6401 321.86 33.8201 323.19 35.3901 324.17C36.1801 324.66 36.8101 325.06 37.2401 325.35C37.6701 325.64 37.9001 325.8 37.8901 325.83C37.8801 325.85 37.6201 325.73 37.1601 325.49C36.7001 325.25 36.0501 324.88 35.2401 324.43C33.6301 323.52 31.4201 322.23 29.0001 320.79C26.5701 319.35 24.3901 318.02 22.8201 317.04C22.0301 316.55 21.4001 316.15 20.9701 315.86C20.5401 315.57 20.3101 315.41 20.3201 315.38Z" fill="#E0E0E0"/>
<path d="M16.8499 342.42C16.8499 342.42 17.1899 342.56 17.7799 342.87C18.4299 343.23 19.2599 343.68 20.2399 344.23C22.3099 345.39 25.1499 347.02 28.2799 348.84C31.4099 350.66 34.2298 352.33 36.2598 353.55C37.2198 354.14 38.0199 354.63 38.6599 355.02C39.2199 355.37 39.5198 355.58 39.5098 355.61C39.4998 355.63 39.1699 355.47 38.5799 355.16C37.9299 354.8 37.0998 354.35 36.1199 353.8C34.0499 352.64 31.2099 351.01 28.0799 349.19C24.9499 347.37 22.1299 345.7 20.0999 344.48C19.1399 343.89 18.3399 343.4 17.6999 343.01C17.1399 342.66 16.8399 342.45 16.8499 342.42Z" fill="#E0E0E0"/>
<path d="M39.0498 355.13C39.0498 355.13 39.3598 354.89 39.9698 354.51C40.6398 354.1 41.5098 353.58 42.5398 352.95C44.7098 351.63 47.6998 349.79 50.9398 347.68C54.1898 345.57 57.0798 343.58 59.1598 342.13C60.1498 341.44 60.9798 340.86 61.6298 340.41C62.2198 340.01 62.5498 339.8 62.5598 339.82C62.5798 339.84 62.2798 340.1 61.7198 340.54C61.1598 340.98 60.3498 341.61 59.3198 342.36C57.2798 343.87 54.4098 345.9 51.1498 348.02C47.8998 350.14 44.8798 351.94 42.6698 353.2C41.5598 353.83 40.6598 354.32 40.0298 354.65C39.3998 354.98 39.0498 355.15 39.0298 355.13H39.0498Z" fill="#E0E0E0"/>
<path d="M54.9299 373.37H25.6899L35.2399 445.61H45.3899L54.9299 373.37Z" fill="#E0E0E0"/>
<path d="M27.21 382.25C27.21 382.25 27.24 382.35 27.37 382.51C27.49 382.66 27.72 382.86 28.08 383.01C28.77 383.31 29.99 383.34 31.17 382.63C32.35 381.98 33.38 380.7 34.96 380.13C36.53 379.53 38.47 379.64 40.34 380.24C42.23 380.82 43.86 381.78 45.35 382.67C46.84 383.55 48.2 384.34 49.42 384.85C50.63 385.38 51.69 385.62 52.42 385.72C52.79 385.77 53.07 385.78 53.27 385.78C53.46 385.78 53.57 385.78 53.57 385.76C53.59 385.66 51.92 385.68 49.56 384.55C48.38 384.01 47.05 383.2 45.58 382.3C44.11 381.39 42.43 380.4 40.49 379.8C38.57 379.18 36.5 379.07 34.81 379.74C33.97 380.06 33.26 380.56 32.67 381.06C32.07 381.55 31.54 382.02 31 382.36C29.93 383.05 28.81 383.08 28.15 382.85C27.48 382.62 27.26 382.22 27.22 382.26L27.21 382.25Z" fill="#F5F5F5"/>
<path d="M28.2802 395.56C28.2802 395.56 28.5102 395.26 28.9702 394.78C29.4402 394.32 30.2002 393.71 31.3102 393.3C32.4102 392.88 33.8202 392.63 35.3802 392.69C36.9502 392.74 38.6502 393.09 40.4702 393.38C42.2802 393.68 44.0802 393.82 45.6802 393.6C47.2802 393.39 48.6702 392.93 49.7802 392.43C50.8902 391.93 51.7102 391.37 52.2402 390.96C52.7802 390.55 53.0402 390.28 53.0202 390.26C52.9702 390.18 51.8402 391.19 49.6402 392.12C48.5402 392.57 47.1802 392.99 45.6202 393.16C44.0602 393.35 42.3402 393.21 40.5402 392.91C38.7402 392.62 37.0102 392.28 35.3902 392.25C33.7702 392.21 32.3102 392.51 31.1802 392.99C30.0402 393.46 29.2702 394.14 28.8302 394.66C28.6202 394.93 28.4702 395.15 28.3902 395.31C28.3002 395.47 28.2702 395.55 28.2802 395.56Z" fill="#F5F5F5"/>
<path d="M51.62 402.68C51.62 402.68 51.36 402.48 50.81 402.26C50.27 402.04 49.44 401.82 48.39 401.74C47.34 401.66 46.09 401.72 44.73 401.95C43.37 402.17 41.9 402.55 40.37 402.87C38.84 403.19 37.36 403.41 36.02 403.36C34.68 403.31 33.49 403.02 32.56 402.61C30.68 401.78 30.01 400.58 29.94 400.66C29.92 400.67 30.05 400.97 30.43 401.42C30.81 401.87 31.46 402.45 32.42 402.91C33.37 403.38 34.6 403.72 36 403.79C37.4 403.87 38.92 403.65 40.47 403.33C42.02 403 43.47 402.61 44.81 402.37C46.14 402.13 47.36 402.03 48.38 402.06C50.43 402.13 51.6 402.75 51.63 402.66L51.62 402.68Z" fill="#F5F5F5"/>
<path d="M30.8597 412.7C30.8697 412.78 31.8997 412.05 33.6997 412.41C34.5797 412.57 35.5597 413.01 36.6697 413.52C37.7697 414.03 39.0997 414.47 40.5297 414.58C43.3997 414.86 45.9597 413.93 47.5197 412.96C48.3197 412.48 48.8797 411.97 49.2597 411.62C49.6197 411.24 49.7997 411.02 49.7697 411C49.7097 410.93 48.9397 411.79 47.3497 412.67C45.7797 413.54 43.3197 414.37 40.5697 414.11C37.7997 413.95 35.6797 412.3 33.7597 412.08C32.8197 411.94 32.0397 412.08 31.5497 412.27C31.0597 412.46 30.8497 412.68 30.8597 412.7Z" fill="#F5F5F5"/>
<path d="M32.4897 426.57C32.4897 426.62 33.4697 426.62 34.9297 426.09C36.3997 425.6 38.2197 424.47 40.3397 423.63C41.4097 423.22 42.4697 422.97 43.4497 422.98C44.4197 422.98 45.2897 423.22 45.9497 423.55C47.2897 424.22 47.6797 425.17 47.7597 425.11C47.7797 425.11 47.7197 424.86 47.4797 424.49C47.2397 424.12 46.7997 423.64 46.1097 423.25C45.4297 422.86 44.5097 422.57 43.4597 422.54C42.4097 422.51 41.2797 422.76 40.1797 423.18C37.9797 424.06 36.2197 425.22 34.8097 425.77C33.4197 426.37 32.4797 426.49 32.4997 426.57H32.4897Z" fill="#F5F5F5"/>
<path d="M33.9202 433.02C33.9002 433.08 34.6002 433.33 35.7702 433.62C36.9402 433.91 38.5702 434.22 40.4002 434.4C42.2302 434.58 43.8902 434.59 45.0902 434.54C46.2902 434.48 47.0302 434.37 47.0202 434.31C47.0202 434.17 44.0602 434.29 40.4402 433.93C36.8202 433.58 33.9502 432.88 33.9102 433.02H33.9202Z" fill="#F5F5F5"/>
<path d="M444.51 444.45C444.51 444.59 344.99 444.71 222.27 444.71C99.55 444.71 0 444.59 0 444.45C0 444.31 99.49 444.19 222.27 444.19C345.05 444.19 444.51 444.31 444.51 444.45Z" fill="#263238"/>
<path d="M125.6 131.85C125.6 131.85 128.32 115.54 128.97 114.3C129.62 113.06 137.14 105.43 138.02 105.28C138.91 105.12 150.76 101.4 150.1 103.25C149.44 105.1 141.13 107.59 141.13 107.59L140.34 108.58C140.34 108.58 147.44 106.27 149.21 106.33C150.84 106.38 151.12 108.07 149.86 108.56C148.59 109.05 142.33 110.87 142.1 111.26C141.87 111.65 149.07 109.59 149.98 109.63C151.2 109.68 152.08 111.22 150.84 111.75C150.11 112.06 143.14 113.66 143.14 113.66C143.14 113.66 148.95 112.98 149.61 113.16C150.68 113.45 150.59 114.75 149.41 115.06C148.6 115.27 144.35 115.46 143.27 115.75C143.27 115.75 142.47 116.44 142.5 118.59C142.53 120.74 139.73 126.48 139.73 126.48L125.61 131.85H125.6Z" fill="#FFBE9D"/>
<path d="M150.099 103.28C150.099 103.28 149.549 103.99 148.359 104.8C147.759 105.2 147.019 105.63 146.139 106.02C145.259 106.35 144.279 106.69 143.249 107.04C142.489 107.3 141.759 107.55 141.059 107.78L141.179 107.71C138.919 109.96 137.229 111.54 137.139 111.46C137.049 111.38 138.589 109.66 140.799 107.36L140.839 107.31L140.909 107.28C141.589 107.04 142.319 106.79 143.069 106.52C144.069 106.18 145.029 105.86 145.939 105.55C146.789 105.21 147.529 104.82 148.139 104.47C149.349 103.77 150.029 103.21 150.089 103.28H150.099Z" fill="#EB996E"/>
<path d="M307.98 311.01L146.56 294.38C141.62 293.87 138.03 289.46 138.54 284.52L166.5 13.14C167.22 6.13001 173.49 1.03001 180.51 1.75001L334.41 17.6C341.42 18.32 346.52 24.59 345.8 31.61L317.84 302.99C317.33 307.93 312.92 311.52 307.98 311.01Z" fill="#2C8981"/>
<path opacity="0.4" d="M307.98 311.01L146.56 294.38C141.62 293.87 138.03 289.46 138.54 284.52L166.5 13.14C167.22 6.13001 173.49 1.03001 180.51 1.75001L334.41 17.6C341.42 18.32 346.52 24.59 345.8 31.61L317.84 302.99C317.33 307.93 312.92 311.52 307.98 311.01Z" fill="black"/>
<path d="M291.69 309.33L130.27 292.7C125.33 292.19 121.74 287.78 122.25 282.84L150.21 11.46C150.93 4.45002 157.2 -0.649982 164.22 0.0700179L318.12 15.92C325.13 16.64 330.23 22.91 329.51 29.93L301.55 301.31C301.04 306.25 296.63 309.84 291.69 309.33Z" fill="#2C8981"/>
<path d="M209.612 235.464L153.946 229.731C152.617 229.594 151.428 230.561 151.291 231.891L149.035 253.795C148.898 255.124 149.865 256.313 151.195 256.45L206.86 262.183C208.19 262.32 209.378 261.353 209.515 260.023L211.771 238.119C211.908 236.79 210.941 235.601 209.612 235.464Z" fill="#2C8981"/>
<g opacity="0.4">
<path d="M209.612 235.464L153.946 229.731C152.617 229.594 151.428 230.561 151.291 231.891L149.035 253.795C148.898 255.124 149.865 256.313 151.195 256.45L206.86 262.183C208.19 262.32 209.378 261.353 209.515 260.023L211.771 238.119C211.908 236.79 210.941 235.601 209.612 235.464Z" fill="black"/>
</g>
<path d="M161.447 30.4062L155.254 90.5382L308.544 106.325L314.736 46.1931L161.447 30.4062Z" fill="#FAFAFA"/>
<path d="M308.55 106.33C308.55 106.33 308.58 105.96 308.64 105.26C308.71 104.55 308.81 103.51 308.94 102.15C309.21 99.41 309.61 95.39 310.13 90.2C311.17 79.83 312.69 64.82 314.57 46.18L314.73 46.38C276.15 42.43 221.71 36.85 161.44 30.67H161.43L161.72 30.44C159.55 51.47 157.45 71.79 155.52 90.57L155.3 90.3C199.66 94.92 237.94 98.9 265.15 101.73C278.76 103.16 289.6 104.3 297.05 105.09C300.77 105.49 303.64 105.79 305.59 106C306.56 106.11 307.29 106.19 307.8 106.24C308.3 106.3 308.56 106.33 308.56 106.33C308.56 106.33 308.32 106.32 307.83 106.27C307.33 106.22 306.6 106.15 305.64 106.06C303.7 105.87 300.84 105.58 297.14 105.22C289.7 104.47 278.88 103.38 265.28 102.01C238.02 99.23 199.67 95.32 155.24 90.79L154.99 90.76L155.02 90.51C156.95 71.73 159.04 51.41 161.2 30.38L161.23 30.12L161.49 30.15H161.5C221.76 36.39 276.2 42.03 314.77 46.02L314.95 46.04L314.93 46.22C312.96 64.89 311.38 79.94 310.29 90.32C309.74 95.49 309.31 99.49 309.02 102.22C308.87 103.57 308.76 104.59 308.68 105.3C308.6 105.99 308.55 106.33 308.55 106.33Z" fill="#263238"/>
<path d="M185.34 117.861L163.426 115.604C162.283 115.487 161.261 116.318 161.143 117.46L158.886 139.374C158.769 140.517 159.6 141.539 160.742 141.657L182.657 143.913C183.799 144.031 184.821 143.2 184.939 142.057L187.196 120.143C187.313 119.001 186.482 117.979 185.34 117.861Z" fill="#2C8981"/>
<g opacity="0.4">
<path d="M185.34 117.861L163.426 115.604C162.283 115.487 161.261 116.318 161.143 117.46L158.886 139.374C158.769 140.517 159.6 141.539 160.742 141.657L182.657 143.913C183.799 144.031 184.821 143.2 184.939 142.057L187.196 120.143C187.313 119.001 186.482 117.979 185.34 117.861Z" fill="black"/>
</g>
<path d="M181.313 117.452L159.399 115.195C158.256 115.077 157.234 115.908 157.117 117.051L154.86 138.965C154.742 140.107 155.573 141.129 156.716 141.247L178.63 143.504C179.772 143.621 180.794 142.79 180.912 141.648L183.169 119.734C183.286 118.591 182.455 117.569 181.313 117.452Z" fill="#263238"/>
<path d="M171.43 123.99L170.31 134.85L167.8 134.59L168.71 125.75L166.54 125.53L166.75 123.51L171.43 123.99Z" fill="white"/>
<path d="M221.675 121.604L199.761 119.348C198.618 119.23 197.596 120.061 197.479 121.204L195.222 143.118C195.104 144.26 195.935 145.282 197.078 145.4L218.992 147.657C220.135 147.774 221.156 146.943 221.274 145.801L223.531 123.887C223.649 122.744 222.818 121.722 221.675 121.604Z" fill="#2C8981"/>
<g opacity="0.4">
<path d="M221.675 121.604L199.761 119.348C198.618 119.23 197.596 120.061 197.479 121.204L195.222 143.118C195.104 144.26 195.935 145.282 197.078 145.4L218.992 147.657C220.135 147.774 221.156 146.943 221.274 145.801L223.531 123.887C223.649 122.744 222.818 121.722 221.675 121.604Z" fill="black"/>
</g>
<path d="M217.648 121.194L195.734 118.937C194.591 118.819 193.57 119.65 193.452 120.793L191.195 142.707C191.077 143.85 191.908 144.871 193.051 144.989L214.965 147.246C216.108 147.364 217.13 146.533 217.247 145.39L219.504 123.476C219.622 122.333 218.791 121.311 217.648 121.194Z" fill="#263238"/>
<path d="M210.78 136.95L210.57 139L202.36 138.15L202.53 136.52L207.13 133C208.19 132.18 208.41 131.64 208.47 131.12C208.56 130.27 208.02 129.71 206.87 129.59C205.94 129.49 205.11 129.77 204.51 130.44L202.8 129.07C203.76 127.93 205.37 127.3 207.32 127.5C209.74 127.75 211.23 129.16 211.02 131.13C210.91 132.18 210.52 133.12 208.85 134.37L206.11 136.47L210.78 136.95Z" fill="white"/>
<path d="M259.339 125.482L237.425 123.225C236.282 123.107 235.261 123.938 235.143 125.081L232.886 146.995C232.768 148.138 233.599 149.16 234.742 149.277L256.656 151.534C257.799 151.652 258.821 150.821 258.938 149.678L261.195 127.764C261.313 126.621 260.482 125.6 259.339 125.482Z" fill="#2C8981"/>
<g opacity="0.4">
<path d="M259.339 125.482L237.425 123.225C236.282 123.107 235.261 123.938 235.143 125.081L232.886 146.995C232.768 148.138 233.599 149.16 234.742 149.277L256.656 151.534C257.799 151.652 258.821 150.821 258.938 149.678L261.195 127.764C261.313 126.621 260.482 125.6 259.339 125.482Z" fill="black"/>
</g>
<path d="M255.323 125.072L233.408 122.816C232.266 122.698 231.244 123.529 231.126 124.671L228.869 146.586C228.752 147.728 229.583 148.75 230.725 148.868L252.639 151.125C253.782 151.242 254.804 150.411 254.922 149.269L257.178 127.355C257.296 126.212 256.465 125.19 255.323 125.072Z" fill="#263238"/>
<path d="M248.48 139.55C248.29 141.38 246.71 142.91 243.62 142.59C242.1 142.43 240.58 141.85 239.6 141L240.78 139.18C241.54 139.88 242.65 140.36 243.78 140.48C245.04 140.61 245.86 140.18 245.96 139.29C246.04 138.47 245.49 137.89 244.07 137.75L242.92 137.63L243.09 135.97L245.59 133.67L240.97 133.19L241.18 131.17L248.78 131.95L248.61 133.58L245.87 136.12C247.79 136.63 248.66 137.94 248.5 139.54L248.48 139.55Z" fill="white"/>
<path d="M297.013 129.361L275.099 127.104C273.957 126.986 272.935 127.817 272.817 128.96L270.56 150.874C270.443 152.017 271.274 153.038 272.416 153.156L294.33 155.413C295.473 155.531 296.495 154.7 296.613 153.557L298.869 131.643C298.987 130.5 298.156 129.478 297.013 129.361Z" fill="#2C8981"/>
<g opacity="0.4">
<path d="M297.014 129.361L275.1 127.104C273.957 126.986 272.935 127.817 272.818 128.96L270.561 150.874C270.443 152.017 271.274 153.038 272.417 153.156L294.331 155.413C295.474 155.531 296.495 154.7 296.613 153.557L298.87 131.643C298.988 130.5 298.157 129.478 297.014 129.361Z" fill="black"/>
</g>
<path d="M293.076 128.95L271.162 126.693C270.02 126.576 268.998 127.407 268.88 128.549L266.623 150.463C266.506 151.606 267.337 152.628 268.479 152.746L290.393 155.003C291.536 155.12 292.558 154.289 292.676 153.147L294.932 131.232C295.05 130.09 294.219 129.068 293.076 128.95Z" fill="#263238"/>
<path d="M274.886 139.326L274.783 140.321L286.422 141.52L286.524 140.525L274.886 139.326Z" fill="white"/>
<path d="M283.07 135.55C282.96 136.59 282.03 137.35 280.99 137.24C279.95 137.13 279.19 136.2 279.3 135.16C279.41 134.12 280.34 133.36 281.38 133.47C282.42 133.58 283.18 134.51 283.07 135.55Z" fill="white"/>
<path d="M282.02 145.69C281.91 146.73 280.98 147.49 279.94 147.38C278.9 147.27 278.14 146.34 278.25 145.3C278.36 144.26 279.29 143.5 280.33 143.61C281.37 143.72 282.13 144.65 282.02 145.69Z" fill="white"/>
<path d="M181.409 156.038L159.495 153.781C158.353 153.663 157.331 154.494 157.213 155.637L154.956 177.551C154.839 178.694 155.67 179.715 156.812 179.833L178.726 182.09C179.869 182.208 180.891 181.377 181.009 180.234L183.265 158.32C183.383 157.177 182.552 156.156 181.409 156.038Z" fill="#2C8981"/>
<g opacity="0.4">
<path d="M181.409 156.038L159.495 153.781C158.353 153.663 157.331 154.494 157.213 155.637L154.956 177.551C154.839 178.694 155.67 179.715 156.812 179.833L178.726 182.09C179.869 182.208 180.891 181.377 181.009 180.234L183.265 158.32C183.383 157.177 182.552 156.156 181.409 156.038Z" fill="black"/>
</g>
<path d="M177.393 155.628L155.479 153.371C154.336 153.254 153.314 154.085 153.197 155.227L150.94 177.141C150.822 178.284 151.653 179.306 152.796 179.423L174.71 181.68C175.852 181.798 176.874 180.967 176.992 179.824L179.249 157.91C179.366 156.768 178.536 155.746 177.393 155.628Z" fill="#263238"/>
<path d="M169.78 171.07L168.01 170.89L167.78 173.17L165.33 172.92L165.56 170.64L159.71 170.04L159.88 168.35L165.71 161.99L168.35 162.26L162.93 168.3L165.85 168.6L166.06 166.57L168.43 166.81L168.22 168.84L169.99 169.02L169.78 171.07Z" fill="white"/>
<path d="M217.745 159.771L195.831 157.514C194.689 157.396 193.667 158.227 193.549 159.37L191.292 181.284C191.175 182.427 192.005 183.449 193.148 183.566L215.062 185.823C216.205 185.941 217.227 185.11 217.344 183.967L219.601 162.053C219.719 160.91 218.888 159.889 217.745 159.771Z" fill="#2C8981"/>
<g opacity="0.4">
<path d="M217.745 159.771L195.831 157.514C194.689 157.396 193.667 158.227 193.549 159.37L191.292 181.284C191.175 182.427 192.005 183.449 193.148 183.566L215.062 185.823C216.205 185.941 217.227 185.11 217.344 183.967L219.601 162.053C219.719 160.91 218.888 159.889 217.745 159.771Z" fill="black"/>
</g>
<path d="M213.718 159.36L191.804 157.103C190.662 156.986 189.64 157.817 189.522 158.959L187.265 180.874C187.148 182.016 187.979 183.038 189.121 183.156L211.035 185.413C212.178 185.53 213.2 184.699 213.318 183.557L215.574 161.642C215.692 160.5 214.861 159.478 213.718 159.36Z" fill="#263238"/>
<path d="M205.79 173.63C205.59 175.55 204.01 177.08 200.91 176.76C199.41 176.6 197.87 176.02 196.89 175.17L198.08 173.35C198.84 174.06 199.93 174.53 201.06 174.65C202.32 174.78 203.15 174.33 203.24 173.45C203.33 172.6 202.83 171.98 200.86 171.78L198.08 171.49L199.27 165.44L205.89 166.12L205.68 168.14L201.15 167.67L200.77 169.71L201.65 169.8C204.86 170.13 205.98 171.71 205.79 173.63Z" fill="white"/>
<path d="M255.409 163.649L233.495 161.392C232.353 161.274 231.331 162.105 231.213 163.248L228.956 185.162C228.839 186.305 229.67 187.326 230.812 187.444L252.726 189.701C253.869 189.819 254.891 188.988 255.009 187.845L257.265 165.931C257.383 164.788 256.552 163.766 255.409 163.649Z" fill="#2C8981"/>
<g opacity="0.4">
<path d="M255.409 163.649L233.495 161.392C232.353 161.274 231.331 162.105 231.213 163.248L228.956 185.162C228.839 186.305 229.67 187.326 230.812 187.444L252.726 189.701C253.869 189.819 254.891 188.988 255.009 187.845L257.265 165.931C257.383 164.788 256.552 163.766 255.409 163.649Z" fill="black"/>
</g>
<path d="M251.393 163.239L229.479 160.982C228.336 160.864 227.314 161.695 227.197 162.838L224.94 184.752C224.822 185.895 225.653 186.917 226.796 187.034L248.71 189.291C249.852 189.409 250.874 188.578 250.992 187.435L253.249 165.521C253.366 164.378 252.536 163.357 251.393 163.239Z" fill="#263238"/>
<path d="M244.22 177.58C243.99 179.8 242.03 181.01 239.74 180.77C236.75 180.46 235.08 178.39 235.44 174.89C235.83 171.14 238.31 169.27 241.58 169.61C242.73 169.73 243.82 170.11 244.53 170.67L243.41 172.42C242.85 171.95 242.16 171.74 241.43 171.67C239.62 171.48 238.34 172.43 238.05 174.5C238.75 173.93 239.7 173.7 240.83 173.81C242.92 174.03 244.43 175.53 244.22 177.58ZM241.77 177.45C241.87 176.46 241.21 175.75 240.09 175.63C238.99 175.52 238.14 176.12 238.05 177.07C237.95 178 238.58 178.76 239.79 178.88C240.86 178.99 241.67 178.45 241.77 177.45Z" fill="white"/>
<path d="M293.084 167.527L271.17 165.27C270.027 165.153 269.005 165.984 268.887 167.126L266.631 189.041C266.513 190.183 267.344 191.205 268.487 191.323L290.401 193.58C291.543 193.697 292.565 192.866 292.683 191.724L294.94 169.809C295.057 168.667 294.226 167.645 293.084 167.527Z" fill="#2C8981"/>
<g opacity="0.4">
<path d="M293.084 167.527L271.17 165.27C270.027 165.153 269.005 165.984 268.887 167.126L266.631 189.041C266.513 190.183 267.344 191.205 268.487 191.323L290.401 193.58C291.543 193.697 292.565 192.866 292.683 191.724L294.94 169.809C295.057 168.667 294.226 167.645 293.084 167.527Z" fill="black"/>
</g>
<path d="M289.047 167.117L267.133 164.86C265.99 164.742 264.969 165.573 264.851 166.716L262.594 188.63C262.476 189.773 263.307 190.794 264.45 190.912L286.364 193.169C287.507 193.287 288.529 192.456 288.646 191.313L290.903 169.399C291.021 168.256 290.19 167.234 289.047 167.117Z" fill="#263238"/>
<path d="M281.031 175.009L271.844 182.254L272.463 183.039L281.65 175.794L281.031 175.009Z" fill="white"/>
<path d="M273.455 174.208L272.679 174.839L280.061 183.916L280.837 183.285L273.455 174.208Z" fill="white"/>
<path d="M177.511 193.889L155.597 191.632C154.455 191.515 153.433 192.346 153.315 193.488L151.058 215.402C150.941 216.545 151.772 217.567 152.914 217.684L174.828 219.941C175.971 220.059 176.993 219.228 177.111 218.085L179.367 196.171C179.485 195.029 178.654 194.007 177.511 193.889Z" fill="#2C8981"/>
<g opacity="0.4">
<path d="M177.511 193.889L155.597 191.632C154.455 191.515 153.433 192.346 153.315 193.488L151.058 215.402C150.941 216.545 151.772 217.567 152.914 217.684L174.828 219.941C175.971 220.059 176.993 219.228 177.111 218.085L179.367 196.171C179.485 195.029 178.654 194.007 177.511 193.889Z" fill="black"/>
</g>
<path d="M173.486 193.469L151.571 191.213C150.429 191.095 149.407 191.926 149.289 193.069L147.032 214.983C146.915 216.125 147.746 217.147 148.888 217.265L170.803 219.522C171.945 219.639 172.967 218.808 173.085 217.666L175.342 195.752C175.459 194.609 174.628 193.587 173.486 193.469Z" fill="#263238"/>
<path d="M165.32 200.2L165.15 201.83L160.16 210.64L157.43 210.36L162.23 201.95L158.63 201.58L158.45 203.35L156.22 203.12L156.61 199.3L165.31 200.2H165.32Z" fill="white"/>
<path d="M213.847 197.632L191.933 195.375C190.791 195.258 189.769 196.089 189.651 197.231L187.394 219.146C187.277 220.288 188.108 221.31 189.25 221.428L211.164 223.685C212.307 223.802 213.329 222.971 213.447 221.829L215.703 199.914C215.821 198.772 214.99 197.75 213.847 197.632Z" fill="#2C8981"/>
<g opacity="0.4">
<path d="M213.847 197.632L191.933 195.375C190.791 195.258 189.769 196.089 189.651 197.231L187.394 219.146C187.277 220.288 188.108 221.31 189.25 221.428L211.164 223.685C212.307 223.802 213.329 222.971 213.447 221.829L215.703 199.914C215.821 198.772 214.99 197.75 213.847 197.632Z" fill="black"/>
</g>
<path d="M209.821 197.222L187.906 194.965C186.764 194.847 185.742 195.678 185.624 196.821L183.367 218.735C183.25 219.877 184.081 220.899 185.223 221.017L207.138 223.274C208.28 223.391 209.302 222.56 209.42 221.418L211.677 199.504C211.794 198.361 210.963 197.339 209.821 197.222Z" fill="#263238"/>
<path d="M202.74 211.85C202.53 213.9 200.57 215 197.81 214.71C195.06 214.43 193.38 212.95 193.59 210.91C193.71 209.75 194.4 208.94 195.5 208.52C194.74 207.94 194.37 207.13 194.47 206.16C194.67 204.25 196.5 203.23 198.96 203.49C201.46 203.75 203.04 205.12 202.84 207.03C202.74 208.01 202.2 208.72 201.34 209.13C202.34 209.77 202.86 210.7 202.74 211.86V211.85ZM200.2 211.51C200.3 210.55 199.57 209.88 198.31 209.75C197.07 209.62 196.23 210.13 196.13 211.09C196.03 212.05 196.74 212.74 197.98 212.86C199.24 212.99 200.09 212.47 200.19 211.5L200.2 211.51ZM196.95 206.52C196.87 207.34 197.47 207.92 198.49 208.03C199.53 208.14 200.25 207.69 200.33 206.87C200.42 206.02 199.79 205.43 198.76 205.33C197.75 205.23 197.03 205.67 196.94 206.52H196.95Z" fill="white"/>
<path d="M251.511 201.51L229.597 199.253C228.455 199.135 227.433 199.966 227.315 201.109L225.058 223.023C224.941 224.166 225.772 225.188 226.914 225.305L248.828 227.562C249.971 227.68 250.993 226.849 251.111 225.706L253.367 203.792C253.485 202.649 252.654 201.628 251.511 201.51Z" fill="#2C8981"/>
<g opacity="0.4">
<path d="M251.511 201.51L229.597 199.253C228.455 199.135 227.433 199.966 227.315 201.109L225.058 223.023C224.941 224.166 225.772 225.188 226.914 225.305L248.828 227.562C249.971 227.68 250.993 226.849 251.111 225.706L253.367 203.792C253.485 202.649 252.654 201.628 251.511 201.51Z" fill="black"/>
</g>
<path d="M247.495 201.1L225.581 198.843C224.438 198.726 223.416 199.557 223.299 200.699L221.042 222.613C220.924 223.756 221.755 224.778 222.898 224.896L244.812 227.152C245.955 227.27 246.976 226.439 247.094 225.296L249.351 203.382C249.469 202.24 248.638 201.218 247.495 201.1Z" fill="#263238"/>
<path d="M240.25 213.17C239.86 216.92 237.4 218.79 234.11 218.45C232.96 218.33 231.89 217.95 231.18 217.4L232.3 215.65C232.85 216.11 233.53 216.33 234.28 216.4C236.08 216.59 237.37 215.64 237.66 213.55C236.96 214.12 235.99 214.37 234.86 214.25C232.77 214.03 231.26 212.53 231.47 210.48C231.7 208.26 233.66 207.05 235.95 207.29C238.96 207.6 240.61 209.67 240.25 213.17ZM237.64 210.99C237.74 210.06 237.11 209.3 235.91 209.18C234.84 209.07 234.03 209.61 233.93 210.61C233.83 211.6 234.49 212.31 235.61 212.43C236.71 212.54 237.54 211.94 237.64 210.99Z" fill="white"/>
<path d="M289.176 205.389L267.262 203.132C266.119 203.014 265.097 203.845 264.98 204.988L262.723 226.902C262.605 228.045 263.436 229.066 264.579 229.184L286.493 231.441C287.636 231.559 288.657 230.728 288.775 229.585L291.032 207.671C291.15 206.528 290.319 205.506 289.176 205.389Z" fill="#2C8981"/>
<g opacity="0.4">
<path d="M289.176 205.389L267.262 203.132C266.119 203.014 265.097 203.845 264.98 204.988L262.723 226.902C262.605 228.045 263.436 229.066 264.579 229.184L286.493 231.441C287.636 231.559 288.657 230.728 288.775 229.585L291.032 207.671C291.15 206.528 290.319 205.506 289.176 205.389Z" fill="black"/>
</g>
<path d="M285.149 204.978L263.235 202.721C262.092 202.603 261.071 203.434 260.953 204.577L258.696 226.491C258.578 227.634 259.409 228.656 260.552 228.773L282.466 231.03C283.609 231.148 284.631 230.317 284.748 229.174L287.005 207.26C287.123 206.117 286.292 205.096 285.149 204.978Z" fill="#263238"/>
<path d="M267.103 215.798L267 216.793L278.639 217.992L278.741 216.997L267.103 215.798Z" fill="white"/>
<path d="M247.58 239.696L225.666 237.439C224.523 237.322 223.501 238.153 223.384 239.295L221.127 261.209C221.009 262.352 221.84 263.374 222.983 263.492L244.897 265.748C246.039 265.866 247.061 265.035 247.179 263.893L249.436 241.978C249.553 240.836 248.723 239.814 247.58 239.696Z" fill="#2C8981"/>
<g opacity="0.4">
<path d="M247.58 239.696L225.666 237.439C224.523 237.322 223.501 238.153 223.384 239.295L221.127 261.209C221.009 262.352 221.84 263.374 222.983 263.492L244.897 265.748C246.039 265.866 247.061 265.035 247.179 263.893L249.436 241.978C249.553 240.836 248.723 239.814 247.58 239.696Z" fill="black"/>
</g>
<path d="M243.553 239.286L221.639 237.029C220.496 236.911 219.474 237.742 219.357 238.885L217.1 260.799C216.982 261.942 217.813 262.963 218.956 263.081L240.87 265.338C242.013 265.456 243.034 264.625 243.152 263.482L245.409 241.568C245.527 240.425 244.696 239.403 243.553 239.286Z" fill="#263238"/>
<path d="M285.244 243.584L263.33 241.327C262.188 241.21 261.166 242.04 261.048 243.183L258.791 265.097C258.674 266.24 259.505 267.262 260.647 267.379L282.561 269.636C283.704 269.754 284.726 268.923 284.843 267.78L287.1 245.866C287.218 244.724 286.387 243.702 285.244 243.584Z" fill="#2C8981"/>
<g opacity="0.4">
<path d="M285.244 243.584L263.33 241.327C262.188 241.21 261.166 242.04 261.048 243.183L258.791 265.097C258.674 266.24 259.505 267.262 260.647 267.379L282.561 269.636C283.704 269.754 284.726 268.923 284.843 267.78L287.1 245.866C287.218 244.724 286.387 243.702 285.244 243.584Z" fill="black"/>
</g>
<path d="M281.218 243.174L259.303 240.918C258.161 240.8 257.139 241.631 257.021 242.774L254.764 264.688C254.647 265.83 255.478 266.852 256.62 266.97L278.534 269.227C279.677 269.344 280.699 268.513 280.817 267.371L283.073 245.457C283.191 244.314 282.36 243.292 281.218 243.174Z" fill="#455A64"/>
<path d="M263.323 252.563L263.22 253.558L274.859 254.757L274.961 253.762L263.323 252.563Z" fill="white"/>
<path d="M262.862 256.995L262.76 257.989L274.398 259.188L274.501 258.193L262.862 256.995Z" fill="white"/>
<path d="M204.653 234.949L146.729 228.984C145.356 228.842 144.128 229.841 143.986 231.215L141.747 252.96C141.605 254.333 142.604 255.561 143.977 255.703L201.901 261.668C203.274 261.809 204.502 260.811 204.644 259.437L206.883 237.692C207.025 236.319 206.026 235.091 204.653 234.949Z" fill="#263238"/>
<path d="M171.97 244.56C172.34 240.98 174.53 239.15 177.2 239.42C179.88 239.7 181.64 241.93 181.28 245.51C180.91 249.09 178.73 250.92 176.05 250.65C173.38 250.38 171.61 248.14 171.97 244.56ZM178.75 245.26C179 242.79 178.24 241.68 176.98 241.55C175.74 241.42 174.77 242.36 174.51 244.82C174.26 247.29 175.02 248.4 176.26 248.53C177.52 248.66 178.49 247.73 178.75 245.26Z" fill="white"/>
<path d="M231.428 245.322L230.057 256.942L231.05 257.059L232.421 245.439L231.428 245.322Z" fill="white"/>
<path d="M225.491 250.104L225.388 251.099L237.027 252.298L237.129 251.303L225.491 250.104Z" fill="white"/>
<path d="M220.04 67.12L218.37 83.35L217.6 83.27L219.2 67.75L215.12 67.33L215.19 66.61L220.04 67.11V67.12Z" fill="#263238"/>
<path d="M233.38 84.1799L233.31 84.8999L222.32 83.7699L222.38 83.2099L230.06 76.9199C232.26 75.1299 232.8 73.9899 232.93 72.6699C233.15 70.5099 231.79 68.9699 228.96 68.6699C226.8 68.4499 225.16 68.91 223.89 70.12L223.41 69.5599C224.76 68.2899 226.67 67.7199 229.06 67.9599C232.17 68.2799 233.97 70.0799 233.7 72.6999C233.54 74.2299 232.92 75.53 230.56 77.4399L223.57 83.1699L233.38 84.1799Z" fill="#263238"/>
<path d="M246.24 81.68C245.96 84.37 243.86 86.08 240.29 85.71C237.85 85.46 235.79 84.31 234.89 82.88L235.36 82.37C236.19 83.65 238.02 84.75 240.34 84.99C243.45 85.31 245.23 83.95 245.47 81.6C245.71 79.23 244.29 77.56 240.86 77.21L239.96 77.12L240.02 76.56L245.76 70.49L236.81 69.57L236.88 68.85L246.85 69.88L246.79 70.44L241.03 76.53C244.83 76.92 246.52 78.97 246.24 81.68Z" fill="#263238"/>
<path d="M262.22 83.14L258.69 82.78L258.21 87.47L257.44 87.39L257.92 82.71L248.6 81.75L248.66 81.19L258.77 71.12L259.67 71.21L249.69 81.15L257.99 82L258.41 77.87L259.18 77.95L258.76 82.08L262.29 82.44L262.22 83.14Z" fill="#263238"/>
<path d="M265.61 87.52C265.58 87.82 265.49 88 265.38 88.36L264.22 91.38L263.62 91.32L264.67 88.19C264.28 88.08 264.03 87.75 264.08 87.36C264.12 86.94 264.48 86.63 264.92 86.67C265.38 86.72 265.65 87.14 265.61 87.51V87.52Z" fill="#263238"/>
<path d="M281.7 85.15L278.17 84.79L277.69 89.48L276.92 89.4L277.4 84.71L268.08 83.75L268.14 83.19L278.25 73.12L279.15 73.21L269.17 83.15L277.47 84.01L277.89 79.88L278.66 79.96L278.24 84.09L281.77 84.45L281.7 85.15Z" fill="#263238"/>
<path d="M293.75 86.48C293.48 89.12 291.43 90.98 287.75 90.6C285.36 90.35 283.28 89.2 282.37 87.77L282.87 87.26C283.68 88.54 285.53 89.64 287.83 89.88C291.01 90.21 292.73 88.7 292.97 86.4C293.23 83.89 291.9 82.26 287.26 81.78L284.11 81.45L285.76 73.88L294.13 74.74L294.06 75.46L286.34 74.66L285 80.8L287.5 81.06C292.46 81.57 294.06 83.59 293.76 86.46L293.75 86.48Z" fill="#263238"/>
<path d="M116.37 419.06L110.01 442.56L130.67 444.45L135.01 422.07L116.37 419.06Z" fill="#2C8981"/>
<path d="M131.27 442.54C131.27 442.62 130.11 442.59 128.24 442.44C126.38 442.29 123.81 442.01 120.99 441.64C118.27 441.27 115.81 440.94 113.77 440.67C111.92 440.41 110.78 440.24 110.79 440.15C110.79 440.07 111.95 440.11 113.82 440.26C115.68 440.41 118.25 440.7 121.07 441.06C123.79 441.42 126.25 441.75 128.29 442.02C130.14 442.27 131.28 442.45 131.27 442.53V442.54Z" fill="#263238"/>
<g opacity="0.6">
<path d="M110.01 442.56L130.67 444.45L131.01 442.73L110.61 440.13L110.03 442.33" fill="white"/>
</g>
<path d="M120.27 441.52C120.14 441.49 121.02 437.46 122.23 432.51C123.45 427.57 124.54 423.59 124.67 423.62C124.8 423.65 123.92 427.68 122.71 432.63C121.5 437.57 120.4 441.55 120.27 441.52Z" fill="#263238"/>
<path d="M130.13 442.38C130 442.38 130.79 440.69 130.18 438.01C129.86 436.7 129.18 435.18 127.92 433.92C126.68 432.65 124.82 431.77 122.78 431.56C120.73 431.36 118.74 431.86 117.25 432.82C115.74 433.77 114.7 435.06 114.03 436.24C112.72 438.65 112.84 440.46 112.73 440.43C112.71 440.43 112.7 440.32 112.7 440.12C112.69 439.91 112.7 439.61 112.75 439.23C112.84 438.46 113.1 437.34 113.73 436.08C114.38 434.84 115.43 433.47 117.01 432.45C118.57 431.41 120.68 430.88 122.83 431.09C124.98 431.31 126.95 432.26 128.24 433.62C129.55 434.97 130.23 436.58 130.52 437.95C130.79 439.33 130.7 440.49 130.52 441.25C130.43 441.63 130.35 441.92 130.27 442.11C130.2 442.3 130.15 442.4 130.13 442.39V442.38Z" fill="#263238"/>
<path d="M201.61 416.38L200.38 434.89C200.38 434.89 218.81 441 218.91 444.45L182.91 444.71L183.64 415.79L201.61 416.38Z" fill="#2C8981"/>
<g opacity="0.6">
<path d="M189.3 433C188.6 433.17 188.09 433.94 188.23 434.65C188.37 435.36 189.15 435.88 189.85 435.72C190.55 435.56 191.19 434.66 190.97 433.97C190.75 433.28 189.81 432.72 189.16 433.04" fill="white"/>
</g>
<g opacity="0.6">
<path d="M182.91 444.71L183.1 441.8L217.76 442.76C217.76 442.76 218.92 443.26 219.1 444.72H182.92L182.91 444.71Z" fill="white"/>
</g>
<path d="M200.97 434.73C200.96 434.91 200.08 434.96 199.2 435.5C198.3 436.02 197.84 436.76 197.68 436.69C197.52 436.65 197.81 435.61 198.89 434.97C199.96 434.33 201.02 434.57 200.98 434.73H200.97Z" fill="#263238"/>
<path d="M204.699 436.4C204.739 436.57 203.969 436.85 203.349 437.57C202.709 438.28 202.529 439.08 202.359 439.06C202.189 439.08 202.099 438.05 202.889 437.16C203.669 436.27 204.699 436.22 204.699 436.39V436.4Z" fill="#263238"/>
<path d="M206.7 440.98C206.54 441.01 206.32 440.13 206.8 439.18C207.27 438.23 208.11 437.87 208.18 438.02C208.27 438.17 207.73 438.67 207.34 439.45C206.94 440.23 206.87 440.96 206.69 440.98H206.7Z" fill="#263238"/>
<path d="M200.78 430.48C200.7 430.64 199.9 430.37 198.91 430.41C197.91 430.43 197.13 430.74 197.04 430.58C196.94 430.45 197.72 429.82 198.89 429.79C200.06 429.75 200.87 430.34 200.78 430.47V430.48Z" fill="#263238"/>
<g opacity="0.3">
<path d="M201.36 420.05L201.15 423.35L183.47 422.65L183.54 419.67L201.36 420.05Z" fill="black"/>
</g>
<path d="M200.96 426.74C200.96 426.81 200.26 426.9 199.16 426.68C198.61 426.57 197.97 426.37 197.29 426.04C196.95 425.88 196.61 425.69 196.27 425.46C196.11 425.35 195.91 425.23 195.74 425.02C195.55 424.83 195.45 424.36 195.69 424.08C195.88 423.81 196.21 423.7 196.47 423.7C196.74 423.7 196.95 423.76 197.14 423.81C197.54 423.92 197.91 424.06 198.25 424.23C198.93 424.56 199.47 424.98 199.88 425.37C200.69 426.17 200.96 426.83 200.9 426.87C200.82 426.93 200.43 426.36 199.6 425.7C199.19 425.37 198.65 425.03 198.02 424.75C197.7 424.61 197.36 424.49 197 424.4C196.62 424.29 196.3 424.28 196.19 424.44C196.15 424.5 196.15 424.53 196.22 424.64C196.3 424.75 196.45 424.85 196.61 424.96C196.92 425.18 197.24 425.37 197.55 425.53C198.17 425.86 198.76 426.09 199.27 426.25C200.29 426.57 200.97 426.64 200.96 426.73V426.74Z" fill="#263238"/>
<path d="M200.72 426.98C200.66 427.01 200.33 426.36 200.3 425.23C200.29 424.66 200.37 423.98 200.61 423.26C200.73 422.9 200.89 422.54 201.1 422.18C201.32 421.83 201.59 421.36 202.28 421.3C202.64 421.3 202.92 421.58 203.02 421.83C203.13 422.08 203.15 422.29 203.18 422.5C203.23 422.92 203.21 423.33 203.14 423.71C203 424.47 202.67 425.1 202.31 425.55C201.58 426.46 200.84 426.65 200.83 426.59C200.77 426.5 201.4 426.18 201.96 425.3C202.24 424.87 202.49 424.29 202.58 423.62C202.63 423.29 202.63 422.93 202.58 422.58C202.54 422.2 202.4 421.88 202.26 421.92C202.08 421.92 201.77 422.19 201.61 422.49C201.42 422.81 201.26 423.13 201.13 423.45C200.88 424.09 200.77 424.71 200.73 425.24C200.65 426.29 200.82 426.96 200.73 426.98H200.72Z" fill="#263238"/>
<path d="M123.55 128.03C123.55 128.03 119.65 149.33 116.51 162.22C114.08 172.23 107.77 190.99 119.18 196.44C130.59 201.89 145.93 179.9 145.93 179.9L152.44 129.77C147.9 130.62 142.77 135.87 137.3 143.61L138.29 124.59L123.54 128.03H123.55Z" fill="#455A64"/>
<path d="M280.57 159.49L274.57 162.35L269.05 153.68L272.28 146.99C272.59 146.37 272.91 145.67 273.26 144.87C273.66 143.94 273.9 142.94 273.97 141.93C274.06 140.7 274.11 139.07 273.87 138.16C273.57 137.04 274.75 136.13 275.56 136.78C276.36 137.43 277.26 140.49 276.66 144.17C276.06 147.86 280.36 143.95 281.95 142.55C283.54 141.15 288.65 137.07 289.45 137.23C290.63 137.46 290.59 138.8 288.98 140.16C287.34 141.53 282.79 145.94 283.54 146.76C283.54 146.76 283.55 146.76 283.58 146.76C285.5 146.96 287.07 148.38 287.5 150.26C287.91 152.08 288.24 154.58 287.22 155.41C285.3 156.97 280.59 159.48 280.59 159.48L280.57 159.49Z" fill="#FFBE9D"/>
<path d="M164.23 78.67L164.07 130.78L186.43 131.85L187.08 119.17C187.08 119.17 195.02 120.75 197.07 113.37C198.38 108.66 198.05 72.25 198.05 72.25L164.23 78.66V78.67Z" fill="#FFBE9D"/>
<path d="M203.09 77.4C201.58 80.51 194.41 86.21 194.41 86.21L191.17 94.89C188.36 92.69 184.58 92.81 183.86 97.76C183.34 101.33 187.79 102.06 187.79 102.06C185.2 106.46 183.45 110.02 179.68 114.21C175.6 118.74 173.32 119.2 168.9 119.27H164.03C164.03 119.27 154.06 110.94 156.03 88.99C158 67.04 177.73 73.44 182.44 67.96C190.11 59.03 208.11 67.01 203.08 77.41L203.09 77.4Z" fill="#263238"/>
<path d="M157.14 107.33C157.14 107.33 157.36 107.33 157.76 107.33C158.17 107.31 158.77 107.29 159.53 107.13C161.04 106.83 163.18 105.95 165.26 104.1C167.36 102.27 169.2 99.49 171.07 96.33C172.02 94.76 173.01 93.09 174.21 91.48C175.41 89.88 176.82 88.31 178.6 87.11C180.37 85.9 182.37 85.19 184.3 84.68C186.24 84.17 188.15 83.86 189.95 83.51C193.55 82.85 196.78 81.84 198.98 80.14C201.19 78.45 202.29 76.35 202.63 74.86C202.83 74.11 202.83 73.5 202.84 73.1C202.82 72.69 202.82 72.48 202.82 72.48C202.82 72.48 202.85 72.69 202.88 73.1C202.88 73.51 202.88 74.12 202.7 74.88C202.37 76.39 201.28 78.53 199.06 80.26C196.84 82.01 193.58 83.03 189.98 83.71C188.18 84.07 186.27 84.38 184.34 84.89C182.42 85.4 180.45 86.1 178.71 87.29C176.96 88.47 175.56 90.02 174.37 91.61C173.18 93.21 172.19 94.86 171.24 96.43C169.37 99.58 167.5 102.38 165.37 104.21C163.26 106.06 161.09 106.93 159.56 107.21C158.79 107.37 158.18 107.37 157.77 107.38C157.36 107.36 157.15 107.34 157.15 107.34L157.14 107.33Z" fill="#455A64"/>
<path d="M155.99 89.4801C155.99 89.4801 156.34 89.3401 157.03 89.1101C157.71 88.8901 158.73 88.5401 160.09 88.3801C161.43 88.2301 163.24 88.2901 164.89 89.4201C165.69 89.9701 166.41 90.8601 166.6 91.9801C166.79 93.0601 166.55 94.3801 165.61 95.2501C165.15 95.6801 164.51 95.9201 163.86 95.9501C163.2 95.9801 162.54 95.7701 161.95 95.4401C160.78 94.7601 159.83 93.5901 159.39 92.2001C158.92 90.8201 158.84 89.2701 159.2 87.7601C159.55 86.2501 160.38 84.8001 161.61 83.7201C162.82 82.6301 164.41 81.8801 166.12 81.7001C167.83 81.5201 169.57 81.8901 171.26 82.3601C172.96 82.8301 174.66 83.3801 176.46 83.6101C178.25 83.8501 180.1 83.8601 181.94 83.6201C183.77 83.3701 185.58 82.9301 187.21 82.1601C188.82 81.4001 190.28 80.1501 190.74 78.4601C191.21 76.8101 190.76 74.9201 189.57 73.7701C188.38 72.6001 186.47 72.4401 185.05 73.1001C184.34 73.4301 183.72 73.9701 183.38 74.6601C183.02 75.3401 182.93 76.1301 183.02 76.8701C183.22 78.3601 184.11 79.6901 185.29 80.4501C186.48 81.2301 187.88 81.5201 189.2 81.5501C190.53 81.5901 191.79 81.3401 192.95 80.9901C195.28 80.2701 197.14 78.9701 198.5 77.6101C199.88 76.2501 200.78 74.8101 201.37 73.5901C201.98 72.3701 202.23 71.3301 202.42 70.6401C202.56 69.9301 202.64 69.5701 202.64 69.5701C202.64 69.5701 202.59 69.9401 202.46 70.6501C202.28 71.3401 202.04 72.3901 201.44 73.6301C200.86 74.8701 199.97 76.3201 198.58 77.7001C197.21 79.0801 195.35 80.4001 192.99 81.1401C191.82 81.5101 190.54 81.7501 189.19 81.7201C187.85 81.6901 186.42 81.4001 185.19 80.6101C183.96 79.8301 183.04 78.4601 182.83 76.9101C182.73 76.1401 182.83 75.3101 183.2 74.5901C183.56 73.8601 184.21 73.2801 184.95 72.9401C186.43 72.2501 188.42 72.4001 189.68 73.6401C190.94 74.8501 191.39 76.8001 190.91 78.5301C190.42 80.3001 188.91 81.5901 187.27 82.3601C185.61 83.1501 183.79 83.5801 181.94 83.8401C180.08 84.0801 178.21 84.0701 176.41 83.8301C174.59 83.6001 172.87 83.0501 171.19 82.5801C169.51 82.1101 167.8 81.7401 166.13 81.9201C164.47 82.0901 162.91 82.8201 161.73 83.8801C159.28 86.0001 158.63 89.4901 159.55 92.1601C159.97 93.5201 160.89 94.6501 162.02 95.3101C162.59 95.6301 163.22 95.8301 163.84 95.8101C164.46 95.7801 165.06 95.5501 165.5 95.1501C166.39 94.3401 166.64 93.0601 166.45 92.0201C166.27 90.9401 165.58 90.0801 164.8 89.5401C163.2 88.4301 161.41 88.3501 160.08 88.4901C158.72 88.6401 157.71 88.9701 157.02 89.1801C156.33 89.4001 155.97 89.5101 155.97 89.5101L155.99 89.4801Z" fill="#455A64"/>
<path d="M141.25 231.34L111.49 426.81L136.21 429.95L171.09 265.99L179.87 431.05L206.66 430.58L202.22 231.8L141.25 231.34Z" fill="#263238"/>
<path d="M179.4 431.56L179.37 431.08L170.79 269.8L136.6 430.51L110.92 427.25L140.82 230.84L202.7 231.31L207.16 431.08L179.38 431.57L179.4 431.56ZM171.39 262.19L180.35 430.55L206.16 430.1L201.74 232.3L141.69 231.85L112.07 426.39L135.82 429.41L171.39 262.2V262.19Z" fill="#263238"/>
<path d="M198.7 430.27C198.56 430.27 198.44 391.1 198.44 342.8C198.44 294.5 198.56 255.32 198.7 255.32C198.84 255.32 198.96 294.48 198.96 342.8C198.96 391.12 198.84 430.27 198.7 430.27Z" fill="#455A64"/>
<path d="M130.77 429.56C130.77 429.56 130.78 429.41 130.83 429.13C130.89 428.83 130.96 428.42 131.06 427.89C131.28 426.78 131.58 425.18 131.98 423.14C132.81 418.99 134.01 413.04 135.48 405.69C138.48 390.97 142.73 370.65 147.61 348.24C152.49 325.83 157.08 305.58 160.48 290.94C162.19 283.64 163.58 277.73 164.55 273.62C165.04 271.6 165.42 270.02 165.69 268.92C165.82 268.4 165.92 268 166 267.7C166.07 267.43 166.11 267.29 166.12 267.29C166.12 267.29 166.1 267.44 166.05 267.71C165.99 268.01 165.9 268.42 165.79 268.94C165.55 270.05 165.19 271.63 164.74 273.66C163.81 277.78 162.48 283.71 160.83 291.02C157.53 305.68 152.99 325.94 148.11 348.35C143.23 370.75 138.92 391.06 135.83 405.76C134.29 413.09 133.03 419.04 132.16 423.17C131.72 425.2 131.38 426.79 131.15 427.9C131.03 428.42 130.94 428.83 130.87 429.13C130.8 429.41 130.77 429.55 130.76 429.54L130.77 429.56Z" fill="#455A64"/>
<path d="M179.87 265.82C179.87 265.82 179.47 265.91 178.74 265.97C177.9 266.03 176.87 266.1 175.65 266.19C173.04 266.36 169.44 266.54 165.48 266.93C161.52 267.33 157.95 267.86 155.36 268.2C154.15 268.35 153.12 268.48 152.29 268.59C151.56 268.67 151.16 268.7 151.15 268.66C151.15 268.62 151.54 268.53 152.26 268.39C152.98 268.25 154.02 268.06 155.31 267.84C157.89 267.41 161.46 266.82 165.44 266.42C169.42 266.03 173.04 265.91 175.65 265.83C176.96 265.79 178.02 265.78 178.75 265.78C179.48 265.78 179.89 265.8 179.89 265.83L179.87 265.82Z" fill="#455A64"/>
<path d="M202.74 253.12C202.74 253.12 202.47 253.23 201.97 253.31C201.47 253.39 200.73 253.45 199.81 253.41C197.99 253.34 195.42 252.72 193.12 251.07C190.82 249.42 189.42 247.17 188.77 245.48C188.44 244.63 188.26 243.91 188.17 243.4C188.09 242.9 188.08 242.61 188.11 242.61C188.2 242.59 188.37 243.71 189.11 245.33C189.83 246.95 191.22 249.06 193.42 250.64C195.62 252.22 198.07 252.87 199.83 253.03C201.6 253.21 202.72 253.01 202.73 253.11L202.74 253.12Z" fill="#455A64"/>
<path d="M136.17 235.17L204.64 234.95L200.89 189.76C200.48 179.42 200.54 178.19 200.28 168.64C200.28 168.64 210 180.39 217.65 188.63C222.27 193.61 229.59 195 235.73 192.1L275.74 164.19L268.25 145.03L231.89 167.28C230.22 166.25 216.07 146.05 206.29 136.2C200.03 129.89 191.59 126.26 182.7 126C175.98 125.8 167.86 126.12 160.61 126.89C149.59 128.06 140.97 136.91 140.05 147.95C139.34 156.4 139.91 166.21 139.91 182.88L136.16 235.17H136.17Z" fill="#455A64"/>
<path d="M139.38 152.52C139.38 152.52 139.39 152.7 139.39 153.05C139.39 153.45 139.39 153.95 139.39 154.56C139.37 155.87 139.37 157.77 139.39 160.12C139.42 164.82 139.61 171.3 139.81 178.47C140.01 185.64 140.05 192.14 139.87 196.83C139.79 199.18 139.68 201.08 139.57 202.39C139.52 203 139.48 203.49 139.45 203.9C139.42 204.24 139.39 204.42 139.39 204.42C139.39 204.42 139.39 204.24 139.41 203.89C139.43 203.49 139.46 202.99 139.49 202.38C139.58 201.07 139.66 199.17 139.72 196.82C139.86 192.12 139.8 185.63 139.6 178.47C139.4 171.3 139.23 164.81 139.24 160.11C139.24 157.76 139.27 155.86 139.31 154.54C139.33 153.93 139.35 153.43 139.36 153.03C139.37 152.68 139.39 152.5 139.39 152.5L139.38 152.52Z" fill="#263238"/>
<path d="M230.39 173.75C230.39 173.75 230.42 173.39 230.53 172.81C230.65 172.23 230.82 171.44 231.02 170.56C231.22 169.68 231.42 168.89 231.57 168.33C231.72 167.76 231.83 167.41 231.86 167.42C231.89 167.42 231.83 167.79 231.71 168.37C231.59 168.95 231.42 169.74 231.22 170.61C231.02 171.48 230.82 172.27 230.67 172.84C230.52 173.41 230.41 173.76 230.38 173.75H230.39Z" fill="#263238"/>
<path d="M234.04 174.32C233.98 174.33 233.57 172.72 233.11 170.72C232.65 168.72 232.33 167.09 232.38 167.07C232.43 167.05 232.85 168.67 233.31 170.67C233.77 172.67 234.09 174.3 234.03 174.32H234.04Z" fill="#263238"/>
<path d="M201.97 170.34C201.97 170.34 201.84 170.23 201.6 170C201.32 169.73 200.97 169.39 200.55 168.99C199.65 168.1 198.34 166.82 196.79 165.17C195.24 163.52 193.44 161.51 191.68 159.08C189.93 156.66 188.22 153.8 187.03 150.54C185.83 147.29 185.32 143.96 185.5 140.96C185.64 137.97 186.21 135.27 187.22 133.23C188.22 131.17 189.58 129.85 190.58 129.09C191.09 128.72 191.5 128.44 191.8 128.29C192.09 128.12 192.25 128.04 192.25 128.04C192.27 128.07 191.63 128.38 190.64 129.15C189.65 129.92 188.33 131.25 187.36 133.29C186.37 135.32 185.82 137.99 185.7 140.97C185.53 143.95 186.04 147.24 187.24 150.47C188.42 153.71 190.11 156.55 191.85 158.97C193.59 161.39 195.38 163.41 196.91 165.07C198.45 166.73 199.73 168.03 200.62 168.93C201.03 169.35 201.36 169.69 201.64 169.97C201.87 170.21 201.99 170.34 201.99 170.34H201.97Z" fill="#263238"/>
<path d="M157.46 151.74C157.35 151.83 156.3 150.69 155.11 149.2C153.92 147.71 153.06 146.42 153.17 146.33C153.28 146.24 154.33 147.38 155.52 148.87C156.7 150.36 157.57 151.65 157.46 151.74Z" fill="#FAFAFA"/>
<path d="M173.03 169.41C173.13 169.51 171.68 171.13 169.79 173.01C167.9 174.9 166.28 176.35 166.18 176.25C166.08 176.15 167.53 174.53 169.42 172.65C171.31 170.76 172.93 169.31 173.03 169.41Z" fill="#FAFAFA"/>
<path d="M188.09 194.75C187.94 194.79 187.39 193.25 186.38 191.53C185.38 189.8 184.3 188.56 184.41 188.46C184.5 188.36 185.79 189.47 186.83 191.27C187.88 193.06 188.22 194.73 188.09 194.76V194.75Z" fill="#FAFAFA"/>
<path d="M149.04 191.88C148.92 191.93 147.93 189.76 147.43 186.87C146.92 183.99 147.1 181.61 147.23 181.62C147.39 181.62 147.43 183.96 147.94 186.78C148.43 189.61 149.18 191.82 149.03 191.88H149.04Z" fill="#FAFAFA"/>
<path d="M169.78 203.04C169.66 203.09 168.86 201.26 168.65 198.82C168.42 196.38 168.89 194.44 169.02 194.47C169.17 194.49 168.95 196.42 169.17 198.78C169.37 201.14 169.93 203 169.78 203.05V203.04Z" fill="#FAFAFA"/>
<path d="M161.58 219.26C161.5 219.38 159.4 218.2 156.88 216.63C154.36 215.05 152.38 213.68 152.45 213.56C152.53 213.44 154.63 214.62 157.15 216.19C159.67 217.77 161.65 219.14 161.58 219.26Z" fill="#FAFAFA"/>
<path d="M193.81 214.46C193.87 214.6 191.55 215.75 188.86 217.46C186.16 219.15 184.12 220.75 184.03 220.63C183.94 220.53 185.85 218.73 188.59 217.02C191.32 215.29 193.76 214.34 193.81 214.46Z" fill="#FAFAFA"/>
<path d="M153.27 232.79C153.24 232.93 150.98 232.6 148.23 232.05C145.47 231.5 143.26 230.94 143.29 230.8C143.32 230.66 145.58 230.99 148.33 231.54C151.09 232.09 153.3 232.65 153.27 232.79Z" fill="#FAFAFA"/>
<path d="M174.88 229.27C174.78 229.36 173.54 228.06 172.5 226.13C171.45 224.2 171.04 222.46 171.17 222.42C171.31 222.37 171.93 224 172.96 225.88C173.97 227.76 175 229.17 174.88 229.27Z" fill="#FAFAFA"/>
<path d="M199.2 230.97C199.31 231.06 198.61 232.08 197.64 233.24C196.67 234.4 195.79 235.27 195.68 235.18C195.57 235.09 196.27 234.07 197.24 232.91C198.21 231.75 199.09 230.88 199.2 230.97Z" fill="#FAFAFA"/>
<path d="M154.72 162.23C154.8 162.35 153.91 163.09 152.73 163.87C151.55 164.66 150.53 165.2 150.45 165.08C150.37 164.96 151.26 164.22 152.44 163.44C153.62 162.65 154.64 162.11 154.72 162.23Z" fill="#FAFAFA"/>
<path d="M171.59 143.37C171.46 143.42 170.57 141.14 169.79 138.23C169.01 135.32 168.64 132.9 168.78 132.87C168.92 132.84 169.52 135.2 170.3 138.09C171.07 140.98 171.74 143.32 171.6 143.37H171.59Z" fill="#FAFAFA"/>
<path d="M187.8 160.54C187.74 160.68 186.28 160.12 184.4 159.77C182.53 159.4 180.96 159.39 180.96 159.23C180.95 159.1 182.55 158.88 184.5 159.25C186.45 159.62 187.86 160.41 187.8 160.53V160.54Z" fill="#FAFAFA"/>
<path d="M198.94 145.96C198.96 146.09 197.24 146.42 195.12 146.08C193 145.76 191.46 144.93 191.52 144.81C191.58 144.67 193.16 145.26 195.2 145.56C197.23 145.88 198.92 145.8 198.94 145.95V145.96Z" fill="#FAFAFA"/>
<path d="M210.34 162.22C210.21 162.22 210.12 159.73 210.62 156.71C211.1 153.68 211.97 151.35 212.1 151.39C212.25 151.43 211.61 153.81 211.14 156.79C210.65 159.77 210.5 162.23 210.35 162.22H210.34Z" fill="#FAFAFA"/>
<path d="M223.73 181.37C223.63 181.47 222.03 179.99 220.17 178.08C218.31 176.16 216.88 174.52 216.99 174.42C217.09 174.32 218.69 175.8 220.55 177.72C222.41 179.64 223.84 181.28 223.73 181.38V181.37Z" fill="#FAFAFA"/>
<path d="M234.87 179.9C234.99 179.98 234.19 181.44 233.07 183.17C231.96 184.9 230.96 186.23 230.84 186.16C230.72 186.08 231.52 184.62 232.64 182.89C233.75 181.16 234.75 179.83 234.87 179.9Z" fill="#FAFAFA"/>
<path d="M247.8 173.6C247.67 173.66 246.7 171.94 245.64 169.75C244.58 167.56 243.82 165.74 243.95 165.67C244.08 165.61 245.04 167.33 246.11 169.52C247.17 171.71 247.93 173.53 247.8 173.6Z" fill="#FAFAFA"/>
<path d="M265.4 166.32C265.37 166.46 263.32 166.21 260.81 165.77C258.3 165.32 256.28 164.85 256.31 164.7C256.34 164.56 258.39 164.81 260.9 165.25C263.41 165.7 265.43 166.17 265.4 166.32Z" fill="#FAFAFA"/>
<path d="M125.6 185.04C125.47 184.98 126.3 182.94 127.46 180.48C128.62 178.02 129.66 176.08 129.79 176.15C129.92 176.21 129.09 178.25 127.93 180.71C126.77 183.16 125.73 185.1 125.6 185.04Z" fill="#FAFAFA"/>
<path d="M134.93 168.58C134.82 168.68 133.47 167.34 131.9 165.6C130.33 163.86 129.15 162.37 129.26 162.27C129.37 162.17 130.72 163.51 132.29 165.25C133.86 166.99 135.04 168.48 134.93 168.58Z" fill="#FAFAFA"/>
<path d="M134.16 195.02C134.25 195.13 133.56 195.86 132.61 196.64C131.66 197.43 130.82 197.98 130.73 197.86C130.64 197.75 131.33 197.02 132.28 196.24C133.23 195.45 134.07 194.91 134.16 195.02Z" fill="#FAFAFA"/>
<path d="M137.31 151.09C137.42 151.18 137 151.89 136.37 152.68C135.74 153.47 135.14 154.03 135.03 153.94C134.92 153.85 135.34 153.14 135.97 152.35C136.6 151.56 137.2 151 137.31 151.09Z" fill="#FAFAFA"/>
<g opacity="0.3">
<path d="M189.57 155.64C193.8 168.93 197.06 182.88 201.29 196.17L200.28 168.64C196.36 165.02 192.79 160.68 189.56 155.64H189.57Z" fill="black"/>
</g>
<path d="M120.76 173.03C120.76 173.03 120.8 172.91 120.89 172.7C121.01 172.43 121.14 172.13 121.3 171.78C121.66 170.98 122.19 169.83 122.87 168.42C124.23 165.6 126.19 161.75 128.54 157.59C130.9 153.44 133.19 149.77 134.91 147.16C135.77 145.85 136.48 144.81 136.98 144.09C137.2 143.78 137.39 143.51 137.56 143.27C137.69 143.08 137.77 142.99 137.77 142.99C137.77 142.99 137.71 143.1 137.59 143.29C137.43 143.54 137.25 143.81 137.04 144.13C136.51 144.95 135.83 145.99 135.02 147.24C133.33 149.87 131.06 153.54 128.71 157.69C126.36 161.84 124.38 165.68 122.99 168.48C122.34 169.81 121.79 170.93 121.36 171.81C121.19 172.15 121.05 172.45 120.92 172.71C120.82 172.92 120.76 173.02 120.75 173.02L120.76 173.03Z" fill="#263238"/>
<path d="M127.51 160.3C127.51 160.3 127.09 160.47 126.42 160.76C125.75 161.05 124.85 161.5 123.94 162.13C123.03 162.77 122.29 163.45 121.79 163.98C121.29 164.51 121.01 164.86 120.98 164.84C120.97 164.84 121.03 164.73 121.14 164.56C121.25 164.39 121.44 164.15 121.68 163.87C122.16 163.31 122.9 162.59 123.82 161.95C124.75 161.31 125.68 160.86 126.37 160.61C126.72 160.48 127 160.39 127.2 160.34C127.4 160.29 127.51 160.27 127.52 160.28L127.51 160.3Z" fill="#263238"/>
<path d="M128.45 139.79C128.57 139.87 127.21 141.96 125.41 144.44C123.61 146.92 122.06 148.87 121.95 148.78C121.83 148.7 123.19 146.62 124.99 144.13C126.79 141.65 128.34 139.7 128.45 139.79Z" fill="#FAFAFA"/>
<path d="M135.669 123.52C136.629 123.83 137.649 123.16 138.209 122.32C138.769 121.48 139.029 120.48 139.519 119.61C141.009 117 144.389 115.86 145.749 113.17C145.939 112.8 146.059 112.28 145.729 112.01C145.429 111.76 144.979 111.93 144.639 112.1C141.669 113.59 138.699 115.07 135.729 116.56" fill="#FFBE9D"/>
<path d="M135.73 116.57C135.73 116.57 136.04 116.33 136.64 115.99C137.25 115.65 138.13 115.17 139.23 114.59C140.38 114 141.68 113.32 143.1 112.58C143.47 112.39 143.84 112.2 144.22 112.01C144.59 111.86 145 111.49 145.67 111.66C146 111.76 146.22 112.13 146.21 112.43C146.22 112.73 146.14 112.99 146.03 113.23C145.8 113.67 145.55 114.08 145.23 114.46C143.96 115.98 142.36 116.9 141.19 117.99C140.6 118.53 140.09 119.1 139.74 119.7C139.38 120.3 139.15 120.94 138.87 121.51C138.37 122.68 137.47 123.44 136.76 123.6C136.03 123.78 135.64 123.53 135.67 123.51C135.67 123.45 136.07 123.62 136.7 123.39C137.33 123.17 138.07 122.48 138.51 121.34C138.76 120.78 138.97 120.13 139.33 119.46C139.69 118.79 140.23 118.17 140.84 117.6C142.05 116.44 143.63 115.5 144.8 114.09C145.09 113.74 145.33 113.36 145.53 112.98C145.71 112.61 145.7 112.22 145.49 112.18C145.26 112.09 144.85 112.3 144.47 112.49C144.09 112.68 143.71 112.86 143.34 113.05C141.9 113.75 140.58 114.38 139.42 114.95C138.3 115.48 137.39 115.9 136.75 116.18C136.11 116.46 135.75 116.6 135.74 116.56L135.73 116.57Z" fill="#EB996E"/>
<path d="M414.85 391.27H351.55V399.97H414.85V391.27Z" fill="#263238"/>
<path d="M414.95 400.08H351.44V391.17H414.95V400.08ZM351.66 399.86H414.74V391.38H351.66V399.86Z" fill="#263238"/>
<path d="M357.42 397.07L366.53 442.02H400.24L409.05 399.97L357.42 397.07Z" fill="#263238"/>
<path d="M357.42 437.77L362.28 444.45H403.25L409.05 437.77H357.42Z" fill="#455A64"/>
<path d="M380.82 398.39C380.7 398.39 380.54 377.57 380.46 351.89C380.39 326.2 380.43 305.38 380.55 305.38C380.67 305.38 380.83 326.2 380.91 351.89C380.98 377.57 380.94 398.39 380.82 398.39Z" fill="#263238"/>
<path d="M394.92 346.28C394.92 346.28 394.88 346.45 394.75 346.76C394.6 347.11 394.41 347.56 394.18 348.11C394.05 348.41 393.92 348.73 393.77 349.08C393.64 349.45 393.5 349.84 393.35 350.26C393.2 350.69 393.03 351.14 392.86 351.62C392.69 352.1 392.56 352.62 392.39 353.17C391.7 355.33 391.15 357.97 390.62 360.92C390.16 363.88 389.81 367.16 389.64 370.61C389.33 377.53 389.72 383.8 390.14 388.31C390.34 390.57 390.55 392.4 390.7 393.66C390.76 394.25 390.82 394.73 390.86 395.11C390.89 395.44 390.9 395.62 390.89 395.62C390.87 395.62 390.84 395.45 390.77 395.12C390.71 394.74 390.63 394.26 390.53 393.68C390.33 392.43 390.07 390.6 389.83 388.34C389.33 383.82 388.89 377.53 389.2 370.58C389.37 367.11 389.73 363.81 390.22 360.84C390.77 357.88 391.36 355.22 392.1 353.07C392.28 352.53 392.42 352.01 392.6 351.52C392.78 351.04 392.96 350.59 393.12 350.17C393.28 349.75 393.44 349.36 393.58 349C393.74 348.65 393.9 348.33 394.03 348.04C394.29 347.5 394.51 347.07 394.67 346.72C394.82 346.42 394.91 346.27 394.92 346.28Z" fill="#263238"/>
<path d="M393.3 329.44C393.3 329.44 393.24 329.68 393.1 330.13C392.94 330.61 392.72 331.26 392.44 332.07C392.29 332.49 392.13 332.96 391.96 333.47C391.8 333.99 391.63 334.55 391.45 335.15C391.08 336.36 390.65 337.72 390.27 339.26C390.07 340.03 389.86 340.83 389.63 341.67C389.44 342.52 389.24 343.39 389.04 344.3C388.6 346.11 388.28 348.08 387.87 350.14C387.17 354.28 386.56 358.85 386.13 363.67C385.73 368.5 385.56 373.11 385.49 377.3C385.48 381.5 385.53 385.28 385.7 388.45C385.76 390.04 385.86 391.47 385.94 392.73C386.01 393.99 386.09 395.07 386.17 395.96C386.23 396.81 386.29 397.49 386.32 398C386.35 398.47 386.36 398.71 386.34 398.71C386.32 398.71 386.29 398.47 386.23 398C386.17 397.49 386.09 396.82 385.99 395.97C385.88 395.09 385.78 394 385.68 392.75C385.57 391.49 385.45 390.06 385.37 388.47C385.16 385.3 385.07 381.51 385.06 377.3C385.1 373.09 385.26 368.47 385.66 363.63C386.08 358.79 386.71 354.21 387.44 350.07C387.86 348.01 388.19 346.04 388.65 344.22C388.86 343.31 389.07 342.43 389.27 341.59C389.5 340.75 389.72 339.95 389.94 339.18C390.34 337.64 390.79 336.27 391.19 335.07C391.38 334.47 391.57 333.91 391.74 333.4C391.93 332.9 392.1 332.43 392.26 332.01C392.57 331.21 392.82 330.58 393 330.1C393.17 329.67 393.27 329.44 393.29 329.45L393.3 329.44Z" fill="#263238"/>
<path d="M376.82 402.07C376.82 402.07 376.8 401.99 376.78 401.83C376.76 401.64 376.74 401.41 376.72 401.11C376.68 400.45 376.61 399.52 376.53 398.35C376.38 395.92 376.16 392.46 375.9 388.21C375.35 379.65 374.56 367.82 373.12 354.81C372.38 348.31 371.53 342.13 370.64 336.53C370.17 333.73 369.74 331.07 369.25 328.6C368.8 326.12 368.32 323.82 367.88 321.72C367.46 319.62 367 317.73 366.63 316.07C366.26 314.41 365.91 312.98 365.61 311.82C365.33 310.68 365.11 309.78 364.95 309.14C364.88 308.85 364.83 308.62 364.79 308.44C364.76 308.28 364.74 308.2 364.75 308.2C364.75 308.2 364.79 308.28 364.83 308.43C364.88 308.61 364.95 308.84 365.03 309.12C365.21 309.76 365.46 310.65 365.77 311.78C366.09 312.94 366.47 314.36 366.86 316.02C367.26 317.68 367.74 319.56 368.18 321.66C368.64 323.76 369.14 326.05 369.6 328.54C370.1 331.01 370.54 333.68 371.03 336.47C371.94 342.07 372.81 348.26 373.55 354.77C374.99 367.79 375.74 379.63 376.2 388.2C376.43 392.49 376.59 395.95 376.69 398.35C376.73 399.52 376.77 400.45 376.79 401.11C376.79 401.4 376.8 401.64 376.81 401.83C376.81 401.99 376.81 402.08 376.8 402.08L376.82 402.07Z" fill="#263238"/>
<path d="M380.3 315.39C380.03 312.44 377.04 310.21 374.08 310.18C371.12 310.15 368.36 311.93 366.54 314.27C364.73 316.61 363.73 319.48 362.91 322.32C360.92 329.27 359.82 336.57 360.68 343.75C361.53 350.93 364.45 358 369.6 363.07C370.44 363.89 371.52 364.72 372.67 364.47C373.3 364.34 373.81 363.9 374.29 363.47C384.41 354.33 390.26 340.63 389.86 327C389.78 324.27 389.42 321.43 387.91 319.15C386.4 316.87 382.87 314.46 380.3 315.37" fill="#2C8981"/>
<path d="M358.18 291.76C356.79 294.28 355.4 296.8 354.01 299.32C353.91 299.5 353.78 299.69 353.58 299.71C353.36 299.73 353.2 299.52 353.08 299.34C349.4 293.7 345.73 288.05 342.05 282.41L344.59 280.97L358.18 291.77V291.76Z" fill="#2C8981"/>
<g opacity="0.2">
<path d="M358.18 291.76C356.79 294.28 355.4 296.8 354.01 299.32C353.91 299.5 353.78 299.69 353.58 299.71C353.36 299.73 353.2 299.52 353.08 299.34C349.4 293.7 345.73 288.05 342.05 282.41L344.59 280.97L358.18 291.77V291.76Z" fill="black"/>
</g>
<path d="M380.56 305.38C368.02 297.98 355.47 290.58 342.93 283.17C342.55 282.94 342.13 282.68 342.01 282.25C341.86 281.69 342.28 281.16 342.68 280.74C347.86 275.4 355.37 272.31 362.79 272.84C370.21 273.37 377.34 277.66 380.97 284.15C384.6 290.64 384.72 299.22 380.56 305.38Z" fill="#2C8981"/>
<path d="M348.35 276.08C348.35 276.08 348.52 276.04 348.84 276.02C349.16 276 349.64 275.95 350.26 275.95C351.5 275.92 353.29 276 355.48 276.36C357.67 276.72 360.23 277.42 362.92 278.62C365.6 279.81 368.37 281.53 370.9 283.8C373.41 286.09 375.4 288.68 376.85 291.23C378.31 293.78 379.26 296.26 379.84 298.4C380.42 300.54 380.68 302.32 380.77 303.55C380.84 304.16 380.81 304.32 380.83 304.65C380.83 304.98 380.56 305.47 380.54 305.47C380.5 305.47 380.75 304.79 380.6 303.57C380.45 302.35 380.15 300.59 379.54 298.48C378.35 294.29 375.59 288.64 370.61 284.13C365.62 279.62 359.73 277.44 355.44 276.67C353.28 276.27 351.5 276.14 350.27 276.12C349.04 276.09 348.36 276.12 348.36 276.07L348.35 276.08Z" fill="#263238"/>
<path d="M375.47 290.05C375.49 290.11 374.77 290.44 373.57 290.91C372.37 291.38 370.7 291.99 368.82 292.58C366.95 293.17 365.23 293.65 363.98 293.95C362.73 294.26 361.94 294.4 361.93 294.34C361.91 294.28 362.67 294.03 363.9 293.64C365.29 293.21 366.9 292.7 368.69 292.14C370.47 291.56 372.08 291.04 373.47 290.6C374.69 290.21 375.46 289.98 375.48 290.04L375.47 290.05Z" fill="#263238"/>
<path d="M369.539 274.13C369.659 274.12 369.929 276 369.989 278.33C370.049 280.66 369.879 282.55 369.759 282.55C369.629 282.55 369.599 280.66 369.539 278.35C369.479 276.03 369.419 274.15 369.539 274.14V274.13Z" fill="#263238"/>
<path d="M342.6 282.75C342.58 282.69 343.62 282.31 345.33 281.79C347.04 281.26 349.42 280.6 352.07 279.96C354.73 279.32 357.15 278.83 358.91 278.52C360.67 278.21 361.77 278.07 361.78 278.13C361.79 278.19 360.71 278.44 358.97 278.83C357.23 279.22 354.82 279.76 352.17 280.39C349.52 281.03 347.14 281.65 345.41 282.09C343.68 282.54 342.61 282.81 342.59 282.75H342.6Z" fill="#263238"/>
<path d="M364.69 308.99C361.45 306.54 358.03 306.05 353.97 306.21C349.91 306.37 345.96 307.61 342.24 309.24C335.89 312.02 329.93 316.12 326.14 321.91C322.35 327.71 321.03 335.38 323.87 341.7C324.15 342.33 324.52 342.99 325.16 343.26C325.83 343.55 326.59 343.32 327.28 343.1C334.5 340.75 341.77 338.37 348.4 334.68C355.04 330.99 361.08 325.87 364.64 319.16C365.49 317.55 366.21 315.83 366.35 314.01C366.49 312.19 365.99 310.26 364.69 308.98" fill="#2C8981"/>
<path d="M364.75 308.22C364.75 308.22 364.58 308.31 364.23 308.43C363.84 308.56 363.34 308.74 362.72 308.95C362.39 309.06 362.02 309.18 361.63 309.32C361.23 309.46 360.81 309.64 360.35 309.82C359.44 310.19 358.38 310.56 357.26 311.1C356.7 311.36 356.1 311.63 355.49 311.91C354.88 312.19 354.26 312.54 353.62 312.87C352.31 313.51 350.99 314.33 349.58 315.17C346.81 316.92 343.89 319.02 341.03 321.51C338.2 324.02 335.74 326.66 333.65 329.18C332.65 330.47 331.66 331.68 330.86 332.9C330.45 333.5 330.03 334.06 329.67 334.64C329.31 335.21 328.97 335.76 328.65 336.29C327.97 337.33 327.47 338.33 326.99 339.19C326.76 339.62 326.53 340.02 326.33 340.4C326.15 340.78 325.98 341.12 325.83 341.44C325.54 342.03 325.3 342.5 325.12 342.87C324.95 343.2 324.86 343.36 324.84 343.36C324.83 343.36 324.89 343.17 325.03 342.84C325.19 342.46 325.4 341.97 325.66 341.37C325.8 341.05 325.96 340.69 326.13 340.31C326.31 339.93 326.53 339.52 326.76 339.08C327.22 338.21 327.71 337.19 328.37 336.13C328.69 335.59 329.03 335.04 329.38 334.45C329.73 333.87 330.15 333.3 330.56 332.69C331.36 331.46 332.33 330.23 333.34 328.93C335.42 326.38 337.89 323.71 340.74 321.18C343.61 318.68 346.57 316.57 349.36 314.83C350.78 314 352.12 313.19 353.45 312.56C354.11 312.23 354.73 311.89 355.35 311.62C355.97 311.35 356.57 311.09 357.14 310.84C358.27 310.31 359.34 309.96 360.27 309.62C360.74 309.45 361.16 309.29 361.57 309.15C361.97 309.03 362.34 308.92 362.68 308.82C363.31 308.64 363.82 308.49 364.22 308.38C364.57 308.28 364.76 308.24 364.76 308.26L364.75 308.22Z" fill="#263238"/>
<path d="M339.47 321.91C339.5 322.03 335.98 323.17 331.6 324.45C327.22 325.73 323.64 326.67 323.6 326.55C323.57 326.43 327.09 325.29 331.47 324.01C335.85 322.73 339.43 321.79 339.47 321.91Z" fill="#263238"/>
<path d="M339.14 339.29C339.08 339.29 339.01 338.35 338.97 336.84C338.93 335.32 338.92 333.23 338.99 330.91C339.05 328.6 339.18 326.5 339.3 324.99C339.43 323.48 339.55 322.55 339.61 322.55C339.67 322.55 339.66 323.49 339.61 325.01C339.56 326.67 339.5 328.69 339.43 330.92C339.37 333.15 339.32 335.17 339.28 336.83C339.24 338.34 339.2 339.28 339.13 339.28L339.14 339.29Z" fill="#263238"/>
<path d="M354.02 331.71C353.9 331.71 353.5 327.46 353.14 322.2C352.78 316.94 352.58 312.66 352.71 312.65C352.83 312.65 353.23 316.9 353.59 322.16C353.95 327.42 354.15 331.7 354.02 331.7V331.71Z" fill="#263238"/>
<path d="M335.5 312.23C335.5 312.17 336.47 312.14 338.02 312.15C339.58 312.16 341.72 312.21 344.09 312.28C346.46 312.36 348.61 312.45 350.16 312.55C351.71 312.64 352.67 312.73 352.67 312.79C352.67 312.85 351.71 312.88 350.15 312.87C348.59 312.86 346.44 312.81 344.07 312.74C341.7 312.66 339.55 312.57 338 312.47C336.45 312.38 335.49 312.29 335.49 312.23H335.5Z" fill="#263238"/>
<path d="M371.22 364.07C371.22 364.07 371.19 363.9 371.17 363.57C371.15 363.19 371.13 362.71 371.1 362.12C371.04 360.86 371.03 359.04 371.08 356.79C371.12 354.54 371.27 351.86 371.54 348.9C371.83 345.94 372.26 342.69 372.86 339.3C373.48 335.92 374.23 332.72 375 329.84C375.79 326.97 376.59 324.4 377.35 322.27C378.1 320.14 378.75 318.44 379.25 317.28C379.48 316.74 379.67 316.29 379.82 315.94C379.96 315.64 380.03 315.48 380.05 315.49C380.06 315.49 380.01 315.66 379.91 315.98C379.78 316.34 379.62 316.79 379.42 317.34C378.97 318.52 378.37 320.24 377.66 322.37C376.95 324.5 376.18 327.07 375.41 329.94C374.66 332.82 373.93 336 373.31 339.37C372.7 342.74 372.27 345.98 371.96 348.93C371.67 351.88 371.48 354.55 371.4 356.79C371.31 359.03 371.28 360.85 371.28 362.11C371.28 362.7 371.27 363.18 371.26 363.56C371.26 363.89 371.24 364.07 371.22 364.07Z" fill="#263238"/>
<path d="M373.21 339.43C373.21 339.43 372.68 340.11 371.71 341.08C370.74 342.05 369.35 343.35 367.78 344.74C366.2 346.12 364.73 347.32 363.64 348.16C362.55 349 361.85 349.48 361.81 349.43C361.77 349.38 362.4 348.81 363.44 347.91C364.6 346.91 365.97 345.71 367.49 344.4C368.99 343.07 370.36 341.86 371.5 340.85C372.53 339.94 373.17 339.39 373.22 339.43H373.21Z" fill="#263238"/>
<path d="M385.12 349.02C385.07 349.05 384.47 348.2 383.52 346.81C382.49 345.31 381.21 343.44 379.8 341.38C378.36 339.34 377.05 337.49 376 336.01C375.02 334.64 374.43 333.78 374.48 333.74C374.53 333.7 375.21 334.49 376.26 335.82C377.3 337.15 378.7 339.01 380.17 341.13C381.64 343.24 382.91 345.2 383.79 346.64C384.67 348.08 385.17 349 385.12 349.03V349.02Z" fill="#263238"/>
<path d="M378.88 318.85C378.95 318.95 374.99 321.62 370.04 324.8C365.09 327.98 361.03 330.47 360.96 330.37C360.89 330.27 364.85 327.6 369.8 324.42C374.75 321.24 378.81 318.75 378.88 318.85Z" fill="#263238"/>
<path d="M390.03 330.89C389.94 330.98 387.26 328.5 384.05 325.36C380.83 322.22 378.29 319.6 378.38 319.51C378.47 319.42 381.15 321.9 384.37 325.04C387.59 328.18 390.13 330.8 390.04 330.89H390.03Z" fill="#263238"/>
<path d="M392.84 330.65L396.24 330.37C398.65 330.17 400.99 329.46 403.1 328.27C404.14 327.68 405.19 327.11 406.3 326.66C410.5 324.97 415.18 325.28 419.7 325.05C427.08 324.68 434.37 322.81 441.02 319.6C441.4 319.41 441.74 319.13 441.95 318.76C442.65 317.49 441.35 316.36 440.24 315.67C434.52 312.14 428.69 308.57 422.2 306.82C415.71 305.07 408.34 305.37 402.81 309.18C396.31 313.65 393.94 322.84 392.84 330.65Z" fill="#2C8981"/>
<path d="M442.03 318.34C442.03 318.34 441.82 318.26 441.45 318.07C441.04 317.86 440.51 317.58 439.84 317.23C438.44 316.5 436.43 315.41 433.89 314.19C431.35 312.99 428.27 311.63 424.69 310.64C421.12 309.65 417.01 309.13 412.76 309.67C408.53 310.23 404.64 311.87 401.88 314.34C399.11 316.8 397.41 319.77 396.22 322.29C395.03 324.84 394.29 327 393.76 328.48C393.51 329.19 393.31 329.76 393.16 330.19C393.02 330.58 392.94 330.78 392.92 330.78C392.91 330.78 392.96 330.56 393.07 330.16C393.2 329.72 393.38 329.14 393.59 328.42C394.07 326.92 394.77 324.73 395.93 322.15C397.1 319.59 398.78 316.56 401.61 314.02C404.42 311.47 408.4 309.78 412.7 309.21C417.02 308.66 421.2 309.2 424.8 310.22C428.41 311.24 431.5 312.64 434.03 313.88C436.56 315.14 438.55 316.27 439.92 317.05C440.57 317.43 441.09 317.74 441.49 317.97C441.85 318.18 442.03 318.3 442.02 318.32L442.03 318.34Z" fill="#263238"/>
<path d="M433.87 322.72C433.8 322.82 429.36 319.95 423.95 316.3C418.54 312.65 414.21 309.61 414.28 309.51C414.35 309.41 418.79 312.28 424.2 315.93C429.61 319.58 433.94 322.62 433.87 322.72Z" fill="#263238"/>
<path d="M429.13 309.28C429.15 309.38 427.71 309.71 425.9 309.86C424.08 310.01 422.6 309.92 422.6 309.82C422.6 309.71 424.06 309.64 425.86 309.49C427.66 309.34 429.11 309.18 429.13 309.28Z" fill="#263238"/>
<path d="M409.68 306.74C409.79 306.79 409.13 307.81 408.22 309.02C407.31 310.23 406.48 311.17 406.37 311.12C406.26 311.07 406.92 310.05 407.83 308.84C408.74 307.63 409.57 306.69 409.68 306.74Z" fill="#263238"/>
<path d="M413.66 325.34C413.63 325.39 412.81 324.96 411.52 324.18C410.24 323.4 408.5 322.26 406.65 320.91C404.8 319.56 403.16 318.29 401.99 317.36C400.82 316.43 400.11 315.83 400.15 315.78C400.19 315.73 400.96 316.24 402.19 317.11C403.52 318.08 405.14 319.25 406.92 320.55C408.77 321.89 410.46 323.07 411.7 323.91C412.94 324.75 413.7 325.28 413.66 325.34Z" fill="#263238"/>
<path d="M397.84 345.08C394.6 344.22 390.74 347.38 390.07 350.66C389.4 353.94 390.63 357.3 392.08 360.33C395.27 367.03 399.68 373.24 405.48 377.86C411.28 382.48 418.55 385.44 425.96 385.4C424.59 379.04 426.32 372.39 425.56 365.93C424.89 360.29 422.26 354.9 418.23 350.9C414.19 346.9 408.78 344.33 403.13 343.72C401.06 343.5 398.67 343.17 397.84 345.08Z" fill="#2C8981"/>
<path d="M425.96 385.4C425.96 385.4 425.79 385.34 425.5 385.19C425.21 385.03 424.79 384.77 424.29 384.38C423.27 383.61 422.11 382.12 421.09 380.1C420.57 379.1 420 378.01 419.43 376.8C418.88 375.59 418.3 374.3 417.69 372.95C417.07 371.6 416.39 370.2 415.55 368.83C414.71 367.46 413.71 366.12 412.6 364.82C410.38 362.21 408 359.96 405.94 357.81C403.87 355.67 402.12 353.6 400.86 351.72C399.59 349.84 398.82 348.16 398.38 346.98C398.17 346.38 398.02 345.92 397.95 345.59C397.87 345.27 397.83 345.1 397.85 345.09C397.89 345.08 398.08 345.75 398.55 346.91C399.03 348.06 399.84 349.7 401.13 351.53C402.41 353.37 404.16 355.39 406.24 357.51C408.31 359.64 410.71 361.89 412.95 364.52C414.07 365.83 415.08 367.19 415.93 368.59C416.78 369.98 417.46 371.41 418.07 372.77C418.67 374.13 419.24 375.42 419.77 376.64C420.31 377.84 420.88 378.94 421.37 379.95C422.35 381.97 423.43 383.44 424.4 384.24C425.35 385.06 425.99 385.36 425.96 385.4Z" fill="#263238"/>
<path d="M409.21 380.11C409.15 380.1 409.25 379.26 409.51 377.93C409.76 376.6 410.18 374.76 410.74 372.77C411.3 370.77 411.9 368.99 412.38 367.72C412.86 366.45 413.21 365.68 413.26 365.7C413.32 365.72 413.08 366.53 412.68 367.82C412.28 369.11 411.73 370.9 411.17 372.88C410.61 374.87 410.15 376.68 409.82 377.99C409.49 379.3 409.27 380.11 409.21 380.1V380.11Z" fill="#263238"/>
<path d="M425.35 364.49C425.33 364.55 424.46 364.33 423.07 363.97C421.67 363.61 419.75 363.11 417.6 362.62C415.45 362.14 413.5 361.76 412.08 361.49C410.66 361.22 409.78 361.05 409.79 360.99C409.79 360.93 410.69 360.99 412.13 361.18C413.56 361.37 415.54 361.7 417.7 362.18C419.86 362.67 421.78 363.22 423.16 363.66C424.54 364.11 425.37 364.43 425.35 364.49Z" fill="#263238"/>
<path d="M397.18 369.03C397.12 369.02 397.25 368.05 397.53 366.51C397.81 364.96 398.27 362.84 398.87 360.51C399.48 358.19 400.12 356.11 400.63 354.62C401.14 353.13 401.5 352.23 401.56 352.25C401.62 352.27 401.37 353.21 400.94 354.72C400.51 356.23 399.92 358.31 399.31 360.63C398.71 362.94 398.21 365.05 397.84 366.58C397.48 368.11 397.24 369.05 397.18 369.04V369.03Z" fill="#263238"/>
<path d="M417.91 350.89C417.9 351.01 413.85 350.69 408.88 350.16C403.9 349.63 399.88 349.1 399.89 348.98C399.9 348.86 403.95 349.18 408.92 349.71C413.89 350.24 417.92 350.77 417.9 350.89H417.91Z" fill="#263238"/>
<path d="M414.95 399.93C414.95 400.05 400.73 400.16 383.2 400.16C365.67 400.16 351.45 400.06 351.45 399.93C351.45 399.8 365.66 399.7 383.2 399.7C400.74 399.7 414.95 399.8 414.95 399.93Z" fill="#455A64"/>
<path d="M405.06 418.23C405.06 418.35 395.48 418.46 383.67 418.46C371.86 418.46 362.28 418.36 362.28 418.23C362.28 418.1 371.86 418 383.67 418C395.48 418 405.06 418.1 405.06 418.23Z" fill="#455A64"/>
<path d="M404.69 420.84C404.69 420.96 395.28 421.07 383.67 421.07C372.06 421.07 362.65 420.97 362.65 420.84C362.65 420.71 372.06 420.61 383.67 420.61C395.28 420.61 404.69 420.71 404.69 420.84Z" fill="#455A64"/>
<path d="M405.43 416.07C405.43 416.19 395.52 416.3 383.3 416.3C371.08 416.3 361.17 416.2 361.17 416.07C361.17 415.94 371.08 415.84 383.3 415.84C395.52 415.84 405.43 415.94 405.43 416.07Z" fill="#455A64"/>
<path d="M401.2 30.76C401.2 30.9 394.49 30.98 386.21 30.94C377.93 30.9 371.22 30.74 371.22 30.6C371.22 30.46 377.93 30.38 386.21 30.42C394.49 30.46 401.2 30.62 401.2 30.76Z" fill="#263238"/>
<path d="M386.36 45.67C386.22 45.67 386.03 38.96 385.95 30.68C385.87 22.4 385.91 15.69 386.06 15.69C386.2 15.69 386.39 22.4 386.47 30.68C386.55 38.96 386.51 45.67 386.36 45.67Z" fill="#263238"/>
<path d="M417.01 254.57C416.94 254.7 412.82 252.72 407.81 250.16C402.79 247.6 398.78 245.42 398.84 245.29C398.91 245.16 403.02 247.14 408.04 249.7C413.06 252.26 417.07 254.44 417 254.57H417.01Z" fill="#263238"/>
<path d="M403.42 259.08C403.29 259.02 405.2 254.87 407.69 249.81C410.18 244.75 412.29 240.71 412.42 240.77C412.55 240.83 410.64 244.98 408.15 250.04C405.67 255.09 403.55 259.14 403.42 259.08Z" fill="#263238"/>
<path d="M58.0401 184.16C58.0901 184.29 53.3101 186.33 47.3501 188.7C41.3901 191.07 36.5201 192.89 36.4701 192.76C36.4201 192.63 41.2001 190.59 47.1601 188.22C53.1201 185.85 57.9901 184.03 58.0401 184.16Z" fill="#263238"/>
<path d="M47.0003 177.66C47.0003 177.66 46.8303 177.37 46.4703 176.91C46.1103 176.46 45.4603 175.86 44.4603 175.61C43.4903 175.34 42.1503 175.52 41.1603 176.43C40.1603 177.3 39.6603 178.93 40.2503 180.36C40.8103 181.8 42.3003 182.64 43.6203 182.58C44.9603 182.56 46.0503 181.76 46.5803 180.9C47.1303 180.03 47.1903 179.15 47.1403 178.58C47.0903 178 46.9603 177.69 47.0103 177.67C47.0303 177.66 47.2203 177.95 47.3403 178.55C47.4603 179.14 47.4503 180.1 46.8903 181.09C46.3603 182.06 45.1603 183 43.6303 183.06C42.1303 183.15 40.4103 182.21 39.7703 180.55C39.1003 178.9 39.7003 177.03 40.8503 176.07C42.0003 175.06 43.5103 174.92 44.5703 175.26C45.6503 175.59 46.3203 176.29 46.6403 176.8C46.9703 177.32 47.0303 177.66 47.0103 177.67L47.0003 177.66Z" fill="#263238"/>
<path d="M54.5003 196.47C54.5003 196.47 54.3303 196.18 53.9703 195.72C53.6103 195.27 52.9603 194.67 51.9603 194.42C50.9903 194.15 49.6503 194.33 48.6603 195.24C47.6603 196.11 47.1603 197.74 47.7503 199.17C48.3103 200.61 49.8003 201.45 51.1203 201.39C52.4603 201.37 53.5503 200.57 54.0803 199.71C54.6303 198.84 54.6903 197.96 54.6403 197.39C54.5903 196.81 54.4603 196.5 54.5103 196.48C54.5303 196.47 54.7203 196.76 54.8403 197.36C54.9603 197.95 54.9503 198.91 54.3903 199.9C53.8603 200.87 52.6603 201.81 51.1303 201.87C49.6303 201.96 47.9103 201.02 47.2703 199.36C46.6003 197.71 47.2003 195.84 48.3503 194.88C49.5003 193.87 51.0103 193.73 52.0703 194.07C53.1503 194.4 53.8203 195.1 54.1403 195.61C54.4703 196.13 54.5303 196.47 54.5103 196.48L54.5003 196.47Z" fill="#263238"/>
<path d="M113.95 80.21C113.95 80.21 114.06 80.48 114.25 81C114.44 81.54 114.72 82.31 115.08 83.31C115.8 85.36 116.85 88.34 118.21 92.18L118.28 92.36L118.08 92.33C114.54 91.85 110.19 91.26 105.2 90.58L105.32 90.55C101.39 93.64 96.1299 96.31 89.9099 97.28C88.3599 97.53 86.7599 97.67 85.1199 97.69C84.2999 97.71 83.4699 97.63 82.6399 97.6C82.2199 97.58 81.7999 97.56 81.3799 97.54C80.9599 97.5 80.5399 97.42 80.1199 97.36C76.7299 96.96 73.2999 95.91 70.0199 94.32C66.7399 92.73 63.5999 90.55 60.8499 87.83C58.1199 85.09 55.8099 81.79 54.1199 78.1C50.7199 70.75 50.0099 61.74 52.7699 53.47C55.1499 46.09 60.2299 39.96 66.2699 35.94C69.2899 33.9 72.6499 32.53 76.0199 31.61L77.2899 31.28L77.9199 31.12L78.5599 31.02C79.4199 30.89 80.2699 30.76 81.1099 30.63C81.9599 30.56 82.8099 30.54 83.6599 30.49C84.5099 30.41 85.3499 30.47 86.1799 30.52C87.0099 30.59 87.8499 30.55 88.6599 30.7C89.4799 30.83 90.2899 30.95 91.0899 31.07C91.8899 31.2 92.6699 31.46 93.4499 31.64L94.6099 31.94C94.9899 32.06 95.3599 32.21 95.7299 32.34C98.7499 33.31 101.44 34.87 103.9 36.52C108.74 39.97 112.39 44.35 114.6 48.89C116.87 53.41 117.88 57.96 118.11 61.94C118.42 65.94 117.87 69.4 117.19 72.13C116.5 74.86 115.63 76.88 114.99 78.22C114.67 78.89 114.4 79.39 114.22 79.71C114.03 80.04 113.93 80.21 113.93 80.21C113.93 80.21 114 80.04 114.17 79.7C114.35 79.36 114.59 78.85 114.9 78.18C115.5 76.84 116.34 74.81 117 72.09C117.64 69.37 118.16 65.94 117.82 61.97C117.56 58.02 116.54 53.52 114.27 49.06C112.06 44.58 108.43 40.28 103.65 36.88C101.21 35.26 98.5599 33.73 95.5699 32.78C95.1999 32.65 94.8399 32.5 94.4599 32.38L93.3099 32.09C92.5399 31.91 91.7799 31.66 90.9799 31.53C90.1899 31.41 89.3899 31.29 88.5799 31.17C87.7799 31.02 86.9499 31.06 86.1299 31C85.3099 30.95 84.4799 30.9 83.6499 30.98C82.8199 31.03 81.9799 31.05 81.1399 31.12C80.3099 31.25 79.4699 31.38 78.6199 31.51L77.9899 31.61L77.3699 31.77L76.1199 32.09C72.7999 33 69.4999 34.36 66.5199 36.37C60.5699 40.33 55.5799 46.37 53.2299 53.64C50.5199 61.78 51.2099 70.65 54.5499 77.89C56.2099 81.52 58.4899 84.78 61.1699 87.49C63.8699 90.18 66.9599 92.33 70.1999 93.91C73.4299 95.49 76.8199 96.54 80.1599 96.94C80.5799 97 80.9899 97.08 81.3999 97.12C81.8199 97.14 82.2299 97.16 82.6399 97.18C83.4599 97.21 84.2799 97.3 85.0899 97.28C86.7099 97.27 88.2899 97.13 89.8199 96.89C95.9699 95.96 101.18 93.34 105.09 90.31L105.15 90.27H105.22C110.2 90.99 114.55 91.61 118.09 92.12L117.96 92.28C116.65 88.4 115.63 85.39 114.93 83.33C114.6 82.33 114.34 81.55 114.16 81.01C113.99 80.49 113.92 80.22 113.92 80.22L113.95 80.21Z" fill="#263238"/>
<path d="M82.9898 71.86C82.5398 71.64 82.2298 71.19 82.2298 70.65V63.99C82.2298 63.57 82.4298 63.18 82.7598 62.92C83.0898 62.67 83.5298 62.59 83.9298 62.7C84.9898 63 86.1798 62.82 87.1898 62.2C88.1198 61.63 88.7698 60.77 88.9698 59.82C89.1698 58.88 88.9198 57.82 88.2898 56.91C87.6198 55.94 86.5898 55.26 85.5398 55.09C83.3898 54.75 80.9998 56.3 80.2998 58.48C80.0798 59.18 79.3198 59.57 78.6198 59.35C77.9098 59.12 77.5298 58.37 77.7498 57.67C78.8398 54.25 82.5198 51.91 85.9598 52.45C87.7398 52.73 89.3898 53.81 90.4898 55.39C91.5298 56.9 91.9298 58.71 91.5898 60.36C91.2398 62.03 90.1498 63.53 88.5798 64.48C87.4498 65.17 86.1698 65.52 84.9098 65.51V70.64C84.9098 71.38 84.3098 71.98 83.5698 71.98C83.3598 71.98 83.1698 71.93 82.9898 71.85V71.86Z" fill="#2C8981"/>
<path d="M84.8298 74.66C84.8498 75.26 84.3698 75.77 83.7598 75.78C83.1598 75.8 82.6498 75.32 82.6398 74.71C82.6298 74.1 83.0998 73.6 83.7098 73.59C84.3098 73.57 84.8198 74.05 84.8298 74.66Z" fill="#2C8981"/>
</g>
<defs>
<clipPath id="clip0_181_1991">
<rect width="444.51" height="445.61" fill="white"/>
</clipPath>
</defs>
</svg>
