<svg width="21" height="23" viewBox="0 0 21 23" fill="none" xmlns="http://www.w3.org/2000/svg">
<path d="M2.96418 22.8506C2.36292 22.8506 1.84802 22.6364 1.41948 22.2078C0.990947 21.7793 0.777044 21.2648 0.777773 20.6642V5.35939C0.777773 4.75813 0.992041 4.24323 1.42058 3.81469C1.84911 3.38615 2.36365 3.17225 2.96418 3.17298H4.05738V0.986572H6.24379V3.17298H14.9894V0.986572H17.1758V3.17298H18.269C18.8703 3.17298 19.3852 3.38725 19.8137 3.81578C20.2423 4.24432 20.4562 4.75885 20.4554 5.35939V20.6642C20.4554 21.2655 20.2412 21.7804 19.8126 22.2089C19.3841 22.6375 18.8696 22.8514 18.269 22.8506H2.96418ZM2.96418 20.6642H18.269V9.7322H2.96418V20.6642ZM2.96418 7.54579H18.269V5.35939H2.96418V7.54579ZM10.6166 14.105C10.3069 14.105 10.047 14.0001 9.83715 13.7902C9.62726 13.5803 9.52267 13.3208 9.5234 13.0118C9.5234 12.7021 9.62835 12.4423 9.83825 12.2324C10.0481 12.0225 10.3076 11.9179 10.6166 11.9186C10.9263 11.9186 11.1862 12.0236 11.3961 12.2335C11.606 12.4433 11.7105 12.7028 11.7098 13.0118C11.7098 13.3216 11.6049 13.5814 11.395 13.7913C11.1851 14.0012 10.9256 14.1057 10.6166 14.105ZM6.24379 14.105C5.93405 14.105 5.67423 14.0001 5.46434 13.7902C5.25444 13.5803 5.14986 13.3208 5.15059 13.0118C5.15059 12.7021 5.25554 12.4423 5.46543 12.2324C5.67533 12.0225 5.93478 11.9179 6.24379 11.9186C6.55353 11.9186 6.81335 12.0236 7.02325 12.2335C7.23314 12.4433 7.33772 12.7028 7.337 13.0118C7.337 13.3216 7.23205 13.5814 7.02215 13.7913C6.81226 14.0012 6.5528 14.1057 6.24379 14.105ZM14.9894 14.105C14.6797 14.105 14.4199 14.0001 14.21 13.7902C14.0001 13.5803 13.8955 13.3208 13.8962 13.0118C13.8962 12.7021 14.0012 12.4423 14.2111 12.2324C14.421 12.0225 14.6804 11.9179 14.9894 11.9186C15.2992 11.9186 15.559 12.0236 15.7689 12.2335C15.9788 12.4433 16.0834 12.7028 16.0826 13.0118C16.0826 13.3216 15.9777 13.5814 15.7678 13.7913C15.5579 14.0012 15.2984 14.1057 14.9894 14.105ZM10.6166 18.4778C10.3069 18.4778 10.047 18.3729 9.83715 18.163C9.62726 17.9531 9.52267 17.6936 9.5234 17.3846C9.5234 17.0749 9.62835 16.8151 9.83825 16.6052C10.0481 16.3953 10.3076 16.2907 10.6166 16.2914C10.9263 16.2914 11.1862 16.3964 11.3961 16.6063C11.606 16.8162 11.7105 17.0756 11.7098 17.3846C11.7098 17.6944 11.6049 17.9542 11.395 18.1641C11.1851 18.374 10.9256 18.4786 10.6166 18.4778ZM6.24379 18.4778C5.93405 18.4778 5.67423 18.3729 5.46434 18.163C5.25444 17.9531 5.14986 17.6936 5.15059 17.3846C5.15059 17.0749 5.25554 16.8151 5.46543 16.6052C5.67533 16.3953 5.93478 16.2907 6.24379 16.2914C6.55353 16.2914 6.81335 16.3964 7.02325 16.6063C7.23314 16.8162 7.33772 17.0756 7.337 17.3846C7.337 17.6944 7.23205 17.9542 7.02215 18.1641C6.81226 18.374 6.5528 18.4786 6.24379 18.4778ZM14.9894 18.4778C14.6797 18.4778 14.4199 18.3729 14.21 18.163C14.0001 17.9531 13.8955 17.6936 13.8962 17.3846C13.8962 17.0749 14.0012 16.8151 14.2111 16.6052C14.421 16.3953 14.6804 16.2907 14.9894 16.2914C15.2992 16.2914 15.559 16.3964 15.7689 16.6063C15.9788 16.8162 16.0834 17.0756 16.0826 17.3846C16.0826 17.6944 15.9777 17.9542 15.7678 18.1641C15.5579 18.374 15.2984 18.4786 14.9894 18.4778Z" fill="#2C8981"/>
</svg>
