<svg width="467" height="323" viewBox="0 0 467 323" fill="none" xmlns="http://www.w3.org/2000/svg">
<path d="M69.005 312.868C51.8748 284.8 34.3967 255.818 29.111 223.373C23.8192 190.928 33.6079 153.783 61.2349 135.904C82.9179 121.879 110.65 122.153 135.135 113.903C194.482 93.9107 228.009 26.8826 287.133 6.19349C332.735 -9.7647 386.113 7.04517 419.647 41.7839C453.175 76.5289 468.094 126.436 466.678 174.659C465.255 222.882 448.765 269.631 426.417 312.414L69.005 312.868Z" fill="#E2EDED"/>
<path d="M369.163 311.165H125.526C115.216 311.165 106.781 302.722 106.781 292.403V100.059C106.781 89.7393 115.216 81.2971 125.526 81.2971H369.163C379.474 81.2971 387.908 89.7393 387.908 100.059V292.403C387.908 302.722 379.474 311.165 369.163 311.165Z" fill="#FFDCCF"/>
<path d="M179.942 66.3273C183.314 60.4463 184.072 52.6382 180.258 47.037C175.65 40.267 166.252 38.8061 158.103 39.5956C142.408 41.1063 127.905 48.5165 114.514 56.8531C103.75 63.5546 91.57 73.0351 92.9426 87.2837C93.9426 97.6966 100.793 101.464 110.551 101.153C132.24 100.469 168.867 85.6549 179.942 66.3273Z" fill="#E2EDED"/>
<path d="M381.697 98.971V123.148H100.57V98.971C100.57 89.2109 109.874 81.2971 121.334 81.2971H360.921C372.393 81.2971 381.697 89.2109 381.697 98.971Z" fill="#AFCAF9"/>
<path d="M381.697 210.977V294.796C381.697 303.835 372.393 311.164 360.921 311.164H121.334C109.868 311.164 100.57 303.829 100.57 294.796V226.257V122.837H381.697V210.977Z" fill="#FDFFFE"/>
<path d="M179.985 107.339C183.858 107.339 186.997 104.007 186.997 99.8973C186.997 95.7876 183.858 92.456 179.985 92.456C176.112 92.456 172.973 95.7876 172.973 99.8973C172.973 104.007 176.112 107.339 179.985 107.339Z" fill="#D7E4F9"/>
<path d="M180.035 103.155H179.935C177.47 103.155 175.476 101.153 175.476 98.6913V70.5795C175.476 68.1115 177.476 66.1097 179.935 66.1097H180.035C182.501 66.1097 184.494 68.1115 184.494 70.5795V98.6913C184.494 101.153 182.494 103.155 180.035 103.155Z" fill="#2C8981"/>
<path d="M143.6 107.339C147.473 107.339 150.613 104.007 150.613 99.8973C150.613 95.7876 147.473 92.456 143.6 92.456C139.728 92.456 136.588 95.7876 136.588 99.8973C136.588 104.007 139.728 107.339 143.6 107.339Z" fill="#D7E4F9"/>
<path d="M143.65 103.155H143.551C141.085 103.155 139.085 101.153 139.085 98.6913V70.5795C139.085 68.1115 141.085 66.1097 143.551 66.1097H143.65C146.116 66.1097 148.116 68.1115 148.116 70.5795V98.6913C148.11 101.153 146.116 103.155 143.65 103.155Z" fill="#2C8981"/>
<path d="M219.656 107.339C223.528 107.339 226.668 104.007 226.668 99.8973C226.668 95.7876 223.528 92.456 219.656 92.456C215.783 92.456 212.643 95.7876 212.643 99.8973C212.643 104.007 215.783 107.339 219.656 107.339Z" fill="#D7E4F9"/>
<path d="M219.705 103.155H219.606C217.14 103.155 215.14 101.153 215.14 98.6913V70.5795C215.14 68.1115 217.14 66.1097 219.606 66.1097H219.705C222.171 66.1097 224.171 68.1115 224.171 70.5795V98.6913C224.165 101.153 222.171 103.155 219.705 103.155Z" fill="#2C8981"/>
<path d="M259.326 107.339C263.199 107.339 266.338 104.007 266.338 99.8973C266.338 95.7876 263.199 92.456 259.326 92.456C255.453 92.456 252.314 95.7876 252.314 99.8973C252.314 104.007 255.453 107.339 259.326 107.339Z" fill="#D7E4F9"/>
<path d="M259.376 103.155H259.276C256.81 103.155 254.817 101.153 254.817 98.6913V70.5795C254.817 68.1115 256.817 66.1097 259.276 66.1097H259.376C261.841 66.1097 263.835 68.1115 263.835 70.5795V98.6913C263.835 101.153 261.841 103.155 259.376 103.155Z" fill="#2C8981"/>
<path d="M298.996 107.339C302.869 107.339 306.009 104.007 306.009 99.8973C306.009 95.7876 302.869 92.456 298.996 92.456C295.123 92.456 291.984 95.7876 291.984 99.8973C291.984 104.007 295.123 107.339 298.996 107.339Z" fill="#D7E4F9"/>
<path d="M299.046 103.155H298.947C296.481 103.155 294.487 101.153 294.487 98.6913V70.5795C294.487 68.1115 296.487 66.1097 298.947 66.1097H299.046C301.512 66.1097 303.505 68.1115 303.505 70.5795V98.6913C303.505 101.153 301.512 103.155 299.046 103.155Z" fill="#2C8981"/>
<path d="M338.667 107.339C342.539 107.339 345.679 104.007 345.679 99.8973C345.679 95.7876 342.539 92.456 338.667 92.456C334.794 92.456 331.654 95.7876 331.654 99.8973C331.654 104.007 334.794 107.339 338.667 107.339Z" fill="#D7E4F9"/>
<path d="M338.716 103.155H338.617C336.151 103.155 334.151 101.153 334.151 98.6913V70.5795C334.151 68.1115 336.151 66.1097 338.617 66.1097H338.716C341.182 66.1097 343.182 68.1115 343.182 70.5795V98.6913C343.182 101.153 341.182 103.155 338.716 103.155Z" fill="#2C8981"/>
<path d="M143.6 155.25H117.296V176.773H143.6V155.25Z" fill="#DCE7F9"/>
<path d="M143.6 189.448H117.296V210.97H143.6V189.448Z" fill="#DCE7F9"/>
<path d="M143.6 223.652H117.296V245.175H143.6V223.652Z" fill="#DCE7F9"/>
<path d="M143.6 257.85H117.296V279.372H143.6V257.85Z" fill="#DCE7F9"/>
<path d="M180.494 155.25H154.19V176.773H180.494V155.25Z" fill="#DCE7F9"/>
<path d="M180.494 189.448H154.19V210.97H180.494V189.448Z" fill="#2C8981"/>
<path d="M180.494 223.652H154.19V245.175H180.494V223.652Z" fill="#DCE7F9"/>
<path d="M180.494 257.85H154.19V279.372H180.494V257.85Z" fill="#DCE7F9"/>
<path d="M217.388 155.25H191.084V176.773H217.388V155.25Z" fill="#DCE7F9"/>
<path d="M217.388 189.448H191.084V210.97H217.388V189.448Z" fill="#DCE7F9"/>
<path d="M217.388 223.652H191.084V245.175H217.388V223.652Z" fill="#DCE7F9"/>
<path d="M217.388 257.85H191.084V279.372H217.388V257.85Z" fill="#DCE7F9"/>
<path d="M254.289 155.25H227.985V176.773H254.289V155.25Z" fill="#DCE7F9"/>
<path d="M254.289 189.448H227.985V210.97H254.289V189.448Z" fill="#DCE7F9"/>
<path d="M254.289 223.652H227.985V245.175H254.289V223.652Z" fill="#DCE7F9"/>
<path d="M254.289 257.85H227.985V279.372H254.289V257.85Z" fill="#DCE7F9"/>
<path d="M291.183 155.25H264.879V176.773H291.183V155.25Z" fill="#DCE7F9"/>
<path d="M291.183 189.448H264.879V210.97H291.183V189.448Z" fill="#DCE7F9"/>
<path d="M291.183 223.652H264.879V245.175H291.183V223.652Z" fill="#DCE7F9"/>
<path d="M291.183 257.85H264.879V279.372H291.183V257.85Z" fill="#DCE7F9"/>
<path d="M328.077 223.652H301.773V245.175H328.077V223.652Z" fill="#FCBEBE"/>
<path d="M328.077 155.25H301.773V176.773H328.077V155.25Z" fill="#FCBEBE"/>
<path d="M328.077 189.448H301.773V210.97H328.077V189.448Z" fill="#FCBEBE"/>
<path d="M328.077 257.85H301.773V279.372H328.077V257.85Z" fill="#FCBEBE"/>
<path d="M364.971 257.85H338.667V279.372H364.971V257.85Z" fill="#FCBEBE"/>
<path d="M364.971 155.25H338.667V176.773H364.971V155.25Z" fill="#FCBEBE"/>
<path d="M364.971 189.448H338.667V210.97H364.971V189.448Z" fill="#FCBEBE"/>
<path d="M364.971 223.652H338.667V245.175H364.971V223.652Z" fill="#FCBEBE"/>
<path d="M165.998 208.341L158.315 198.052L160.749 196.013L165.967 203.001L173.917 192.066L176.37 194.08L165.998 208.341Z" fill="#FDFFFE"/>
<path d="M369.325 312.097H121.334C109.371 312.097 99.6382 304.339 99.6382 294.796V173.13H101.502V294.796C101.502 303.307 110.396 310.232 121.334 310.232H369.325V312.097Z" fill="#2C8981"/>
<path d="M382.629 199.961H380.766V240.835H382.629V199.961Z" fill="#2C8981"/>
<path d="M382.629 160.746H380.765V98.9711C380.765 89.7393 371.865 82.2296 360.921 82.2296H121.334C117.34 82.2296 113.483 83.2304 110.191 85.1265C104.75 88.2535 101.502 93.432 101.502 98.9711H99.6382C99.6382 92.7544 103.234 86.9729 109.265 83.504C112.843 81.4463 117.017 80.3646 121.334 80.3646H360.921C372.89 80.3646 382.629 88.7136 382.629 98.9711V160.746Z" fill="#2C8981"/>
<path d="M433.156 304.631L434.162 292.838H425.523L426.044 304.631H433.156Z" fill="#FFB486"/>
<path d="M434.138 293.024L433.566 299.664C430.523 299.856 427.585 299.483 425.802 299.179L425.492 292.322L434.138 293.024Z" fill="#FCA377"/>
<path d="M435.436 310.947H412.958C412.933 310.68 412.877 309.859 413.051 308.995C413.057 308.976 435.125 309.119 435.125 309.119L435.436 310.947Z" fill="#0BACAC"/>
<path d="M435.119 309.119L413.051 308.976C413.262 306.688 416.132 305.613 418.802 304.935C418.982 304.892 419.156 304.848 419.337 304.805C419.722 304.712 420.094 304.631 420.448 304.55C420.635 304.506 420.815 304.469 420.982 304.432C421.908 304.227 422.678 304.046 423.119 303.841C423.517 303.649 424.001 303.375 424.417 303.12C424.56 303.033 424.69 302.946 424.815 302.871C425.212 302.623 425.498 302.436 425.498 302.436C426.945 302.909 429.119 304.27 433.895 302.107L434.038 302.94L434.119 303.412L435.119 309.119Z" fill="#0BACAC"/>
<path d="M418.517 306.396C418.523 306.353 418.548 305.675 418.809 304.935L418.517 306.396Z" fill="#0BACAC"/>
<path d="M420.132 306.11C420.132 306.061 420.163 305.327 420.455 304.55L420.132 306.11Z" fill="#0BACAC"/>
<path d="M424.821 302.871C425.659 303.593 428.734 305.638 434.044 302.934L424.821 302.871Z" fill="#0BACAC"/>
<path d="M418.684 296.705C426.858 297.985 434.454 298.526 440.231 296.705C440.231 296.705 445.119 241.874 436.454 191.494L419.125 191.568C419.125 191.568 412.461 252.112 418.684 296.705Z" fill="#2C8981"/>
<path d="M418.014 141.344C414.709 140.542 412.66 139.106 411.92 137.067C410.84 134.095 412.951 131.086 413.194 130.757L413.846 131.235C413.759 131.354 411.728 134.17 412.678 136.793C413.318 138.559 415.175 139.827 418.2 140.56L418.014 141.344Z" fill="#2C8981"/>
<path d="M382.542 304.631L386.256 292.838H377.61L374.977 304.631H382.542Z" fill="#FFB486"/>
<path d="M386.275 292.732L384.225 299.216C380.337 299.912 377.337 299.253 376.275 298.955L377.747 292.365H380.834L386.275 292.732Z" fill="#FCA377"/>
<path d="M428.249 156.631C428.249 156.631 451.572 160.908 449.473 184.003C448.597 193.601 441.349 200.234 441.349 200.234L438.684 192.122L429.355 195.261L428.249 156.631Z" fill="#00B7A7"/>
<path d="M415.299 158.862L416.933 146.305H424.349L426.1 158.862H415.299Z" fill="#FFB587"/>
<path d="M419.088 151.154C423.777 149.836 429.312 143.358 427.243 135.873C425.604 129.936 415.473 131.577 412.765 136.669C408.573 144.576 408.312 154.187 419.088 151.154Z" fill="#FFB587"/>
<path d="M376.306 171.426C375.852 171.103 374.374 170.115 374.132 169.611C373.915 169.145 373.045 166.478 372.492 166.714C371.915 166.963 372.896 168.672 372.412 168.79C372.113 168.865 370.138 165.539 369.61 166.08C369.263 166.434 370.735 168.281 370.486 168.399C370.256 168.504 368.921 165.85 368.381 166.347C367.815 166.869 370.231 169.107 369.958 169.331C369.822 169.443 367.722 166.49 367.294 166.907C366.722 167.466 369.095 169.518 368.853 169.797C368.735 169.934 368.026 169.058 367.536 168.591C367.263 168.33 367.014 168.511 367.095 168.753C367.921 171.258 371.89 173.577 372.151 173.938C372.536 174.479 372.927 175.007 373.318 175.511L376.306 171.426Z" fill="#FFBA8C"/>
<path d="M371.045 296.176C378.933 297.295 386.312 297.55 392.722 296.176C419.312 246.81 430.436 191.04 430.436 191.04H409.896C383.356 236.794 371.045 296.176 371.045 296.176Z" fill="#2C8981"/>
<path d="M388.157 176.698L376.492 170.419L372.244 175.952C372.244 175.952 379.12 193.887 392.598 192.376C403.38 191.17 409.883 170.941 409.883 170.941L388.157 176.698Z" fill="#00B7A7"/>
<path d="M441.591 206.066C423.045 214.514 396.082 207.116 396.082 207.116L396.902 204.381L397.026 203.958L404.039 180.583L385.598 180.36C385.598 180.36 397.952 163.009 405.144 158.788C407.026 157.687 409.542 156.854 412.392 156.332C412.616 156.295 412.84 156.251 413.069 156.22C417.703 155.462 423.125 155.518 428.057 156.562C428.231 156.599 428.405 156.637 428.572 156.674C431.343 157.302 433.945 158.247 436.15 159.546C436.15 159.546 434.827 167 436.678 172.067C440.895 183.58 441.529 197.325 441.591 203.187C441.597 203.355 441.597 203.51 441.597 203.66C441.622 205.189 441.591 206.066 441.591 206.066Z" fill="#00B7A7"/>
<path d="M425.374 209.901C425.1 209.92 424.827 209.945 424.548 209.963C424.349 209.976 424.15 209.988 423.951 210.001C409.523 210.809 396.076 207.116 396.076 207.116L396.902 204.381L397.026 203.964L402.473 185.731C403.393 184.792 408.014 177.251 408.734 174.205C408.734 174.205 409.038 182.007 406.591 188.404C405.045 192.445 403.306 198.444 405.368 202.248C408.032 207.191 425.144 209.833 425.374 209.901Z" fill="#0EDAC8"/>
<path d="M394.248 169.069L386.544 178.543L387.17 179.053L394.875 169.579L394.248 169.069Z" fill="#2C8981"/>
<path d="M415.262 151.912C412.945 151.912 411.684 150.719 411.616 150.65L412.181 150.072C412.262 150.153 414.25 152.03 418.026 150.532L418.324 151.284C417.156 151.744 416.132 151.912 415.262 151.912Z" fill="#2C8981"/>
<path d="M425.715 156.034C420.243 158.607 415.703 155.798 415.703 155.798L415.833 154.797L425.517 154.666L425.715 156.034Z" fill="#FFB587"/>
<path d="M419.864 207.974C409.2 207.974 400.175 205.736 396.79 204.772L397.014 203.995C400.368 204.947 409.306 207.16 419.864 207.16C427.951 207.16 435.212 205.86 441.454 203.287L441.759 204.033C435.423 206.65 428.057 207.974 419.864 207.974Z" fill="#2C8981"/>
<path d="M442.224 206.066H441.417C441.417 205.867 441.361 186.004 436.523 172.129L437.287 171.861C442.169 185.868 442.224 205.867 442.224 206.066Z" fill="#2C8981"/>
<path d="M421.84 159.273C417.97 159.273 414.305 157.408 412.871 156.581L413.274 155.878C415.417 157.115 422.796 160.79 427.796 156.27L428.336 156.867C426.361 158.651 424.063 159.273 421.84 159.273Z" fill="#2C8981"/>
<path d="M384.958 310.947H362.48C362.455 310.68 362.399 309.859 362.573 308.995C362.579 308.976 384.647 309.119 384.647 309.119L384.958 310.947Z" fill="#0BACAC"/>
<path d="M384.647 309.119L362.579 308.976C362.791 306.688 365.66 305.613 368.331 304.935C368.511 304.892 368.685 304.848 368.865 304.805C369.25 304.712 369.623 304.631 369.977 304.55C370.163 304.506 370.343 304.469 370.511 304.432C371.436 304.227 372.2 304.046 372.648 303.841C373.045 303.649 373.53 303.375 373.946 303.12C374.089 303.033 374.219 302.946 374.343 302.871C374.741 302.623 375.026 302.436 375.026 302.436C376.474 302.909 378.648 304.27 383.424 302.107L383.567 302.94L383.647 303.412L384.647 309.119Z" fill="#0BACAC"/>
<path d="M368.045 306.396C368.051 306.353 368.076 305.675 368.337 304.935L368.045 306.396Z" fill="#0BACAC"/>
<path d="M369.66 306.11C369.66 306.061 369.691 305.327 369.983 304.55L369.66 306.11Z" fill="#0BACAC"/>
<path d="M374.349 302.871C375.188 303.593 378.262 305.638 383.573 302.934L374.349 302.871Z" fill="#0BACAC"/>
<path d="M410.239 174.713L406.164 179.289L406.767 179.827L410.842 175.251L410.239 174.713Z" fill="#2C8981"/>
<path d="M439.901 204.387H439.094C439.094 199.812 438.504 193.365 438.498 193.296L439.299 193.222C439.305 193.284 439.901 199.78 439.901 204.387Z" fill="#2C8981"/>
<path d="M391.02 193.098C378.306 193.098 371.716 176.344 371.654 176.176L372.405 175.884C372.467 176.045 378.852 192.289 391.02 192.289C391.536 192.289 392.064 192.258 392.585 192.202C403.132 191.021 409.461 171.706 409.728 170.885L410.498 171.134C410.225 171.973 403.74 191.773 392.678 193.01C392.119 193.066 391.567 193.098 391.02 193.098Z" fill="#2C8981"/>
<path d="M441.144 170.102C436.274 173.011 424.715 172.309 420.566 162.636C417.51 155.505 419.007 147.436 419.728 145.186L418.467 141.195C418.467 141.195 412.125 138.422 413.715 131.105C413.715 131.105 414.417 131.658 416.56 131.484C417.753 131.378 420.908 130.21 424.02 130.875C424.026 130.875 424.038 130.875 424.045 130.881C426.858 131.248 432.728 133.194 433.324 142.513C433.821 150.196 440.212 151.017 443.237 154.107C449.305 160.274 446.647 166.813 441.144 170.102Z" fill="#2C8981"/>
<path d="M421.318 143.122C421.318 144.278 420.386 145.211 419.231 145.211C418.076 145.211 417.144 144.278 417.144 143.122C417.144 141.965 418.082 141.033 419.231 141.033C420.38 141.033 421.318 141.972 421.318 143.122Z" fill="#FFB587"/>
<path d="M448.392 158.11C447.901 156.121 446.659 154.25 444.696 152.546C443.777 151.744 442.591 151.147 441.336 150.52C438.144 148.916 434.839 147.256 434.063 141.891C432.752 132.783 426.771 131.497 424.256 131.366L424.194 131.36C421.927 131.061 419.709 131.745 418.243 132.193C417.74 132.348 417.305 132.479 416.995 132.535L416.864 131.739C417.119 131.696 417.554 131.565 418.007 131.422C419.541 130.95 421.864 130.241 424.305 130.558C427.02 130.701 433.473 132.075 434.87 141.773C435.585 146.721 438.697 148.282 441.703 149.798C443.001 150.451 444.231 151.073 445.231 151.937C447.318 153.752 448.647 155.766 449.175 157.917L448.392 158.11Z" fill="#2C8981"/>
<path d="M436.355 297.544C431.237 298.265 425.138 297.724 418.684 296.705C416.256 279.304 415.92 259.734 416.25 242.01C416.262 242.215 421.56 225.126 421.56 225.126C421.56 225.126 419.25 238.473 420.045 246.511C420.864 254.81 423.895 257.26 425.063 266.61C425.746 272.074 423.02 276.189 424.013 281.915C425.057 287.939 429.672 291.669 434.181 295.722C434.833 296.313 435.641 296.903 436.355 297.544Z" fill="#0BACAC"/>
<path d="M416.368 243.148L415.604 242.881C417.765 236.658 419.84 230.261 421.765 223.858L422.535 224.094C420.616 230.503 418.535 236.919 416.368 243.148Z" fill="#FDFFFE"/>
<path d="M393.952 293.851C393.548 294.628 393.138 295.405 392.716 296.176C386.312 297.55 378.927 297.289 371.039 296.176C371.039 296.176 376.648 269.121 388.455 237.466C389.001 243.266 387.579 249.309 385.877 254.972C383.635 262.42 380.896 270.004 381.585 277.756C382.082 283.37 384.977 289.356 389.896 292.371C391.07 293.099 392.498 293.503 393.952 293.851Z" fill="#0BACAC"/>
<path d="M387.343 242.427L386.585 242.153C391.411 228.719 396.318 216.696 400.784 207.39L401.511 207.738C397.057 217.019 392.157 229.017 387.343 242.427Z" fill="#FDFFFE"/>
<path d="M131.948 168.535L98.2469 160.274C89.5886 165.52 79.4334 168.535 68.5702 168.535C36.8563 168.535 11.1423 142.799 11.1423 111.05C11.1423 79.3077 36.8563 53.5707 68.5702 53.5707C100.29 53.5707 126.004 79.3077 126.004 111.05C126.004 118.852 124.452 126.293 121.632 133.076L131.948 168.535Z" fill="#2C8981"/>
<path d="M102.799 145.312C121.704 126.39 121.704 95.712 102.799 76.7902C83.8942 57.8684 53.2433 57.8684 34.3385 76.7902C15.4336 95.712 15.4336 126.39 34.3385 145.312C53.2433 164.234 83.8942 164.234 102.799 145.312Z" fill="white"/>
<path d="M102.799 145.312C121.704 126.39 121.704 95.712 102.799 76.7902C83.8942 57.8684 53.2433 57.8684 34.3385 76.7902C15.4336 95.712 15.4336 126.39 34.3385 145.312C53.2433 164.234 83.8942 164.234 102.799 145.312Z" fill="white"/>
<path d="M97.1227 118.131L70.3342 109.496L56.3467 76.2678C56.03 75.5218 55.3033 75.0369 54.4958 75.0369C54.2288 75.0369 53.9617 75.0928 53.7132 75.1923C52.6946 75.6212 52.2101 76.8024 52.6387 77.8281L65.8373 109.185L29.6079 98.4613C29.5148 98.4364 29.4216 98.4177 29.3222 98.4177C28.875 98.4177 28.4775 98.7224 28.3533 99.1513C28.2042 99.6797 28.5148 100.233 29.0365 100.388L66.8435 111.578L67.0174 112.001L66.8249 112.592L67.3342 112.753L67.5205 113.201L68.0423 112.983L95.8743 121.954C96.073 122.016 96.2842 122.054 96.4892 122.054C97.3649 122.054 98.1351 121.494 98.4022 120.661C98.7562 119.604 98.1786 118.473 97.1227 118.131Z" fill="#2C8981"/>
<path d="M62.943 78.0084V79.4569H68.241V78.0084H66.5206V70.0822H65.21L62.3094 72.5937L62.8125 73.2837C62.8622 73.3645 62.9367 73.4267 63.0299 73.4764C63.1231 73.5262 63.2287 73.5511 63.3405 73.5511C63.415 73.5511 63.4833 73.5386 63.5578 73.5137C63.6324 73.4889 63.7007 73.4454 63.7814 73.3894L64.8125 72.5066V78.0084H62.943Z" fill="#2C8981"/>
<path d="M74.6447 77.8095C74.6447 77.8095 71.6571 77.8095 71.6261 77.8095L73.2658 76.131C73.5143 75.8823 73.7441 75.6336 73.9677 75.3912C74.1975 75.1425 74.4025 74.8814 74.5764 74.6141C74.7565 74.3406 74.8993 74.0484 75.0049 73.75C75.1105 73.4392 75.1664 73.1035 75.1664 72.7429C75.1664 72.3202 75.0919 71.9285 74.9366 71.5928C74.7875 71.2509 74.5764 70.9587 74.3093 70.7225C74.0484 70.4862 73.7316 70.306 73.3714 70.1816C73.0174 70.0635 72.6385 70.0013 72.2348 70.0013C71.831 70.0013 71.446 70.0635 71.0919 70.1816C70.7317 70.2997 70.4149 70.48 70.1354 70.71C69.8559 70.9401 69.6199 71.2322 69.4398 71.5742C69.2596 71.9099 69.1416 72.3015 69.0795 72.7367L69.0361 73.0351L69.9118 73.1843L69.9988 73.1967C70.0298 73.2029 70.0609 73.2029 70.0919 73.2029C70.2721 73.2029 70.4211 73.1532 70.5453 73.0537C70.6634 72.9605 70.7441 72.8175 70.8 72.6186C70.8311 72.4631 70.887 72.3202 70.9677 72.1958C71.0485 72.0653 71.1478 71.9534 71.2658 71.8601C71.3838 71.7669 71.5205 71.6923 71.6696 71.6425C71.8248 71.5866 71.9925 71.5617 72.1789 71.5617C72.3652 71.5617 72.5391 71.5866 72.6944 71.6425C72.8435 71.6923 72.9739 71.7669 73.0857 71.8663C73.1913 71.9596 73.2782 72.0839 73.3403 72.2331C73.4025 72.3885 73.4397 72.575 73.4397 72.7864C73.4397 73.0102 73.4087 73.2216 73.3466 73.4143C73.2845 73.6132 73.1851 73.8184 73.0671 74.0173C72.9428 74.2225 72.7876 74.4276 72.6074 74.6328C72.4211 74.8441 72.2099 75.0679 71.9863 75.2979L69.1913 78.1079C69.092 78.2073 69.0174 78.3192 68.9677 78.4436C68.9243 78.5617 68.8994 78.6736 68.8994 78.7917V79.4755H75.3465V78.5057C75.3465 78.313 75.2782 78.1452 75.154 78.0208C75.0546 77.9152 74.8993 77.8095 74.6447 77.8095Z" fill="#2C8981"/>
<path d="M71.0298 146.292C70.7627 146.044 70.4522 145.851 70.1044 145.72C69.7565 145.59 69.3901 145.528 69.005 145.528C68.8187 145.528 68.6385 145.54 68.4646 145.571L71.1727 142.14H69.5578C69.3777 142.14 69.2162 142.177 69.0733 142.251C68.9305 142.326 68.8125 142.413 68.7255 142.531L66.5143 145.515C66.1293 146.031 65.8435 146.522 65.6634 146.976C65.4771 147.442 65.3839 147.89 65.3839 148.313C65.3839 148.804 65.4584 149.258 65.6075 149.655C65.7566 150.066 65.9802 150.414 66.2597 150.706C66.5392 150.992 66.887 151.222 67.2783 151.378C67.6696 151.533 68.1106 151.608 68.5826 151.608C69.0609 151.608 69.5081 151.527 69.918 151.365C70.328 151.203 70.6758 150.98 70.9677 150.694C71.2596 150.408 71.4894 150.072 71.6509 149.693C71.8124 149.314 71.8932 148.891 71.8932 148.449C71.8932 147.996 71.8124 147.579 71.6633 147.219C71.5081 146.852 71.2907 146.541 71.0298 146.292ZM67.0547 148.499C67.0547 148.3 67.092 148.108 67.1665 147.921C67.241 147.741 67.3404 147.579 67.4771 147.436C67.6137 147.299 67.7814 147.187 67.9739 147.1C68.1727 147.02 68.3963 146.976 68.6447 146.976C68.8808 146.976 69.0919 147.013 69.2845 147.082C69.4708 147.15 69.6261 147.25 69.7628 147.38C69.8932 147.511 69.9988 147.666 70.0671 147.859C70.1416 148.052 70.1789 148.275 70.1789 148.518C70.1789 148.748 70.1416 148.959 70.0671 149.146C69.9926 149.332 69.887 149.494 69.7441 149.631C69.6075 149.767 69.4398 149.873 69.241 149.954C69.0423 150.035 68.8124 150.072 68.564 150.072C68.3156 150.072 68.0982 150.035 67.9118 149.96C67.7317 149.886 67.5764 149.78 67.446 149.649C67.3218 149.519 67.2224 149.351 67.1541 149.164C67.092 148.965 67.0547 148.742 67.0547 148.499Z" fill="#2C8981"/>
<path d="M108.992 111.137C108.806 110.907 108.564 110.714 108.278 110.559C108.489 110.428 108.669 110.267 108.818 110.08C108.974 109.887 109.092 109.664 109.178 109.409C109.259 109.16 109.303 108.88 109.303 108.57C109.303 108.19 109.228 107.836 109.085 107.519C108.942 107.202 108.737 106.928 108.477 106.705C108.222 106.481 107.918 106.313 107.564 106.195C107.222 106.077 106.843 106.021 106.439 106.021C106.036 106.021 105.651 106.083 105.297 106.201C104.936 106.319 104.613 106.499 104.34 106.729C104.061 106.959 103.824 107.252 103.644 107.594C103.464 107.929 103.346 108.321 103.284 108.756L103.241 109.054L104.116 109.204L104.203 109.216C104.234 109.222 104.265 109.222 104.297 109.222C104.47 109.222 104.62 109.173 104.744 109.073C104.862 108.98 104.942 108.837 104.992 108.657C105.036 108.501 105.092 108.352 105.179 108.221C105.259 108.091 105.352 107.979 105.47 107.886C105.588 107.792 105.725 107.718 105.874 107.668C106.029 107.612 106.197 107.587 106.383 107.587C106.57 107.587 106.744 107.612 106.899 107.662C107.048 107.712 107.172 107.78 107.278 107.873C107.383 107.967 107.464 108.078 107.526 108.228C107.588 108.377 107.619 108.557 107.619 108.762C107.619 108.949 107.588 109.117 107.526 109.266C107.47 109.403 107.383 109.521 107.259 109.62C107.123 109.726 106.942 109.819 106.725 109.881C106.495 109.95 106.203 109.987 105.868 109.987H105.557V111.404H105.868C106.29 111.404 106.644 111.442 106.905 111.516C107.147 111.585 107.34 111.678 107.47 111.79C107.595 111.895 107.675 112.014 107.719 112.157C107.769 112.318 107.8 112.505 107.8 112.71C107.8 112.859 107.769 113.014 107.706 113.176C107.644 113.338 107.551 113.474 107.427 113.605C107.303 113.736 107.147 113.841 106.955 113.922C106.769 114.003 106.539 114.046 106.278 114.046C106.017 114.046 105.8 114.009 105.638 113.941C105.464 113.866 105.321 113.773 105.21 113.667C105.098 113.562 105.005 113.443 104.942 113.325C104.862 113.182 104.8 113.052 104.75 112.958L104.694 112.84C104.632 112.704 104.539 112.598 104.415 112.53C104.303 112.474 104.185 112.443 104.048 112.443C103.924 112.443 103.793 112.467 103.669 112.523L102.949 112.828L103.029 113.095C103.135 113.437 103.265 113.76 103.421 114.053C103.582 114.363 103.793 114.637 104.048 114.861C104.303 115.091 104.62 115.271 104.986 115.402C105.346 115.526 105.781 115.594 106.278 115.594C106.713 115.594 107.129 115.526 107.508 115.395C107.893 115.265 108.241 115.072 108.533 114.817C108.831 114.562 109.067 114.252 109.234 113.897C109.408 113.537 109.495 113.126 109.495 112.679C109.489 112.063 109.321 111.547 108.992 111.137Z" fill="#2C8981"/>
<path d="M33.1607 106.903C32.8874 106.624 32.5582 106.406 32.1793 106.257C31.8004 106.102 31.3781 106.027 30.9247 106.027C30.4651 106.027 30.0303 106.108 29.6452 106.263C29.2539 106.419 28.9185 106.636 28.6328 106.916C28.3471 107.189 28.1235 107.519 27.9682 107.892C27.8129 108.265 27.7322 108.663 27.7322 109.086C27.7322 109.527 27.8067 109.931 27.9558 110.279C28.1048 110.627 28.3098 110.926 28.5582 111.168C28.8129 111.411 29.111 111.597 29.4402 111.721C29.7694 111.846 30.1172 111.908 30.4837 111.908C30.7197 111.908 30.9433 111.883 31.1669 111.833L28.3781 115.489H30.0054C30.1793 115.489 30.3346 115.458 30.4775 115.389C30.6203 115.321 30.7383 115.221 30.8253 115.103L32.9495 112.032C33.111 111.796 33.2601 111.572 33.3843 111.348C33.5147 111.125 33.6265 110.895 33.7197 110.671C33.8128 110.441 33.8874 110.198 33.9433 109.956C33.993 109.707 34.0178 109.446 34.0178 109.179C34.0178 108.725 33.9433 108.302 33.8004 107.923C33.6451 107.519 33.434 107.183 33.1607 106.903ZM29.5334 108.408C29.6017 108.234 29.7011 108.085 29.8253 107.96C29.9495 107.836 30.1048 107.736 30.2849 107.668C30.4713 107.594 30.6762 107.556 30.906 107.556C31.1234 107.556 31.3222 107.594 31.4961 107.662C31.67 107.73 31.8129 107.824 31.9433 107.948C32.0675 108.072 32.1669 108.228 32.2352 108.408C32.3098 108.594 32.347 108.806 32.347 109.036C32.347 109.222 32.316 109.396 32.2476 109.57C32.1793 109.738 32.0861 109.887 31.9619 110.018C31.8377 110.149 31.6824 110.254 31.4961 110.329C31.3098 110.41 31.0862 110.447 30.8377 110.447C30.6141 110.447 30.4091 110.416 30.229 110.347C30.0551 110.285 29.9185 110.198 29.8005 110.08C29.6824 109.962 29.5955 109.819 29.5272 109.639C29.4589 109.459 29.4278 109.247 29.4278 109.005C29.4278 108.781 29.4651 108.582 29.5334 108.408Z" fill="#2C8981"/>
<path d="M46.0804 68.8426L44.4667 69.7751L47.5971 75.2018L49.2108 74.2693L46.0804 68.8426Z" fill="#2C8981"/>
<path d="M89.5387 146.666L87.9251 147.599L91.0555 153.025L92.6691 152.093L89.5387 146.666Z" fill="#2C8981"/>
<path d="M27.7416 86.2658L26.81 87.8809L32.3609 91.0887L33.2926 89.4736L27.7416 86.2658Z" fill="#2C8981"/>
<path d="M27.7416 86.2658L26.81 87.8809L32.3609 91.0887L33.2926 89.4736L27.7416 86.2658Z" fill="#2C8981"/>
<path d="M104.777 130.784L103.846 132.399L109.397 135.607L110.328 133.991L104.777 130.784Z" fill="#2C8981"/>
<path d="M32.3726 130.779L26.8217 133.987L27.7536 135.602L33.3045 132.394L32.3726 130.779Z" fill="#2C8981"/>
<path d="M32.3726 130.779L26.8217 133.987L27.7536 135.602L33.3045 132.394L32.3726 130.779Z" fill="#2C8981"/>
<path d="M109.407 86.2577L103.856 89.4662L104.788 91.0813L110.339 87.8728L109.407 86.2577Z" fill="#2C8981"/>
<path d="M47.6059 146.673L44.4749 152.1L46.0886 153.033L49.2196 147.606L47.6059 146.673Z" fill="#2C8981"/>
<path d="M47.6059 146.673L44.4749 152.1L46.0886 153.033L49.2196 147.606L47.6059 146.673Z" fill="#2C8981"/>
<path d="M91.0656 68.8517L87.9346 74.2784L89.5482 75.2111L92.6792 69.7844L91.0656 68.8517Z" fill="#2C8981"/>
<path d="M73.5292 111.864C73.9743 109.126 72.1147 106.545 69.3757 106.098C66.6366 105.652 64.0554 107.51 63.6102 110.249C63.1651 112.987 65.0247 115.568 67.7637 116.014C70.5028 116.46 73.084 114.602 73.5292 111.864Z" fill="#F75D59"/>
<path d="M133.296 169.822L98.4022 161.268C89.4147 166.633 79.1105 169.468 68.5764 169.468C36.3967 169.468 10.2168 143.265 10.2168 111.05C10.2168 97.9328 14.459 85.543 22.49 75.2109L23.962 76.3548C16.1919 86.3512 12.0802 98.3493 12.0802 111.044C12.0802 142.227 37.4215 167.597 68.5764 167.597C78.8993 167.597 88.9986 164.787 97.7687 159.472L98.0978 159.273L130.607 167.242L120.65 133.02L120.775 132.715C123.626 125.852 125.073 118.56 125.073 111.05C125.073 79.8672 99.7252 54.5032 68.5702 54.5032C58.825 54.5032 49.2226 57.0272 40.7941 61.7953L39.8749 60.1728C48.5829 55.243 58.502 52.6382 68.564 52.6382C100.75 52.6382 126.93 78.8414 126.93 111.05C126.93 118.696 125.476 126.125 122.613 133.132L133.296 169.822Z" fill="#2C8981"/>
<path d="M68.5702 160.435C41.3593 160.435 19.2291 138.279 19.2291 111.05C19.2291 83.821 41.3656 61.6648 68.5702 61.6648C88.7315 61.6648 106.675 73.7376 114.284 92.4249L112.557 93.1273C105.234 75.1487 87.9675 63.5298 68.5702 63.5298C42.3904 63.5298 21.0925 84.8467 21.0925 111.05C21.0925 137.253 42.3904 158.57 68.5702 158.57C78.2099 158.57 87.4893 155.698 95.4022 150.259L96.4581 151.794C88.2346 157.451 78.5887 160.435 68.5702 160.435Z" fill="#2C8981"/>
<path d="M108.806 139.647L107.29 138.565C113.023 130.496 116.054 120.984 116.054 111.05H117.917C117.917 121.376 114.762 131.267 108.806 139.647Z" fill="#2C8981"/>
<path d="M362.909 122.526H136.588V124.391H362.909V122.526Z" fill="#2C8981"/>
<path d="M336.817 307.583C351.35 299.157 356.307 280.536 347.889 265.991C339.472 251.445 320.867 246.484 306.335 254.909C291.802 263.334 286.845 281.955 295.262 296.5C303.68 311.046 322.285 316.008 336.817 307.583Z" fill="#FFC76C"/>
<path d="M340.33 292.536C346.547 282.164 343.186 268.711 332.823 262.489C322.46 256.267 309.02 259.632 302.803 270.004C296.587 280.376 299.948 293.828 310.311 300.05C320.674 306.272 334.114 302.908 340.33 292.536Z" fill="#FFE9AB"/>
<path d="M321.605 312.321C308.387 312.321 296.108 303.792 291.965 290.519C289.493 282.599 290.251 274.194 294.102 266.846C297.947 259.498 304.425 254.089 312.338 251.615C315.878 250.508 319.53 250.048 323.195 250.235L323.133 251.478C319.611 251.292 316.108 251.739 312.71 252.802C305.114 255.177 298.897 260.368 295.207 267.418C291.512 274.474 290.785 282.543 293.158 290.146C298.052 305.837 314.791 314.615 330.468 309.716C337.66 307.466 343.691 302.623 347.43 296.083L348.511 296.698C344.611 303.512 338.337 308.56 330.841 310.897C327.766 311.867 324.661 312.321 321.605 312.321Z" fill="#2C8981"/>
<path d="M352.213 286.273L350.989 286.074C351.741 281.474 351.418 276.867 350.02 272.379C347.48 264.235 341.561 257.564 333.785 254.064L334.294 252.933C342.393 256.576 348.561 263.526 351.207 272.012C352.66 276.674 353.002 281.474 352.213 286.273Z" fill="#2C8981"/>
<path d="M299.698 268.276C301.965 269.426 303.524 271.198 304.586 273.411C305.655 271.198 307.22 269.42 309.481 268.263C307.214 267.113 305.648 265.341 304.586 263.128C303.524 265.348 301.965 267.126 299.698 268.276Z" fill="#FFF9EE"/>
<path d="M306.288 281.741C307.605 282.412 308.512 283.438 309.133 284.725C309.754 283.438 310.661 282.406 311.977 281.735C310.661 281.063 309.754 280.038 309.133 278.751C308.512 280.038 307.605 281.07 306.288 281.741Z" fill="#FFF9EE"/>
<path d="M93.2718 252.007C93.2718 252.007 88.8371 223.597 110.278 214.153C131.725 204.71 93.2718 252.007 93.2718 252.007Z" fill="#9FB26B"/>
<path d="M66.2535 251.82C66.2535 251.82 69.3031 227.476 55.1294 226.904C40.9494 226.326 66.2535 251.82 66.2535 251.82Z" fill="#9FB26B"/>
<path d="M82.893 234.339C82.893 234.339 78.8496 193.259 97.1972 190.549C116.75 187.658 82.893 234.339 82.893 234.339Z" fill="#9FB26B"/>
<path d="M91.4271 270.215L90.1849 270.184C90.1911 269.923 91.0048 243.695 103.576 231.044L104.458 231.921C92.2346 244.223 91.4395 269.954 91.4271 270.215Z" fill="#47393D"/>
<path d="M70.8745 270.253C70.7193 269.37 67.0174 248.519 60.3032 241.264L61.2163 240.419C68.1789 247.941 71.9428 269.14 72.0981 270.041L70.8745 270.253Z" fill="#47393D"/>
<path d="M80.8061 270.24C80.7564 269.873 76.0111 232.934 94.0234 205.382L95.0606 206.066C77.303 233.232 81.9862 269.712 82.0359 270.079L80.8061 270.24Z" fill="#47393D"/>
<path d="M74.4956 242.8C74.4956 242.8 62.1666 213.32 79.2471 201.092C96.3277 188.864 74.4956 242.8 74.4956 242.8Z" fill="#9FB26B"/>
<path d="M77.6571 270.284C77.5825 270.01 69.9988 242.377 77.6571 215.098L78.8558 215.434C71.2907 242.383 78.7813 269.674 78.8558 269.948L77.6571 270.284Z" fill="#47393D"/>
<path d="M83.0545 219.357L81.862 219.009C84.2222 210.933 85.1974 205.301 84.775 202.267L86.0048 202.093C86.4582 205.307 85.4644 211.113 83.0545 219.357Z" fill="white"/>
<path d="M90.7563 311.165H68.6944C68.6944 311.165 60.9678 284.24 62.4709 265.366H96.9798C98.5823 284.414 90.7563 311.165 90.7563 311.165Z" fill="#0BACAC"/>
<path d="M97.1662 272.634H62.328V273.877H97.1662V272.634Z" fill="white"/>
<path d="M96.955 276.6H62.533V277.843H96.955V276.6Z" fill="white"/>
<path d="M443.125 310.773H54.6635V312.638H443.125V310.773Z" fill="#2C8981"/>
<path d="M287.729 299.62H228.736V311.046H287.729V299.62Z" fill="#FFC76C"/>
<path d="M300.151 286.988H241.158V298.414H300.151V286.988Z" fill="#FFC76C"/>
<path d="M287.773 274.393H228.78V285.819H287.773V274.393Z" fill="#FFC76C"/>
<path d="M282.183 274.393H280.941V285.819H282.183V274.393Z" fill="#2C8981"/>
<path d="M275.972 274.393H274.729V285.819H275.972V274.393Z" fill="#2C8981"/>
<path d="M257.338 274.393H256.096V285.819H257.338V274.393Z" fill="#2C8981"/>
<path d="M244.916 274.393H243.674V285.819H244.916V274.393Z" fill="#2C8981"/>
<path d="M294.561 286.988H293.319V298.414H294.561V286.988Z" fill="#2C8981"/>
<path d="M288.35 286.988H287.108V298.414H288.35V286.988Z" fill="#2C8981"/>
<path d="M269.717 286.988H268.475V298.414H269.717V286.988Z" fill="#2C8981"/>
<path d="M263.506 286.988H262.264V298.414H263.506V286.988Z" fill="#2C8981"/>
<path d="M257.295 299.62H256.053V311.046H257.295V299.62Z" fill="#2C8981"/>
<path d="M244.873 299.62H243.63V311.046H244.873V299.62Z" fill="#2C8981"/>
<path d="M238.662 299.62H237.419V311.046H238.662V299.62Z" fill="#2C8981"/>
<path d="M287.45 285.757H228.773V287H287.45V285.757Z" fill="#2C8981"/>
<path d="M300.158 298.47H241.202V299.713H300.158V298.47Z" fill="#2C8981"/>
<path d="M278.226 291.464C280.059 292.396 281.313 293.82 282.177 295.61C283.04 293.82 284.301 292.384 286.133 291.458C284.301 290.525 283.04 289.102 282.177 287.311C281.319 289.095 280.059 290.531 278.226 291.464Z" fill="#FFF9EE"/>
<path d="M236.581 279.783C237.898 280.454 238.804 281.48 239.425 282.767C240.047 281.48 240.953 280.448 242.27 279.777C240.953 279.105 240.047 278.079 239.425 276.793C238.804 278.079 237.898 279.111 236.581 279.783Z" fill="#FFF9EE"/>
<path d="M300.773 286.988H299.53V299.713H300.773V286.988Z" fill="#2C8981"/>
<path d="M326.639 277.895L325.659 280.026H311.767L312.534 277.895H326.639ZM324.807 282.156L323.827 284.287H311.767L312.534 282.156H324.807ZM329.153 272.142L328.131 274.358C327.676 273.946 327.197 273.591 326.692 273.293C326.188 272.994 325.659 272.763 325.105 272.6C324.551 272.437 323.969 272.355 323.358 272.355C322.151 272.355 321.064 272.689 320.098 273.357C319.132 274.024 318.369 275.008 317.808 276.308C317.246 277.607 316.966 279.202 316.966 281.091C316.966 282.98 317.246 284.575 317.808 285.874C318.369 287.174 319.132 288.158 320.098 288.825C321.064 289.493 322.151 289.827 323.358 289.827C323.983 289.827 324.572 289.745 325.126 289.582C325.688 289.418 326.21 289.195 326.692 288.911C327.183 288.626 327.634 288.307 328.045 287.952L329.111 290.168C328.365 290.871 327.491 291.403 326.49 291.766C325.489 292.121 324.445 292.298 323.358 292.298C321.611 292.298 320.063 291.844 318.713 290.935C317.371 290.026 316.316 288.733 315.549 287.057C314.789 285.381 314.409 283.392 314.409 281.091C314.409 278.79 314.789 276.801 315.549 275.125C316.316 273.449 317.371 272.156 318.713 271.247C320.063 270.338 321.611 269.884 323.358 269.884C324.487 269.884 325.542 270.079 326.522 270.469C327.509 270.86 328.386 271.418 329.153 272.142Z" fill="#FFC76C"/>
</svg>
