<svg width="23" height="23" viewBox="0 0 23 23" fill="none" xmlns="http://www.w3.org/2000/svg">
<path d="M12.3001 12.1099L14.7599 14.5696C14.9603 14.7701 15.0605 15.0208 15.0605 15.3218C15.0605 15.6227 14.9603 15.8822 14.7599 16.1001C14.5412 16.3188 14.2814 16.4281 13.9804 16.4281C13.6794 16.4281 13.4199 16.3188 13.202 16.1001L10.4417 13.3398C10.3324 13.2305 10.2504 13.1073 10.1957 12.9703C10.1411 12.8333 10.1137 12.6922 10.1137 12.5472V8.639C10.1137 8.32926 10.2187 8.06944 10.4286 7.85954C10.6385 7.64965 10.8979 7.54507 11.2069 7.54579C11.5167 7.54579 11.7765 7.65074 11.9864 7.86064C12.1963 8.07053 12.3009 8.32999 12.3001 8.639V12.1099ZM11.2069 5.35939C10.8972 5.35939 10.6374 5.25444 10.4275 5.04454C10.2176 4.83465 10.113 4.5752 10.1137 4.26618V3.17298H12.3001V4.26618C12.3001 4.57592 12.1952 4.83574 11.9853 5.04564C11.7754 5.25553 11.516 5.36012 11.2069 5.35939ZM17.7662 11.9186C17.7662 11.6089 17.8711 11.3491 18.081 11.1392C18.2909 10.9293 18.5504 10.8247 18.8594 10.8254H19.9526V13.0118H18.8594C18.5496 13.0118 18.2898 12.9069 18.0799 12.697C17.87 12.4871 17.7654 12.2276 17.7662 11.9186ZM11.2069 18.4778C11.5167 18.4778 11.7765 18.5828 11.9864 18.7927C12.1963 19.0026 12.3009 19.262 12.3001 19.571V20.6642H10.1137V19.571C10.1137 19.2613 10.2187 19.0015 10.4286 18.7916C10.6385 18.5817 10.8979 18.4771 11.2069 18.4778ZM4.64772 11.9186C4.64772 12.2284 4.54277 12.4882 4.33287 12.6981C4.12298 12.908 3.86353 13.0125 3.55451 13.0118H2.46131V10.8254H3.55451C3.86425 10.8254 4.12407 10.9304 4.33397 11.1402C4.54386 11.3501 4.64845 11.6096 4.64772 11.9186ZM11.2069 22.8506C9.69467 22.8506 8.27351 22.5635 6.94345 21.9892C5.61338 21.4149 4.45641 20.6362 3.47252 19.653C2.48864 18.6691 1.70991 17.5122 1.13635 16.1821C0.562779 14.852 0.275631 13.4309 0.274902 11.9186C0.274902 10.4063 0.562051 8.98518 1.13635 7.65512C1.71064 6.32505 2.48937 5.16808 3.47252 4.18419C4.45641 3.20031 5.61338 2.42158 6.94345 1.84802C8.27351 1.27445 9.69467 0.987301 11.2069 0.986572C12.7192 0.986572 14.1404 1.27372 15.4704 1.84802C16.8005 2.42231 17.9575 3.20104 18.9414 4.18419C19.9252 5.16808 20.7043 6.32505 21.2786 7.65512C21.8529 8.98518 22.1397 10.4063 22.139 11.9186C22.139 13.4309 21.8518 14.852 21.2775 16.1821C20.7032 17.5122 19.9245 18.6691 18.9414 19.653C17.9575 20.6369 16.8005 21.416 15.4704 21.9903C14.1404 22.5646 12.7192 22.8514 11.2069 22.8506ZM19.9526 11.9186C19.9526 9.47712 19.1053 7.40914 17.4109 5.71468C15.7164 4.02021 13.6484 3.17298 11.2069 3.17298C8.76545 3.17298 6.69747 4.02021 5.00301 5.71468C3.30854 7.40914 2.46131 9.47712 2.46131 11.9186C2.46131 14.3601 3.30854 16.4281 5.00301 18.1225C6.69747 19.817 8.76545 20.6642 11.2069 20.6642C13.6484 20.6642 15.7164 19.817 17.4109 18.1225C19.1053 16.4281 19.9526 14.3601 19.9526 11.9186Z" fill="#2C8981"/>
</svg>
