<svg width="46" height="51" viewBox="0 0 46 51" fill="none" xmlns="http://www.w3.org/2000/svg">
<path d="M33.6762 29.003V47.0457C33.6762 48.1241 32.8015 49 31.7219 49H3.95431C2.87472 49 2 48.1241 2 47.0457V8.4797C2 7.42955 2.8281 6.57569 3.86598 6.52907L6.32941 2.26223C6.53184 1.91259 7.03728 1.91259 7.2397 2.26223L9.70068 6.52539H25.6492L28.1102 2.26223C28.3126 1.91259 28.8181 1.91259 29.0205 2.26223L31.4815 6.52539H31.7219C32.8015 6.52539 33.6762 7.40011 33.6762 8.4797V21.6336" stroke="#2C8981" stroke-width="2.5" stroke-miterlimit="10"/>
<path d="M43.5519 19.4143C42.8478 20.0989 41.4529 19.802 40.4371 18.7555C39.4188 17.7066 39.1649 16.3043 39.8691 15.6198C39.9537 15.5376 40.0506 15.4689 40.1537 15.4161C40.9057 15.0174 42.0908 15.3585 42.9864 16.281C43.8795 17.2011 44.1862 18.396 43.7654 19.1358C43.709 19.2376 43.6378 19.3321 43.5532 19.4143H43.5519Z" stroke="#2C8981" stroke-width="2.5" stroke-linecap="round" stroke-linejoin="round"/>
<path d="M40.1538 15.4173C40.0507 15.4701 39.9538 15.5388 39.8691 15.621L40.117 15.3793L40.1538 15.4161V15.4173Z" stroke="#2C8981" stroke-width="2.5" stroke-linecap="round" stroke-linejoin="round"/>
<path d="M43.8006 19.1738L43.5527 19.4154C43.6374 19.3333 43.7085 19.2388 43.765 19.137L43.8018 19.1738H43.8006Z" stroke="#2C8981" stroke-width="2.5" stroke-linecap="round" stroke-linejoin="round"/>
<path d="M43.5518 19.4143L31.4885 31.1254C29.4324 30.6641 28.2044 29.3993 27.8057 27.3309L39.8689 15.6198C39.1647 16.3043 39.4186 17.7066 40.4369 18.7555C41.4539 19.8032 42.8476 20.0988 43.5518 19.4143Z" stroke="#2C8981" stroke-width="2.5" stroke-linecap="round" stroke-linejoin="round"/>
<path d="M31.4896 31.1255L23.8662 34.8439L27.8067 27.3322C28.2067 29.4006 29.4347 30.6654 31.4896 31.1267V31.1255Z" stroke="#2C8981" stroke-width="2.5" stroke-linecap="round" stroke-linejoin="round"/>
<path d="M26.0169 33.7533L23.9473 34.763L25.017 32.724C25.125 33.2859 25.4587 33.6294 26.0169 33.7545V33.7533Z" stroke="#2C8981" stroke-width="2.5" stroke-linecap="round" stroke-linejoin="round"/>
<path d="M38.6627 20.4755L31.6367 27.2965" stroke="#2C8981" stroke-width="2.5" stroke-linecap="round" stroke-linejoin="round"/>
<path d="M37.8482 19.6364L30.8223 26.4574" stroke="#2C8981" stroke-width="2.5" stroke-linecap="round" stroke-linejoin="round"/>
<path d="M39.3687 21.4213L32.3428 28.2423" stroke="#2C8981" stroke-width="2.5" stroke-linecap="round" stroke-linejoin="round"/>
<path d="M20.2337 42.282C19.8362 41.5975 18.9811 41.1239 17.9898 41.1239C16.9986 41.1239 16.1435 41.5975 15.746 42.282C15.0357 42.6132 14.5879 43.0991 14.5879 43.6401C14.5879 44.6387 16.1116 45.4472 17.9898 45.4472C19.8681 45.4472 21.3918 44.6375 21.3918 43.6401C21.3918 43.0991 20.9428 42.6132 20.2337 42.282Z" stroke="#2C8981" stroke-width="2.5" stroke-miterlimit="10"/>
<path d="M20.2404 38.8733C20.4111 38.1534 20.1017 37.4635 19.5492 37.3325C18.9967 37.2015 18.4105 37.6789 18.2398 38.3989C18.0691 39.1188 18.3785 39.8086 18.931 39.9396C19.4835 40.0706 20.0697 39.5932 20.2404 38.8733Z" stroke="#2C8981" stroke-width="2.5" stroke-miterlimit="10"/>
<path d="M16.6849 39.9374C17.2374 39.8064 17.5469 39.1165 17.3762 38.3966C17.2054 37.6767 16.6192 37.1993 16.0667 37.3303C15.5143 37.4613 15.2048 38.1511 15.3755 38.871C15.5462 39.591 16.1325 40.0684 16.6849 39.9374Z" stroke="#2C8981" stroke-width="2.5" stroke-miterlimit="10"/>
<path d="M14.7507 41.8522C15.1826 41.6029 15.269 40.9441 14.9438 40.3808C14.6186 39.8175 14.0048 39.563 13.573 39.8123C13.1411 40.0617 13.0547 40.7204 13.3799 41.2837C13.7051 41.847 14.3189 42.1016 14.7507 41.8522Z" stroke="#2C8981" stroke-width="2.5" stroke-miterlimit="10"/>
<path d="M22.3491 40.9784C22.6743 40.4151 22.5879 39.7564 22.156 39.507C21.7241 39.2577 21.1104 39.5122 20.7852 40.0755C20.4599 40.6388 20.5464 41.2976 20.9783 41.5469C21.4101 41.7963 22.0239 41.5417 22.3491 40.9784Z" stroke="#2C8981" stroke-width="2.5" stroke-miterlimit="10"/>
<path d="M8.40234 12.0497H27.3259" stroke="#2C8981" stroke-width="2.5" stroke-linecap="round" stroke-linejoin="round"/>
<path d="M8.40234 16.4724H27.3259" stroke="#2C8981" stroke-width="2.5" stroke-linecap="round" stroke-linejoin="round"/>
<path d="M8.40234 20.895H27.3259" stroke="#2C8981" stroke-width="2.5" stroke-linecap="round" stroke-linejoin="round"/>
<path d="M8.40234 25.3164H27.3259" stroke="#2C8981" stroke-width="2.5" stroke-linecap="round" stroke-linejoin="round"/>
<path d="M8.40234 29.7391H22.8002" stroke="#2C8981" stroke-width="2.5" stroke-linecap="round" stroke-linejoin="round"/>
<path d="M8.40234 34.1617H20.7441" stroke="#2C8981" stroke-width="2.5" stroke-linecap="round" stroke-linejoin="round"/>
</svg>
