<svg width="246" height="43" viewBox="0 0 246 43" fill="none" xmlns="http://www.w3.org/2000/svg">
<path d="M86.1977 13.46C86.1977 14.16 85.9477 14.76 85.4477 15.26C84.9477 15.76 84.3477 16.01 83.6477 16.01C82.9477 16.01 82.3477 15.76 81.8477 15.26C81.3477 14.76 81.0977 14.16 81.0977 13.46C81.0977 12.76 81.3477 12.16 81.8477 11.66C82.3477 11.16 82.9477 10.91 83.6477 10.91C84.3477 10.91 84.9477 11.16 85.4477 11.66C85.9477 12.16 86.1977 12.76 86.1977 13.46ZM73.8977 35.39L73.4477 21.14H71.2277L70.6277 18.83L73.3577 18.56L73.2977 16.58V16.25C73.2977 14.31 73.8577 12.96 74.9777 12.2C76.1177 11.44 77.9277 11.05 80.4077 11.03L80.9477 13.49C79.6077 13.49 78.6877 13.71 78.1877 14.15C77.6877 14.59 77.4377 15.43 77.4377 16.67V18.14L80.5877 17.81V21.14H77.4377V35L73.8977 35.39ZM81.5177 35.42V17.84L85.8077 18.35L85.2077 35L81.5177 35.42ZM101.345 35.39V24.2C101.345 23.2 101.035 22.44 100.415 21.92C99.8151 21.38 99.0851 21.11 98.2251 21.11C97.3651 21.11 96.5751 21.34 95.8551 21.8C95.1551 22.26 94.6651 22.93 94.3851 23.81V35L90.7251 35.39L90.1251 17.84L94.3851 18.35V20.3C94.7851 19.54 95.3751 18.97 96.1551 18.59C96.9551 18.19 98.0451 17.99 99.4251 17.99C100.645 17.99 101.715 18.25 102.635 18.77C103.575 19.29 104.295 20 104.795 20.9C105.315 21.78 105.545 22.78 105.485 23.9L104.885 35L101.345 35.39ZM122.025 35.3C121.525 34.9 121.135 34.52 120.855 34.16C120.595 33.78 120.375 33.33 120.195 32.81C119.835 33.43 119.325 33.93 118.665 34.31C118.005 34.67 117.265 34.93 116.445 35.09C115.645 35.25 114.825 35.33 113.985 35.33C112.285 35.33 111.005 34.94 110.145 34.16C109.285 33.38 108.835 32.29 108.795 30.89V30.77C108.795 29.17 109.305 27.91 110.325 26.99C111.345 26.07 112.765 25.41 114.585 25.01C115.825 24.73 116.865 24.43 117.705 24.11C118.565 23.77 118.995 23.39 118.995 22.97C118.995 21.63 117.945 20.96 115.845 20.96C114.785 20.96 113.755 21.17 112.755 21.59C111.755 21.99 110.935 22.47 110.295 23.03L109.095 20.87C109.795 19.95 110.755 19.24 111.975 18.74C113.215 18.24 114.615 17.99 116.175 17.99C118.495 17.99 120.235 18.42 121.395 19.28C122.575 20.12 123.165 21.45 123.165 23.27V30.08C123.165 30.86 123.315 31.63 123.615 32.39C123.915 33.15 124.345 33.81 124.905 34.37L122.025 35.3ZM112.935 30.47C112.955 31.01 113.115 31.47 113.415 31.85C113.715 32.23 114.165 32.42 114.765 32.42C115.645 32.42 116.505 32.17 117.345 31.67C118.185 31.17 118.765 30.54 119.085 29.78C119.185 29.56 119.245 29.29 119.265 28.97C119.305 28.63 119.325 28.28 119.325 27.92C119.325 27.4 119.305 26.93 119.265 26.51C119.225 26.09 119.205 25.88 119.205 25.88C118.765 26.22 118.195 26.51 117.495 26.75C116.815 26.99 116.095 27.22 115.335 27.44C114.595 27.64 114.005 27.97 113.565 28.43C113.145 28.89 112.935 29.5 112.935 30.26V30.47ZM138.962 35.39V24.2C138.962 23.2 138.652 22.44 138.032 21.92C137.432 21.38 136.702 21.11 135.842 21.11C134.982 21.11 134.192 21.34 133.472 21.8C132.772 22.26 132.282 22.93 132.002 23.81V35L128.342 35.39L127.742 17.84L132.002 18.35V20.3C132.402 19.54 132.992 18.97 133.772 18.59C134.572 18.19 135.662 17.99 137.042 17.99C138.262 17.99 139.332 18.25 140.252 18.77C141.192 19.29 141.912 20 142.412 20.9C142.932 21.78 143.162 22.78 143.102 23.9L142.502 35L138.962 35.39ZM146.233 35V32L154.963 21.68L147.493 21.71L146.893 18.95L159.583 17.87L160.183 21.65L150.133 32.09L160.573 31.1V35H146.233ZM165.07 35.39L164.62 21.14H162.4L161.8 18.83L164.53 18.56L164.47 16.58V16.25C164.47 14.31 165.03 12.96 166.15 12.2C167.29 11.44 169.1 11.05 171.58 11.03L172.12 13.49C170.78 13.49 169.86 13.71 169.36 14.15C168.86 14.59 168.61 15.43 168.61 16.67V18.14L171.76 17.81V21.14H168.61V35L165.07 35.39ZM186.684 35.3C186.184 34.9 185.794 34.52 185.514 34.16C185.254 33.78 185.034 33.33 184.854 32.81C184.494 33.43 183.984 33.93 183.324 34.31C182.664 34.67 181.924 34.93 181.104 35.09C180.304 35.25 179.484 35.33 178.644 35.33C176.944 35.33 175.664 34.94 174.804 34.16C173.944 33.38 173.494 32.29 173.454 30.89V30.77C173.454 29.17 173.964 27.91 174.984 26.99C176.004 26.07 177.424 25.41 179.244 25.01C180.484 24.73 181.524 24.43 182.364 24.11C183.224 23.77 183.654 23.39 183.654 22.97C183.654 21.63 182.604 20.96 180.504 20.96C179.444 20.96 178.414 21.17 177.414 21.59C176.414 21.99 175.594 22.47 174.954 23.03L173.754 20.87C174.454 19.95 175.414 19.24 176.634 18.74C177.874 18.24 179.274 17.99 180.834 17.99C183.154 17.99 184.894 18.42 186.054 19.28C187.234 20.12 187.824 21.45 187.824 23.27V30.08C187.824 30.86 187.974 31.63 188.274 32.39C188.574 33.15 189.004 33.81 189.564 34.37L186.684 35.3ZM177.594 30.47C177.614 31.01 177.774 31.47 178.074 31.85C178.374 32.23 178.824 32.42 179.424 32.42C180.304 32.42 181.164 32.17 182.004 31.67C182.844 31.17 183.424 30.54 183.744 29.78C183.844 29.56 183.904 29.29 183.924 28.97C183.964 28.63 183.984 28.28 183.984 27.92C183.984 27.4 183.964 26.93 183.924 26.51C183.884 26.09 183.864 25.88 183.864 25.88C183.424 26.22 182.854 26.51 182.154 26.75C181.474 26.99 180.754 27.22 179.994 27.44C179.254 27.64 178.664 27.97 178.224 28.43C177.804 28.89 177.594 29.5 177.594 30.26V30.47ZM197.321 13.46C197.321 14.16 197.071 14.76 196.571 15.26C196.071 15.76 195.471 16.01 194.771 16.01C194.071 16.01 193.471 15.76 192.971 15.26C192.471 14.76 192.221 14.16 192.221 13.46C192.221 12.76 192.471 12.16 192.971 11.66C193.471 11.16 194.071 10.91 194.771 10.91C195.471 10.91 196.071 11.16 196.571 11.66C197.071 12.16 197.321 12.76 197.321 13.46ZM192.641 35.42V17.84L196.931 18.35L196.331 35L192.641 35.42ZM201.702 35.3L201.102 11L205.362 11.6V19.97C205.722 19.35 206.322 18.87 207.162 18.53C208.002 18.17 208.932 17.99 209.952 17.99C212.152 17.99 213.912 18.73 215.232 20.21C216.552 21.67 217.212 23.82 217.212 26.66C217.212 29.52 216.542 31.68 215.202 33.14C213.862 34.6 212.122 35.33 209.982 35.33C208.882 35.33 207.862 35.13 206.922 34.73C206.002 34.31 205.342 33.76 204.942 33.08L204.642 34.61L201.702 35.3ZM205.272 30.2C205.592 30.84 206.062 31.38 206.682 31.82C207.302 32.26 208.052 32.48 208.932 32.48C209.692 32.48 210.402 32.3 211.062 31.94C211.742 31.56 212.292 30.95 212.712 30.11C213.132 29.25 213.342 28.1 213.342 26.66C213.342 25.24 213.142 24.12 212.742 23.3C212.342 22.46 211.802 21.86 211.122 21.5C210.462 21.14 209.722 20.96 208.902 20.96C208.242 20.96 207.632 21.13 207.072 21.47C206.532 21.79 206.092 22.23 205.752 22.79C205.432 23.35 205.272 23.99 205.272 24.71V30.2ZM220.824 35.39V11L225.174 11.6L224.574 35L220.824 35.39ZM243.953 32.06C243.373 32.84 242.753 33.47 242.093 33.95C241.453 34.43 240.713 34.78 239.873 35C239.033 35.22 238.003 35.33 236.783 35.33C235.043 35.33 233.553 34.95 232.313 34.19C231.073 33.41 230.123 32.37 229.463 31.07C228.803 29.75 228.473 28.28 228.473 26.66C228.473 25.02 228.813 23.55 229.493 22.25C230.173 20.93 231.123 19.89 232.343 19.13C233.583 18.37 235.023 17.99 236.663 17.99C238.263 17.99 239.633 18.36 240.773 19.1C241.933 19.82 242.823 20.86 243.443 22.22C244.063 23.56 244.373 25.16 244.373 27.02V27.53H233.513L232.853 25.19L240.233 24.59C240.173 23.53 239.873 22.67 239.333 22.01C238.813 21.33 237.973 20.99 236.813 20.99C235.473 20.99 234.363 21.49 233.483 22.49C232.623 23.47 232.193 24.87 232.193 26.69C232.193 27.99 232.433 29.07 232.913 29.93C233.413 30.77 234.033 31.4 234.773 31.82C235.533 32.22 236.293 32.42 237.053 32.42C238.333 32.42 239.473 32.21 240.473 31.79C241.493 31.35 242.293 30.76 242.873 30.02L243.953 32.06Z" fill="white"/>
<rect x="1" y="15" width="14" height="25" stroke="white" stroke-width="2"/>
<rect x="21" y="19" width="14" height="21" stroke="white" stroke-width="2"/>
<rect x="41" y="1" width="14" height="39" stroke="white" stroke-width="2"/>
</svg>
