<svg width="500" height="500" viewBox="0 0 500 500" fill="none" xmlns="http://www.w3.org/2000/svg">
<path d="M57.22 395.81C53.01 393.64 48.04 393.35 43.37 394.13C40.86 394.55 38.24 395.3 36.53 397.19C34.82 399.08 34.5 402.4 36.46 404.02C37.63 404.99 39.26 405.13 40.77 405.11C44.43 405.07 48.5 404.42 51.42 406.63C53.09 407.89 54.2 409.98 56.2 410.59C58.15 411.2 60.36 410.04 61.39 408.28C62.43 406.52 62.46 404.32 61.98 402.33C61.98 402.33 61.47 398 57.22 395.81Z" fill="#EBEBEB"/>
<path d="M66.88 377.17C64.3 380.85 59.3 379.63 56.97 377.39C54.65 375.14 53.67 371.89 52.77 368.78C50.73 361.69 48.67 354.25 50.19 347.02C50.64 344.86 51.45 342.71 52.97 341.1C54.49 339.5 56.82 338.54 58.95 339.11C61.47 339.78 63.04 342.25 64.18 344.6C67.51 351.51 69.28 359.18 69.31 366.86C69.32 370.45 68.9 374.21 66.88 377.17Z" fill="#EBEBEB"/>
<path d="M73.95 382.45C71.15 379.13 70.62 374.29 71.87 370.13C73.12 365.97 75.93 362.43 79.17 359.54C82.97 356.15 87.44 353.52 92.24 351.83C94.13 351.17 96.12 350.64 98.12 350.83C100.11 351.02 102.12 352.04 103.05 353.81C104.43 356.43 103.11 359.61 101.68 362.21C99.17 366.78 96.29 371.16 93.1 375.28C90.53 378.6 87.58 381.87 83.66 383.37C79.74 384.87 75.67 384.69 73.59 381.97" fill="#EBEBEB"/>
<path d="M67.05 432.68C67 432.68 66.92 432.09 66.82 431.01C66.7 429.79 66.55 428.26 66.38 426.45C66.17 424.53 65.89 422.24 65.35 419.76C64.82 417.28 63.99 414.59 62.92 411.86C61.81 409.15 60.46 406.68 58.89 404.71C57.32 402.73 55.5 401.3 53.79 400.47C52.08 399.63 50.55 399.28 49.49 399.13C48.42 399.02 47.83 398.94 47.83 398.89C47.83 398.84 48.43 398.83 49.52 398.86C50.61 398.93 52.2 399.21 54 400.03C55.8 400.83 57.74 402.29 59.38 404.31C61.04 406.32 62.44 408.84 63.56 411.6C64.65 414.38 65.47 417.09 65.98 419.63C66.49 422.16 66.72 424.47 66.87 426.41C67.01 428.35 67.07 429.92 67.1 431C67.11 432.08 67.1 432.68 67.05 432.68Z" fill="#E0E0E0"/>
<path d="M66.74 429.17C66.72 429.17 66.7 428.9 66.7 428.39C66.7 427.81 66.7 427.07 66.71 426.17C66.72 424.24 66.71 421.46 66.61 418.02C66.44 411.14 65.85 403.73 64.7 393.29C63.62 383.47 62.16 372.04 60.63 364.62C60.3 362.93 59.97 361.41 59.66 360.08C59.36 358.75 59.11 357.59 58.86 356.66C58.65 355.78 58.48 355.07 58.34 354.5C58.23 354 58.18 353.74 58.2 353.73C58.22 353.72 58.32 353.97 58.47 354.46C58.64 355.02 58.85 355.72 59.11 356.59C59.4 357.51 59.69 358.66 60.02 359.98C60.37 361.31 60.73 362.82 61.09 364.51C62.61 371.24 64.22 380.65 65.37 391.12C66.52 401.58 67.03 411.11 67.08 418.01C67.12 421.46 67.05 424.25 66.96 426.18C66.9 427.08 66.86 427.81 66.82 428.4C66.79 428.91 66.76 429.17 66.74 429.17Z" fill="#E0E0E0"/>
<path d="M66.69 410.8C66.64 410.8 66.65 409.97 66.71 408.48C66.8 406.99 67 404.84 67.42 402.2C67.86 399.57 68.49 396.45 69.46 393.05C69.88 391.5 70.88 387.78 73.29 382.22C76.46 374.69 80.77 368.54 84.53 364.73C85.41 363.72 86.39 362.99 87.17 362.27C87.58 361.93 87.93 361.59 88.3 361.31C88.67 361.06 89.01 360.82 89.33 360.6C90.56 359.76 91.26 359.31 91.28 359.35C91.39 359.5 88.52 361.19 84.88 365.06C81.26 368.91 77.07 375.03 73.93 382.49C72.17 386.54 70.95 390.15 70.08 393.22C69.08 396.58 68.41 399.67 67.91 402.28C67.43 404.89 67.15 407.02 66.99 408.5C66.84 409.98 66.74 410.8 66.69 410.8Z" fill="#E0E0E0"/>
<path d="M84.45 443.21L82.61 468.44H50.2L48.36 443.21H84.45Z" fill="#E0E0E0"/>
<path d="M87.59 433.27H44.5V443.21H87.59V433.27Z" fill="#E0E0E0"/>
<path d="M87.58 467.47V470.23H85.56H45.21V467.47H87.58Z" fill="#EBEBEB"/>
<path d="M83.57 475.08L85.56 470.23H46.75L49.07 475.08H83.57Z" fill="#E0E0E0"/>
<path d="M48.96 451.46C48.95 451.47 49 451.54 49.11 451.69C49.24 451.86 49.4 452.07 49.59 452.33C50.05 452.92 50.68 453.73 51.48 454.75L51.56 454.86L51.64 454.75C52.83 453.11 54.41 450.92 56.28 448.34H56.01C57.39 450.29 58.93 452.47 60.58 454.81L60.72 455.01L60.88 454.82C62.57 452.81 64.4 450.64 66.3 448.38H65.99C66.08 448.5 66.19 448.63 66.29 448.75C67.97 450.86 69.6 452.89 71.13 454.82L71.29 455.02L71.44 454.81C73.08 452.48 74.62 450.31 76.01 448.35L75.74 448.36C77.99 450.93 79.9 453.1 81.37 454.77L81.47 454.88L81.55 454.75C82.29 453.5 82.88 452.51 83.31 451.79C83.49 451.47 83.64 451.21 83.76 451C83.86 450.82 83.91 450.72 83.9 450.72C83.89 450.71 83.83 450.8 83.71 450.97C83.58 451.17 83.41 451.42 83.21 451.73C82.76 452.44 82.14 453.41 81.36 454.64L81.54 454.63C80.1 452.94 78.22 450.74 76 448.14L75.86 447.98L75.73 448.16C74.33 450.12 72.78 452.28 71.12 454.59L71.43 454.58C69.9 452.65 68.27 450.61 66.6 448.5C66.5 448.37 66.4 448.24 66.3 448.13L66.15 447.94L66 448.1C64.1 450.37 62.28 452.55 60.6 454.56L60.9 454.57C59.23 452.25 57.68 450.08 56.29 448.14L56.15 447.95L56.02 448.14C54.19 450.75 52.64 452.97 51.48 454.62H51.64C50.81 453.63 50.15 452.84 49.68 452.27C49.47 452.02 49.29 451.82 49.15 451.66C49.04 451.52 48.97 451.45 48.96 451.46Z" fill="#F5F5F5"/>
<path d="M47.91 443.04C47.91 443.15 56.03 443.24 66.04 443.24C76.06 443.24 84.18 443.15 84.18 443.04C84.18 442.93 76.06 442.84 66.04 442.84C56.03 442.84 47.91 442.93 47.91 443.04Z" fill="#F5F5F5"/>
<path d="M46.27 470.5C46.27 470.61 55.09 470.7 65.98 470.7C76.87 470.7 85.69 470.61 85.69 470.5C85.69 470.39 76.87 470.3 65.98 470.3C55.1 470.3 46.27 470.39 46.27 470.5Z" fill="#F5F5F5"/>
<path d="M300.33 96.57C303.48 96.25 306.35 93.98 307.41 90.59C308.79 86.15 306.53 81.5 302.37 80.2C298.21 78.9 293.71 81.45 292.33 85.89C291.27 89.31 292.37 92.84 294.84 94.88C282.69 93.07 279.34 105.86 279.34 105.86L306.77 114.4C306.77 114.41 311.31 101.84 300.33 96.57Z" fill="#EBEBEB"/>
<path d="M283.38 54.17C284.88 53.37 285.83 51.65 285.66 49.76C285.43 47.28 283.36 45.44 281.03 45.65C278.7 45.86 277 48.05 277.23 50.53C277.41 52.44 278.68 53.96 280.32 54.46C273.93 56.06 274.9 63.07 274.9 63.07L290.23 61.67C290.24 61.67 289.9 54.52 283.38 54.17Z" fill="#EBEBEB"/>
<path d="M198.25 95.42C200.13 94.3 201.26 92.04 200.93 89.61C200.5 86.43 197.72 84.18 194.74 84.58C191.76 84.99 189.69 87.89 190.12 91.08C190.45 93.53 192.18 95.42 194.32 95.97C186.18 98.39 187.83 107.37 187.83 107.37L207.5 104.7C207.49 104.7 206.66 95.5 198.25 95.42Z" fill="#EBEBEB"/>
<path d="M374.2 161.59L371.49 160.35L369.34 149.41L371.81 144.01C371.81 144.01 367.74 141.84 365 149.14C362.26 156.44 362.55 154.4 362.55 154.4C362.55 154.4 353.65 150.37 352.56 150.81C351.77 151.13 347.49 159.84 345.21 164.59C344.06 166.98 344.52 169.9 346.5 171.49C346.78 171.72 347.08 171.91 347.4 172.06C349.62 173.07 361.76 176.45 361.76 176.45L366.44 178.59L374.2 161.59Z" fill="#EBEBEB"/>
<path d="M382.63 163.65L372.5 181.4L367.86 179.28L376.16 161.14L382.63 163.65Z" fill="#EBEBEB"/>
<path d="M135.76 275.14L132.85 274.52L124.6 282.02L123.36 287.83C123.36 287.83 118.8 287.14 120.96 279.65C123.12 272.15 122.13 273.97 122.13 273.97C122.13 273.97 112.58 271.89 111.97 270.89C111.52 270.16 113.29 260.62 114.29 255.45C114.79 252.85 116.9 250.78 119.44 250.68C119.8 250.67 120.16 250.69 120.5 250.76C122.88 251.27 134.64 255.81 134.64 255.81L139.67 256.89L135.76 275.14Z" fill="#EBEBEB"/>
<path d="M143.75 278.52L146.22 258.22L141.23 257.16L137.06 276.67L143.75 278.52Z" fill="#EBEBEB"/>
<path d="M376.83 407.98V433.4H414H454.99V407.98H376.83Z" fill="#F5F5F5"/>
<path d="M373.55 400.88V407.98H457.73V400.88H414H373.55Z" fill="#E0E0E0"/>
<path d="M415.64 433.4H454.99V407.98H457.73V400.88H414V407.32L415.64 433.4Z" fill="#E0E0E0"/>
<path d="M403.61 412.08H387.76V415.91H403.61V412.08Z" fill="#E0E0E0"/>
<path d="M406.07 420.69H385.72V428.77H406.07V420.69Z" fill="white"/>
<path d="M364.97 442.29V475.47H413.5H467.02V442.29H364.97Z" fill="#F5F5F5"/>
<path d="M360.69 433.01V442.29H470.59V433.01H413.5H360.69Z" fill="#E0E0E0"/>
<path d="M415.64 475.47H467.02V442.29H470.59V433.01H413.5V441.43L415.64 475.47Z" fill="#E0E0E0"/>
<path d="M399.94 447.64H379.24V452.64H399.94V447.64Z" fill="#E0E0E0"/>
<path d="M403.15 458.88H376.58V469.43H403.15V458.88Z" fill="white"/>
<path d="M148.87 464.22C147.2 462.79 143.46 458.24 146.34 452.95C147.4 451.01 149.64 450.05 151.67 449.2C153.7 448.35 155.83 447.6 157.51 446.18C160.68 443.49 161.55 439.01 163.65 435.42C166.06 431.29 170.57 428.2 175.32 428.42C180.77 428.67 185.31 433.12 187.37 438.19C189.43 443.26 189.5 448.9 189.54 454.38C189.56 457.41 189.43 460.83 187.2 462.87C185.15 464.76 182.06 464.78 179.28 464.69C169.35 464.39 159.43 464.08 149.5 463.78" fill="#F5F5F5"/>
<path d="M205.82 382.34H127.51L141.62 466.45C142.24 470.12 144.89 472.96 148.31 473.94C148.4 473.97 148.49 473.99 148.58 474.02C148.81 474.08 149.04 474.16 149.28 474.2C149.8 474.31 150.33 474.36 150.87 474.38C150.87 474.41 150.88 474.43 150.88 474.46L151.26 474.4H186.16C186.82 474.4 187.46 474.33 188.08 474.21C192.2 473.57 195.5 470.26 196 465.99L202.8 408.04L203.11 405.74H203.07L205.76 382.79L205.82 382.34ZM191.05 435.99H183.01L183.82 411.58H193.13L191.05 435.99ZM193.91 411.58H201.6L198.74 435.99H191.83L193.91 411.58ZM170.95 463.06L170.46 441.85H182.03L181.33 463.06H170.95ZM158.44 441.85H169.68L170.17 463.06H160.08L158.44 441.85ZM159.31 463.06H149.88C148.98 457.33 147.82 449.89 146.56 441.85H157.66L159.31 463.06ZM157.99 435.99L156.09 411.58H168.99L169.55 435.99H157.99ZM170.33 435.99L169.77 411.58H183.05L182.24 435.99H170.33ZM169.63 405.73L169.11 383.12H183.99L183.24 405.73H169.63ZM168.85 405.73H155.63L153.87 383.12H168.33L168.85 405.73ZM154.86 405.73H140.87C140.37 402.61 139.91 399.65 139.48 396.99C138.02 387.85 137.47 384.41 137.17 383.12H153.1L154.86 405.73ZM155.31 411.58L157.21 435.99H145.64C145.25 433.51 144.86 431.01 144.46 428.5C143.55 422.74 142.65 416.98 141.79 411.58H155.31ZM144.85 435.99H137.29L133.2 411.58H141C142.2 419.13 143.52 427.52 144.85 435.99ZM145.77 441.85C146.92 449.19 148.06 456.42 149.09 463.06H141.83L138.27 441.85H145.77ZM182.11 463.06L182.81 441.85H190.54L188.73 463.06H182.11ZM184.01 405.73L184.76 383.12H195.56L193.63 405.73H184.01ZM136.43 383.12C136.74 384.75 138.17 393.65 140.08 405.73H132.22L128.43 383.12H136.43ZM195.57 463.06H189.52L191.33 441.85H198.06L195.57 463.06ZM202.29 405.73H194.41L196.34 383.12H204.94L202.29 405.73Z" fill="#E0E0E0"/>
<path d="M380.08 395.29C375.4 390.78 368.36 388.87 362.03 390.39C355.71 391.91 350.3 396.81 348.18 402.95L350.49 411.88C351.37 408.84 353.25 405.9 356.15 404.65C359.17 403.35 362.67 404.09 365.77 405.21C368.86 406.33 371.9 407.84 375.19 408.04C378.48 408.24 382.18 406.68 383.17 403.54C384.09 400.59 382.31 397.44 380.08 395.29Z" fill="#263238"/>
<path d="M324.46 425.08C319.64 420.5 319.88 412.53 322.28 406.33C324.68 400.13 329.93 395.37 335.8 392.23C347.16 386.15 361.37 385.69 373.1 391.02C367.33 391.21 361.76 394.48 358.78 399.43C356.14 403.82 355.55 409.14 353.37 413.78C350.94 418.94 346.48 423.11 341.16 425.19C335.86 427.26 329.75 427.22 324.46 425.08Z" fill="#455A64"/>
<path d="M322.14 397.56C316.8 391.26 316.09 381.15 316.88 372.93C317.67 364.71 319.57 356.44 318.27 348.28C317.5 343.45 315.63 338.84 314.99 333.99C314.36 329.14 315.25 323.65 319.01 320.52C323.33 316.92 330.13 317.77 334.63 321.15C339.12 324.53 341.73 329.84 343.63 335.13C347.81 346.75 349.34 359.64 345.91 371.51C342.48 383.37 334.42 393.98 322.6 397.56" fill="#455A64"/>
<path d="M319.58 449.25C319.56 449.25 319.56 449 319.56 448.52C319.57 448.04 319.56 447.34 319.6 446.44C319.67 444.63 319.84 442.02 320.25 438.81C320.66 435.6 321.29 431.8 322.3 427.64C323.29 423.47 324.99 419.03 327.4 414.7C329.81 410.37 332.76 406.64 335.73 403.56C338.71 400.48 341.77 398.08 344.47 396.3C345.8 395.38 347.09 394.68 348.2 394.03C349.34 393.43 350.33 392.94 351.15 392.55C351.95 392.21 352.6 391.94 353.07 391.74C353.51 391.56 353.74 391.47 353.75 391.49C353.76 391.5 353.53 391.62 353.1 391.83C352.63 392.05 352.01 392.34 351.22 392.71C350.42 393.13 349.44 393.64 348.32 394.25C347.23 394.92 345.96 395.63 344.64 396.56C341.98 398.37 338.97 400.78 336.02 403.85C333.08 406.92 330.17 410.63 327.78 414.92C322.87 423.5 321.53 432.53 320.55 438.86C320.11 442.05 319.89 444.66 319.77 446.46C319.72 447.33 319.68 448.02 319.65 448.54C319.62 449 319.6 449.25 319.58 449.25Z" fill="#263238"/>
<path d="M266.16 379.24C268.74 375.67 275.12 374.64 279.15 376.42C283.18 378.2 286.13 381.73 288.77 385.25C291.41 388.77 293.98 392.5 297.64 394.95C301.3 397.4 306.41 398.29 310.05 395.82C312.44 394.2 313.83 391.38 314.27 388.52C314.7 385.66 314.29 382.74 313.69 379.91C312.82 375.77 311.4 371.44 308.08 368.81C304.39 365.88 299.26 365.74 294.55 365.89C289.14 366.07 283.65 366.47 278.58 368.35C273.49 370.23 268.31 374.28 266.16 379.24Z" fill="#455A64"/>
<path d="M311.38 441.34C311.37 441.34 311.36 441.27 311.35 441.12C311.34 440.95 311.33 440.74 311.32 440.48C311.3 439.88 311.27 439.07 311.23 438.03C311.17 435.86 311.08 432.79 310.97 429.02C310.85 425.22 310.7 420.69 310.42 415.66C310.14 410.64 309.77 405.11 309 399.37C308.61 396.5 308.16 393.69 307.36 391.09C306.56 388.49 305.49 386.07 304.33 383.85C303.16 381.64 301.87 379.62 300.51 377.86C299.14 376.1 297.73 374.58 296.34 373.28C293.54 370.72 290.86 369.15 288.95 368.24C288.47 368.02 288.05 367.8 287.67 367.65C287.3 367.51 286.98 367.38 286.71 367.28C286.47 367.18 286.28 367.1 286.12 367.04C285.99 366.98 285.92 366.95 285.92 366.94C285.92 366.93 285.99 366.95 286.13 366.99C286.29 367.04 286.49 367.11 286.74 367.19C287.02 367.28 287.34 367.4 287.72 367.53C288.11 367.67 288.53 367.88 289.02 368.09C290.96 368.96 293.69 370.5 296.55 373.05C297.96 374.34 299.4 375.87 300.8 377.63C302.19 379.4 303.5 381.43 304.69 383.66C305.87 385.89 306.95 388.33 307.77 390.96C308.58 393.6 309.04 396.42 309.43 399.3C310.19 405.07 310.56 410.6 310.81 415.63C311.06 420.66 311.19 425.19 311.26 429C311.34 432.81 311.37 435.89 311.38 438.02C311.38 439.06 311.38 439.88 311.38 440.47C311.38 440.73 311.37 440.94 311.37 441.11C311.39 441.27 311.38 441.34 311.38 441.34Z" fill="#263238"/>
<path d="M314.93 445.81C314.93 445.81 314.38 444.34 313.85 441.57C313.34 438.8 312.95 434.69 313.4 429.66C313.82 424.63 315.11 418.72 317.16 412.37C319.19 406.02 321.94 399.22 324.29 391.92C325.46 388.27 326.45 384.65 327.13 381.1C327.82 377.55 328.25 374.09 328.53 370.78C329.08 364.15 329.01 358.15 328.84 353.13C328.67 348.1 328.4 344.03 328.24 341.22C328.16 339.84 328.09 338.75 328.05 337.98C328.03 337.63 328.02 337.35 328.01 337.14C328 336.95 328 336.85 328.01 336.85C328.02 336.85 328.03 336.95 328.05 337.13C328.07 337.34 328.1 337.62 328.13 337.97C328.19 338.74 328.29 339.82 328.4 341.2C328.62 344.01 328.93 348.07 329.15 353.11C329.35 358.14 329.46 364.16 328.93 370.81C328.66 374.13 328.23 377.62 327.55 381.18C326.87 384.75 325.88 388.39 324.71 392.05C322.35 399.38 319.59 406.16 317.55 412.49C315.48 418.81 314.17 424.68 313.71 429.68C313.22 434.68 313.56 438.77 314.02 441.54C314.26 442.92 314.48 443.99 314.68 444.71C314.76 445.05 314.83 445.32 314.88 445.53C314.92 445.71 314.94 445.8 314.93 445.81Z" fill="#263238"/>
<path d="M339.41 450.27H293.04L291.99 441.34H339.41V450.27Z" fill="#00B7A7"/>
<path d="M298.02 449.25L303.82 476.02H329.01L334.43 449.25H298.02Z" fill="#00B7A7"/>
<path d="M339.41 450.27C339.41 450.39 329.22 450.46 316.64 450.43C304.06 450.39 293.87 450.27 293.87 450.15C293.87 450.03 304.06 449.96 316.64 449.99C329.22 450.02 339.41 450.15 339.41 450.27Z" fill="#455A64"/>
<path d="M339.82 450.31C339.82 450.43 329.39 450.53 316.53 450.53C303.66 450.53 293.24 450.43 293.24 450.31C293.24 450.19 303.67 450.09 316.53 450.09C329.39 450.09 339.82 450.18 339.82 450.31Z" fill="#263238"/>
<path d="M442.84 475.79C442.84 475.93 356.49 476.05 250 476.05C143.47 476.05 57.15 475.93 57.15 475.79C57.15 475.65 143.48 475.53 250 475.53C356.5 475.53 442.84 475.65 442.84 475.79Z" fill="#263238"/>
<path d="M288.26 437.26L290.65 466.05L299.11 488.28C299.72 489.88 298.85 491.67 297.21 492.16C296.29 492.44 295.3 492.26 294.54 491.68C289.71 487.94 272.3 474.2 272.1 472.41C271.85 470.09 267.41 441.78 267.41 441.78L288.26 437.26Z" fill="#455A64"/>
<path d="M297.2 492.17L271.62 469.13L271.87 471.26C272.04 472.43 272.06 473.06 272.83 473.79C274.88 475.74 280.88 481.71 294.27 492.17C295.05 492.78 296.27 492.48 297.2 492.17Z" fill="#263238"/>
<path d="M276.66 460.15C277.43 460.57 277.78 461.64 277.39 462.42C277 463.21 275.92 463.58 275.14 463.17C274.36 462.76 273.9 461.5 274.37 460.76C274.85 460.02 276.14 459.66 276.79 460.24" fill="white"/>
<path d="M289.31 480.31C289.48 480.37 289.97 478.8 291.59 477.81C293.18 476.77 294.81 477.01 294.83 476.83C294.85 476.76 294.46 476.57 293.78 476.55C293.1 476.52 292.14 476.72 291.25 477.28C290.36 477.84 289.77 478.62 289.51 479.25C289.23 479.87 289.23 480.3 289.31 480.31Z" fill="#263238"/>
<path d="M291.76 483.94C291.91 484.05 292.73 483.02 294.17 482.43C295.6 481.81 296.91 481.95 296.94 481.77C297.01 481.61 295.56 481.15 293.93 481.84C292.29 482.53 291.6 483.88 291.76 483.94Z" fill="#263238"/>
<path d="M284.97 475.79C285.12 475.91 286.38 474.32 288.54 473.21C290.68 472.07 292.71 471.96 292.7 471.76C292.73 471.6 290.55 471.43 288.25 472.64C285.93 473.84 284.83 475.72 284.97 475.79Z" fill="#263238"/>
<path d="M283.51 467.09C283.61 467.25 285.12 466.42 287.18 466.13C289.23 465.81 290.93 466.16 290.97 465.97C291.03 465.82 289.29 465.16 287.09 465.5C284.88 465.83 283.41 466.97 283.51 467.09Z" fill="#263238"/>
<path d="M282.6 458.66C282.71 458.82 284.2 457.69 286.39 457.56C288.58 457.38 290.22 458.28 290.3 458.11C290.34 458.04 289.99 457.72 289.29 457.41C288.59 457.1 287.53 456.85 286.35 456.93C285.17 457.02 284.15 457.41 283.51 457.82C282.85 458.23 282.55 458.6 282.6 458.66Z" fill="#263238"/>
<path d="M286.17 455.96C286.21 455.96 286.23 455.56 286.09 454.87C285.95 454.18 285.64 453.18 284.92 452.12C284.55 451.62 284.16 450.97 283.31 450.67C282.89 450.52 282.3 450.66 282 451.07C281.7 451.48 281.64 451.96 281.68 452.42C281.9 454.24 283.66 455.84 285.74 455.88C287.82 455.89 289.56 454.51 290.21 452.85C290.35 452.42 290.42 451.91 290.14 451.45C289.87 450.98 289.26 450.85 288.86 450.96C288.02 451.18 287.53 451.73 287.07 452.14C286.16 453.04 285.64 453.94 285.35 454.58C285.05 455.22 284.98 455.61 285.01 455.62C285.12 455.68 285.59 454.13 287.38 452.47C287.84 452.08 288.36 451.6 288.96 451.48C289.26 451.42 289.53 451.51 289.66 451.74C289.79 451.96 289.77 452.33 289.65 452.66C289.1 454.02 287.5 455.27 285.74 455.24C283.99 455.22 282.45 453.81 282.26 452.35C282.22 452 282.27 451.63 282.44 451.4C282.6 451.17 282.88 451.09 283.16 451.17C283.74 451.34 284.18 451.9 284.54 452.37C286 454.35 286.05 456 286.17 455.96Z" fill="#263238"/>
<path d="M220.08 438.75L221.15 463.13C221.15 463.13 196.73 472.4 196.48 476.93L243.83 476.56L243.73 438.5L220.08 438.75Z" fill="#455A64"/>
<path d="M235.77 460.97C236.69 461.21 237.33 462.24 237.12 463.17C236.91 464.1 235.88 464.76 234.95 464.53C234.03 464.3 233.22 463.1 233.53 462.2C233.84 461.3 235.1 460.59 235.94 461.03" fill="#E0E0E0"/>
<path d="M243.82 476.56L243.66 472.72L198.32 474.51C198.32 474.51 196.22 475.44 196.47 476.93L243.82 476.56Z" fill="#263238"/>
<path d="M220.37 462.9C220.38 463.13 221.54 463.23 222.68 463.96C223.84 464.66 224.44 465.66 224.65 465.57C224.86 465.52 224.51 464.14 223.11 463.28C221.72 462.4 220.32 462.68 220.37 462.9Z" fill="#263238"/>
<path d="M215.42 464.99C215.37 465.21 216.37 465.6 217.17 466.57C217.99 467.52 218.2 468.57 218.43 468.56C218.65 468.59 218.8 467.24 217.79 466.05C216.79 464.86 215.43 464.77 215.42 464.99Z" fill="#263238"/>
<path d="M212.65 470.96C212.86 471.01 213.17 469.85 212.57 468.59C211.98 467.32 210.88 466.83 210.78 467.03C210.65 467.22 211.36 467.9 211.84 468.94C212.34 469.96 212.42 470.93 212.65 470.96Z" fill="#263238"/>
<path d="M220.75 457.31C220.85 457.52 221.91 457.19 223.21 457.27C224.52 457.32 225.54 457.75 225.66 457.55C225.79 457.38 224.79 456.53 223.25 456.46C221.71 456.39 220.63 457.13 220.75 457.31Z" fill="#263238"/>
<path d="M211.64 257.49C211.66 258.97 217 459 217 459L244.23 459.26L252.33 288.61C252.33 288.61 259.25 380.33 259.25 382.31C259.25 384.29 265.68 460.23 265.68 460.23L291.94 459.94L290.72 278L287.4 250.92L211.64 257.49Z" fill="#263238"/>
<path d="M255.38 282.13C255.39 282.17 254.97 282.36 254.19 282.66C253.41 282.96 252.28 283.37 250.89 283.87L250.62 283.96L250.6 283.67C250.44 281.2 250.25 277.9 250.08 274.29C249.89 270.37 249.76 266.82 249.69 264.25C249.66 262.96 249.64 261.92 249.64 261.2C249.64 260.48 249.66 260.08 249.7 260.08C249.74 260.08 249.8 260.47 249.87 261.19C249.94 261.91 250.02 262.94 250.11 264.23C250.28 266.8 250.49 270.34 250.67 274.26C250.84 277.88 250.97 281.18 251.04 283.65L250.75 283.46C252.16 283.01 253.32 282.66 254.12 282.43C254.91 282.2 255.36 282.09 255.38 282.13Z" fill="#455A64"/>
<path d="M253.16 260.8C253.14 260.77 253.25 260.64 253.55 260.53C253.84 260.43 254.33 260.4 254.84 260.65C255.34 260.87 255.9 261.52 255.82 262.34C255.76 263.11 255.2 263.95 254.26 264.15C253.32 264.32 252.48 263.78 252.1 263.12C251.69 262.43 251.84 261.64 252.12 261.17C252.41 260.68 252.8 260.42 253.09 260.32C253.38 260.21 253.55 260.23 253.56 260.26C253.6 260.35 252.9 260.49 252.49 261.36C252.3 261.77 252.24 262.36 252.56 262.84C252.86 263.32 253.52 263.7 254.15 263.58C254.77 263.46 255.23 262.84 255.29 262.28C255.37 261.71 255.03 261.24 254.64 261C253.82 260.52 253.17 260.89 253.16 260.8Z" fill="#455A64"/>
<path d="M266.59 262.91C266.43 262.93 266.21 262.04 266.09 260.92C265.98 259.81 266.01 258.89 266.17 258.88C266.33 258.86 266.55 259.75 266.67 260.87C266.79 261.97 266.75 262.89 266.59 262.91Z" fill="#455A64"/>
<path d="M268.62 262.7C268.46 262.7 268.33 261.75 268.32 260.59C268.31 259.42 268.44 258.47 268.6 258.47C268.76 258.47 268.89 259.42 268.9 260.59C268.91 261.75 268.78 262.7 268.62 262.7Z" fill="#455A64"/>
<path d="M233.34 264.11C233.18 264.13 232.93 263.06 232.79 261.73C232.64 260.4 232.65 259.3 232.81 259.29C232.97 259.27 233.22 260.34 233.36 261.67C233.51 263 233.5 264.1 233.34 264.11Z" fill="#455A64"/>
<path d="M235.8 264.31C235.66 264.37 235.14 263.28 235.08 261.82C235.02 260.36 235.44 259.23 235.59 259.28C235.75 259.32 235.6 260.44 235.66 261.8C235.71 263.16 235.96 264.26 235.8 264.31Z" fill="#455A64"/>
<path d="M226.54 261.57C226.58 261.58 226.54 261.9 226.44 262.47C226.35 263.05 226.16 263.87 225.85 264.87C225.25 266.87 224.08 269.56 222.23 272.18C220.37 274.79 218.21 276.78 216.51 278C215.66 278.62 214.95 279.07 214.43 279.34C213.92 279.62 213.63 279.76 213.61 279.73C213.56 279.65 214.67 278.99 216.29 277.71C217.9 276.43 219.98 274.44 221.81 271.88C223.63 269.31 224.83 266.7 225.51 264.76C226.2 262.82 226.45 261.55 226.54 261.57Z" fill="#455A64"/>
<path d="M289.83 275.39C289.83 275.42 289.52 275.49 288.94 275.54C288.36 275.59 287.52 275.6 286.49 275.49C284.44 275.29 281.57 274.47 278.99 272.57C276.41 270.67 274.79 268.17 273.99 266.26C273.58 265.3 273.35 264.5 273.22 263.93C273.1 263.36 273.07 263.05 273.1 263.04C273.19 263.02 273.44 264.27 274.32 266.11C275.18 267.93 276.8 270.31 279.29 272.15C281.78 273.99 284.53 274.83 286.52 275.12C288.55 275.43 289.82 275.3 289.83 275.39Z" fill="#455A64"/>
<path d="M242.14 379.24C242.1 379.38 237.25 378.2 231.31 376.62C225.36 375.03 220.57 373.63 220.61 373.49C220.65 373.35 225.5 374.52 231.44 376.11C237.39 377.7 242.18 379.1 242.14 379.24Z" fill="#455A64"/>
<path d="M289.3 371.77C289.37 371.9 285.15 374.36 279.87 377.28C274.59 380.2 270.26 382.46 270.19 382.34C270.12 382.21 274.34 379.75 279.62 376.83C284.9 373.91 289.23 371.65 289.3 371.77Z" fill="#455A64"/>
<path d="M227.4 133.87L240.05 128.9L263.35 127.59L274.3 131.75L259.29 140.08L246.35 139.61L227.4 133.87Z" fill="#A36E6A"/>
<path d="M263.4 101.44C264.88 96.8899 266.34 92.3099 267.02 87.5699C267.7 82.8299 267.56 77.8999 265.89 73.4099C265.64 72.7299 263.49 68.1699 262.76 68.2399C262.24 68.2899 263.57 72.5499 263.31 72.9899C260.82 77.2599 260.14 82.3999 260.53 87.3399C260.93 92.2699 261.95 96.7099 263.4 101.44Z" fill="#263238"/>
<path d="M236.45 130.32C236.42 126.94 236.54 121.9 236.52 121.9C236.52 121.9 224.93 120.72 224.17 109.23C223.81 103.68 223.99 92.1999 224.27 81.7999C224.58 70.6199 233.41 61.5599 244.58 60.9599L245.69 60.8999C257.69 60.9599 264.34 71.1899 263.94 83.1799L263.32 129.84L255.74 134.87C249.25 142.61 236.48 140.41 236.45 130.32Z" fill="#A36E6A"/>
<path d="M236.45 121.89C236.45 121.89 243.72 121.93 251.18 116.67C251.18 116.67 247.97 125.22 236.45 124.8V121.89Z" fill="#7A5554"/>
<path d="M229.22 90.2399C229.24 91.1099 229.98 91.8099 230.89 91.8099C231.8 91.8099 232.52 91.1099 232.5 90.2399C232.48 89.3699 231.74 88.6699 230.83 88.6699C229.93 88.6599 229.21 89.3699 229.22 90.2399Z" fill="#263238"/>
<path d="M226.92 86.43C227.13 86.63 228.33 85.65 230.1 85.56C231.86 85.45 233.21 86.29 233.39 86.06C233.48 85.96 233.25 85.58 232.66 85.2C232.08 84.82 231.11 84.47 230.01 84.54C228.91 84.6 228.01 85.06 227.5 85.5C226.98 85.94 226.81 86.34 226.92 86.43Z" fill="#263238"/>
<path d="M245.7 89.8499C245.72 90.7199 246.46 91.4199 247.37 91.4199C248.28 91.4199 249 90.7199 248.98 89.8499C248.96 88.9799 248.22 88.2799 247.31 88.2799C246.4 88.2799 245.68 88.9799 245.7 89.8499Z" fill="#263238"/>
<path d="M244.26 86.2299C244.48 86.4299 245.67 85.4499 247.44 85.3599C249.2 85.2499 250.55 86.0899 250.73 85.8599C250.82 85.7599 250.59 85.3799 250 84.9999C249.42 84.6199 248.45 84.2699 247.35 84.3399C246.25 84.3999 245.35 84.8599 244.84 85.2999C244.32 85.7399 244.16 86.1399 244.26 86.2299Z" fill="#263238"/>
<path d="M238.64 100.14C238.64 100.04 237.53 99.9099 235.74 99.7699C235.29 99.7499 234.85 99.6799 234.76 99.3799C234.64 99.0599 234.8 98.5599 234.99 98.0299C235.36 96.9199 235.74 95.7499 236.14 94.5199C237.73 89.5299 238.86 85.4399 238.66 85.3799C238.46 85.3199 237 89.3099 235.41 94.2999C235.03 95.5299 234.66 96.6999 234.32 97.8199C234.18 98.3399 233.91 98.9399 234.18 99.5999C234.32 99.9299 234.66 100.16 234.96 100.22C235.25 100.29 235.51 100.28 235.73 100.29C237.53 100.29 238.64 100.24 238.64 100.14Z" fill="#263238"/>
<path d="M243.53 80.28C243.73 80.75 245.48 80.43 247.57 80.58C249.66 80.68 251.36 81.2 251.61 80.76C251.72 80.55 251.41 80.11 250.71 79.68C250.02 79.25 248.92 78.86 247.67 78.79C246.42 78.72 245.29 78.97 244.55 79.32C243.8 79.66 243.44 80.06 243.53 80.28Z" fill="#263238"/>
<path d="M227.32 80.45C227.64 80.84 228.85 80.39 230.31 80.32C231.77 80.2 233.02 80.51 233.3 80.08C233.42 79.87 233.21 79.48 232.66 79.11C232.11 78.75 231.21 78.47 230.21 78.53C229.2 78.59 228.34 78.98 227.85 79.41C227.33 79.84 227.17 80.26 227.32 80.45Z" fill="#263238"/>
<path d="M263.39 91.7499C263.58 91.6499 271.17 88.9899 271.33 96.8699C271.5 104.74 263.56 103.29 263.54 103.06C263.52 102.83 263.39 91.7499 263.39 91.7499Z" fill="#A36E6A"/>
<path d="M265.88 100.02C265.91 99.99 266.02 100.11 266.25 100.21C266.48 100.31 266.87 100.37 267.28 100.21C268.11 99.89 268.78 98.55 268.79 97.13C268.79 96.41 268.63 95.73 268.36 95.17C268.11 94.6 267.73 94.2 267.31 94.14C266.89 94.05 266.6 94.31 266.51 94.53C266.41 94.75 266.46 94.91 266.42 94.92C266.4 94.94 266.25 94.79 266.3 94.47C266.33 94.31 266.42 94.13 266.6 93.97C266.79 93.81 267.06 93.73 267.35 93.75C267.96 93.78 268.52 94.33 268.81 94.94C269.14 95.56 269.34 96.32 269.33 97.12C269.31 98.71 268.53 100.21 267.4 100.56C266.85 100.72 266.38 100.56 266.14 100.38C265.9 100.21 265.85 100.04 265.88 100.02Z" fill="#7A5554"/>
<path d="M229.14 68.68C227.86 67.99 231.63 63.82 234.75 62.36C239.46 60.15 246.67 58.74 251.05 59.93C256.32 61.36 260.72 63.92 263.42 68.67C266.12 73.42 267.18 78.98 267.09 84.44C267.06 86.11 266.91 87.84 266.04 89.26C264.96 91.01 262.86 92.14 262.99 94.54C263.03 95.42 262.79 96.31 262.2 96.95C260.78 98.5 259 97.08 258.17 95.65C256.4 92.59 256.16 88.91 255.97 85.3799C255.83 82.8699 255.7 80.31 256.38 77.89C256.75 76.57 257.35 75.33 257.65 73.99C257.95 72.65 257.89 71.14 257.04 70.07C256.9 69.89 256.68 69.67 256.39 69.43C254.14 67.5 251.01 66.96 248.22 67.98C243.81 69.6 236.26 72.04 234.26 70.56C231.39 68.43 230.69 67.03 230.69 67.03L229.14 68.68Z" fill="#263238"/>
<path d="M236.47 105.71C236.43 105.84 236.76 106.12 237.43 106.27C238.09 106.43 239.07 106.41 240.04 106.03C241.02 105.64 241.74 104.99 242.11 104.42C242.49 103.85 242.55 103.42 242.43 103.35C242.16 103.2 241.27 104.4 239.64 105.02C238.04 105.69 236.56 105.42 236.47 105.71Z" fill="#263238"/>
<path d="M287.8 183C287.8 183 296.61 211.15 299.52 213.09C302.43 215.03 311.81 223.93 331.06 221.18L337.69 220.86L339.47 208.4C339.47 208.4 331.44 206.77 329.12 206.14C326 205.28 317.58 201.89 312.17 196.53C312.17 196.53 307.27 173.46 306.13 171.36L288.3 176.79L287.8 183Z" fill="#A36E6A"/>
<path d="M328.38 212.05C328.38 212.05 331.01 206.49 335.29 204.75C339.57 203.01 345.11 203.48 347.17 202.29C349.23 201.1 355.01 199.91 355.57 201.89C356.12 203.87 352.48 205.2 348.76 206.44C345.04 207.68 343.53 208.23 343.85 209.82C344.17 211.4 348.76 214.57 350.11 214.97C351.46 215.37 355.61 215.91 355.63 217.82C355.65 219.73 354.39 219.49 352.25 219.49C350.11 219.49 345.68 218.62 345.68 218.62C345.68 218.62 344.57 218.88 345.13 219.5C345.68 220.12 348.22 222.42 346.71 224.01C345.2 225.59 342.99 225.2 342.99 225.2L339.98 224.65C339.98 224.65 338.32 227.58 336.97 226.39C335.62 225.2 336.57 226.67 336.57 226.67C336.57 226.67 335.06 229.32 333.48 229.16C331.9 229 326.15 225.73 326.15 225.73L322.71 221.39L328.38 212.05Z" fill="#A36E6A"/>
<path d="M342.46 222.67C342.4 222.7 342 222.19 341.19 221.48C340.8 221.11 340.29 220.66 339.94 219.97C339.77 219.63 339.63 219.24 339.61 218.8C339.59 218.37 339.71 217.88 340.02 217.51C340.64 216.76 341.65 216.6 342.39 216.81C343.15 217.01 343.7 217.45 344.08 217.85C344.84 218.67 345.12 219.28 345.08 219.31C345.01 219.37 344.6 218.82 343.83 218.11C343.44 217.77 342.92 217.42 342.28 217.27C341.66 217.12 340.88 217.28 340.43 217.83C339.98 218.38 340.1 219.17 340.38 219.75C340.66 220.35 341.1 220.81 341.46 221.21C342.21 222.01 342.54 222.64 342.46 222.67Z" fill="#7A5554"/>
<path d="M336.12 224.33C336.09 224.35 335.85 224.03 335.43 223.44C335.02 222.84 334.43 221.98 333.77 220.86C333.11 219.75 332.36 218.38 331.75 216.77C331.48 215.95 331.09 215.13 331.08 214.09C331.09 213.58 331.27 213.02 331.71 212.63C332.16 212.24 332.81 212.19 333.33 212.36C334.45 212.72 334.95 213.75 335.4 214.52C335.86 215.33 336.3 216.1 336.72 216.85C337.54 218.31 338.28 219.65 338.93 220.81C339.56 221.92 340.07 222.9 340.12 223.66C340.16 224.03 340.1 224.33 340.04 224.51C339.98 224.7 339.91 224.78 339.9 224.77C339.85 224.76 340.04 224.37 339.92 223.68C339.81 222.98 339.29 222.09 338.61 220.99C337.93 219.84 337.16 218.53 336.3 217.08C335.87 216.34 335.42 215.56 334.95 214.76C334.5 213.97 334.01 213.1 333.17 212.85C332.76 212.72 332.32 212.77 332.04 213.02C331.75 213.27 331.6 213.69 331.59 214.1C331.59 214.93 331.94 215.81 332.2 216.59C332.78 218.18 333.48 219.54 334.09 220.67C335.34 222.93 336.19 224.28 336.12 224.33Z" fill="#7A5554"/>
<path d="M331.21 226.65C331.18 226.67 330.98 226.34 330.64 225.74C330.3 225.14 329.83 224.26 329.26 223.17C328.69 222.08 328.01 220.79 327.27 219.32C326.92 218.58 326.57 217.73 326.61 216.76C326.63 216.29 326.78 215.77 327.1 215.36C327.4 214.95 327.98 214.61 328.57 214.76C329.15 214.89 329.51 215.31 329.81 215.68C330.1 216.06 330.34 216.43 330.6 216.79C331.1 217.52 331.58 218.23 332.02 218.92C332.9 220.29 333.67 221.54 334.3 222.6C334.93 223.66 335.42 224.52 335.76 225.13C336.09 225.73 336.26 226.08 336.23 226.09C336.2 226.11 335.97 225.8 335.59 225.23C335.15 224.56 334.62 223.75 333.99 222.79C333.29 221.73 332.5 220.51 331.62 219.18C331.16 218.51 330.68 217.8 330.18 217.08C329.66 216.4 329.2 215.45 328.47 215.27C328.11 215.18 327.76 215.37 327.52 215.68C327.27 216 327.15 216.38 327.13 216.79C327.08 217.61 327.39 218.4 327.71 219.12C328.4 220.55 329.04 221.86 329.59 223C330.12 224.11 330.54 225.01 330.82 225.64C331.1 226.28 331.24 226.63 331.21 226.65Z" fill="#7A5554"/>
<path d="M348.3 202.72C348.44 202.75 348.41 203.39 348.71 204.06C349 204.74 349.49 205.14 349.41 205.27C349.36 205.4 348.6 205.12 348.23 204.27C347.86 203.41 348.17 202.66 348.3 202.72Z" fill="#7A5554"/>
<path d="M311.18 196.88C311.19 196.97 310.48 197.05 309.48 197.53C308.47 197.99 307.2 198.92 306.18 200.27C305.15 201.63 304.52 203.07 304.09 204.11C303.66 205.16 303.42 205.82 303.35 205.8C303.29 205.78 303.4 205.08 303.75 203.98C304.1 202.89 304.69 201.38 305.77 199.95C306.85 198.52 308.24 197.58 309.34 197.19C310.43 196.78 311.18 196.82 311.18 196.88Z" fill="#7A5554"/>
<path d="M198.8 181.59L198.31 204.31C198.31 204.31 189.61 208.94 187.36 209.22C185.11 209.5 172.38 207.9 172.38 207.9L173.05 221.71C173.05 221.71 193.26 226.62 199.57 226.76C205.88 226.9 208.67 226.62 209.8 225.22C210.93 223.82 215.11 222.02 216.18 215.69C217.25 209.36 214.07 181.59 214.07 181.59H198.8Z" fill="#A36E6A"/>
<path d="M209.61 215C209.45 215.08 208.55 211.77 205.69 208.87C202.87 205.92 199.6 204.91 199.68 204.75C199.7 204.7 200.52 204.86 201.76 205.43C202.99 205.99 204.61 207.01 206.06 208.51C207.51 210.01 208.48 211.65 209 212.91C209.53 214.15 209.67 214.98 209.61 215Z" fill="#7A5554"/>
<path d="M173.97 209.23C173.97 209.23 171.34 203.67 167.06 201.93C162.78 200.19 157.24 200.66 155.18 199.47C153.12 198.28 147.34 197.09 146.78 199.07C146.23 201.05 149.87 202.38 153.59 203.62C157.31 204.86 158.82 205.41 158.5 207C158.18 208.58 153.59 211.75 152.24 212.15C150.89 212.55 146.74 213.09 146.72 215C146.7 216.91 147.96 216.67 150.1 216.67C152.24 216.67 156.67 215.8 156.67 215.8C156.67 215.8 157.78 216.06 157.22 216.68C156.67 217.3 154.13 219.6 155.64 221.19C157.14 222.77 159.36 222.38 159.36 222.38L162.37 221.83C162.37 221.83 164.03 224.76 165.38 223.57C166.73 222.38 165.78 223.85 165.78 223.85C165.78 223.85 167.29 226.5 168.87 226.34C170.45 226.18 176.2 222.91 176.2 222.91L179.64 218.57L173.97 209.23Z" fill="#A36E6A"/>
<path d="M159.89 219.85C159.82 219.82 160.15 219.19 160.9 218.4C161.26 218 161.7 217.54 161.98 216.94C162.26 216.35 162.38 215.56 161.93 215.02C161.48 214.47 160.7 214.31 160.08 214.46C159.44 214.6 158.92 214.96 158.53 215.3C157.75 216 157.34 216.55 157.28 216.5C157.24 216.47 157.52 215.86 158.28 215.04C158.67 214.64 159.22 214.2 159.97 214.01C160.71 213.8 161.72 213.96 162.34 214.71C162.65 215.08 162.77 215.57 162.75 216C162.73 216.44 162.59 216.83 162.42 217.17C162.07 217.86 161.56 218.31 161.17 218.68C160.34 219.38 159.95 219.88 159.89 219.85Z" fill="#7A5554"/>
<path d="M166.23 221.51C166.16 221.47 167.01 220.11 168.26 217.86C168.87 216.73 169.58 215.37 170.15 213.78C170.41 212.99 170.77 212.12 170.76 211.29C170.75 210.88 170.6 210.46 170.31 210.21C170.02 209.96 169.58 209.91 169.18 210.04C168.34 210.29 167.85 211.17 167.4 211.95C166.93 212.75 166.48 213.52 166.05 214.27C165.2 215.71 164.42 217.03 163.74 218.18C163.06 219.28 162.54 220.17 162.43 220.87C162.3 221.56 162.5 221.94 162.45 221.96C162.44 221.97 162.38 221.88 162.31 221.7C162.25 221.52 162.19 221.22 162.23 220.85C162.28 220.09 162.79 219.11 163.42 218C164.07 216.84 164.81 215.5 165.63 214.04C166.05 213.29 166.49 212.51 166.95 211.71C167.4 210.94 167.9 209.91 169.02 209.55C169.54 209.38 170.19 209.43 170.64 209.82C171.08 210.21 171.25 210.76 171.27 211.28C171.25 212.32 170.87 213.14 170.6 213.96C169.99 215.58 169.24 216.94 168.58 218.05C167.92 219.16 167.33 220.03 166.92 220.63C166.51 221.21 166.26 221.53 166.23 221.51Z" fill="#7A5554"/>
<path d="M171.14 223.83C171.11 223.81 171.25 223.46 171.53 222.83C171.81 222.2 172.23 221.3 172.76 220.19C173.31 219.05 173.95 217.74 174.64 216.31C174.97 215.59 175.27 214.79 175.22 213.98C175.2 213.57 175.08 213.19 174.83 212.87C174.59 212.56 174.23 212.37 173.88 212.46C173.15 212.65 172.69 213.59 172.17 214.27C171.67 215 171.19 215.7 170.73 216.37C169.86 217.7 169.06 218.92 168.36 219.98C167.74 220.93 167.2 221.75 166.76 222.42C166.37 222.99 166.15 223.3 166.12 223.28C166.09 223.26 166.26 222.92 166.59 222.32C166.92 221.72 167.42 220.85 168.05 219.79C168.68 218.73 169.44 217.48 170.33 216.11C170.77 215.43 171.25 214.71 171.75 213.98C172.01 213.61 172.25 213.25 172.54 212.87C172.83 212.5 173.2 212.09 173.78 211.95C174.37 211.81 174.95 212.15 175.25 212.55C175.57 212.96 175.72 213.48 175.74 213.95C175.78 214.92 175.43 215.77 175.08 216.51C174.35 217.98 173.67 219.26 173.09 220.36C172.52 221.45 172.04 222.33 171.71 222.93C171.37 223.52 171.17 223.84 171.14 223.83Z" fill="#7A5554"/>
<path d="M154.05 199.9C154.18 199.84 154.49 200.59 154.12 201.45C153.75 202.31 152.99 202.59 152.94 202.45C152.87 202.32 153.36 201.92 153.64 201.24C153.94 200.56 153.9 199.93 154.05 199.9Z" fill="#7A5554"/>
<path d="M176.93 221.66C176.86 221.59 177.56 221.06 178.07 219.81C178.31 219.2 178.5 218.41 178.49 217.54C178.49 216.67 178.29 215.71 177.91 214.77C177.14 212.87 175.87 211.45 174.97 210.43C174.05 209.42 173.47 208.79 173.53 208.74C173.58 208.69 174.24 209.22 175.24 210.18C176.21 211.14 177.57 212.57 178.39 214.58C178.79 215.58 179 216.61 178.97 217.55C178.95 218.49 178.71 219.32 178.41 219.96C177.77 221.25 176.95 221.7 176.93 221.66Z" fill="#7A5554"/>
<path d="M310.47 170.03C310.47 170.03 298.9 136.54 294.57 134.85C294.57 134.85 275.63 130.61 266.23 127.59C266.23 127.59 259.79 134.3 247.54 134.12C235.57 133.94 233.07 131.24 233.07 131.24L216.33 137.66C216.33 137.66 204.43 141.93 202.38 147.19C200.39 152.32 196.73 181.59 196.73 181.59H214.08L213.75 233.31L210.5 259.29C211.7 259.5 289.45 258.47 289.45 258.47L289.13 190.76L289.45 176.43L310.47 170.03Z" fill="#2C8981"/>
<path d="M205.33 154.87C205.34 154.87 205.39 155.03 205.46 155.35C205.54 155.71 205.65 156.17 205.78 156.74C206.08 157.95 206.57 159.71 207.38 161.86C208.18 164.01 209.31 166.54 210.69 169.38C212 172.27 213.18 175.6 214.41 179.21L214.42 179.25V179.29C214.39 183.61 214.36 188.34 214.33 193.28C214.21 204.31 214.11 214.3 214.03 221.59C213.97 225.17 213.92 228.09 213.88 230.17C213.85 231.14 213.83 231.92 213.81 232.5C213.79 233.03 213.77 233.31 213.75 233.31C213.73 233.31 213.72 233.03 213.7 232.5C213.69 231.92 213.68 231.14 213.67 230.17C213.67 228.09 213.66 225.17 213.65 221.59C213.69 214.3 213.74 204.32 213.8 193.29C213.84 188.35 213.89 183.62 213.93 179.3L213.94 179.38C212.73 175.78 211.57 172.44 210.31 169.57C208.96 166.72 207.86 164.16 207.09 161.98C206.32 159.8 205.87 158.02 205.62 156.79C205.5 156.17 205.42 155.7 205.38 155.38C205.34 155.04 205.32 154.87 205.33 154.87Z" fill="#263238"/>
<path d="M290.85 146.42C290.89 146.42 290.87 146.97 290.83 147.96C290.79 149.04 290.74 150.45 290.67 152.15C290.53 155.78 290.34 160.62 290.12 165.97C289.88 171.32 289.66 176.16 289.49 179.79C289.39 181.49 289.31 182.89 289.25 183.98C289.18 184.97 289.13 185.51 289.09 185.51C289.05 185.51 289.04 184.96 289.05 183.97C289.07 182.89 289.09 181.48 289.13 179.78C289.22 176.24 289.38 171.35 289.6 165.95C289.82 160.55 290.07 155.67 290.3 152.13C290.41 150.36 290.53 148.93 290.62 147.95C290.73 146.96 290.81 146.42 290.85 146.42Z" fill="#263238"/>
<g opacity="0.3">
<path d="M205.82 157.49C205.43 165.41 208.41 173.08 213.7 178.98C212.07 171.54 207.99 164.61 205.82 157.49Z" fill="black"/>
</g>
<path d="M216.67 156.82C216.53 156.77 217.02 155.09 217.76 153.07C218.5 151.05 219.21 149.45 219.34 149.5C219.47 149.55 218.99 151.23 218.25 153.25C217.51 155.27 216.8 156.87 216.67 156.82Z" fill="white"/>
<path d="M235.28 145.26C235.19 145.37 233.51 144.11 231.53 142.44C229.55 140.77 228.03 139.33 228.12 139.22C228.21 139.11 229.89 140.37 231.87 142.04C233.84 143.71 235.37 145.15 235.28 145.26Z" fill="white"/>
<path d="M240.07 157.61C240.11 157.74 238.16 158.49 235.64 158.98C233.12 159.48 231.03 159.53 231.02 159.4C231.01 159.25 233.05 158.97 235.54 158.47C238.03 157.99 240.03 157.47 240.07 157.61Z" fill="white"/>
<path d="M222.39 183.23C222.25 183.22 222.29 181.71 222.48 179.87C222.67 178.03 222.94 176.55 223.09 176.56C223.23 176.57 223.19 178.08 223 179.92C222.8 181.76 222.53 183.24 222.39 183.23Z" fill="white"/>
<path d="M262.97 159.99C263.01 160.13 261.62 160.67 259.86 161.19C258.1 161.72 256.65 162.03 256.6 161.9C256.56 161.76 257.95 161.22 259.71 160.7C261.48 160.17 262.93 159.85 262.97 159.99Z" fill="white"/>
<path d="M257.41 143.63C257.28 143.59 257.68 141.99 258.62 140.21C259.55 138.42 260.64 137.18 260.75 137.27C260.87 137.36 260 138.71 259.09 140.45C258.17 142.2 257.56 143.68 257.41 143.63Z" fill="white"/>
<path d="M279.36 145.7C279.24 145.77 278.17 144.05 277.24 141.75C276.31 139.45 275.89 137.47 276.02 137.43C276.16 137.39 276.8 139.28 277.72 141.55C278.64 143.83 279.49 145.63 279.36 145.7Z" fill="white"/>
<path d="M279.84 172.89C279.71 172.86 279.96 171.2 280.72 169.28C281.48 167.36 282.43 165.98 282.55 166.05C282.68 166.13 281.94 167.6 281.21 169.47C280.45 171.35 279.98 172.93 279.84 172.89Z" fill="white"/>
<path d="M274.41 196.92C274.29 197 273.2 195.57 271.97 193.72C270.74 191.87 269.84 190.31 269.96 190.23C270.08 190.15 271.17 191.58 272.4 193.43C273.63 195.28 274.53 196.84 274.41 196.92Z" fill="white"/>
<path d="M300.68 162.88C300.75 163.01 299.66 163.74 298.24 164.51C296.83 165.28 295.62 165.81 295.55 165.68C295.48 165.55 296.57 164.82 297.99 164.05C299.4 163.28 300.61 162.76 300.68 162.88Z" fill="white"/>
<path d="M297.58 151.89C297.44 151.92 296.98 150.13 296.56 147.89C296.14 145.65 295.91 143.82 296.05 143.8C296.19 143.77 296.65 145.56 297.07 147.8C297.49 150.03 297.72 151.86 297.58 151.89Z" fill="white"/>
<path d="M205.06 177.68C204.92 177.73 204.23 176.02 203.51 173.88C202.79 171.73 202.31 169.96 202.45 169.91C202.59 169.86 203.28 171.57 204 173.71C204.72 175.85 205.19 177.63 205.06 177.68Z" fill="white"/>
<path d="M203.14 150.62C203.28 150.64 203.06 152.9 202.65 155.68C202.24 158.45 201.79 160.68 201.65 160.66C201.51 160.64 201.73 158.38 202.14 155.6C202.55 152.83 203 150.6 203.14 150.62Z" fill="white"/>
<path d="M235.63 208.68C235.56 208.8 233.71 207.84 231.67 206.29C229.63 204.74 228.21 203.22 228.3 203.12C228.4 203.01 229.97 204.35 231.98 205.87C234 207.4 235.7 208.55 235.63 208.68Z" fill="white"/>
<path d="M224.42 245.69C224.29 245.62 225.25 243.48 226.55 240.91C227.86 238.33 229.02 236.3 229.15 236.37C229.28 236.44 228.32 238.57 227.02 241.15C225.71 243.72 224.54 245.76 224.42 245.69Z" fill="white"/>
<path d="M251.86 246.16C251.8 246.28 249.44 245.23 246.84 243.4C244.23 241.58 242.44 239.71 242.54 239.61C242.64 239.5 244.57 241.17 247.14 242.97C249.7 244.78 251.93 246.03 251.86 246.16Z" fill="white"/>
<path d="M278.25 240.01C278.36 240.09 277.02 241.89 274.92 243.67C272.83 245.45 270.83 246.48 270.77 246.36C270.69 246.23 272.53 245.02 274.59 243.27C276.65 241.53 278.14 239.91 278.25 240.01Z" fill="white"/>
<path d="M268.52 226.8C268.45 226.78 268.57 225.97 268.85 224.68C269.13 223.39 269.59 221.62 270.22 219.7C270.84 217.78 271.51 216.08 272.04 214.87C272.57 213.66 272.95 212.94 273.02 212.96C273.16 213.02 271.95 216.04 270.72 219.86C269.46 223.68 268.67 226.83 268.52 226.8Z" fill="white"/>
<path d="M257.47 218.82C257.35 218.9 255.83 216.89 254.07 214.33C252.31 211.77 250.98 209.63 251.1 209.55C251.22 209.47 252.74 211.48 254.5 214.04C256.26 216.6 257.59 218.74 257.47 218.82Z" fill="white"/>
<g opacity="0.3">
<path d="M241.07 228.91C244.82 228.59 248.2 226.37 250.7 223.55C253.2 220.73 255.46 217.54 257.17 214.19C259.5 209.63 260.65 204.66 260.96 199.47C256.28 211.99 249.43 221.91 241.07 228.91Z" fill="black"/>
</g>
<path d="M262.43 194C262.45 194 262.42 194.16 262.36 194.46C262.28 194.82 262.19 195.25 262.07 195.76C261.95 196.33 261.77 197.01 261.53 197.8C261.3 198.59 261.05 199.5 260.69 200.47C260.04 202.44 259.09 204.73 257.92 207.21C256.71 209.67 255.25 212.32 253.51 214.96C251.75 217.59 249.88 219.97 248.07 222.03C246.23 224.06 244.48 225.82 242.9 227.16C242.14 227.86 241.39 228.43 240.74 228.95C240.1 229.47 239.53 229.89 239.05 230.21C238.61 230.51 238.25 230.76 237.95 230.96C237.69 231.13 237.56 231.21 237.55 231.19C237.54 231.18 237.66 231.07 237.89 230.87C238.18 230.64 238.52 230.37 238.93 230.04C239.39 229.69 239.94 229.25 240.56 228.71C241.18 228.18 241.91 227.59 242.65 226.88C244.19 225.51 245.9 223.74 247.71 221.7C249.48 219.63 251.33 217.27 253.08 214.65C254.81 212.02 256.27 209.41 257.5 206.97C258.68 204.52 259.66 202.26 260.35 200.32C260.73 199.36 261 198.47 261.26 197.69C261.53 196.91 261.73 196.24 261.88 195.68C262.03 195.18 262.16 194.76 262.26 194.41C262.36 194.15 262.42 194 262.43 194Z" fill="#263238"/>
<path d="M260.11 171.42C260.13 171.42 260.1 171.68 260.02 172.16C259.93 172.69 259.8 173.39 259.65 174.26C259.49 175.17 259.28 176.28 258.95 177.55C258.63 178.82 258.33 180.29 257.83 181.87C257.6 182.66 257.35 183.49 257.1 184.36C256.84 185.22 256.5 186.1 256.19 187.02C255.59 188.87 254.78 190.79 253.96 192.81C252.22 196.82 250.07 201.13 247.45 205.45C244.79 209.75 241.93 213.63 239.15 217C237.72 218.65 236.38 220.24 235.01 221.62C234.33 222.32 233.7 223.02 233.05 223.64C232.4 224.26 231.77 224.86 231.17 225.43C229.99 226.59 228.83 227.53 227.84 228.39C226.86 229.26 225.96 229.96 225.22 230.51C224.52 231.04 223.95 231.47 223.52 231.79C223.13 232.08 222.92 232.22 222.91 232.21C222.9 232.2 223.09 232.02 223.46 231.71C223.87 231.37 224.42 230.92 225.09 230.35C225.81 229.77 226.68 229.06 227.64 228.17C228.61 227.29 229.75 226.34 230.91 225.16C231.5 224.58 232.12 223.98 232.76 223.36C233.4 222.73 234.02 222.03 234.69 221.33C236.04 219.94 237.36 218.35 238.78 216.7C241.53 213.32 244.36 209.46 247 205.18C249.6 200.88 251.76 196.6 253.51 192.62C254.34 190.61 255.16 188.71 255.77 186.87C256.09 185.96 256.43 185.09 256.7 184.23C256.97 183.37 257.22 182.55 257.46 181.76C257.98 180.2 258.31 178.74 258.65 177.48C259 176.22 259.24 175.12 259.43 174.21C259.62 173.35 259.78 172.66 259.89 172.14C260.03 171.67 260.1 171.42 260.11 171.42Z" fill="#263238"/>
<path d="M206.656 54.2988H204.078C204.092 53.0814 204.214 52.0501 204.443 51.2051C204.673 50.36 205.045 49.5794 205.561 48.8633C206.076 48.1471 206.771 47.3594 207.645 46.5C208.404 45.7409 209.077 45.0391 209.664 44.3945C210.251 43.7357 210.71 43.0124 211.039 42.2246C211.383 41.4368 211.555 40.4701 211.555 39.3242C211.555 38.1927 211.354 37.1973 210.953 36.3379C210.552 35.4785 209.951 34.8053 209.148 34.3184C208.346 33.8314 207.344 33.5879 206.141 33.5879C205.038 33.5879 204.049 33.8027 203.176 34.2324C202.316 34.6621 201.636 35.2852 201.135 36.1016C200.648 36.9036 200.39 37.8776 200.361 39.0234H197.805C197.833 37.3906 198.22 36.0013 198.965 34.8555C199.724 33.6953 200.727 32.8145 201.973 32.2129C203.233 31.597 204.622 31.2891 206.141 31.2891C207.859 31.2891 209.306 31.6257 210.48 32.2988C211.669 32.972 212.572 33.9102 213.188 35.1133C213.818 36.3164 214.133 37.7129 214.133 39.3027C214.133 40.5775 213.918 41.7305 213.488 42.7617C213.059 43.7786 212.464 44.7383 211.705 45.6406C210.946 46.543 210.065 47.4525 209.062 48.3691C208.146 49.1569 207.516 50.0592 207.172 51.0762C206.828 52.0788 206.656 53.153 206.656 54.2988ZM203.734 61.4746C203.734 60.9876 203.892 60.5794 204.207 60.25C204.522 59.9062 204.952 59.7344 205.496 59.7344C206.04 59.7344 206.47 59.9062 206.785 60.25C207.115 60.5794 207.279 60.9876 207.279 61.4746C207.279 61.9473 207.115 62.3555 206.785 62.6992C206.47 63.0286 206.04 63.1934 205.496 63.1934C204.952 63.1934 204.522 63.0286 204.207 62.6992C203.892 62.3555 203.734 61.9473 203.734 61.4746Z" fill="#00B7A7"/>
</svg>
