<svg width="208" height="38" viewBox="0 0 208 38" fill="none" xmlns="http://www.w3.org/2000/svg">
<rect x="1" y="13.1936" width="7.14286" height="13.4286" stroke="black" stroke-width="2"/>
<rect x="12.4286" y="15.4795" width="7.14286" height="11.1429" stroke="black" stroke-width="2"/>
<rect x="23.8572" y="5.1936" width="7.14286" height="21.4286" stroke="black" stroke-width="2"/>
<path d="M53.648 10.768C53.648 11.328 53.448 11.808 53.048 12.208C52.648 12.608 52.168 12.808 51.608 12.808C51.048 12.808 50.568 12.608 50.168 12.208C49.768 11.808 49.568 11.328 49.568 10.768C49.568 10.208 49.768 9.728 50.168 9.328C50.568 8.928 51.048 8.728 51.608 8.728C52.168 8.728 52.648 8.928 53.048 9.328C53.448 9.728 53.648 10.208 53.648 10.768ZM43.808 28.312L43.448 16.912H41.672L41.192 15.064L43.376 14.848L43.328 13.264V13C43.328 11.448 43.776 10.368 44.672 9.76C45.584 9.152 47.032 8.84 49.016 8.824L49.448 10.792C48.376 10.792 47.64 10.968 47.24 11.32C46.84 11.672 46.64 12.344 46.64 13.336V14.512L49.16 14.248V16.912H46.64V28L43.808 28.312ZM49.904 28.336V14.272L53.336 14.68L52.856 28L49.904 28.336ZM65.7659 28.312V19.36C65.7659 18.56 65.5179 17.952 65.0219 17.536C64.5419 17.104 63.9579 16.888 63.2699 16.888C62.5819 16.888 61.9499 17.072 61.3739 17.44C60.8139 17.808 60.4219 18.344 60.1979 19.048V28L57.2699 28.312L56.7899 14.272L60.1979 14.68V16.24C60.5179 15.632 60.9899 15.176 61.6139 14.872C62.2539 14.552 63.1259 14.392 64.2299 14.392C65.2059 14.392 66.0619 14.6 66.7979 15.016C67.5499 15.432 68.1259 16 68.5259 16.72C68.9419 17.424 69.1259 18.224 69.0779 19.12L68.5979 28L65.7659 28.312ZM82.3102 28.24C81.9102 27.92 81.5982 27.616 81.3742 27.328C81.1662 27.024 80.9902 26.664 80.8462 26.248C80.5582 26.744 80.1502 27.144 79.6222 27.448C79.0942 27.736 78.5022 27.944 77.8462 28.072C77.2062 28.2 76.5502 28.264 75.8782 28.264C74.5182 28.264 73.4942 27.952 72.8062 27.328C72.1182 26.704 71.7582 25.832 71.7262 24.712V24.616C71.7262 23.336 72.1342 22.328 72.9502 21.592C73.7662 20.856 74.9022 20.328 76.3582 20.008C77.3502 19.784 78.1822 19.544 78.8542 19.288C79.5422 19.016 79.8862 18.712 79.8862 18.376C79.8862 17.304 79.0462 16.768 77.3662 16.768C76.5182 16.768 75.6942 16.936 74.8942 17.272C74.0942 17.592 73.4382 17.976 72.9262 18.424L71.9662 16.696C72.5262 15.96 73.2942 15.392 74.2702 14.992C75.2622 14.592 76.3822 14.392 77.6302 14.392C79.4862 14.392 80.8782 14.736 81.8062 15.424C82.7502 16.096 83.2222 17.16 83.2222 18.616V24.064C83.2222 24.688 83.3422 25.304 83.5822 25.912C83.8222 26.52 84.1662 27.048 84.6142 27.496L82.3102 28.24ZM75.0382 24.376C75.0542 24.808 75.1822 25.176 75.4222 25.48C75.6622 25.784 76.0222 25.936 76.5022 25.936C77.2062 25.936 77.8942 25.736 78.5662 25.336C79.2382 24.936 79.7022 24.432 79.9582 23.824C80.0382 23.648 80.0862 23.432 80.1022 23.176C80.1342 22.904 80.1502 22.624 80.1502 22.336C80.1502 21.92 80.1342 21.544 80.1022 21.208C80.0702 20.872 80.0542 20.704 80.0542 20.704C79.7022 20.976 79.2462 21.208 78.6862 21.4C78.1422 21.592 77.5662 21.776 76.9582 21.952C76.3662 22.112 75.8942 22.376 75.5422 22.744C75.2062 23.112 75.0382 23.6 75.0382 24.208V24.376ZM95.8597 28.312V19.36C95.8597 18.56 95.6117 17.952 95.1157 17.536C94.6357 17.104 94.0517 16.888 93.3637 16.888C92.6757 16.888 92.0437 17.072 91.4677 17.44C90.9077 17.808 90.5157 18.344 90.2917 19.048V28L87.3637 28.312L86.8837 14.272L90.2917 14.68V16.24C90.6117 15.632 91.0837 15.176 91.7077 14.872C92.3477 14.552 93.2197 14.392 94.3237 14.392C95.2997 14.392 96.1557 14.6 96.8917 15.016C97.6437 15.432 98.2197 16 98.6197 16.72C99.0357 17.424 99.2197 18.224 99.1717 19.12L98.6917 28L95.8597 28.312ZM101.676 28V25.6L108.66 17.344L102.684 17.368L102.204 15.16L112.356 14.296L112.836 17.32L104.796 25.672L113.148 24.88V28H101.676ZM116.746 28.312L116.386 16.912H114.61L114.13 15.064L116.314 14.848L116.266 13.264V13C116.266 11.448 116.714 10.368 117.61 9.76C118.522 9.152 119.97 8.84 121.954 8.824L122.386 10.792C121.314 10.792 120.578 10.968 120.178 11.32C119.778 11.672 119.578 12.344 119.578 13.336V14.512L122.098 14.248V16.912H119.578V28L116.746 28.312ZM134.037 28.24C133.637 27.92 133.325 27.616 133.101 27.328C132.893 27.024 132.717 26.664 132.573 26.248C132.285 26.744 131.877 27.144 131.349 27.448C130.821 27.736 130.229 27.944 129.573 28.072C128.933 28.2 128.277 28.264 127.605 28.264C126.245 28.264 125.221 27.952 124.533 27.328C123.845 26.704 123.485 25.832 123.453 24.712V24.616C123.453 23.336 123.861 22.328 124.677 21.592C125.493 20.856 126.629 20.328 128.085 20.008C129.077 19.784 129.909 19.544 130.581 19.288C131.269 19.016 131.613 18.712 131.613 18.376C131.613 17.304 130.773 16.768 129.093 16.768C128.245 16.768 127.421 16.936 126.621 17.272C125.821 17.592 125.165 17.976 124.653 18.424L123.693 16.696C124.253 15.96 125.021 15.392 125.997 14.992C126.989 14.592 128.109 14.392 129.357 14.392C131.213 14.392 132.605 14.736 133.533 15.424C134.477 16.096 134.949 17.16 134.949 18.616V24.064C134.949 24.688 135.069 25.304 135.309 25.912C135.549 26.52 135.893 27.048 136.341 27.496L134.037 28.24ZM126.765 24.376C126.781 24.808 126.909 25.176 127.149 25.48C127.389 25.784 127.749 25.936 128.229 25.936C128.933 25.936 129.621 25.736 130.293 25.336C130.965 24.936 131.429 24.432 131.685 23.824C131.765 23.648 131.813 23.432 131.829 23.176C131.861 22.904 131.877 22.624 131.877 22.336C131.877 21.92 131.861 21.544 131.829 21.208C131.797 20.872 131.781 20.704 131.781 20.704C131.429 20.976 130.973 21.208 130.413 21.4C129.869 21.592 129.293 21.776 128.685 21.952C128.093 22.112 127.621 22.376 127.269 22.744C126.933 23.112 126.765 23.6 126.765 24.208V24.376ZM142.546 10.768C142.546 11.328 142.346 11.808 141.946 12.208C141.546 12.608 141.066 12.808 140.506 12.808C139.946 12.808 139.466 12.608 139.066 12.208C138.666 11.808 138.466 11.328 138.466 10.768C138.466 10.208 138.666 9.728 139.066 9.328C139.466 8.928 139.946 8.728 140.506 8.728C141.066 8.728 141.546 8.928 141.946 9.328C142.346 9.728 142.546 10.208 142.546 10.768ZM138.802 28.336V14.272L142.234 14.68L141.754 28L138.802 28.336ZM146.051 28.24L145.571 8.8L148.979 9.28V15.976C149.267 15.48 149.747 15.096 150.419 14.824C151.091 14.536 151.835 14.392 152.651 14.392C154.411 14.392 155.819 14.984 156.875 16.168C157.931 17.336 158.459 19.056 158.459 21.328C158.459 23.616 157.923 25.344 156.851 26.512C155.779 27.68 154.387 28.264 152.675 28.264C151.795 28.264 150.979 28.104 150.227 27.784C149.491 27.448 148.963 27.008 148.643 26.464L148.403 27.688L146.051 28.24ZM148.907 24.16C149.163 24.672 149.539 25.104 150.035 25.456C150.531 25.808 151.131 25.984 151.835 25.984C152.443 25.984 153.011 25.84 153.539 25.552C154.083 25.248 154.523 24.76 154.859 24.088C155.195 23.4 155.363 22.48 155.363 21.328C155.363 20.192 155.203 19.296 154.883 18.64C154.563 17.968 154.131 17.488 153.587 17.2C153.059 16.912 152.467 16.768 151.811 16.768C151.283 16.768 150.795 16.904 150.347 17.176C149.915 17.432 149.563 17.784 149.291 18.232C149.035 18.68 148.907 19.192 148.907 19.768V24.16ZM161.349 28.312V8.8L164.829 9.28L164.349 28L161.349 28.312ZM179.852 25.648C179.388 26.272 178.892 26.776 178.364 27.16C177.852 27.544 177.26 27.824 176.588 28C175.916 28.176 175.092 28.264 174.116 28.264C172.724 28.264 171.532 27.96 170.54 27.352C169.548 26.728 168.788 25.896 168.26 24.856C167.732 23.8 167.468 22.624 167.468 21.328C167.468 20.016 167.74 18.84 168.284 17.8C168.828 16.744 169.588 15.912 170.564 15.304C171.556 14.696 172.708 14.392 174.02 14.392C175.3 14.392 176.396 14.688 177.308 15.28C178.236 15.856 178.948 16.688 179.444 17.776C179.94 18.848 180.188 20.128 180.188 21.616V22.024H171.5L170.972 20.152L176.876 19.672C176.828 18.824 176.588 18.136 176.156 17.608C175.74 17.064 175.068 16.792 174.14 16.792C173.068 16.792 172.18 17.192 171.476 17.992C170.788 18.776 170.444 19.896 170.444 21.352C170.444 22.392 170.636 23.256 171.02 23.944C171.42 24.616 171.916 25.12 172.508 25.456C173.116 25.776 173.724 25.936 174.332 25.936C175.356 25.936 176.268 25.768 177.068 25.432C177.884 25.08 178.524 24.608 178.988 24.016L179.852 25.648Z" fill="black"/>
</svg>
