<svg width="48" height="48" viewBox="0 0 48 48" fill="none" xmlns="http://www.w3.org/2000/svg">
<g clip-path="url(#clip0_122_322)">
<path d="M-4.14059e-05 39.024C-4.14059e-05 39.856 0.287959 40.56 0.863959 41.136C1.43996 41.712 2.15996 42 3.02396 42H45.024C45.824 42 46.528 41.712 47.136 41.136C47.744 40.56 48.032 39.856 48 39.024V15.024H-4.14059e-05V39.024ZM-4.14059e-05 12H48V9.024C48 8.192 47.712 7.488 47.136 6.912C46.56 6.336 45.856 6.032 45.024 6H3.02396C2.19196 6 1.47196 6.304 0.863959 6.912C0.255959 7.52 -0.0320414 8.224 -4.14059e-05 9.024V12ZM15.024 28.512C15.024 26.432 15.744 24.672 17.184 23.232C18.624 21.792 20.4 21.056 22.512 21.024C23.824 21.024 25.072 21.376 26.256 22.08C24.752 24 24 26.144 24 28.512C24 30.88 24.752 33.024 26.256 34.944C25.072 35.648 23.824 36 22.512 36C20.432 36 18.656 35.28 17.184 33.84C15.712 32.4 14.992 30.624 15.024 28.512ZM27.024 28.512C27.024 26.432 27.744 24.672 29.184 23.232C30.624 21.792 32.4 21.056 34.512 21.024C36.624 20.992 38.384 21.728 39.792 23.232C41.2 24.736 41.936 26.496 42 28.512C42.064 30.528 41.328 32.304 39.792 33.84C38.256 35.376 36.496 36.096 34.512 36C32.528 35.904 30.752 35.184 29.184 33.84C27.616 32.496 26.896 30.72 27.024 28.512Z" fill="#2C8981"/>
</g>
<defs>
<clipPath id="clip0_122_322">
<rect width="48" height="48" fill="white"/>
</clipPath>
</defs>
</svg>
