<svg width="14" height="10" viewBox="0 0 14 10" fill="none" xmlns="http://www.w3.org/2000/svg">
<path d="M8.39862 9.39579C8.23196 9.22913 8.15196 9.02774 8.15862 8.79163C8.16529 8.55551 8.25223 8.35413 8.41946 8.18746L10.7736 5.83329H1.48196C1.24585 5.83329 1.04779 5.75329 0.88779 5.59329C0.72779 5.43329 0.648068 5.23551 0.648623 4.99996C0.648623 4.76385 0.728624 4.56579 0.888624 4.40579C1.04862 4.24579 1.2464 4.16607 1.48196 4.16663H10.7736L8.39862 1.79163C8.23196 1.62496 8.14862 1.4269 8.14862 1.19746C8.14862 0.968015 8.23196 0.770237 8.39862 0.604126C8.56529 0.437459 8.76335 0.354126 8.99279 0.354126C9.22223 0.354126 9.42001 0.437459 9.58612 0.604126L13.3986 4.41663C13.482 4.49996 13.5411 4.59024 13.5761 4.68746C13.6111 4.78468 13.6283 4.88885 13.6278 4.99996C13.6278 5.11107 13.6103 5.21524 13.5753 5.31246C13.5403 5.40968 13.4814 5.49996 13.3986 5.58329L9.56529 9.41663C9.41251 9.5694 9.22168 9.64579 8.99279 9.64579C8.7639 9.64579 8.56585 9.56246 8.39862 9.39579Z" fill="white"/>
</svg>
