<svg width="58" height="58" viewBox="0 0 58 58" fill="none" xmlns="http://www.w3.org/2000/svg">
<path d="M52.4385 29.2457C52.4385 33.8814 51.0639 38.413 48.4884 42.2675C45.913 46.1219 42.2524 49.1261 37.9695 50.9001C33.6867 52.6741 28.974 53.1382 24.4274 52.2339C19.8808 51.3295 15.7044 49.0972 12.4265 45.8192C9.14858 42.5413 6.91628 38.365 6.0119 33.8184C5.10752 29.2717 5.57168 24.559 7.34568 20.2762C9.11969 15.9934 12.1239 12.3328 15.9783 9.75735C19.8327 7.18189 24.3643 5.80725 29 5.80725C32.078 5.80725 35.1259 6.41351 37.9695 7.5914C40.8132 8.76929 43.3971 10.4958 45.5735 12.6722C47.75 14.8487 49.4765 17.4325 50.6544 20.2762C51.8323 23.1199 52.4385 26.1678 52.4385 29.2457ZM45.0372 28.1148C45.0348 27.401 44.7503 26.7171 44.2455 26.2124C43.7408 25.7077 43.0569 25.4231 42.3431 25.4207H41.2921C40.7896 23.8786 39.9467 22.4692 38.826 21.2967C38.6083 19.3037 38.9886 17.291 39.9184 15.5148C39.9627 15.4304 39.9859 15.3365 39.9859 15.2412C39.9859 15.1459 39.9628 15.052 39.9186 14.9675C39.8743 14.8831 39.8103 14.8107 39.7319 14.7565C39.6535 14.7022 39.5631 14.6679 39.4684 14.6563C39.3409 14.6408 39.2119 14.6679 39.1013 14.7332L33.1862 18.1763C32.4674 18.0283 31.7353 17.9539 31.0013 17.9543H26.4599C23.9535 17.9546 21.5249 18.8244 19.5883 20.4155C17.6517 22.0066 16.3271 24.2203 15.8405 26.679C15.297 26.6994 14.7827 26.9296 14.4054 27.3213C14.0281 27.713 13.8174 28.2356 13.8174 28.7795C13.8174 29.3233 14.0281 29.8459 14.4054 30.2376C14.7827 30.6293 15.297 30.8595 15.8405 30.8799C16.2562 32.984 17.2877 34.9171 18.804 36.4339C18.9875 36.6155 19.176 36.7901 19.3694 36.9579V41.5556C19.3702 41.8412 19.484 42.1148 19.6859 42.3167C19.8878 42.5187 20.1615 42.6325 20.4471 42.6332H23.8902C24.1762 42.6332 24.4506 42.5198 24.6532 42.3178C24.8558 42.1158 24.97 41.8417 24.9707 41.5556V39.501C25.4641 39.5699 25.9617 39.6045 26.4599 39.6046H31.0013C31.4995 39.6045 31.9971 39.5699 32.4905 39.501V41.5556C32.4913 41.8417 32.6055 42.1158 32.808 42.3178C33.0106 42.5198 33.285 42.6332 33.5711 42.6332H37.0142C37.2997 42.6325 37.5734 42.5187 37.7753 42.3167C37.9772 42.1148 38.091 41.8412 38.0918 41.5556V36.9579C38.2852 36.7901 38.4727 36.6155 38.6543 36.4339C39.8591 35.2293 40.7629 33.7576 41.2921 32.1382H42.3401C43.0539 32.1358 43.7378 31.8512 44.2426 31.3465C44.7473 30.8418 45.0319 30.1579 45.0342 29.4441L45.0372 28.1148ZM31.9221 19.5855C32.0636 19.5855 32.2037 19.6134 32.3345 19.6676C32.4652 19.7217 32.584 19.8011 32.6841 19.9012C32.7841 20.0012 32.8635 20.12 32.9177 20.2508C32.9718 20.3815 32.9997 20.5217 32.9997 20.6632C32.9997 20.8047 32.9718 20.9448 32.9177 21.0756C32.8635 21.2063 32.7841 21.3251 32.6841 21.4252C32.584 21.5252 32.4652 21.6046 32.3345 21.6588C32.2037 21.7129 32.0636 21.7408 31.9221 21.7408H25.9329C25.7914 21.7408 25.6513 21.7129 25.5205 21.6588C25.3898 21.6046 25.271 21.5252 25.1709 21.4252C25.0708 21.3251 24.9915 21.2063 24.9373 21.0756C24.8832 20.9448 24.8553 20.8047 24.8553 20.6632C24.8553 20.5217 24.8832 20.3815 24.9373 20.2508C24.9915 20.12 25.0708 20.0012 25.1709 19.9012C25.271 19.8011 25.3898 19.7217 25.5205 19.6676C25.6513 19.6134 25.7914 19.5855 25.9329 19.5855H31.928H31.9221ZM31.9132 30.5454C32.3613 31.0577 32.6085 31.7151 32.6089 32.3957C32.6071 32.8777 32.4788 33.3507 32.2366 33.7674C31.9945 34.1841 31.6471 34.5299 31.2293 34.7701C30.8213 35.0296 30.3731 35.2196 29.903 35.3326V35.904C29.903 36.1902 29.7893 36.4646 29.5869 36.667C29.3845 36.8694 29.1101 36.9831 28.8239 36.9831C28.5377 36.9831 28.2632 36.8694 28.0608 36.667C27.8584 36.4646 27.7448 36.1902 27.7448 35.904V35.3474C27.456 35.2831 27.1736 35.193 26.901 35.078C26.4353 34.8862 26.0229 34.5845 25.699 34.1987C25.5118 33.9828 25.4179 33.7013 25.4382 33.4162C25.4585 33.1311 25.5912 32.8657 25.8071 32.6785C26.023 32.4912 26.3045 32.3974 26.5896 32.4176C26.8747 32.4379 27.1401 32.5706 27.3273 32.7865C27.4267 32.9116 27.5546 33.0111 27.7003 33.0767C27.8681 33.1491 28.0426 33.2046 28.2214 33.2424C28.4071 33.2788 28.595 33.3026 28.7839 33.3135C29.2321 33.3122 29.6718 33.1906 30.0569 32.9612C30.4536 32.7066 30.4536 32.4964 30.4536 32.3957C30.4521 32.2364 30.3932 32.083 30.2879 31.9635C30.1695 31.8295 30.0294 31.7164 29.8734 31.629C29.7084 31.5446 29.5333 31.4819 29.3523 31.4424C29.1828 31.4078 29.0102 31.3909 28.8372 31.3921C28.5357 31.3936 28.2347 31.3698 27.9372 31.3211C27.5339 31.2538 27.1428 31.1271 26.7767 30.9451C26.3488 30.7308 25.9714 30.4281 25.6694 30.0569C25.2507 29.5499 25.0187 28.9145 25.0122 28.2569C25.0214 27.7584 25.1589 27.2707 25.4114 26.8408C25.664 26.4109 26.023 26.0534 26.454 25.8026C26.8525 25.5561 27.2884 25.3761 27.7448 25.2698V24.725C27.7448 24.4388 27.8584 24.1643 28.0608 23.962C28.2632 23.7596 28.5377 23.6459 28.8239 23.6459C29.1101 23.6459 29.3845 23.7596 29.5869 23.962C29.7893 24.1643 29.903 24.4388 29.903 24.725V25.2964C30.1997 25.3717 30.4891 25.4738 30.7675 25.6013C31.1571 25.7777 31.512 26.0224 31.8155 26.3237C32.0181 26.5255 32.1322 26.7995 32.1327 27.0854C32.1333 27.3713 32.0202 27.6458 31.8184 27.8484C31.6166 28.0509 31.3426 28.1651 31.0567 28.1656C30.7708 28.1662 30.4963 28.0531 30.2938 27.8513C30.1735 27.7329 30.0331 27.6366 29.8793 27.5671C29.7083 27.4875 29.5298 27.425 29.3464 27.3806L29.2872 27.3688C29.1444 27.3316 28.9989 27.3058 28.852 27.2918C28.4141 27.2903 27.9838 27.4058 27.6056 27.6263C27.484 27.6841 27.3795 27.7727 27.3027 27.8833C27.2258 27.994 27.1792 28.1227 27.1675 28.2569C27.1774 28.4184 27.2398 28.5723 27.3451 28.6951C27.4537 28.8281 27.5888 28.937 27.7418 29.0148C27.9157 29.1006 28.1012 29.1605 28.2925 29.1924C28.4725 29.2215 28.6548 29.2354 28.8372 29.2339C29.1636 29.234 29.4891 29.2687 29.8082 29.3375C30.1799 29.4181 30.5393 29.5475 30.877 29.7224C31.2688 29.9326 31.6197 30.2114 31.9132 30.5454Z" fill="#2C8981"/>
<rect x="21" y="23" width="15" height="15" fill="#EEEEEE"/>
<path d="M30.0587 28.3279H23V29.9985H30.0587V28.3279Z" fill="#2C8981"/>
<path d="M30.0587 31.2845H23V32.955H30.0587V31.2845Z" fill="#2C8981"/>
<path d="M32.2345 35.1068C31.7723 35.3317 31.2105 35.4442 30.5495 35.4442C29.2702 35.4442 28.3036 35.0888 27.4225 34.1495C26.541 33.2107 26.1005 32.0579 26.1005 30.6918C26.1005 29.3257 26.541 28.1394 27.4225 27.1834C28.2987 26.2221 29.2623 25.8552 30.5415 25.8552C31.0526 25.8552 31.5567 25.9482 32.0532 26.133L32.8051 24.4833C32.0479 24.1618 31.4658 24 30.6708 24C28.6229 24 27.068 24.6817 25.7781 26.2728C24.7299 27.5715 24.2061 29.0501 24.2061 30.7086C24.2061 32.5585 24.8322 34.138 26.0846 35.4482C27.3423 36.7468 28.7468 37.2826 30.5257 37.2826C31.3785 37.2826 32.2031 37.1164 33 36.7861L32.6018 34.9238C32.4774 34.9935 32.3553 35.0548 32.2353 35.1068H32.2345Z" fill="#2C8981"/>
</svg>
