<svg width="60" height="60" viewBox="0 0 60 60" fill="none" xmlns="http://www.w3.org/2000/svg">
<path d="M30.5 32.5H22.5C21.7917 32.5 21.1975 32.26 20.7175 31.78C20.2375 31.3 19.9983 30.7067 20 30C20 29.2917 20.24 28.6975 20.72 28.2175C21.2 27.7375 21.7933 27.4983 22.5 27.5H30.5L28.25 25.25C27.7917 24.7917 27.5625 24.2083 27.5625 23.5C27.5625 22.7917 27.7917 22.2083 28.25 21.75C28.7083 21.2917 29.2917 21.0625 30 21.0625C30.7083 21.0625 31.2917 21.2917 31.75 21.75L38.25 28.25C38.75 28.75 39 29.3333 39 30C39 30.6667 38.75 31.25 38.25 31.75L31.75 38.25C31.2917 38.7083 30.7083 38.9375 30 38.9375C29.2917 38.9375 28.7083 38.7083 28.25 38.25C27.7917 37.7917 27.5625 37.2083 27.5625 36.5C27.5625 35.7917 27.7917 35.2083 28.25 34.75L30.5 32.5ZM30 55C33.4583 55 36.7083 54.3433 39.75 53.03C42.7917 51.7167 45.4375 49.9358 47.6875 47.6875C49.9375 45.4375 51.7183 42.7917 53.03 39.75C54.3417 36.7083 54.9983 33.4583 55 30C55 26.5417 54.3433 23.2917 53.03 20.25C51.7167 17.2083 49.9358 14.5625 47.6875 12.3125C45.4375 10.0625 42.7917 8.28167 39.75 6.97C36.7083 5.65833 33.4583 5.00167 30 5C26.5417 5 23.2917 5.65667 20.25 6.97C17.2083 8.28333 14.5625 10.0642 12.3125 12.3125C10.0625 14.5625 8.28083 17.2083 6.9675 20.25C5.65417 23.2917 4.99833 26.5417 5 30C5 33.4583 5.65667 36.7083 6.97 39.75C8.28333 42.7917 10.0642 45.4375 12.3125 47.6875C14.5625 49.9375 17.2083 51.7192 20.25 53.0325C23.2917 54.3458 26.5417 55.0017 30 55ZM30 50C24.4167 50 19.6875 48.0625 15.8125 44.1875C11.9375 40.3125 10 35.5833 10 30C10 24.4167 11.9375 19.6875 15.8125 15.8125C19.6875 11.9375 24.4167 10 30 10C35.5833 10 40.3125 11.9375 44.1875 15.8125C48.0625 19.6875 50 24.4167 50 30C50 35.5833 48.0625 40.3125 44.1875 44.1875C40.3125 48.0625 35.5833 50 30 50Z" fill="#2C8981"/>
</svg>
