<svg width="55" height="55" viewBox="0 0 55 55" fill="none" xmlns="http://www.w3.org/2000/svg">
<path d="M39.2708 31.407C33.8465 31.407 29.4492 35.8043 29.4492 41.2286C29.4492 46.6528 33.8465 51.0501 39.2708 51.0501C44.6951 51.0501 49.0924 46.6528 49.0924 41.2286C49.0924 35.8043 44.6951 31.407 39.2708 31.407ZM39.2708 47.1212C36.0213 47.1212 33.3782 44.4775 33.3782 41.2286C33.3782 37.9791 36.0218 35.3359 39.2708 35.3359C42.5203 35.3359 45.1634 37.9796 45.1634 41.2286C45.164 44.4775 42.5203 47.1212 39.2708 47.1212Z" fill="#2C8981"/>
<path d="M35.3289 39.7547H43.1862V42.7012H35.3289V39.7547ZM11.79 25.5331H23.5758V29.4615H11.79V25.5331Z" fill="#2C8981"/>
<path d="M9.80791 19.6728H41.2621V29.3128H45.1905V7.82144C45.1905 5.67515 43.4449 3.92847 41.2986 3.92847H39.8291C38.2607 3.92847 36.8723 4.82705 36.2906 6.21602C35.9839 6.94702 34.7953 6.94863 34.4886 6.21602C33.9053 4.82598 32.5169 3.92847 30.9496 3.92847H29.9742C28.4059 3.92847 27.0174 4.82705 26.4357 6.21602C26.1291 6.94702 24.9404 6.94863 24.6337 6.21602C24.0504 4.82598 22.662 3.92847 21.0947 3.92847H20.1585C18.5902 3.92847 17.2018 4.82705 16.6201 6.21602C16.3134 6.94702 15.1248 6.94863 14.8181 6.21602C14.2348 4.82598 12.8463 3.92847 11.2791 3.92847H9.79824C7.65195 3.92847 5.90527 5.67515 5.90527 7.82144V51.0652H27.4546V47.1368H9.83101L9.80791 19.6728ZM11.1942 7.73442C11.9606 9.56436 13.7358 10.7471 15.7183 10.7471C17.6997 10.7471 19.4753 9.56543 20.158 7.85742L21.0099 7.73442C21.7763 9.56436 23.5515 10.7471 25.5339 10.7471C27.5153 10.7471 29.291 9.56543 29.9737 7.85742L30.8647 7.73442C31.6312 9.56436 33.4063 10.7471 35.3888 10.7471C37.3702 10.7471 39.1459 9.56543 39.8286 7.85742L41.2616 7.82197V15.7443H9.80415L9.7977 7.85742L11.1942 7.73442Z" fill="#2C8981"/>
</svg>
